<svg width="130" height="112" viewBox="0 0 130 112" fill="none" xmlns="http://www.w3.org/2000/svg">
<path d="M23.5973 66.3993C27.9414 62.0566 27.9414 55.0157 23.5973 50.6729C19.2531 46.3302 12.2099 46.3302 7.86576 50.6729C3.52162 55.0157 3.52162 62.0566 7.86576 66.3993C12.2099 70.7421 19.2532 70.7421 23.5973 66.3993Z" fill="#C799AE"/>
<path d="M40.5005 64.0876L50.3079 54.2833C51.7962 52.7955 54.1812 52.7955 55.6695 54.2833L66.5836 65.1939C68.0719 66.6817 68.0719 69.066 66.5836 70.5538L48.6669 88.4646C42.046 95.0834 31.3227 95.0834 24.7208 88.4646L11.2881 75.0744C17.0123 76.6004 23.347 75.1316 27.8309 70.6491C30.5022 67.9787 32.105 64.6598 32.6393 61.1883L35.5395 64.0876C36.9133 65.4609 39.1267 65.4609 40.5005 64.0876Z" fill="#730034"/>
<path d="M63.6261 2.68711L68.2245 7.28403C71.8117 10.87 71.8117 16.7068 68.2245 20.3118L32.6583 55.8855C32.1241 52.4331 30.5213 49.0951 27.85 46.4247C23.3661 41.9422 17.0123 40.4734 11.2881 41.9994L50.5941 2.70618C54.2003 -0.898875 60.039 -0.898875 63.6261 2.68711Z" fill="#730034"/>
<path d="M121.825 61.3344C126.169 56.9917 126.169 49.9507 121.825 45.608C117.481 41.2652 110.437 41.2653 106.093 45.608C101.749 49.9507 101.749 56.9917 106.093 61.3344C110.437 65.6771 117.481 65.6771 121.825 61.3344Z" fill="#C799AE"/>
<path d="M89.2135 47.9124L79.4061 57.7167C77.9178 59.2045 75.5327 59.2045 74.0445 57.7167L63.1304 46.8061C61.6421 45.3183 61.6421 42.934 63.1304 41.4462L81.047 23.5354C87.668 16.9166 98.3913 16.9166 104.993 23.5354L118.388 36.9256C112.664 35.3997 106.329 36.8684 101.845 41.3509C99.1736 44.0213 97.5708 47.3402 97.0366 50.8118L94.1363 47.9124C92.7816 46.5582 90.5682 46.5582 89.2135 47.9124Z" fill="#730034"/>
<path d="M66.0686 109.313L61.4701 104.716C57.883 101.13 57.883 95.2933 61.4701 91.6882L97.0554 56.1145C97.5897 59.567 99.1924 62.905 101.864 65.5754C106.348 70.0579 112.701 71.5266 118.407 70.0006L79.1006 109.294C75.4944 112.899 69.6557 112.899 66.0686 109.313Z" fill="#730034"/>
</svg>
