<svg width="129" height="112" viewBox="0 0 129 112" fill="none" xmlns="http://www.w3.org/2000/svg">
<path d="M23.4119 65.8776C27.7219 61.569 27.7219 54.5834 23.4119 50.2748C19.1019 45.9661 12.114 45.9661 7.80396 50.2748C3.49395 54.5834 3.49395 61.569 7.80396 65.8776C12.114 70.1862 19.1019 70.1862 23.4119 65.8776Z" fill="#F59993"/>
<path d="M40.1823 63.5839L49.9126 53.8567C51.3892 52.3806 53.7556 52.3806 55.2321 53.8567L66.0605 64.6815C67.5371 66.1576 67.5371 68.5232 66.0605 69.9993L48.2846 87.7694C41.7157 94.3362 31.0766 94.3362 24.5266 87.7694L11.1995 74.4844C16.8787 75.9984 23.1636 74.5412 27.6123 70.0939C30.2626 67.4445 31.8528 64.1516 32.3829 60.7074L35.2603 63.5839C36.6233 64.9465 38.8193 64.9465 40.1823 63.5839Z" fill="#E44C42"/>
<path d="M63.1262 2.66599L67.6885 7.2268C71.2475 10.7846 71.2475 16.5755 67.6885 20.1522L32.4018 55.4464C31.8717 52.0211 30.2816 48.7093 27.6313 46.0599C23.1826 41.6126 16.8787 40.1554 11.1995 41.6694L50.1966 2.68492C53.7745 -0.891812 59.5673 -0.891812 63.1262 2.66599Z" fill="#E44C42"/>
<path d="M120.868 60.8524C125.178 56.5438 125.178 49.5582 120.868 45.2496C116.558 40.941 109.57 40.941 105.26 45.2496C100.95 49.5582 100.95 56.5438 105.26 60.8524C109.57 65.161 116.558 65.1611 120.868 60.8524Z" fill="#F59993"/>
<path d="M88.5122 47.536L78.7819 57.2632C77.3053 58.7393 74.939 58.7393 73.4624 57.2632L62.6341 46.4384C61.1575 44.9623 61.1575 42.5967 62.6341 41.1206L80.4099 23.3505C86.9789 16.7837 97.6179 16.7837 104.168 23.3505L117.457 36.6355C111.778 35.1216 105.493 36.5787 101.044 41.026C98.394 43.6754 96.8039 46.9683 96.2738 50.4125L93.3964 47.536C92.0523 46.1924 89.8563 46.1924 88.5122 47.536Z" fill="#E44C42"/>
<path d="M65.5494 108.454L60.9871 103.893C57.4281 100.335 57.4281 94.5444 60.9871 90.9676L96.2927 55.6735C96.8228 59.0988 98.413 62.4106 101.063 65.06C105.512 69.5073 111.816 70.9645 117.476 69.4505L78.479 108.435C74.9011 112.012 69.1083 112.012 65.5494 108.454Z" fill="#E44C42"/>
</svg>
