<svg width="500" height="377" viewBox="0 0 500 377" fill="none" xmlns="http://www.w3.org/2000/svg">
<path fill-rule="evenodd" clip-rule="evenodd" d="M234.76 6.28339C274.778 -3.40793 319.266 -3.4673 354.747 17.4252C391.78 39.2314 412.219 79.7919 427.691 119.887C443.935 161.983 457.93 207.652 444.811 250.824C431.576 294.377 396.588 328.226 357.361 351.32C320.622 372.95 276.99 380.339 234.76 374.49C196.235 369.154 164.285 345.565 134.576 320.464C106.911 297.091 84.0635 269.542 70.7013 235.88C56.5882 200.326 40.5414 159.362 56.9012 124.784C73.01 90.7372 119.332 87.729 150.677 66.8446C180.143 47.2125 200.347 14.617 234.76 6.28339Z" fill="white"/>
<g clip-path="url(#clip0_1007_8768)">
<path d="M424.136 330.435C461.701 330.435 492.154 325.447 492.154 319.294C492.154 313.141 461.701 308.154 424.136 308.154C386.572 308.154 356.119 313.141 356.119 319.294C356.119 325.447 386.572 330.435 424.136 330.435Z" fill="#EBEBEB"/>
<path d="M248.785 302.023C369.057 302.023 466.557 289.886 466.557 274.913C466.557 259.94 369.057 247.802 248.785 247.802C128.513 247.802 31.0128 259.94 31.0128 274.913C31.0128 289.886 128.513 302.023 248.785 302.023Z" fill="#EBEBEB"/>
<path d="M360.171 224.763H146.429L213.539 68.1109H427.292L360.171 224.763Z" fill="#263238"/>
<path d="M215.117 71.4478H425.864L360.171 224.763H150.224L215.117 71.4478Z" fill="#EBEBEB"/>
<path d="M215.117 71.4478C215.97 86.2185 214.275 101.026 210.107 115.222C203.23 137.716 169.158 182.77 162.527 213.154L150.224 224.763H360.171L425.864 71.4478H215.117Z" fill="#DBDBDB"/>
<path d="M215.117 71.4478C214.358 84.0385 212.424 96.5307 209.339 108.761C207.787 114.898 205.612 120.86 202.846 126.554C200.096 132.247 197.09 137.78 194.062 143.313C187.932 154.316 181.738 165.286 176.055 176.512C173.188 182.119 170.544 187.823 168.06 193.569C165.598 199.363 163.438 205.281 161.589 211.298C163.246 205.214 165.243 199.228 167.569 193.367C169.968 187.535 172.537 181.778 175.32 176.117C180.864 164.785 187.047 153.804 193.134 142.77C196.183 137.258 199.211 131.746 201.972 126.096C204.723 120.46 206.925 114.573 208.55 108.516C210.217 102.45 211.565 96.3007 212.591 90.0938C213.667 83.9638 214.488 77.7164 215.117 71.4478Z" fill="#DBDBDB"/>
<path d="M212.964 80.5416C211.361 92.6717 208.308 104.566 203.87 115.968C201.644 121.665 199.106 127.235 196.269 132.652C193.497 138.1 190.618 143.484 187.74 148.878C181.972 159.625 176.397 170.478 171.525 181.64C170.267 184.422 169.147 187.258 167.974 190.073C166.802 192.887 165.757 195.744 164.776 198.601C162.644 204.326 161.002 210.19 159.36 216.075C162.127 204.166 165.94 192.525 170.757 181.288C175.49 170.019 181.087 159.134 186.748 148.345C189.627 143.015 192.537 137.599 195.277 132.183C198.017 126.768 200.714 121.277 202.985 115.638C205.253 109.984 207.21 104.212 208.849 98.3454C210.581 92.4999 211.955 86.5542 212.964 80.5416Z" fill="#DBDBDB"/>
<path d="M281.802 233.452H487.09L417.601 71.4051H215.117C215.117 71.4051 214.318 95.9254 227.751 131.426C240.405 164.902 263.817 184.998 281.802 233.452Z" fill="white"/>
<path d="M280.597 233.452C277.676 226.629 274.499 219.934 270.949 213.431C267.399 206.927 263.55 200.638 259.542 194.358C251.546 181.896 242.58 170.062 234.787 157.354C230.86 150.996 227.421 144.349 224.499 137.471C221.711 130.515 219.687 123.276 218.465 115.883C217.127 108.556 216.202 101.16 215.693 93.7292C215.123 86.3167 214.931 78.8799 215.117 71.4478C216.028 86.2269 217.808 100.94 220.448 115.51C221.151 119.134 222.015 122.716 222.942 126.277C223.851 129.83 224.98 133.323 226.322 136.736C229.168 143.536 232.525 150.112 236.365 156.405C243.987 169.07 252.708 181.117 260.554 193.719C268.506 206.283 275.218 219.59 280.597 233.452Z" fill="white"/>
<path d="M217.122 76.1279C218.124 82.4072 219.392 88.6439 220.885 94.8166C222.377 100.989 224.083 107.119 226.013 113.154C229.781 125.28 234.749 137.001 240.842 148.143C243.927 153.694 247.054 159.227 250.224 164.742L259.766 181.256C262.964 186.778 266.034 192.333 268.934 198.004C271.834 203.676 274.478 209.465 276.844 215.371C271.612 203.785 265.673 192.53 259.062 181.672C252.569 170.733 246.13 159.753 239.872 148.623C233.782 137.407 228.866 125.592 225.203 113.367C221.463 101.204 218.759 88.7467 217.122 76.1279Z" fill="#EBEBEB"/>
<path d="M286.034 236.789H499.776L427.431 68.1109H213.678L286.034 236.789Z" fill="#37474F"/>
<path d="M423.998 236.789H471.023L398.678 68.1109H351.652L423.998 236.789Z" fill="#455A64"/>
<path d="M308.262 236.789H325.288L252.942 68.1109H235.906L308.262 236.789Z" fill="#455A64"/>
<path d="M215.117 71.4478H428.859L431.13 66.1066H211.311L215.117 71.4478Z" fill="#37474F"/>
<path d="M400.522 282.29H390.661V302.194H400.522V282.29Z" fill="#37474F"/>
<path d="M408.294 282.29H404.179V302.194H408.294V282.29Z" fill="#37474F"/>
<path d="M482.58 282.29H381.684V302.194H482.58V282.29Z" fill="#730034"/>
<path d="M473.412 282.29H463.55V302.194H473.412V282.29Z" fill="#37474F"/>
<path d="M435.682 267.439H365.693V282.29H435.682V267.439Z" fill="#455A64"/>
<path d="M465.874 267.439H435.682V282.29H465.874V267.439Z" fill="#455A64"/>
<path d="M435.682 268.974H365.693V280.744H435.682V268.974Z" fill="white"/>
<path d="M370.224 271.394C375.675 271.323 381.13 271.267 386.588 271.224L402.953 271.171L419.318 271.224C424.769 271.224 430.224 271.281 435.682 271.394C430.224 271.48 424.769 271.54 419.318 271.576L402.953 271.629L386.588 271.576C381.13 271.547 375.675 271.487 370.224 271.394Z" fill="#DBDBDB"/>
<path d="M370.224 273.708C375.675 273.623 381.13 273.566 386.588 273.537L402.953 273.484L419.318 273.537C424.769 273.537 430.224 273.594 435.682 273.708C430.224 273.793 424.769 273.85 419.318 273.878L402.985 273.932L386.62 273.878C381.141 273.85 375.675 273.793 370.224 273.708Z" fill="#DBDBDB"/>
<path d="M370.224 276.021C375.675 275.936 381.13 275.876 386.588 275.84H402.953H419.318C424.769 275.84 430.224 275.901 435.682 276.021C430.224 276.1 424.769 276.156 419.318 276.192L402.985 276.277L386.62 276.224C381.141 276.174 375.675 276.107 370.224 276.021Z" fill="#DBDBDB"/>
<path d="M370.224 278.324C375.675 278.239 381.13 278.182 386.588 278.154L402.953 278.1L419.318 278.154C424.769 278.154 430.224 278.21 435.682 278.324C430.224 278.409 424.769 278.47 419.318 278.505H402.953L386.588 278.452C381.13 278.459 375.675 278.417 370.224 278.324Z" fill="#DBDBDB"/>
<path d="M401.034 322.61H459.669V302.194H401.034V322.61Z" fill="#263238"/>
<path d="M375.725 322.61H401.023V302.194H375.725V322.61Z" fill="#263238"/>
<path d="M401.034 320.488H459.669V304.316H401.034V320.488Z" fill="white"/>
<path d="M455.864 317.162C451.301 317.247 446.731 317.304 442.154 317.333L428.444 317.386L414.712 317.333C410.149 317.333 405.579 317.276 401.002 317.162C405.572 317.077 410.142 317.02 414.712 316.991L428.422 316.938L442.132 316.991C446.716 317.013 451.294 317.07 455.864 317.162Z" fill="#DBDBDB"/>
<path d="M455.864 313.985C451.301 314.07 446.731 314.131 442.153 314.166H428.443H414.733C410.171 314.166 405.601 314.106 401.023 313.985C405.593 313.9 410.163 313.843 414.733 313.814H428.443H442.153C446.723 313.85 451.294 313.907 455.864 313.985Z" fill="#DBDBDB"/>
<path d="M455.864 310.819C451.301 310.897 446.731 310.954 442.154 310.989L428.444 311.043L414.712 310.989C410.149 310.989 405.579 310.932 401.002 310.819C405.572 310.733 410.142 310.673 414.712 310.638L428.422 310.584L442.132 310.638C446.716 310.673 451.294 310.733 455.864 310.819Z" fill="#DBDBDB"/>
<path d="M455.864 307.642C451.301 307.727 446.731 307.784 442.154 307.812L428.444 307.866L414.712 307.812C410.149 307.812 405.579 307.756 401.002 307.642C405.572 307.557 410.142 307.496 414.712 307.461H428.422L442.132 307.514C446.716 307.507 451.294 307.549 455.864 307.642Z" fill="#DBDBDB"/>
<path d="M470.736 253.58H378.529V267.493H470.736V253.58Z" fill="#730034"/>
<path opacity="0.2" d="M470.736 253.58H378.529V267.493H470.736V253.58Z" fill="black"/>
<path d="M422.665 256.426H387.196V264.774H422.665V256.426Z" fill="white"/>
<path d="M467.154 229.902H397.111V253.527H467.154V229.902Z" fill="#730034"/>
<path d="M459.723 229.902H453.198V253.527H459.723V229.902Z" fill="#263238"/>
<path d="M448.913 229.902H446.386V253.527H448.913V229.902Z" fill="#263238"/>
<path d="M120.8 292.343L39.0405 270.808L1.00214 291.203L80.9808 317.855L120.8 292.343Z" fill="#730034"/>
<path d="M115.736 291.97L79.275 315.424L4.31769 290.488L41.0981 270.947C41.0981 270.947 63.4861 273.9 64.5522 274.23C65.6183 274.561 75.4797 278.655 75.4797 278.655C75.4797 278.655 89.339 281.075 90.3092 281.394C91.2793 281.714 115.736 291.97 115.736 291.97Z" fill="white"/>
<path d="M75.5011 278.665C72.6581 280.733 69.7726 282.777 66.8443 284.795L58.0917 290.797L49.275 296.704C46.3326 298.651 43.3689 300.577 40.3838 302.482C43.2267 300.414 46.1158 298.374 49.0512 296.362L57.7932 290.36L66.6098 284.454C69.5522 282.503 72.4947 280.542 75.5011 278.665Z" fill="#DBDBDB"/>
<path d="M107.676 291.757C105.011 290.712 102.356 289.646 99.7122 288.559L91.8017 285.254L89.8188 284.422L88.8486 284.038C88.5075 283.942 88.1557 283.878 87.7825 283.793L83.6141 282.812C80.8422 282.151 78.0704 281.448 75.2985 280.68C78.1415 281.213 80.9488 281.778 83.7207 282.375L87.9211 283.281C88.2729 283.367 88.6141 283.42 88.9872 283.527C89.3604 283.633 89.6802 283.783 90.0533 283.91L92.0469 284.721C94.6802 285.851 97.3028 286.97 99.9147 288.132C102.527 289.294 105.117 290.531 107.676 291.757Z" fill="#DBDBDB"/>
<path d="M105.16 293.26C102.509 292.215 99.8579 291.149 97.2068 290.062L89.2857 286.768L87.3135 285.936C86.983 285.808 86.6525 285.659 86.3326 285.552C86.0128 285.446 85.6503 285.382 85.2665 285.296L81.0981 284.316C78.3262 283.655 75.5544 282.962 72.7825 282.237C75.597 282.77 78.4009 283.303 81.2047 283.921L85.4051 284.838C85.7463 284.913 86.0981 284.977 86.4712 285.073C86.8444 285.168 87.1535 285.328 87.5373 285.467L89.5309 286.277C92.1535 287.397 94.7868 288.516 97.3987 289.689C100.011 290.861 102.58 292.034 105.16 293.26Z" fill="#DBDBDB"/>
<path d="M102.623 294.753C100.021 293.687 97.42 292.695 94.8401 291.618L87.1109 288.42L85.1812 287.61C84.555 287.322 83.906 287.087 83.2409 286.906L79.1685 285.872C76.4463 285.232 73.7349 284.561 71.0341 283.857C73.7847 284.362 76.5281 284.898 79.2644 285.467C80.629 285.744 81.9936 286.064 83.3582 286.373C84.0472 286.555 84.7209 286.79 85.3731 287.077L87.3134 287.876C89.8827 288.942 92.452 290.072 95 291.224C97.548 292.375 100.096 293.559 102.623 294.753Z" fill="#DBDBDB"/>
<path d="M100.085 296.245C97.5195 295.243 94.9645 294.216 92.42 293.164L84.7868 289.966C83.5288 289.454 82.2495 288.846 80.9915 288.431L76.9829 287.471C74.307 286.821 71.6524 286.16 68.9659 285.467C71.6738 285.957 74.3781 286.487 77.0789 287.055C78.4328 287.333 79.7654 287.631 81.1194 287.962C82.4733 288.292 83.71 288.953 84.9893 289.475C87.5266 290.542 90.064 291.608 92.5693 292.78C95.0746 293.953 97.5906 295.073 100.085 296.245Z" fill="#DBDBDB"/>
<path d="M97.5373 297.748C94.9929 296.746 92.4485 295.723 89.9041 294.678L82.3028 291.48C81.0448 290.968 79.7655 290.414 78.5182 289.934C77.2708 289.454 75.8529 289.305 74.531 288.974C71.855 288.335 69.2005 287.674 66.5352 286.981C69.2431 287.471 71.9403 287.997 74.6269 288.559C75.9702 288.836 77.3028 289.134 78.6461 289.465C79.9894 289.795 81.226 290.467 82.5054 290.989C85.032 292.055 87.5587 293.122 90.064 294.273C92.5693 295.424 95.064 296.533 97.5373 297.748Z" fill="#DBDBDB"/>
<path d="M95 299.241C92.452 298.239 89.9147 297.226 87.3881 296.181L79.8081 292.983C78.5501 292.471 77.2815 291.917 76.0448 291.437C74.8081 290.957 73.3902 290.808 72.0682 290.478C69.403 289.838 66.7484 289.173 64.1045 288.484C66.7911 288.974 69.4741 289.5 72.1535 290.062C73.4968 290.339 74.8294 290.638 76.1727 290.968C77.516 291.299 78.742 291.97 80.0107 292.493C82.5267 293.559 85.0427 294.625 87.5373 295.776C90.032 296.928 92.5267 298.068 95 299.241Z" fill="#DBDBDB"/>
<path d="M92.4627 300.797C89.9467 299.806 87.4414 298.804 85 297.77L77.5373 294.657C76.3006 294.145 75.0533 293.591 73.8166 293.111C72.5799 292.631 71.2153 292.471 69.9147 292.141C67.2921 291.512 64.6695 290.861 62.0576 290.168C64.7086 290.645 67.3596 291.163 70.0106 291.725C71.3326 292.013 72.6332 292.269 73.9765 292.642C75.3198 293.015 76.4925 293.644 77.7505 294.177C80.2239 295.243 82.7079 296.309 85.2132 297.375C87.7185 298.441 90.0213 299.582 92.4627 300.797Z" fill="#DBDBDB"/>
<path d="M89.9254 302.237C87.4094 301.245 84.8934 300.243 82.3987 299.209L74.936 296.096C73.6887 295.595 72.4414 295.03 71.2153 294.561C69.9893 294.092 68.6034 293.91 67.3028 293.591C64.6802 292.951 62.0576 292.301 59.4456 291.618C62.1109 292.087 64.7761 292.61 67.3987 293.164C68.7313 293.463 70.032 293.708 71.3752 294.092C72.7185 294.475 73.8912 295.083 75.1386 295.616C77.6226 296.682 80.1066 297.748 82.6013 298.815C85.0959 299.881 87.4733 301.085 89.9254 302.237Z" fill="#DBDBDB"/>
<path d="M87.8145 303.996C85.2665 302.93 82.7185 301.96 80.1919 300.904L72.6119 297.706L68.8273 296.128C67.5799 295.712 66.194 295.456 64.8721 295.126C62.2068 294.475 59.5416 293.825 56.8976 293.122C59.5949 293.601 62.2921 294.134 64.968 294.699C66.3113 295.009 67.6333 295.232 68.9979 295.659C70.3625 296.085 71.5565 296.725 72.8145 297.226C75.3305 298.292 77.8465 299.358 80.3411 300.52C82.8358 301.682 85.2878 302.78 87.8145 303.996Z" fill="#DBDBDB"/>
<path d="M85.2878 305.51C82.7505 304.497 80.2132 303.473 77.6866 302.407L70.1386 299.209L66.3433 297.599C65.1066 297.173 63.7207 296.928 62.4094 296.597C59.7548 295.947 57.0789 295.296 54.4456 294.603C57.1393 295.08 59.8259 295.602 62.5053 296.171C63.8486 296.48 65.1599 296.693 66.5245 297.141C67.8891 297.589 69.0618 298.207 70.3198 298.708C72.8251 299.774 75.3411 300.84 77.7825 302.023C80.2239 303.207 82.7932 304.337 85.2878 305.51Z" fill="#DBDBDB"/>
<path d="M82.7186 307.194C80.2559 306.192 77.7932 305.168 75.3518 304.124C72.9105 303.079 70.4798 301.991 68.0277 300.925L64.371 299.348C63.7837 299.067 63.1644 298.859 62.5267 298.729L60.5864 298.26C58.0064 297.631 55.4265 296.991 52.8572 296.309C55.4798 296.757 58.0811 297.269 60.693 297.823L62.6333 298.26C62.9638 298.335 63.2836 298.399 63.6141 298.505C63.9446 298.612 64.2538 298.751 64.5736 298.878C65.7996 299.38 67.0256 299.945 68.241 300.446C70.661 301.512 73.1024 302.578 75.5118 303.729C77.9211 304.881 80.3199 306.021 82.7186 307.194Z" fill="#DBDBDB"/>
<path d="M80.1812 308.569C77.6759 307.663 75.1812 306.746 72.7185 305.787C70.2558 304.827 67.7612 303.857 65.2558 302.908C64.0085 302.45 62.7612 301.917 61.5352 301.501L57.7079 300.371C55.1599 299.593 52.6119 298.804 50.0853 297.951C52.6759 298.58 55.2558 299.252 57.8251 299.945L61.6738 301.011C62.9744 301.437 64.1897 301.928 65.4371 302.418C67.9104 303.409 70.3944 304.38 72.8465 305.414C75.2985 306.448 77.7399 307.503 80.1812 308.569Z" fill="#DBDBDB"/>
<path d="M43.4648 296.437C41.0768 295.606 38.7314 294.71 36.386 293.783L34.6376 293.1C34.0572 292.876 33.4624 292.69 32.8572 292.546L29.2218 291.544L21.9403 289.497C19.5203 288.825 17.1109 288.09 14.6909 287.365C17.1322 287.972 19.5842 288.548 22.0256 289.177L29.339 291.075L32.9851 292.034C33.6062 292.185 34.2184 292.37 34.8188 292.588C35.4158 292.812 35.9915 293.058 36.5779 293.292C38.9126 294.273 41.2047 295.307 43.4648 296.437Z" fill="#DBDBDB"/>
<path d="M45.9275 294.507C43.5821 293.797 41.258 293.058 38.9553 292.29C37.8039 291.917 36.6525 291.49 35.5011 291.16L31.983 290.136L24.9574 288.111C22.612 287.439 20.2879 286.704 17.9531 285.979C20.3199 286.586 22.6866 287.151 25.0427 287.78L32.1002 289.657C34.4739 290.246 36.8153 290.957 39.1152 291.789C41.4179 292.642 43.7101 293.548 45.9275 294.507Z" fill="#DBDBDB"/>
<path d="M48.3049 292.791C45.9808 292.109 43.6674 291.394 41.3753 290.606L37.9424 289.465L34.435 288.58L27.4094 286.768C25.064 286.171 22.7292 285.51 20.3945 284.881C22.7612 285.403 25.1279 285.947 27.484 286.458L34.5523 288.111L38.0917 288.974C39.2644 289.316 40.3945 289.742 41.5352 290.147C43.8166 290.957 46.0661 291.853 48.3049 292.791Z" fill="#DBDBDB"/>
<path d="M50.3412 291.522C48.0384 290.712 45.7996 289.742 43.5501 288.846C43.0072 288.604 42.4434 288.411 41.8657 288.271L40.0853 287.866L36.5245 287.077C31.784 286.018 27.0434 284.923 22.3028 283.793C27.086 284.689 31.8586 285.634 36.6205 286.629L40.1919 287.386L41.9723 287.78C42.5795 287.914 43.1722 288.107 43.742 288.356C45.994 289.299 48.1965 290.356 50.3412 291.522Z" fill="#DBDBDB"/>
<path d="M52.5693 289.966C50.2666 289.166 48.0277 288.196 45.7783 287.301C45.2357 287.055 44.6719 286.858 44.0938 286.714L42.3135 286.32L38.7527 285.531C34.005 284.465 29.2644 283.37 24.5309 282.247C29.3213 283.143 34.0938 284.088 38.8486 285.083L42.4201 285.84L44.2111 286.224C44.8178 286.364 45.4102 286.561 45.9808 286.81C48.2302 287.747 50.4293 288.801 52.5693 289.966Z" fill="#DBDBDB"/>
<path d="M54.7975 288.42C52.4947 287.61 50.2559 286.64 48.0064 285.744C47.4635 285.502 46.8997 285.309 46.322 285.168L44.5416 284.806L40.9808 284.017C36.2403 282.958 31.4997 281.867 26.7591 280.744C31.5494 281.64 36.322 282.581 41.0768 283.569L44.6482 284.337L46.4393 284.721C47.0473 284.856 47.6402 285.053 48.209 285.307C50.4593 286.226 52.6586 287.265 54.7975 288.42Z" fill="#DBDBDB"/>
<path d="M57.0256 286.874C54.7228 286.064 52.484 285.094 50.2345 284.198C49.6916 283.956 49.1278 283.763 48.5501 283.623L46.7697 283.218L43.2089 282.429C38.4648 281.362 33.7207 280.296 28.9872 279.145C33.7775 280.041 38.5501 280.986 43.3049 281.981L46.8763 282.738L48.6674 283.132C49.2755 283.263 49.8685 283.456 50.4371 283.708C52.6865 284.649 54.8856 285.706 57.0256 286.874Z" fill="#DBDBDB"/>
<path d="M59.904 285.627C57.6013 284.817 55.3625 283.847 53.113 282.951C52.5695 282.71 52.0058 282.517 51.4286 282.375L49.6482 281.97L46.0874 281.181C41.3468 280.122 36.6062 279.031 31.8657 277.908C36.656 278.804 41.4286 279.746 46.1834 280.733L49.7548 281.501L51.5352 281.885C52.1423 282.019 52.735 282.212 53.3049 282.461C55.5568 283.404 57.7594 284.46 59.904 285.627Z" fill="#DBDBDB"/>
<path d="M62.6973 284.39C60.3945 283.58 58.1663 282.61 55.9062 281.714C55.3615 281.477 54.7981 281.284 54.2218 281.139L52.4414 280.744L48.8806 279.955C44.1329 278.889 39.3924 277.795 34.6589 276.672C39.4492 277.567 44.2218 278.512 48.9766 279.507L52.548 280.264L54.339 280.648C54.9462 280.787 55.5387 280.984 56.1088 281.235C58.36 282.167 60.5593 283.221 62.6973 284.39Z" fill="#DBDBDB"/>
<path d="M64.9254 282.844C62.6226 282.034 60.3945 281.064 58.145 280.179C57.607 279.934 57.0465 279.741 56.4712 279.603L54.6909 279.23L51.1727 278.505C46.4179 277.525 41.6631 276.533 36.919 275.488C41.7093 276.291 46.4926 277.148 51.2687 278.058L54.8401 278.751L56.6312 279.113C57.2393 279.244 57.8323 279.436 58.4009 279.689C60.6296 280.625 62.8074 281.679 64.9254 282.844Z" fill="#DBDBDB"/>
<path d="M67.1642 281.299C64.8721 280.488 62.6439 279.518 60.3945 278.633C59.8601 278.388 59.3031 278.195 58.7314 278.058L56.9403 277.716L53.3689 277.066C48.6034 276.181 43.8273 275.286 39.0725 274.348C43.87 275.058 48.6603 275.812 53.4435 276.608L57.0363 277.237L58.8273 277.567C59.4359 277.696 60.0291 277.889 60.597 278.143C62.8403 279.078 65.0325 280.131 67.1642 281.299Z" fill="#DBDBDB"/>
<path d="M69.3816 279.742C67.0895 278.942 64.872 277.972 62.6332 277.087C62.0992 276.844 61.542 276.655 60.9701 276.522L59.1791 276.277L55.597 275.733C50.8102 275.019 46.0021 274.294 41.2473 273.516C46.059 274.049 50.8635 274.639 55.661 275.286L59.2537 275.787L61.0554 276.075C61.6669 276.187 62.2617 276.377 62.8251 276.64C65.0629 277.559 67.2514 278.595 69.3816 279.742Z" fill="#DBDBDB"/>
<path d="M77.5906 310.723C75.032 309.877 72.484 309.01 69.9467 308.122L62.3454 305.414C61.0767 304.977 59.8081 304.475 58.5608 304.06L54.7121 302.834C52.1428 302.002 49.5949 301.149 47.0576 300.254C49.6588 300.964 52.2495 301.675 54.8294 302.386L58.6993 303.548C60 303.974 61.258 304.422 62.516 304.891C65.0426 305.829 67.5799 306.746 70.0853 307.727C72.5906 308.708 75.0959 309.71 77.5906 310.723Z" fill="#DBDBDB"/>
<path d="M41.6311 298.324C39.0405 297.535 36.4712 296.725 33.9019 295.883L26.2153 293.335L22.388 292.045L18.4968 290.904C15.9168 290.126 13.3369 289.326 10.7676 288.484C13.3902 289.113 16.0021 289.795 18.6141 290.488L22.516 291.554C23.8273 291.959 25.0959 292.375 26.3859 292.823C28.9339 293.708 31.4925 294.571 34.0298 295.499C36.5672 296.426 39.1045 297.365 41.6311 298.324Z" fill="#DBDBDB"/>
<path d="M438.06 151.458C435.927 149.881 365.853 128.164 362.665 129.017C362.313 129.113 361.599 132.269 358.401 140.083C358.252 140.446 324.936 180.84 324.936 180.84L370.533 204.902L396.588 168.218C396.588 168.218 429.147 162.045 432.548 160.755C435.949 159.465 440.298 153.036 438.06 151.458Z" fill="#F7A9A0"/>
<path d="M438.06 151.458C435.928 149.881 365.853 128.164 362.665 129.017C362.313 129.113 361.599 132.269 358.401 140.083C358.252 140.446 353.689 145.744 351.461 148.612C354.36 151.107 382.377 170.851 390.021 177.397L396.557 168.185C396.557 168.185 429.115 162.013 432.516 160.723C435.917 159.433 440.299 153.036 438.06 151.458Z" fill="#730034"/>
<path d="M376.002 135.819C375.646 136.619 375.192 137.371 374.648 138.058C373.579 139.421 372.207 140.517 370.64 141.256C369.041 141.998 367.279 142.318 365.522 142.183C363.781 142.01 362.096 141.473 360.576 140.606C360.49 140.606 360.576 140.424 360.65 140.478C362.164 141.214 363.83 141.581 365.512 141.549C367.195 141.518 368.846 141.088 370.33 140.296C371.748 139.563 372.978 138.512 373.923 137.226C374.38 136.597 374.769 135.921 375.085 135.211C375.25 134.866 375.389 134.51 375.501 134.145C375.618 133.772 375.65 133.463 376.013 133.249C376.098 133.203 376.198 133.191 376.291 133.217C376.385 133.243 376.465 133.304 376.514 133.388C376.919 134.028 376.258 135.243 376.002 135.819Z" fill="white"/>
<path d="M423.326 162.834C421.787 162.258 420.465 161.219 419.542 159.859C418.512 158.478 417.66 156.974 417.004 155.382C416.345 153.825 415.883 152.192 415.629 150.52C415.512 149.707 415.437 148.889 415.405 148.068C415.331 147.23 415.381 146.386 415.554 145.563C415.563 145.531 415.582 145.504 415.608 145.484C415.634 145.464 415.666 145.453 415.698 145.453C415.731 145.453 415.763 145.464 415.789 145.484C415.815 145.504 415.834 145.531 415.842 145.563C415.991 146.277 415.959 147.055 416.045 147.78C416.13 148.6 416.258 149.415 416.429 150.222C416.757 151.79 417.228 153.324 417.836 154.806C418.949 157.808 420.959 160.395 423.593 162.215C423.661 162.259 423.711 162.325 423.735 162.403C423.759 162.48 423.754 162.563 423.722 162.638C423.69 162.712 423.633 162.773 423.56 162.808C423.488 162.844 423.405 162.853 423.326 162.834Z" fill="white"/>
<path d="M390.053 168.953C381.525 162.812 373.07 156.608 364.467 150.552C362.036 148.836 359.627 147.087 357.175 145.414C357.09 145.36 357.175 145.243 357.26 145.296C366.274 150.71 374.986 156.611 383.358 162.972C385.725 164.795 388.017 166.704 390.299 168.623C390.327 168.659 390.344 168.705 390.344 168.751C390.345 168.798 390.33 168.844 390.302 168.882C390.274 168.919 390.235 168.947 390.19 168.959C390.145 168.972 390.097 168.97 390.053 168.953Z" fill="white"/>
<path d="M357.985 146.778C357.956 146.841 357.916 146.899 357.868 146.949L357.676 147.077L357.303 147.322C357.047 147.493 356.78 147.663 356.514 147.812C355.981 148.111 355.448 148.388 354.893 148.655C354.819 148.655 354.744 148.569 354.819 148.527C355.33 148.207 355.832 147.876 356.333 147.535L357.058 147.034L357.441 146.768C357.557 146.673 357.692 146.604 357.836 146.565C357.862 146.562 357.889 146.567 357.913 146.578C357.937 146.589 357.958 146.606 357.973 146.628C357.988 146.65 357.997 146.675 357.999 146.701C358.001 146.728 357.997 146.754 357.985 146.778Z" fill="white"/>
<path d="M361.962 149.699C361.935 149.767 361.891 149.826 361.834 149.87L361.642 150.009L361.279 150.254C361.013 150.424 360.757 150.595 360.48 150.744C359.957 151.043 359.414 151.32 358.87 151.586C358.785 151.586 358.721 151.501 358.795 151.458C359.307 151.139 359.808 150.797 360.298 150.456L361.034 149.966L361.418 149.699C361.531 149.601 361.666 149.531 361.812 149.497C361.837 149.495 361.862 149.5 361.885 149.51C361.908 149.521 361.928 149.537 361.942 149.557C361.957 149.577 361.967 149.601 361.97 149.626C361.974 149.651 361.971 149.676 361.962 149.699Z" fill="white"/>
<path d="M365.928 152.61C365.901 152.674 365.861 152.733 365.81 152.78L365.618 152.908L365.245 153.154C364.989 153.335 364.723 153.495 364.456 153.655C363.923 153.953 363.39 154.23 362.836 154.486C362.761 154.486 362.687 154.412 362.761 154.358C363.273 154.049 363.827 153.708 364.275 153.367C364.51 153.196 364.755 153.036 365 152.876L365.384 152.61C365.494 152.507 365.631 152.437 365.778 152.407C365.804 152.402 365.831 152.404 365.856 152.414C365.881 152.423 365.902 152.439 365.918 152.461C365.933 152.482 365.943 152.507 365.944 152.534C365.946 152.56 365.94 152.587 365.928 152.61Z" fill="white"/>
<path d="M369.936 155.563C369.907 155.629 369.863 155.687 369.808 155.733L369.616 155.861L369.254 156.107C368.987 156.277 368.731 156.448 368.454 156.597C367.932 156.896 367.388 157.173 366.844 157.439C366.828 157.446 366.809 157.447 366.792 157.441C366.774 157.436 366.76 157.424 366.751 157.408C366.741 157.393 366.738 157.374 366.742 157.356C366.745 157.338 366.755 157.322 366.77 157.311C367.281 156.991 367.782 156.661 368.273 156.32L369.009 155.819L369.392 155.552C369.508 155.458 369.643 155.389 369.787 155.35C369.812 155.35 369.837 155.356 369.86 155.368C369.882 155.38 369.902 155.397 369.916 155.418C369.931 155.439 369.94 155.463 369.944 155.488C369.947 155.513 369.944 155.539 369.936 155.563Z" fill="white"/>
<path d="M373.881 158.484C373.847 158.547 373.804 158.604 373.753 158.655L373.561 158.793L373.188 159.038C372.932 159.209 372.665 159.38 372.399 159.529C371.866 159.827 371.333 160.104 370.778 160.371C370.704 160.371 370.629 160.286 370.704 160.243C371.215 159.923 371.716 159.593 372.218 159.241L372.942 158.751L373.326 158.484C373.439 158.386 373.575 158.316 373.721 158.281C373.747 158.278 373.773 158.281 373.797 158.291C373.821 158.3 373.843 158.316 373.859 158.337C373.875 158.357 373.886 158.382 373.889 158.407C373.893 158.433 373.89 158.46 373.881 158.484Z" fill="white"/>
<path d="M377.846 161.416C377.82 161.483 377.776 161.542 377.719 161.586L377.527 161.714L377.164 161.97L376.365 162.461C375.842 162.759 375.298 163.036 374.755 163.303C374.738 163.304 374.721 163.301 374.706 163.293C374.691 163.285 374.679 163.273 374.671 163.258C374.663 163.244 374.66 163.227 374.662 163.21C374.663 163.193 374.67 163.177 374.68 163.164C375.192 162.855 375.693 162.514 376.183 162.173L376.919 161.682L377.303 161.416C377.413 161.313 377.55 161.243 377.697 161.213C377.722 161.212 377.747 161.216 377.77 161.227C377.793 161.237 377.812 161.253 377.827 161.274C377.842 161.294 377.852 161.317 377.855 161.342C377.858 161.367 377.856 161.392 377.846 161.416Z" fill="white"/>
<path d="M381.823 164.337C381.786 164.398 381.743 164.455 381.695 164.507L381.503 164.635L381.13 164.881C380.874 165.051 380.608 165.222 380.341 165.371C379.808 165.68 379.275 165.947 378.721 166.213C378.646 166.213 378.571 166.128 378.646 166.085C379.158 165.765 379.659 165.435 380.16 165.094L380.885 164.593L381.269 164.326C381.384 164.233 381.519 164.167 381.663 164.134C381.689 164.131 381.715 164.134 381.74 164.144C381.764 164.153 381.785 164.169 381.801 164.19C381.818 164.21 381.828 164.234 381.832 164.26C381.836 164.286 381.833 164.313 381.823 164.337Z" fill="white"/>
<path d="M385.789 167.269C385.765 167.337 385.72 167.397 385.661 167.439C385.602 167.491 385.537 167.538 385.469 167.578L385.107 167.823C384.851 167.994 384.584 168.164 384.307 168.313C383.785 168.612 383.241 168.889 382.697 169.156C382.623 169.156 382.548 169.07 382.623 169.028C383.134 168.708 383.689 168.377 384.126 168.026L384.861 167.535L385.245 167.269C385.361 167.174 385.495 167.105 385.64 167.066C385.666 167.061 385.692 167.063 385.717 167.072C385.742 167.082 385.763 167.098 385.779 167.12C385.795 167.141 385.804 167.166 385.806 167.193C385.807 167.219 385.802 167.245 385.789 167.269Z" fill="white"/>
<path d="M389.765 170.2C389.732 170.263 389.688 170.321 389.638 170.371L389.446 170.51C389.321 170.585 389.2 170.667 389.083 170.755L388.284 171.245C387.751 171.544 387.217 171.821 386.663 172.087C386.588 172.087 386.525 172.002 386.588 171.949C387.111 171.64 387.655 171.299 388.102 170.957L388.827 170.467L389.211 170.2C389.326 170.104 389.46 170.035 389.606 169.998C389.631 169.994 389.658 169.997 389.682 170.007C389.706 170.017 389.728 170.033 389.744 170.053C389.76 170.074 389.77 170.098 389.774 170.124C389.778 170.15 389.775 170.176 389.765 170.2Z" fill="white"/>
<path d="M383.966 187.002L343.753 155.35C343.753 155.35 302.452 208.122 301.748 208.484C301.748 208.484 273.156 208.825 246.962 214.038C242.281 214.966 217.377 202.812 189.52 226.245L193.71 269.881C237.516 276.149 298.625 266.682 324.67 258.154C349.264 250.147 383.966 187.002 383.966 187.002Z" fill="#263238"/>
<path d="M378.337 191.128C369.286 183.665 360.16 176.288 350.618 169.401C347.91 167.439 345.128 165.595 342.463 163.58C342.377 163.505 342.281 163.655 342.367 163.729C344.691 165.531 346.887 167.493 349.168 169.348C351.45 171.203 353.721 173.058 356.023 174.881C360.618 178.516 365.362 181.949 370.075 185.414C372.772 187.397 375.49 189.337 378.209 191.277C378.337 191.341 378.465 191.203 378.337 191.128Z" fill="#455A64"/>
<path d="M347.463 172.951C340.224 182.546 332.953 192.141 325.746 201.832C322.143 206.657 318.532 211.483 314.915 216.309C313.316 218.441 311.716 220.392 309.073 221.139C307.755 221.464 306.415 221.689 305.064 221.81L300.586 222.354C288.703 223.825 276.812 225.289 264.915 226.746C261.951 227.164 258.963 227.384 255.97 227.407C252.983 227.287 250.01 226.93 247.079 226.341C241.754 225.43 236.341 225.141 230.949 225.478C220.262 226.306 209.828 229.142 200.192 233.836C198.966 234.422 197.751 235.019 196.546 235.638C196.45 235.691 196.546 235.829 196.642 235.787C206.572 230.924 217.285 227.86 228.284 226.736C233.7 226.197 239.161 226.304 244.552 227.055C247.431 227.471 250.277 228.122 253.177 228.388C256.158 228.616 259.155 228.544 262.122 228.175C268.092 227.546 274.051 226.725 280.011 225.989L297.921 223.783C300.896 223.409 303.881 223.1 306.834 222.663C309.254 222.467 311.538 221.46 313.316 219.806C315.109 217.772 316.755 215.613 318.241 213.345C320.053 210.861 321.887 208.388 323.71 205.883C330.864 196.203 337.953 186.48 345.032 176.778L347.697 173.132C347.836 172.994 347.548 172.802 347.463 172.951Z" fill="#455A64"/>
<path d="M324.339 75.2644C322.09 76.7569 277.207 134.731 276.898 138.015C276.898 138.377 279.552 140.147 285.768 145.872C286.066 146.139 286.365 148.399 286.652 151.789C287.719 164.529 288.593 193.313 288.593 193.313L335.608 181.746L327.569 132.706L325.49 119.966C325.49 119.966 331.109 87.3113 331.077 83.6546C331.045 79.9979 326.589 73.7185 324.339 75.2644Z" fill="#F7A9A0"/>
<path d="M324.339 75.2644C322.09 76.7569 277.207 134.731 276.898 138.015C276.898 138.377 279.552 140.147 285.768 145.872C286.066 146.139 286.365 148.399 286.652 151.789C294.35 148.079 317.974 137.162 327.569 132.738L325.49 119.998C325.49 119.998 331.109 87.3433 331.077 83.6866C331.045 80.0299 326.589 73.7186 324.339 75.2644Z" fill="#730034"/>
<path d="M287.942 127.908C288.567 128.52 289.111 129.207 289.563 129.955C290.486 131.435 291.048 133.111 291.205 134.849C291.332 136.605 291.013 138.366 290.277 139.966C289.509 141.536 288.42 142.927 287.079 144.049C287.004 144.113 286.908 143.996 286.983 143.932C288.193 142.767 289.113 141.335 289.669 139.75C290.225 138.165 290.4 136.471 290.181 134.806C289.984 133.224 289.43 131.708 288.561 130.371C288.133 129.719 287.636 129.115 287.079 128.569C286.809 128.294 286.52 128.037 286.215 127.802C285.896 127.557 285.618 127.418 285.544 127.002C285.531 126.906 285.557 126.809 285.614 126.732C285.672 126.654 285.758 126.602 285.853 126.586C286.588 126.426 287.495 127.461 287.942 127.908Z" fill="white"/>
<path d="M329.829 93.0469C328.747 94.2898 327.306 95.1654 325.704 95.5522C324.052 96.0299 322.347 96.302 320.629 96.3625C318.94 96.434 317.25 96.2907 315.597 95.936C314.792 95.7668 313.998 95.5496 313.22 95.2857C312.409 95.0654 311.636 94.7239 310.928 94.2729C310.903 94.2535 310.885 94.2269 310.876 94.1968C310.868 94.1666 310.869 94.1345 310.879 94.1051C310.89 94.0756 310.91 94.0501 310.935 94.0324C310.961 94.0147 310.992 94.0056 311.023 94.0064C311.748 94.113 312.463 94.4222 313.156 94.5927C313.95 94.7841 314.755 94.9335 315.565 95.0405C317.148 95.2909 318.751 95.3873 320.352 95.3284C323.554 95.3481 326.684 94.372 329.307 92.5352C329.648 92.3539 330.064 92.7377 329.829 93.0469Z" fill="white"/>
<path d="M324.456 127.876C315 132.439 305.522 136.949 296.109 141.608C293.443 142.93 290.778 144.22 288.124 145.595C288.028 145.595 287.974 145.499 288.06 145.446C297.11 140.097 306.441 135.239 316.013 130.893C318.742 129.678 321.514 128.569 324.286 127.482C324.338 127.459 324.397 127.458 324.45 127.479C324.503 127.5 324.546 127.542 324.568 127.594C324.591 127.646 324.592 127.705 324.571 127.758C324.55 127.811 324.509 127.854 324.456 127.876Z" fill="white"/>
<path d="M289.701 145.531C289.741 145.59 289.77 145.654 289.787 145.723C289.792 145.801 289.792 145.879 289.787 145.957C289.787 146.107 289.787 146.256 289.787 146.394C289.787 146.714 289.84 147.023 289.851 147.333C289.851 147.94 289.851 148.548 289.851 149.156C289.851 149.241 289.701 149.241 289.701 149.156C289.701 148.559 289.606 147.951 289.542 147.354C289.542 147.066 289.478 146.768 289.456 146.48C289.435 146.192 289.456 146.171 289.403 146.011C289.366 145.867 289.366 145.717 289.403 145.574C289.409 145.541 289.426 145.512 289.45 145.489C289.474 145.466 289.504 145.451 289.537 145.447C289.57 145.442 289.603 145.448 289.633 145.463C289.662 145.478 289.686 145.502 289.701 145.531Z" fill="white"/>
<path d="M294.158 143.431C294.204 143.486 294.237 143.552 294.254 143.623C294.254 143.697 294.254 143.783 294.254 143.857C294.254 143.932 294.254 144.145 294.254 144.294C294.288 144.606 294.306 144.919 294.307 145.232C294.307 145.84 294.307 146.448 294.307 147.055C294.307 147.141 294.158 147.141 294.158 147.055C294.158 146.448 294.062 145.851 293.998 145.254L293.902 144.38C293.902 144.22 293.902 144.07 293.902 143.91C293.864 143.767 293.864 143.617 293.902 143.473C293.907 143.446 293.921 143.42 293.941 143.401C293.962 143.381 293.987 143.368 294.015 143.364C294.043 143.359 294.071 143.363 294.097 143.375C294.122 143.387 294.144 143.406 294.158 143.431Z" fill="white"/>
<path d="M298.625 141.331C298.667 141.389 298.7 141.454 298.721 141.522C298.721 141.597 298.721 141.682 298.721 141.757C298.721 141.832 298.721 142.045 298.721 142.194C298.755 142.506 298.773 142.819 298.774 143.132C298.774 143.743 298.774 144.351 298.774 144.955C298.774 145.03 298.635 145.041 298.625 144.955C298.625 144.348 298.539 143.751 298.476 143.154L298.38 142.279C298.38 142.119 298.38 141.97 298.326 141.81C298.3 141.666 298.3 141.518 298.326 141.373C298.323 141.354 298.325 141.334 298.329 141.314C298.334 141.295 298.343 141.277 298.355 141.261C298.367 141.246 298.382 141.232 298.399 141.222C298.416 141.212 298.435 141.205 298.454 141.203C298.474 141.2 298.494 141.201 298.513 141.206C298.532 141.211 298.55 141.219 298.566 141.231C298.582 141.243 298.595 141.258 298.605 141.275C298.615 141.292 298.622 141.311 298.625 141.331Z" fill="white"/>
<path d="M303.092 139.23C303.135 139.287 303.164 139.352 303.177 139.422C303.183 139.5 303.183 139.579 303.177 139.657C303.177 139.795 303.177 139.945 303.177 140.094C303.177 140.403 303.177 140.712 303.23 141.021C303.23 141.633 303.23 142.24 303.23 142.844C303.23 142.864 303.222 142.883 303.208 142.897C303.194 142.911 303.175 142.919 303.156 142.919C303.136 142.919 303.117 142.911 303.103 142.897C303.089 142.883 303.081 142.864 303.081 142.844C303.081 142.237 302.996 141.64 302.921 141.043C302.921 140.744 302.868 140.456 302.836 140.158C302.804 139.859 302.836 139.849 302.783 139.699C302.751 139.552 302.751 139.399 302.783 139.252C302.78 139.211 302.793 139.17 302.82 139.139C302.847 139.108 302.885 139.089 302.926 139.086C302.967 139.084 303.008 139.097 303.039 139.124C303.07 139.151 303.089 139.189 303.092 139.23Z" fill="white"/>
<path d="M307.559 137.13C307.598 137.189 307.627 137.254 307.644 137.322V137.557C307.644 137.695 307.644 137.844 307.644 137.994C307.644 138.143 307.644 138.612 307.697 138.921C307.697 139.529 307.697 140.136 307.697 140.744C307.697 140.829 307.548 140.84 307.548 140.744C307.548 140.147 307.452 139.55 307.388 138.953C307.388 138.655 307.335 138.367 307.303 138.068C307.271 137.77 307.303 137.759 307.25 137.61C307.212 137.463 307.212 137.309 307.25 137.162C307.245 137.121 307.258 137.08 307.283 137.048C307.309 137.016 307.347 136.996 307.388 136.991C307.429 136.987 307.47 136.999 307.502 137.025C307.534 137.051 307.554 137.089 307.559 137.13Z" fill="white"/>
<path d="M312.015 135.03C312.061 135.086 312.094 135.151 312.111 135.222C312.116 135.296 312.116 135.371 312.111 135.446C312.111 135.595 312.111 135.744 312.111 135.893C312.145 136.201 312.162 136.511 312.164 136.821C312.164 137.429 312.164 138.036 312.164 138.644C312.164 138.729 312.015 138.729 312.015 138.644C312.015 138.047 311.919 137.45 311.855 136.842C311.855 136.554 311.791 136.267 311.77 135.968C311.748 135.67 311.77 135.659 311.716 135.51C311.679 135.363 311.679 135.209 311.716 135.062C311.712 135.022 311.724 134.983 311.749 134.952C311.774 134.921 311.81 134.901 311.85 134.897C311.889 134.892 311.929 134.904 311.96 134.929C311.991 134.954 312.011 134.99 312.015 135.03Z" fill="white"/>
<path d="M316.482 132.93C316.526 132.987 316.559 133.052 316.578 133.122C316.578 133.196 316.578 133.271 316.578 133.345C316.578 133.42 316.578 133.644 316.578 133.783C316.578 134.102 316.631 134.412 316.631 134.721C316.631 135.332 316.631 135.94 316.631 136.544C316.631 136.629 316.493 136.629 316.482 136.544C316.482 135.947 316.397 135.339 316.333 134.742L316.237 133.868C316.237 133.719 316.237 133.559 316.237 133.409C316.205 133.262 316.205 133.109 316.237 132.962C316.269 132.866 316.429 132.834 316.482 132.93Z" fill="white"/>
<path d="M320.949 130.819C320.992 130.875 321.021 130.941 321.034 131.011C321.039 131.089 321.039 131.167 321.034 131.245C321.034 131.394 321.034 131.544 321.034 131.682C321.034 132.002 321.034 132.311 321.087 132.62C321.087 133.232 321.087 133.839 321.087 134.443C321.087 134.529 320.949 134.529 320.938 134.443C320.938 133.846 320.853 133.239 320.778 132.642C320.778 132.354 320.725 132.055 320.693 131.768C320.661 131.48 320.693 131.458 320.64 131.299C320.61 131.154 320.61 131.006 320.64 130.861C320.643 130.825 320.658 130.791 320.683 130.765C320.708 130.738 320.741 130.721 320.777 130.716C320.813 130.711 320.85 130.719 320.881 130.737C320.912 130.756 320.936 130.785 320.949 130.819Z" fill="white"/>
<path d="M325.416 128.719C325.459 128.775 325.488 128.841 325.501 128.91V129.145C325.501 129.294 325.501 129.433 325.501 129.582C325.501 129.891 325.501 130.2 325.554 130.52C325.554 131.131 325.554 131.739 325.554 132.343C325.554 132.429 325.405 132.429 325.405 132.343C325.405 131.736 325.309 131.139 325.245 130.542C325.245 130.254 325.192 129.955 325.16 129.667C325.128 129.38 325.16 129.358 325.107 129.198C325.069 129.055 325.069 128.904 325.107 128.761C325.101 128.72 325.112 128.679 325.137 128.646C325.162 128.613 325.199 128.591 325.24 128.585C325.281 128.58 325.322 128.59 325.355 128.615C325.388 128.64 325.41 128.678 325.416 128.719Z" fill="white"/>
<path d="M329.968 146.469L282.516 156.544C282.516 156.544 288.209 222.983 287.996 223.708C287.996 223.708 263.774 226.906 244.382 225.84C244.382 225.84 211.77 211.661 189.499 236.128L186.301 279.049C248.337 286.576 331.407 283.09 342.42 261.991C354.424 238.964 329.968 146.469 329.968 146.469Z" fill="#263238"/>
<path d="M287.91 223.431C282.644 223.431 273.817 224.422 268.55 224.635C263.284 224.849 258.113 225.136 252.9 225.414C249.904 225.563 247.388 225.414 244.371 225.67C244.348 225.67 244.327 225.678 244.311 225.694C244.295 225.71 244.286 225.732 244.286 225.755C244.286 225.777 244.295 225.799 244.311 225.815C244.327 225.831 244.348 225.84 244.371 225.84C254.678 226.398 265.011 226.195 275.288 225.232C278.294 224.966 284.979 224.252 287.964 223.804C288.177 223.783 288.422 223.431 287.91 223.431Z" fill="#455A64"/>
<path d="M241.439 221.32C239.494 219.162 237.304 217.237 234.915 215.584C234.84 215.52 234.744 215.659 234.808 215.723C236.889 217.679 238.844 219.766 240.661 221.97C242.634 224.094 244.447 226.36 246.087 228.751C246.087 228.804 246.194 228.751 246.162 228.697C244.855 226.077 243.272 223.604 241.439 221.32Z" fill="#455A64"/>
<path d="M345.768 230.009C345.714 227.663 345.501 225.318 345.32 222.972C344.968 218.335 344.51 213.708 343.891 209.113C342.644 199.817 341.023 190.595 338.955 181.458C338.369 178.9 337.772 176.352 337.122 173.815C336.532 171.216 335.795 168.653 334.915 166.139C334.84 165.936 334.478 165.957 334.52 166.192C334.851 168.441 335.458 170.68 335.949 172.898C336.439 175.115 336.962 177.397 337.441 179.657C338.412 184.252 339.307 188.878 340.117 193.516C341.738 202.727 343.038 211.981 344.136 221.235C344.446 223.846 344.701 226.458 344.979 229.07C345.128 230.371 345.65 240.797 345.672 242.162C345.672 242.279 345.864 242.269 345.853 242.162C345.746 241.011 345.853 233.495 345.768 230.009Z" fill="#455A64"/>
<path d="M287.9 216.224C287.793 214.934 287.367 209.977 286.834 209.017C286.829 209.006 286.821 208.996 286.81 208.989C286.8 208.982 286.787 208.979 286.775 208.979C286.763 208.979 286.75 208.982 286.74 208.989C286.73 208.996 286.721 209.006 286.716 209.017C286.365 210.083 286.844 215.211 286.962 216.48C287.079 217.748 287.772 223.26 288.028 223.697C288.036 223.71 288.048 223.721 288.062 223.729C288.076 223.736 288.092 223.74 288.108 223.74C288.124 223.74 288.139 223.736 288.153 223.729C288.167 223.721 288.179 223.71 288.188 223.697C288.226 221.203 288.129 218.708 287.9 216.224Z" fill="#455A64"/>
<path d="M331.62 237.418C331.45 229.06 330.874 220.712 330.032 212.397C328.369 195.989 325.661 179.699 322.761 163.473C322.399 161.48 322.047 159.497 321.695 157.503C321.695 157.397 321.514 157.439 321.535 157.557C324.243 173.783 327.026 190.019 328.87 206.384C329.776 214.507 330.48 222.652 330.821 230.819C330.991 234.785 331.098 238.751 331.077 242.727C331.129 246.055 330.822 249.38 330.16 252.642C329.511 255.875 328.001 258.873 325.789 261.32C323.415 263.636 320.53 265.364 317.367 266.362C313.935 267.495 310.426 268.375 306.866 268.996C302.942 269.77 298.998 270.403 295.032 270.893C279.158 272.887 263.113 272.908 247.143 272.589C230.768 272.258 214.392 271.65 198.017 271.469C195.97 271.469 193.913 271.416 191.866 271.373C191.843 271.373 191.821 271.382 191.805 271.398C191.789 271.414 191.78 271.436 191.78 271.458C191.78 271.481 191.789 271.503 191.805 271.519C191.821 271.535 191.843 271.544 191.866 271.544C200.309 271.81 208.753 272.173 217.196 272.439C225.64 272.706 233.934 272.951 242.303 273.175C258.465 273.623 274.68 273.846 290.778 272.109C298.583 271.369 306.321 270.036 313.923 268.122C317.127 267.371 320.195 266.126 323.017 264.433C325.702 262.73 327.85 260.302 329.211 257.429C332.111 251.299 331.77 244.049 331.62 237.418Z" fill="#455A64"/>
<path d="M330.043 153.9C318.444 155.701 306.876 157.631 295.416 160.168C292.154 160.883 288.923 161.746 285.64 162.397C285.533 162.397 285.576 162.578 285.693 162.556C288.582 162.023 291.503 161.682 294.403 161.213C297.303 160.744 300.203 160.275 303.092 159.763C308.859 158.697 314.574 157.471 320.299 156.256C323.571 155.552 326.834 154.817 330.085 154.07C330.203 154.049 330.149 153.878 330.043 153.9Z" fill="#455A64"/>
<path d="M87.5693 214.444C88.1876 211.331 91.4392 200.115 96.0981 193.122C98.3475 189.731 105.81 180.691 108.55 182.205C111.29 183.719 109.328 186.565 109.328 186.565C109.328 186.565 113.06 183.218 115.672 184.998C118.284 186.778 115.107 191.096 115.107 191.096C115.107 191.096 119.179 187.898 121.663 189.902C124.147 191.906 120.213 195.67 120.213 195.67C120.213 195.67 123.806 192.61 125.171 195.083C126.802 198.068 119.542 202.962 117.249 206.81C116.727 207.695 107.964 225.382 107.964 225.382L87.5693 214.444Z" fill="#F7A9A0"/>
<path d="M120.16 195.787C114.829 199.401 113.113 201.906 110.565 207.716C110.565 207.834 110.33 207.791 110.373 207.663C112.345 201.746 114.04 198.292 119.968 195.52C120.288 195.382 120.469 195.616 120.16 195.787Z" fill="#263238"/>
<path d="M115.224 190.904C110.011 195.168 108.134 197.844 105.021 203.697C105.009 203.711 104.994 203.72 104.976 203.724C104.958 203.728 104.94 203.727 104.923 203.72C104.907 203.713 104.893 203.7 104.884 203.685C104.874 203.669 104.87 203.651 104.872 203.633C107.441 197.588 109.2 194.188 114.968 190.638C115.235 190.52 115.469 190.712 115.224 190.904Z" fill="#263238"/>
<path d="M108.881 186.959C104.126 191.426 101.94 194.305 99.6589 200.414C99.6435 200.437 99.621 200.454 99.5947 200.464C99.5685 200.473 99.5399 200.473 99.5134 200.465C99.4869 200.457 99.4638 200.44 99.4477 200.417C99.4317 200.394 99.4234 200.367 99.4243 200.339C101.151 193.942 103.849 190.286 108.721 186.832C109.062 186.597 109.179 186.725 108.881 186.959Z" fill="#263238"/>
<path d="M107.42 229.998C107.42 229.998 113.753 224.987 116.055 222.173C118.358 219.358 123.07 205.723 120.181 204.539C116.45 203.015 112.186 210.35 110.586 214.22C110.586 214.22 101.972 210.67 97.7932 215.286C93.6141 219.902 107.42 229.998 107.42 229.998Z" fill="#F7A9A0"/>
<path d="M119.019 204.465C114.616 205.531 112.804 210.733 110.959 214.358C110.934 214.413 110.895 214.46 110.848 214.497C110.8 214.534 110.745 214.559 110.685 214.571C110.626 214.582 110.565 214.58 110.507 214.563C110.449 214.546 110.396 214.516 110.352 214.475C106.642 213.228 101.045 212.557 97.7185 215.019C97.7107 215.032 97.6999 215.043 97.6869 215.051C97.6739 215.059 97.6592 215.064 97.644 215.066C97.6288 215.067 97.6135 215.064 97.5994 215.059C97.5853 215.053 97.5728 215.044 97.5629 215.032C97.5531 215.02 97.5461 215.006 97.5427 214.992C97.5392 214.977 97.5394 214.961 97.5432 214.946C97.5469 214.932 97.5541 214.918 97.5642 214.906C97.5743 214.895 97.587 214.886 97.6013 214.881C100.8 211.746 106.354 211.96 110.33 213.591C112.175 209.838 114.211 204.689 119.009 204.412C119.04 204.412 119.04 204.454 119.019 204.465Z" fill="#263238"/>
<path d="M137.772 230.52C127.567 245.867 113.766 258.486 97.5693 267.279C87.1748 272.972 76.2473 266.331 74.4989 262.13C70.661 253.132 84.0298 218.239 88.8486 211.203C90.2878 209.07 92.4307 213.335 99.1471 219.156C102.345 221.928 114.531 221.213 113.667 224.657C113.049 227.109 109.062 234.06 109.616 234.017C111.002 233.9 121.087 226.554 131.77 219.689C146.482 210.232 141.205 225.488 137.772 230.52Z" fill="#F7A9A0"/>
<path d="M109.637 233.74C108.998 234.593 99.7761 253.431 97.5799 257.311C97.5686 257.331 97.5656 257.355 97.5716 257.377C97.5776 257.399 97.5921 257.417 97.6119 257.429C97.6317 257.44 97.6552 257.443 97.6772 257.437C97.6992 257.431 97.7179 257.416 97.7292 257.397C100.075 253.601 102.505 249.859 104.584 245.915C105.65 243.964 106.716 242.013 107.505 239.977C107.9 238.996 108.273 238.015 108.657 237.034C109.142 236.008 109.524 234.937 109.797 233.836C109.808 233.74 109.701 233.633 109.637 233.74Z" fill="#263238"/>
<path d="M110.501 232.237L133.955 241.224C133.955 241.224 141.162 230.84 144.35 224.529C148.55 216.171 146.482 212.652 135.821 216.959C128.763 219.849 110.501 232.237 110.501 232.237Z" fill="#730034"/>
<path d="M113.742 230.915C117.249 231.981 120.736 233.111 124.179 234.39C125.895 235.019 127.601 235.691 129.307 236.373C131.013 237.055 132.623 237.93 134.328 238.591C134.424 238.591 134.328 238.772 134.264 238.729C132.601 237.983 130.821 237.45 129.115 236.789C127.409 236.128 125.704 235.478 123.987 234.838C120.554 233.559 117.132 232.269 113.678 231.064C113.582 231.032 113.646 230.893 113.742 230.915Z" fill="#263238"/>
<path d="M156.78 232.823H152.335C152.047 230.691 151.397 227.119 150.33 225.232C150.859 227.726 151.059 230.278 150.928 232.823H147.026C146.684 229.795 145.757 224.294 143.38 220.446C143.486 220.851 145.448 228.26 144.979 232.823H110.608C109.083 225.563 110.267 217.674 109.67 219.401C108.331 223.752 107.613 228.271 107.537 232.823H103.71C103.602 230.991 103.705 229.152 104.019 227.343C104.52 224.934 102.548 229.699 102.292 232.823H99.8614C99.8614 232.823 99.371 222.482 103.156 215.126C108.177 205.318 105.288 201.693 107.303 190.968C109.638 178.761 125.682 163.996 141.716 179.422C144.465 181.811 146.674 184.758 148.196 188.067C149.718 191.375 150.518 194.97 150.544 198.612C150.618 207.343 148.635 211.949 151.61 216.437C154.943 221.254 156.745 226.965 156.78 232.823Z" fill="#263238"/>
<path d="M98.2729 231.362C97.8692 227.64 98.232 223.874 99.339 220.296C99.8524 218.496 100.516 216.741 101.322 215.051C101.706 214.209 102.185 213.377 102.591 212.567C103.009 211.775 103.365 210.952 103.657 210.104C104.737 206.609 105.43 203.005 105.725 199.358C105.949 197.514 106.205 195.67 106.578 193.846C106.941 192.013 107.506 190.225 108.262 188.516C107.273 192.069 106.701 195.726 106.556 199.412C106.418 201.245 106.237 203.1 105.981 204.945C105.713 206.811 105.274 208.649 104.669 210.435C104.341 211.324 103.953 212.189 103.507 213.026C103.06 213.868 102.623 214.635 102.217 215.467C101.388 217.099 100.676 218.788 100.085 220.52C99.4996 222.26 99.047 224.042 98.7313 225.851C98.5607 226.757 98.4541 227.663 98.3688 228.58C98.2884 229.505 98.2564 230.434 98.2729 231.362Z" fill="#263238"/>
<path d="M150.522 198.559C150.597 200.041 150.522 201.522 150.522 202.994C150.522 204.465 150.522 205.936 150.682 207.397C150.808 208.836 151.055 210.262 151.418 211.661C151.503 212.013 151.62 212.354 151.716 212.727L151.802 212.983L151.876 213.196L152.111 213.655C152.452 214.273 152.847 214.902 153.241 215.531C153.998 216.8 154.755 218.1 155.373 219.454C156.028 220.806 156.577 222.207 157.015 223.644C157.444 225.082 157.74 226.555 157.9 228.047C158.054 229.528 158.054 231.022 157.9 232.503C157.796 229.566 157.235 226.664 156.237 223.9C155.213 221.164 153.902 218.544 152.324 216.085C151.94 215.446 151.557 214.827 151.183 214.145C151.098 213.974 151.013 213.793 150.928 213.601C150.928 213.505 150.842 213.399 150.81 213.303L150.736 213.026C150.629 212.663 150.512 212.301 150.437 211.96C150.099 210.493 149.903 208.997 149.851 207.493C149.81 205.998 149.859 204.503 150 203.015C150.149 201.49 150.32 200.03 150.522 198.559Z" fill="#263238"/>
<path d="M185.661 280.648C185.661 280.648 211.333 256.981 193.678 222.791C193.678 222.791 182.505 224.561 179.574 223.985C170.682 222.258 164.019 217.333 153.774 213.516C143.529 209.699 136.471 212.706 132.399 219.657C131.386 221.384 126.397 246.736 130.043 255.734C132.91 262.802 144.531 264.849 144.531 264.849C144.531 264.849 166.119 282.802 185.661 280.648Z" fill="#730034"/>
<path d="M145.576 218.484C145.501 219.646 141.386 227.748 136.258 228.356C134.595 228.548 133.124 219.486 133.124 219.486L132.868 218.836L129.211 209.817L139.051 200.915L140.48 199.721C140.48 199.721 141.322 202.258 142.335 205.424C142.335 205.574 142.431 205.712 142.473 205.872C142.516 206.032 142.601 206.213 142.644 206.384C142.804 206.853 142.964 207.343 143.113 207.823C143.262 208.303 143.337 208.548 143.443 208.889C143.55 209.23 143.657 209.657 143.774 210.051C144.568 212.817 145.17 215.635 145.576 218.484Z" fill="#F7A9A0"/>
<path d="M142.335 205.424C141.822 208.212 140.71 210.855 139.075 213.171C137.441 215.486 135.323 217.419 132.868 218.836L129.211 209.817L139.051 200.915L140.48 199.721C140.48 199.721 141.322 202.258 142.335 205.424Z" fill="#263238"/>
<path d="M113.006 199.785C116.823 216.437 127.228 216.032 130.821 215.2C134.083 214.454 145.085 211.48 143.006 194.518C140.927 177.557 131.972 174.07 124.435 175.392C116.898 176.714 109.19 183.132 113.006 199.785Z" fill="#F7A9A0"/>
<path d="M115.501 196.544C115.867 196.376 116.223 196.187 116.567 195.979C116.962 195.827 117.295 195.55 117.516 195.19C117.564 195.066 117.569 194.929 117.531 194.801C117.492 194.674 117.412 194.563 117.303 194.486C117.064 194.362 116.796 194.306 116.527 194.323C116.259 194.339 116 194.429 115.778 194.582C115.294 194.822 114.914 195.232 114.712 195.733C114.68 195.844 114.678 195.961 114.706 196.072C114.734 196.184 114.791 196.286 114.871 196.368C114.951 196.45 115.052 196.51 115.162 196.541C115.273 196.572 115.39 196.573 115.501 196.544Z" fill="#263238"/>
<path d="M126.93 193.452C126.525 193.516 126.151 193.516 125.746 193.548C125.34 193.65 124.911 193.608 124.531 193.431C124.421 193.352 124.341 193.239 124.302 193.11C124.263 192.981 124.269 192.842 124.318 192.716C124.449 192.484 124.64 192.291 124.87 192.156C125.1 192.021 125.362 191.95 125.629 191.949C126.176 191.865 126.734 191.987 127.196 192.29C127.298 192.365 127.376 192.469 127.419 192.587C127.463 192.706 127.472 192.835 127.443 192.958C127.415 193.082 127.351 193.194 127.26 193.282C127.169 193.369 127.054 193.429 126.93 193.452Z" fill="#263238"/>
<path d="M126.002 198.239C126.002 198.185 126.109 198.239 126.119 198.313C126.397 199.443 126.898 200.691 128.017 200.776V200.84C126.738 201.011 126.087 199.348 126.002 198.239Z" fill="#263238"/>
<path d="M126.674 196.789C128.444 196.149 129.595 199.721 127.953 200.318C126.311 200.915 125.203 197.322 126.674 196.789Z" fill="#263238"/>
<path d="M127.441 196.746C127.814 196.853 128.241 197.109 128.625 197.023C129.008 196.938 129.286 196.448 129.456 195.957C129.456 195.904 129.456 195.957 129.531 195.957C129.692 196.266 129.728 196.625 129.633 196.96C129.538 197.295 129.318 197.581 129.019 197.759C128.689 197.867 128.331 197.846 128.015 197.702C127.699 197.558 127.449 197.301 127.313 196.981C127.239 196.928 127.292 196.704 127.441 196.746Z" fill="#263238"/>
<path d="M118.902 199.966C118.902 199.966 118.827 200.041 118.902 200.083C119.296 201.149 119.574 202.503 118.699 203.196C118.699 203.196 118.699 203.271 118.699 203.26C119.84 202.716 119.456 200.936 118.902 199.966Z" fill="#263238"/>
<path d="M117.537 199.134C115.714 199.582 116.748 203.196 118.433 202.78C120.117 202.365 119.062 198.751 117.537 199.134Z" fill="#263238"/>
<path d="M116.844 199.593C116.62 199.859 116.439 200.286 116.098 200.414C115.757 200.542 115.309 200.243 114.947 199.945C114.947 199.945 114.947 199.945 114.947 199.998C115.128 200.691 115.565 201.341 116.258 201.288C116.951 201.235 117.175 200.51 117.143 199.785C117.09 199.646 116.94 199.518 116.844 199.593Z" fill="#263238"/>
<path d="M122.303 204.326C122.303 204.326 122.58 206.053 122.825 206.842C122.825 206.917 123.049 206.842 123.316 206.842C124.028 206.761 124.704 206.484 125.269 206.042C125.833 205.599 126.264 205.009 126.514 204.337C126.514 204.241 126.418 204.198 126.365 204.262C125.578 205.256 124.489 205.967 123.262 206.288C123.145 206.085 122.878 203.313 122.751 203.335C122.159 203.578 121.603 203.901 121.098 204.294C120.405 200.702 120.288 197.034 119.552 193.463C119.552 193.335 119.328 193.356 119.328 193.463C119.327 197.401 119.72 201.33 120.501 205.19C120.597 205.638 122.026 204.55 122.303 204.326Z" fill="#263238"/>
<path d="M143.102 195.606C138.838 196.8 133.507 184.294 132.889 182.748C133.241 183.74 135.021 189.006 134.744 189.348C134.292 189.484 133.819 189.542 133.348 189.518C133.144 188.884 132.891 188.268 132.591 187.674C132.463 187.386 132.676 188.345 132.889 189.539H132.036C131.652 188.169 131.086 186.857 130.352 185.638C130.075 185.168 130.661 187.471 130.81 189.593C126.898 189.683 123.007 190.209 119.211 191.16C118.145 191.458 117.249 191.757 116.461 192.045C115.959 190.488 115.608 188.761 115.608 189.156C115.596 190.199 115.685 191.242 115.874 192.269L114.712 192.748C113.902 190.563 113.827 186.693 113.646 187.354C113.125 189.353 112.988 191.433 113.241 193.484C111.834 194.252 111.503 194.689 111.343 194.305C110.402 189.802 111.097 185.111 113.305 181.075C116.972 174.465 127.036 169.891 135.362 175.616C135.362 175.616 141.226 177.237 143.614 182.098C146.002 186.96 145.544 194.923 143.102 195.606Z" fill="#263238"/>
<path d="M140.661 196.405C140.661 196.405 142.569 190.179 145.288 190.701C148.006 191.224 147.697 199.444 145.288 201.362C145 201.624 144.661 201.824 144.294 201.952C143.926 202.079 143.536 202.131 143.148 202.104C142.759 202.078 142.38 201.972 142.034 201.795C141.687 201.619 141.38 201.373 141.13 201.075L140.661 196.405Z" fill="#F7A9A0"/>
<path d="M145.139 193.058V193.132C143.486 194.507 143.006 196.586 142.942 198.633C142.991 198.409 143.088 198.197 143.227 198.014C143.366 197.83 143.542 197.679 143.745 197.571C143.948 197.462 144.172 197.399 144.401 197.386C144.631 197.372 144.861 197.409 145.075 197.493C145.139 197.493 145.075 197.599 145.075 197.61C144.708 197.611 144.35 197.725 144.05 197.936C143.751 198.148 143.524 198.448 143.401 198.793C143.207 199.379 143.071 199.982 142.996 200.595C142.996 200.787 142.633 200.797 142.633 200.595V200.584C141.791 198.132 142.623 194.188 145.139 193.058Z" fill="#263238"/>
<path d="M160.192 221.48C174.147 238.815 193.241 268.26 185.245 275.126C172.143 286.416 133.241 293.687 124.307 294.977C120.458 295.542 112.1 270.456 114.595 267.119C117.09 263.783 158.305 260.478 158.561 257.94C158.689 256.501 155.032 244.252 150.629 229.017C145.544 211.437 156.194 216.576 160.192 221.48Z" fill="#F7A9A0"/>
<path d="M121.311 264.881C121.311 264.881 109.467 265.073 101.716 265.563C97.452 265.84 89.9893 266.981 86.9509 268.633C82.3454 271.107 64.6482 284.39 67.7612 288.751C70.597 292.706 84.3497 279.348 84.3497 279.348C84.3497 279.348 69.2963 291.597 73.5607 295.723C77.8251 299.849 91.3966 282.674 91.3966 282.674C91.3966 282.674 76.2047 295.606 81.29 299.156C85.1386 301.842 98.2729 287.002 98.2729 287.002C98.2729 287.002 85.2878 298.228 89.1258 301.16C93.3902 304.358 106.343 291.458 106.343 291.458C117.356 297.269 124.979 295.531 130.256 293.655C131.535 293.196 121.311 264.881 121.311 264.881Z" fill="#F7A9A0"/>
<path d="M89.307 274.785C87.484 276.16 85.629 277.535 83.9765 279.049C82.3241 280.563 80.6397 282.173 79.1045 283.857C77.063 286.017 75.2746 288.403 73.774 290.968C76.8017 286.608 82.7719 281.032 84.435 279.497C86.0981 277.962 87.7399 276.299 89.435 274.827C89.4136 274.806 89.3497 274.753 89.307 274.785Z" fill="#263238"/>
<path d="M94.9467 280.797C92.6972 282.652 90.3945 284.412 88.2196 286.373C86.0448 288.335 84.1898 290.35 82.1642 292.439C82.0149 292.599 82.1642 292.631 82.3134 292.439C84.4456 290.435 86.5139 288.74 88.6354 286.757C90.7569 284.774 92.8038 282.716 95.032 280.819C95.032 280.819 94.9787 280.776 94.9467 280.797Z" fill="#263238"/>
<path d="M100.714 285.094C97.2053 287.855 93.9901 290.97 91.1194 294.39C90.9701 294.561 91.1194 294.582 91.3113 294.39C94.4563 291.192 96.8976 288.74 100.842 285.179C100.874 285.158 100.789 285.041 100.714 285.094Z" fill="#263238"/>
<path d="M130.128 263.367C128.465 263.367 124.979 264.166 121.087 264.433C112.335 265.009 99.9467 265.264 95.501 265.595C83.5821 266.49 76.5458 275.456 73.2729 278.612C71.3134 280.517 69.5491 282.614 68.0064 284.87C67.1961 286.096 66.4499 287.834 67.5906 289.134C68.9765 290.723 73.9872 288.878 79.1471 283.996C79.3283 283.814 79.2111 283.708 79.0192 283.878C71.7804 290.03 68.8273 289.412 68.0277 288.409C67.516 287.759 67.9637 286.608 68.3902 285.712C69.0824 284.43 69.935 283.24 70.9275 282.173C74.2184 278.459 77.8799 275.09 81.855 272.119C86.1213 268.766 91.2535 266.695 96.6524 266.149C100.48 265.744 112.292 265.563 121.109 264.913C124.968 264.625 128.433 263.772 130.107 263.569C130.266 263.559 130.245 263.367 130.128 263.367Z" fill="#263238"/>
<path d="M178.038 243.473L152.878 243.953C152.878 243.953 149.616 231.736 148.763 224.71C147.644 215.424 150.832 212.834 159.36 220.499C165.043 225.627 178.038 243.473 178.038 243.473Z" fill="#730034"/>
<path d="M155.927 243.9C155.65 243.9 153.07 243.825 152.878 243.9C152.537 242.45 150.821 235.702 150.618 235.009C150.618 234.891 150.448 234.923 150.469 235.009C150.544 235.424 150.821 236.981 151.151 238.719V238.655C150.981 238.345 150.778 238.058 150.586 237.759C150.394 237.461 150.235 237.119 150.064 236.8C150.011 236.693 149.861 236.8 149.915 236.885C150.096 237.194 150.288 237.493 150.437 237.812C150.586 238.132 150.714 238.409 150.864 238.708L151.343 239.582C151.716 241.544 152.111 243.537 152.324 244.262C153.538 244.234 154.748 244.131 155.949 243.953C155.981 243.985 155.97 243.91 155.927 243.9Z" fill="#263238"/>
<path d="M175.416 241.096C171.748 240.915 168.092 240.787 164.414 240.819C162.591 240.819 160.757 240.883 158.923 240.957C157.09 241.032 155.277 241.288 153.444 241.33C153.348 241.33 153.358 241.49 153.444 241.49C155.267 241.341 157.122 241.49 158.945 241.405C160.768 241.32 162.612 241.331 164.446 241.309C168.102 241.309 171.759 241.213 175.416 241.256C175.533 241.288 175.512 241.096 175.416 241.096Z" fill="#263238"/>
<path d="M168.625 230.904C168.625 230.904 168.539 230.904 168.561 230.904C171.41 235.175 174.473 239.299 177.74 243.26C177.085 243.291 176.433 243.366 175.789 243.484C176.648 243.549 177.51 243.549 178.369 243.484C178.422 243.527 169.563 231.714 168.625 230.904Z" fill="#263238"/>
<path d="M140.448 144.23C137.537 151.139 129.872 155.595 129.872 155.595C129.872 155.595 121.727 152.098 118.006 145.595C114.893 140.179 116.279 134.028 120.565 132.45C126.716 130.168 128.987 140.979 128.987 140.979C128.987 140.979 129.925 129.977 136.311 131.48C140.725 132.535 142.857 138.473 140.448 144.23Z" fill="#730034"/>
<path d="M109.808 125.392C110.501 131.48 106.823 137.727 106.823 137.727C106.823 137.727 99.6269 138.495 94.371 135.36C89.9787 132.738 88.5075 127.802 90.9275 124.955C94.3923 120.872 100.341 127.663 100.341 127.663C100.341 127.663 96.6098 119.454 101.759 117.972C105.32 116.938 109.2 120.318 109.808 125.392Z" fill="#730034"/>
<path d="M149.062 68.3881C149.755 74.4755 146.077 80.7122 146.077 80.7122C146.077 80.7122 138.881 81.4904 133.625 78.3454C129.232 75.7335 127.761 70.7974 130.181 67.951C133.646 63.8678 139.595 70.6589 139.595 70.6589C139.595 70.6589 135.864 62.4499 141.013 60.968C144.606 59.9765 148.486 63.3561 149.062 68.3881Z" fill="#730034"/>
<path d="M132.655 99.9552C130.299 103.719 125.384 105.595 125.384 105.595C125.384 105.595 120.96 102.78 119.392 98.6226C118.092 95.1471 119.488 91.6823 122.154 91.1599C125.96 90.4136 126.258 96.9488 126.258 96.9488C126.258 96.9488 127.857 90.5522 131.45 92.0981C133.955 93.1535 134.627 96.8209 132.655 99.9552Z" fill="#730034"/>
<path d="M115.32 50.2644C114.96 52.1076 114.092 53.8136 112.815 55.1898C110.951 54.9252 109.2 54.142 107.761 52.9296C106.173 51.3731 106.045 49.1343 107.356 48.1748C109.232 46.7889 111.077 50.307 111.077 50.307C111.077 50.307 110.32 46.4478 112.655 46.3412C114.286 46.1812 115.586 48.0043 115.32 50.2644Z" fill="#730034"/>
</g>
<defs>
<clipPath id="clip0_1007_8768">
<rect width="500" height="284.648" fill="white" transform="translate(0 46)"/>
</clipPath>
</defs>
</svg>
