<svg width="500" height="500" viewBox="0 0 500 500" fill="none" xmlns="http://www.w3.org/2000/svg">
<path fill-rule="evenodd" clip-rule="evenodd" d="M266.232 92.0002C323.202 92.0877 377.169 115.939 414.059 159.352C452.494 204.582 473.817 263.745 461.516 321.812C448.996 380.912 406.206 428.667 351.554 454.411C297.498 479.873 236.696 475.948 181.174 453.864C119.225 429.224 51.4166 394.649 37.4194 329.464C23.535 264.806 71.9479 206.519 117.835 158.896C157.445 117.789 209.146 91.9125 266.232 92.0002Z" fill="white"/>
<path d="M317.806 315.72L314.776 333.89L294.246 457.53H290.936L305.866 333.89L308.076 315.72H317.806Z" fill="#DBDBDB"/>
<path d="M308.076 315.72H317.806L314.776 333.89H305.866L308.076 315.72Z" fill="#A6A6A6"/>
<path d="M382.276 457.53H378.966L358.436 333.89L355.406 315.72H365.146L367.346 333.89L382.276 457.53Z" fill="#DBDBDB"/>
<path d="M365.146 315.72L367.346 333.89H358.436L355.406 315.72H365.146Z" fill="#A6A6A6"/>
<path d="M443.856 457.53H440.546L420.016 333.89L416.986 315.72H426.716L428.926 333.89L443.856 457.53Z" fill="#DBDBDB"/>
<path d="M428.926 333.89H420.016L416.986 315.72H426.716L428.926 333.89Z" fill="#A6A6A6"/>
<path d="M438.606 324.26H288.176V308.41H344.486L363.416 198.3H432.866L438.606 324.26Z" fill="#DBDBDB"/>
<path d="M438.606 324.26H430.406L425.056 198.3H432.866L438.606 324.26Z" fill="#A6A6A6"/>
<path d="M355.416 169.83C332.306 195.9 311.326 223.95 310.916 237.12C310.346 255.35 323.526 257.12 328.476 256.59C341.946 255.21 358.676 199.9 364.846 178.12C370.826 157 360.486 164.11 355.416 169.83Z" fill="#730034"/>
<path opacity="0.1" d="M364.846 178.12C358.686 199.9 341.946 255.21 328.476 256.59C327.854 256.648 327.23 256.668 326.606 256.65C333.686 238.12 354.846 182.74 362.076 164.42C365.886 162.69 368.626 164.76 364.846 178.12Z" fill="black"/>
<path d="M243.946 456.07C246.946 456.33 321.756 436.64 324.316 433.96C325.316 432.96 323.116 421.17 320.066 407.01L309.986 367.16L261.986 378.87L270.056 420.43C270.056 420.43 246.406 440.74 243.896 444C241.386 447.26 240.936 455.83 243.946 456.07Z" fill="#D3766A"/>
<path d="M242.806 457.32C245.726 457.52 322.656 437.6 325.106 434.98C326.046 433.98 323.646 422.05 320.546 408.38L268.546 421.38C268.546 421.38 245.546 441.33 243.206 444.49C240.866 447.65 239.886 457.12 242.806 457.32Z" fill="#730034"/>
<path d="M243.106 454C255.926 450.34 307.946 436.8 320.896 434.16C320.996 434.16 321.016 434.21 320.896 434.24C308.276 438.14 256.136 451.24 243.146 454.24C242.886 454.23 242.836 454 243.106 454Z" fill="#263238"/>
<path d="M246.856 441.57C248.279 441.159 249.773 441.05 251.242 441.248C252.71 441.446 254.121 441.947 255.386 442.72C257.672 444.092 259.344 446.29 260.056 448.86C260.056 448.94 259.926 448.98 259.896 448.86C258.798 446.418 256.937 444.399 254.592 443.106C252.248 441.813 249.547 441.316 246.896 441.69C246.884 441.686 246.874 441.679 246.865 441.671C246.857 441.662 246.85 441.651 246.846 441.64C246.842 441.628 246.841 441.616 246.843 441.604C246.845 441.592 246.849 441.58 246.856 441.57Z" fill="#263238"/>
<path d="M263.776 424.37C268.696 422.31 275.136 421.75 279.836 424.56C280.016 424.67 279.836 424.93 279.676 424.91C274.44 424.384 269.164 424.417 263.936 425.01C263.852 425.028 263.764 425.013 263.691 424.968C263.618 424.923 263.566 424.851 263.545 424.768C263.524 424.684 263.537 424.596 263.58 424.522C263.623 424.448 263.693 424.393 263.776 424.37Z" fill="#263238"/>
<path d="M260.546 427.39C265.466 425.34 271.896 424.78 276.606 427.59C276.786 427.7 276.606 427.95 276.446 427.94C271.211 427.408 265.934 427.442 260.706 428.04C260.626 428.045 260.547 428.022 260.483 427.975C260.419 427.928 260.373 427.859 260.354 427.782C260.335 427.704 260.343 427.623 260.379 427.551C260.414 427.479 260.473 427.422 260.546 427.39Z" fill="#263238"/>
<path d="M257.336 430.42C262.256 428.36 268.686 427.8 273.336 430.61C273.526 430.72 273.336 430.98 273.186 430.96C267.951 430.428 262.674 430.462 257.446 431.06C257.368 431.059 257.294 431.031 257.235 430.981C257.176 430.931 257.137 430.862 257.124 430.786C257.111 430.71 257.125 430.631 257.163 430.564C257.202 430.498 257.263 430.446 257.336 430.42Z" fill="#263238"/>
<path d="M269.546 420.55L320.546 408.38C320.546 408.38 305.546 321.43 307.746 318.46C311.836 312.83 374.116 314.03 393.326 294.94C413.666 274.73 404.786 249.17 404.786 249.17H349.086C349.086 249.17 348.646 256.66 347.626 256.96C335.006 260.64 285.456 262.27 267.426 276.72C262.786 280.44 254.946 290.12 253.346 299.72C248.276 330.43 269.546 420.55 269.546 420.55Z" fill="#263238"/>
<path d="M317.136 399C315.579 399.089 314.033 399.313 312.516 399.67L307.826 400.61L298.266 402.61C291.906 403.93 285.556 405.3 279.266 406.8C275.696 407.64 272.176 408.63 268.636 409.59C268.496 409.59 268.556 409.84 268.696 409.82C281.556 407.73 294.226 404.82 306.916 401.94L312.086 400.73C313.844 400.398 315.567 399.906 317.236 399.26C317.306 399.16 317.246 399 317.136 399Z" fill="#37474F"/>
<path d="M393.326 294.94C380.856 307.33 350.236 311.17 329.166 313.89L370.366 249.17H404.786C404.786 249.17 413.666 274.73 393.326 294.94Z" fill="#37474F"/>
<path d="M310.896 394.31C311.026 395.04 310.616 395.47 310.356 394.31C304.356 366.93 300.016 332.76 299.576 328.31C299.346 326.08 299.156 323.85 299.056 321.61C299.006 320.49 298.966 319.36 298.996 318.23C298.985 317.077 299.103 315.927 299.346 314.8C299.418 314.495 299.526 314.2 299.666 313.92C299.825 313.617 300.051 313.354 300.326 313.15C300.811 312.793 301.342 312.503 301.906 312.29C302.96 311.864 304.042 311.513 305.146 311.24C307.326 310.67 309.526 310.24 311.726 309.82C316.126 309.02 320.546 308.34 324.956 307.66C333.786 306.34 342.616 305.05 351.386 303.42C360.156 301.79 368.896 299.9 377.196 296.73C381.286 295.08 385.386 293.11 388.196 289.65C391.248 286.423 393.732 282.704 395.546 278.65C399.104 270.427 400.286 261.371 398.956 252.51C400.439 261.398 399.399 270.523 395.956 278.85C394.162 282.981 391.68 286.779 388.616 290.08C387.872 290.931 387.081 291.739 386.246 292.5C385.37 293.231 384.445 293.899 383.476 294.5C381.54 295.661 379.513 296.664 377.416 297.5C373.243 299.126 368.963 300.462 364.606 301.5C360.256 302.59 355.886 303.5 351.486 304.34C342.706 306 333.866 307.34 325.046 308.67C320.636 309.33 316.216 309.99 311.836 310.78C309.646 311.18 307.466 311.61 305.326 312.16C304.261 312.424 303.216 312.758 302.196 313.16C301.712 313.346 301.255 313.594 300.836 313.9C300.657 314.022 300.513 314.187 300.416 314.38C300.305 314.596 300.221 314.824 300.166 315.06C299.94 316.118 299.826 317.198 299.826 318.28C299.826 319.38 299.826 320.49 299.876 321.6C299.976 323.82 300.156 326.03 300.366 328.25C300.806 332.68 301.366 337.11 301.976 341.53C303.256 350.33 309.336 385.52 310.896 394.31Z" fill="#37474F"/>
<path d="M309.726 457.93C312.616 458.86 378.656 457.79 381.726 455.77C382.926 455.02 383.466 443.04 383.726 428.55V428.09C383.786 425.09 383.826 422.03 383.826 418.91C383.826 418.48 383.826 418.05 383.826 417.63C383.936 396.71 381.636 375.51 381.636 375.51L328.636 375.56L330.286 417.78L330.356 419.45L330.686 428.19V429.09C330.686 429.09 315.526 443.56 312.346 446.15C309.166 448.74 306.846 457 309.726 457.93Z" fill="#D3766A"/>
<path d="M306.836 458.21C309.626 459.11 379.266 458.49 382.286 456.55C383.436 455.82 384.016 443.64 384.286 429.63H329.546C329.546 429.63 312.546 444.33 309.466 446.82C306.386 449.31 304.056 457.3 306.836 458.21Z" fill="#730034"/>
<path d="M307.956 455C321.276 454.57 365.216 454.08 378.406 454.66C378.516 454.66 378.516 454.74 378.406 454.75C365.216 455.47 321.276 455.52 307.956 455.22C307.676 455.23 307.676 455 307.956 455Z" fill="#263238"/>
<path d="M310.796 446.54C318.076 442.97 326.376 442.07 331.796 443.24C336.986 444.36 342.156 446.91 343.966 451.42C344.016 451.55 343.676 451.71 343.586 451.59C337.986 444.08 323.586 441.82 310.936 446.81C310.666 446.91 310.546 446.66 310.796 446.54Z" fill="#263238"/>
<path d="M328.026 437.55C336.225 435.306 344.915 435.627 352.926 438.47C353.196 438.57 352.856 438.92 352.586 438.89C344.336 438.04 336.816 437.36 328.086 438.35C327.486 438.42 327.426 437.71 328.026 437.55Z" fill="#263238"/>
<path d="M330.826 434.14C339.027 431.904 347.715 432.229 355.726 435.07C355.996 435.17 355.666 435.52 355.386 435.49C347.146 434.63 339.616 433.96 330.886 434.95C330.286 435 330.236 434.3 330.826 434.14Z" fill="#263238"/>
<path d="M333.626 430.74C341.826 428.499 350.516 428.824 358.526 431.67C358.796 431.77 358.466 432.12 358.196 432.09C349.946 431.23 342.416 430.56 333.696 431.55C333.086 431.61 333.036 430.9 333.626 430.74Z" fill="#263238"/>
<path d="M329.006 430.5L385.136 430.07C385.136 430.07 384.746 335.74 387.506 328.43C390.266 321.12 400.506 315.72 412.836 301.43C431.586 279.73 415.216 249.23 415.216 249.23H360.356C360.356 249.23 353.236 267.23 353.656 274.5C353.656 274.5 359.536 274.87 363.106 274.88C363.106 274.88 337.576 295.99 331.056 315.78C325.476 332.68 329.006 430.5 329.006 430.5Z" fill="#263238"/>
<path d="M378.746 276.08C373.644 274.907 368.43 274.291 363.196 274.24C357.904 274.115 352.61 274.375 347.356 275.02C347.331 275.027 347.309 275.043 347.294 275.063C347.278 275.084 347.27 275.109 347.27 275.135C347.27 275.161 347.278 275.186 347.294 275.207C347.309 275.227 347.331 275.243 347.356 275.25C352.586 275.43 357.826 275.71 363.056 276C368.286 276.29 373.456 276.71 378.666 276.72C378.741 276.713 378.811 276.681 378.866 276.629C378.92 276.576 378.954 276.507 378.964 276.432C378.973 276.357 378.957 276.282 378.917 276.218C378.877 276.154 378.817 276.105 378.746 276.08Z" fill="#37474F"/>
<path d="M405.546 268.94C403.09 268.619 400.669 268.07 398.316 267.3C396.361 266.898 394.563 265.944 393.136 264.55C390.376 261.55 389.216 257.55 387.076 254.16C387.006 254.04 386.846 254.16 386.866 254.25C387.368 256.595 388.036 258.9 388.866 261.15C389.484 263.083 390.507 264.862 391.866 266.37C395.296 269.94 400.956 269.48 405.476 269.37C405.866 269.41 405.836 269 405.546 268.94Z" fill="#37474F"/>
<path d="M382.106 419.06C380.529 418.801 378.933 418.677 377.336 418.69C375.706 418.69 374.066 418.6 372.426 418.57L362.426 418.35C355.756 418.22 349.096 418.15 342.426 418.2C338.666 418.2 334.916 418.4 331.166 418.56C331.141 418.567 331.119 418.583 331.104 418.603C331.088 418.624 331.08 418.649 331.08 418.675C331.08 418.701 331.088 418.726 331.104 418.747C331.119 418.767 331.141 418.783 331.166 418.79C344.506 419.62 357.826 419.64 371.166 419.62H376.616C378.447 419.687 380.281 419.594 382.096 419.34C382.133 419.341 382.169 419.328 382.196 419.303C382.223 419.277 382.239 419.242 382.241 419.205C382.242 419.168 382.229 419.132 382.203 419.105C382.178 419.077 382.143 419.061 382.106 419.06Z" fill="#37474F"/>
<path d="M356.166 251.44C356.426 254.76 356.606 258.09 357.016 261.39C357.206 262.95 357.346 264.53 357.656 266.07C357.728 266.741 358.024 267.368 358.496 267.85C359.083 268.265 359.777 268.501 360.496 268.53C360.816 268.609 361.151 268.614 361.474 268.544C361.797 268.475 362.1 268.332 362.359 268.128C362.618 267.923 362.828 267.662 362.971 267.364C363.114 267.067 363.188 266.74 363.186 266.41C363.466 263.41 362.586 252.89 362.566 252.03C362.566 251.86 363.116 251.85 363.136 252.03C363.956 258.65 365.046 267.1 363.646 268.54C362.893 269.286 361.898 269.737 360.842 269.812C359.785 269.888 358.736 269.582 357.886 268.95C357.15 268.234 356.702 267.274 356.626 266.25C356.416 264.8 356.346 263.32 356.236 261.87C355.986 258.4 355.676 254.94 355.616 251.47C355.606 251.15 356.136 251.14 356.166 251.44Z" fill="#37474F"/>
<path d="M361.126 269C361.234 269.415 361.317 269.835 361.376 270.26C361.466 270.69 361.556 271.11 361.656 271.53C361.756 271.95 361.856 272.36 361.966 272.78C362.076 273.2 362.146 273.62 362.236 274.04C362.242 274.078 362.235 274.116 362.215 274.149C362.196 274.182 362.165 274.206 362.129 274.219C362.092 274.231 362.053 274.229 362.018 274.215C361.982 274.201 361.953 274.174 361.936 274.14C361.741 273.758 361.571 273.364 361.426 272.96C361.286 272.54 361.146 272.12 361.036 271.69C360.926 271.26 360.836 270.85 360.746 270.43C360.62 270.003 360.543 269.564 360.516 269.12C360.526 269.053 360.556 268.99 360.603 268.941C360.651 268.892 360.712 268.858 360.778 268.845C360.845 268.832 360.915 268.84 360.977 268.867C361.039 268.895 361.091 268.941 361.126 269Z" fill="#37474F"/>
<path d="M413.096 254.39C414.174 261.456 414.609 268.605 414.396 275.75C414.323 279.354 413.713 282.926 412.586 286.35C411.923 288.036 411.038 289.627 409.956 291.08C408.956 292.55 407.796 293.95 406.636 295.31C401.996 300.77 396.886 305.78 391.926 310.9C389.446 313.46 386.976 316.03 384.666 318.72C383.506 320.038 382.453 321.446 381.516 322.93C380.709 324.459 380.178 326.117 379.946 327.83C379.296 331.31 378.946 334.83 378.656 338.4C378.366 341.97 378.146 345.51 377.976 349.07C377.626 356.19 377.456 363.32 377.286 370.45C377.116 377.58 377.426 406.52 377.446 413.25C377.446 413.65 376.896 413.77 376.836 413.25C376.646 406.12 376.606 398.99 376.516 391.85C376.426 384.71 376.456 377.58 376.516 370.44C376.576 363.3 376.746 356.16 377.056 349.03C377.216 345.46 377.416 341.89 377.696 338.33C377.976 334.77 378.316 331.2 378.956 327.65C379.116 326.76 379.316 325.88 379.566 325C379.809 324.097 380.176 323.233 380.656 322.43C381.632 320.901 382.726 319.45 383.926 318.09C386.276 315.38 388.776 312.82 391.266 310.26C396.266 305.16 401.356 300.17 406.056 294.83C407.226 293.49 408.356 292.12 409.396 290.69C410.472 289.296 411.353 287.762 412.016 286.13C413.153 282.774 413.799 279.271 413.936 275.73C414.301 268.606 414.02 261.463 413.096 254.39Z" fill="#37474F"/>
<path d="M349.086 249.17C349.086 249.17 416.346 253 416.726 252.46C417.106 251.92 404.976 171 381.286 161.32C376.636 159.41 368.966 159.54 364.076 163.48C349.606 175.12 347.906 248.06 349.086 249.17Z" fill="#EBEBEB"/>
<path d="M379.906 160.52L376.446 203L386.446 277.82L426.446 274.25C426.446 274.25 404.606 191.92 396.896 178.25C388.216 162.77 379.906 160.52 379.906 160.52Z" fill="#730034"/>
<path d="M361.866 163.9C361.866 163.9 355.456 202.29 355.726 203.06C355.996 203.83 350.546 272.93 350.546 272.93L334.546 259.27C334.546 259.27 343.396 240.16 343.546 238.5C343.696 236.84 353.286 188.77 355.656 178.9C358.026 169.03 361.866 163.9 361.866 163.9Z" fill="#730034"/>
<path d="M388.776 165.71C412.286 185.82 434.776 219.81 434.186 238.27C433.606 256.49 427.326 254.46 425.536 254.27C414.536 253.09 390.766 201.27 383.746 180.32C376.726 159.37 382.966 160.73 388.776 165.71Z" fill="#730034"/>
<path d="M411.546 239.42C410.366 237.07 409.146 234.75 408.006 232.42L404.506 225.42C402.196 220.71 399.846 216.02 397.616 211.27C395.386 206.52 393.076 201.82 390.866 197.06C389.766 194.69 388.676 192.3 387.636 189.89C386.596 187.48 385.546 185 384.546 182.55C386.076 187.587 387.886 192.534 389.966 197.37C391.966 202.22 394.216 206.98 396.456 211.74C398.696 216.5 401.126 221.16 403.626 225.74C406.126 230.32 408.666 235 411.546 239.42Z" fill="#263238"/>
<path d="M386.836 188.77C386.421 187.928 385.954 187.113 385.436 186.33C385.176 185.94 384.936 185.55 384.656 185.17C384.376 184.79 384.126 184.4 383.816 184.03C383.994 184.974 384.361 185.872 384.896 186.67C385.409 187.482 386.067 188.194 386.836 188.77Z" fill="#263238"/>
<path d="M331.726 254.6C338.726 249.14 335.206 233.1 330.796 205.74C330.026 200.94 298.096 192.54 297.506 197.74C296.766 204.24 301.436 231.18 304.506 238.6C310.546 253.2 323.546 261 331.726 254.6Z" fill="#D3766A"/>
<path d="M300.006 209.89C296.856 199.94 296.476 187.83 297.876 183.74C299.276 179.65 310.056 167.68 313.046 165.48C316.036 163.28 330.456 165.99 333.696 166.72C336.286 167.31 338.096 169.99 333.166 172.36C326.836 175.36 319.976 173.48 318.436 174.81C316.896 176.14 315.336 183.3 317.336 185.54C318.526 186.85 322.536 187.4 324.926 185.27C327.316 183.14 327.316 179.52 329.696 175.93C332.076 172.34 337.776 170.93 338.566 172.33C339.356 173.73 337.726 175.03 336.456 181.07C335.646 184.95 336.966 190.84 334.546 197.84C333.12 201.306 331.466 204.673 329.596 207.92L300.006 209.89Z" fill="#D3766A"/>
<path d="M304.336 189.8C303.536 184.8 303.646 174.28 307.086 167.68C309.416 163.21 317.976 152.46 321.196 154.51C325.796 157.43 316.286 172.18 315.696 174.23C313.876 180.52 316.366 188.75 316.366 188.75L304.336 189.8Z" fill="#D3766A"/>
<path d="M315.096 181.37C314.809 179.895 314.702 178.391 314.776 176.89C314.816 176.125 314.927 175.365 315.106 174.62C315.302 173.878 315.573 173.157 315.916 172.47C316.566 171.11 317.276 169.81 318.036 168.53C318.796 167.25 319.596 166.01 320.376 164.74C319.913 166.156 319.355 167.539 318.706 168.88L316.816 172.88C316.171 174.175 315.742 175.567 315.546 177C315.356 178.41 315.236 179.88 315.096 181.37Z" fill="#263238"/>
<path d="M303.376 190.88C301.786 186.13 300.176 175.99 302.426 169.04C303.946 164.34 310.476 152.55 313.916 154.04C318.846 156.12 312.056 171.93 311.816 174.04C311.096 180.42 314.816 187.97 314.816 187.97L303.376 190.88Z" fill="#D3766A"/>
<path d="M312.616 181.34C311.716 179.335 311.236 177.167 311.206 174.97C311.352 173.878 311.603 172.803 311.956 171.76C312.236 170.76 312.536 169.69 312.846 168.67C313.446 166.61 314.069 164.56 314.716 162.52C315.336 160.52 316.016 158.41 315.466 156.29C315.888 157.301 316.057 158.399 315.956 159.49C315.856 160.573 315.669 161.647 315.396 162.7C314.926 164.8 314.396 166.87 313.786 168.94C313.506 169.94 313.206 171 312.896 172.03L312.436 173.57C312.266 174.046 312.149 174.539 312.086 175.04C311.997 177.154 312.175 179.271 312.616 181.34Z" fill="#263238"/>
<path d="M297.216 194.27C296.796 187.27 297.376 176.77 298.216 173.72C299.056 170.67 303.616 159.54 307.216 158.85C311.676 157.99 309.216 167.2 308.336 171.06C307.456 174.92 309.156 180.27 309.156 180.27L297.216 194.27Z" fill="#D3766A"/>
<path d="M307.736 158.8C308.185 158.806 308.626 158.927 309.016 159.15C309.413 159.397 309.716 159.77 309.876 160.21C310.159 161.077 310.261 161.992 310.176 162.9C310.045 164.684 309.747 166.452 309.286 168.18C308.772 169.833 308.46 171.542 308.356 173.27C308.401 174.994 308.697 176.702 309.236 178.34C310.236 181.67 311.886 184.85 312.646 188.34C313.318 191.86 313.192 195.486 312.276 198.95C312.582 197.214 312.709 195.452 312.656 193.69C312.629 191.942 312.397 190.204 311.966 188.51C310.966 185.16 309.346 182.02 308.286 178.58C307.727 176.845 307.44 175.033 307.436 173.21C307.565 171.431 307.939 169.678 308.546 168C309.079 166.331 309.461 164.617 309.686 162.88C309.838 162.031 309.814 161.159 309.616 160.32C309.489 159.909 309.242 159.545 308.907 159.274C308.572 159.003 308.165 158.838 307.736 158.8Z" fill="#263238"/>
<path d="M334.546 221.32L296.216 211.89C296.216 211.89 301.216 236.38 306.906 244.56C312.596 252.74 321.276 260.75 331.906 255.25C339.846 251.13 334.546 221.32 334.546 221.32Z" fill="#730034"/>
<path d="M331.706 228.54C329.766 227.93 327.706 227.48 325.776 226.99C323.846 226.5 321.776 225.99 319.776 225.58C315.776 224.69 311.776 223.82 307.776 223L304.496 222.35C303.316 222.13 302.116 222.06 300.946 221.83C300.927 221.83 300.909 221.837 300.896 221.85C300.883 221.864 300.876 221.881 300.876 221.9C300.876 221.919 300.883 221.936 300.896 221.949C300.909 221.963 300.927 221.97 300.946 221.97C301.946 222.21 302.856 222.59 303.826 222.84C304.796 223.09 305.826 223.35 306.826 223.59C308.826 224.063 310.826 224.523 312.826 224.97C316.826 225.86 320.826 226.74 324.826 227.51C327.086 227.94 329.366 228.44 331.646 228.74C331.659 228.744 331.673 228.745 331.686 228.744C331.7 228.742 331.713 228.738 331.725 228.732C331.737 228.725 331.748 228.717 331.757 228.706C331.765 228.695 331.772 228.683 331.776 228.67C331.78 228.657 331.781 228.643 331.78 228.629C331.778 228.616 331.774 228.603 331.768 228.59C331.761 228.578 331.752 228.568 331.742 228.559C331.731 228.55 331.719 228.544 331.706 228.54Z" fill="#263238"/>
<path d="M333.286 221C333.726 221.05 334.146 221.11 334.576 221.18H334.646V221.27C335.49 224.571 336.061 227.936 336.356 231.33C336.709 234.73 336.672 238.159 336.246 241.55C335.996 238.15 335.706 234.79 335.376 231.43C335.046 228.07 334.676 224.7 334.376 221.31L334.466 221.41C334.106 221.31 333.696 221.16 333.286 221Z" fill="#263238"/>
<path d="M360.206 166.84C360.206 166.84 360.206 166.79 360.266 166.84C360.426 170.54 361.026 179.09 366.636 177.97C368.896 177.52 370.826 175.85 372.416 174.24C374.037 172.575 375.475 170.741 376.706 168.77C378.157 166.596 379.432 164.309 380.516 161.93C380.516 161.83 380.706 161.93 380.666 162.01C379.556 164.4 378.666 166.86 377.346 169.14C376.081 171.338 374.528 173.356 372.726 175.14C371.026 176.79 368.956 178.48 366.556 178.84C365.504 178.997 364.43 178.783 363.518 178.236C362.606 177.689 361.913 176.842 361.556 175.84C360.453 172.975 359.992 169.903 360.206 166.84Z" fill="#263238"/>
<path d="M365.656 174.57C371.496 175.26 377.776 167.36 379.746 161.36C379.876 160.95 378.576 157.13 377.216 152.36C376.396 149.49 375.566 146.28 375.006 143.29L357.116 151.29C358.876 154.829 360.196 158.57 361.046 162.43C361.122 162.842 361.156 163.261 361.146 163.68C361.146 163.74 361.146 163.81 361.146 163.89C361.216 166.36 361.256 174.05 365.656 174.57Z" fill="#D3766A"/>
<path d="M357.116 151.36C358.877 154.899 360.2 158.64 361.056 162.5C361.124 162.91 361.154 163.325 361.146 163.74C361.141 163.81 361.141 163.88 361.146 163.95C361.799 163.934 362.449 163.85 363.086 163.7C374.396 161.08 374.376 147.51 374.146 143.7L357.116 151.36Z" fill="#263238"/>
<path d="M377.426 123.49C379.626 130.2 376.426 149.79 371.746 154.24C364.906 160.69 353.516 161.53 347.986 153.24C342.626 145.24 347.196 119.78 352.486 115.71C360.266 109.75 374.176 113.57 377.426 123.49Z" fill="#D3766A"/>
<path d="M358.046 135.91C358.046 135.91 358.136 135.99 358.126 136.04C357.906 137.35 357.866 138.89 358.996 139.49C358.996 139.49 358.996 139.58 358.996 139.56C357.546 139.16 357.616 137.12 358.046 135.91Z" fill="#263238"/>
<path d="M359.406 134.7C361.546 134.84 361.116 139.1 359.136 138.98C357.156 138.86 357.616 134.59 359.406 134.7Z" fill="#263238"/>
<path d="M350.286 135.12C350.286 135.07 350.176 135.18 350.176 135.23C350.086 136.56 349.756 138.06 348.516 138.38V138.45C349.996 138.39 350.416 136.39 350.286 135.12Z" fill="#263238"/>
<path d="M349.246 133.63C347.136 133.25 346.546 137.5 348.496 137.84C350.446 138.18 351.016 133.94 349.246 133.63Z" fill="#263238"/>
<path d="M360.546 132.26C359.999 132.044 359.465 131.797 358.946 131.52C358.353 131.326 357.836 130.952 357.466 130.45C357.384 130.267 357.365 130.061 357.412 129.866C357.459 129.67 357.569 129.496 357.726 129.37C358.07 129.169 358.462 129.063 358.861 129.063C359.26 129.063 359.651 129.169 359.996 129.37C360.76 129.669 361.384 130.243 361.746 130.98C361.802 131.15 361.811 131.333 361.772 131.508C361.733 131.683 361.648 131.845 361.525 131.976C361.402 132.107 361.247 132.202 361.074 132.252C360.902 132.302 360.72 132.305 360.546 132.26Z" fill="#263238"/>
<path d="M347.816 131.32C348.416 131.32 348.956 131.14 349.546 131.05C350.171 131.033 350.774 130.816 351.266 130.43C351.398 130.28 351.476 130.09 351.486 129.89C351.497 129.691 351.441 129.493 351.326 129.33C351.054 129.037 350.708 128.822 350.324 128.708C349.941 128.593 349.534 128.584 349.146 128.68C348.328 128.754 347.568 129.133 347.016 129.74C346.91 129.889 346.847 130.063 346.833 130.245C346.819 130.427 346.856 130.609 346.938 130.772C347.021 130.935 347.146 131.072 347.301 131.168C347.455 131.265 347.633 131.317 347.816 131.32Z" fill="#263238"/>
<path d="M358.276 147.72C357.986 148.06 357.716 148.52 357.276 148.6C356.784 148.642 356.29 148.577 355.826 148.41C355.776 148.41 355.746 148.41 355.776 148.48C355.989 148.72 356.263 148.899 356.569 148.997C356.875 149.096 357.202 149.111 357.516 149.04C357.779 148.945 358.009 148.773 358.174 148.547C358.34 148.321 358.435 148.05 358.446 147.77C358.449 147.759 358.45 147.747 358.449 147.736C358.448 147.724 358.444 147.713 358.439 147.703C358.433 147.692 358.425 147.683 358.416 147.676C358.407 147.669 358.397 147.663 358.386 147.66C358.375 147.657 358.363 147.656 358.351 147.657C358.34 147.658 358.329 147.662 358.318 147.667C358.308 147.673 358.299 147.68 358.292 147.689C358.284 147.698 358.279 147.709 358.276 147.72Z" fill="#263238"/>
<path d="M356.986 143.76C356.599 144.249 356.115 144.653 355.564 144.945C355.013 145.238 354.408 145.413 353.786 145.46C353.244 145.505 352.699 145.475 352.166 145.37C351.967 145.334 351.77 145.287 351.576 145.23C351.505 145.212 351.443 145.17 351.4 145.112C351.356 145.054 351.334 144.983 351.336 144.91C351.336 144.86 351.706 142.09 351.706 142.09C351.316 142.24 349.336 142.91 349.416 142.38C350.126 138.01 350.906 133.14 352.526 128.94C352.53 128.924 352.537 128.909 352.546 128.896C352.556 128.883 352.568 128.872 352.582 128.864C352.596 128.856 352.612 128.85 352.628 128.848C352.644 128.845 352.66 128.846 352.676 128.85C352.692 128.854 352.706 128.861 352.719 128.871C352.733 128.88 352.744 128.892 352.752 128.906C352.76 128.92 352.766 128.936 352.768 128.952C352.771 128.968 352.77 128.984 352.766 129C352.256 133.23 351.006 137.34 350.426 141.58C351.131 141.331 351.869 141.186 352.616 141.15C352.686 141.15 352.076 144.59 352.076 144.62C352.902 144.785 353.753 144.781 354.578 144.609C355.403 144.438 356.184 144.101 356.876 143.62C356.986 143.56 357.076 143.66 356.986 143.76Z" fill="#263238"/>
<path d="M352.836 144.84C353.33 145.615 354.02 146.247 354.836 146.67C355.277 146.893 355.777 146.974 356.266 146.9C357.336 146.72 357.456 145.76 357.336 144.9C357.272 144.454 357.154 144.018 356.986 143.6C355.771 144.448 354.316 144.883 352.836 144.84Z" fill="#263238"/>
<path d="M354.806 146.67C355.247 146.893 355.747 146.974 356.236 146.9C357.306 146.72 357.426 145.76 357.306 144.9C356.75 144.869 356.201 145.027 355.747 145.348C355.293 145.67 354.961 146.136 354.806 146.67Z" fill="#FF9CBD"/>
<path d="M378.316 141.06C373.066 141.16 370.656 134.79 372.136 129.84C372.136 129.84 358.136 130.98 358.036 119.78C356.855 121.28 355.35 122.494 353.634 123.33C351.918 124.167 350.035 124.604 348.126 124.61L347.016 128.61C345.616 128.12 344.256 123.72 347.906 120.72C347.906 120.72 348.426 115.16 352.696 112.03C353.853 111.128 355.246 110.579 356.708 110.449C358.17 110.32 359.638 110.615 360.936 111.3C363.445 109.67 366.49 109.081 369.426 109.66C370.963 109.978 372.401 110.661 373.619 111.652C374.838 112.642 375.8 113.91 376.426 115.35C376.426 115.35 383.246 117.01 384.176 121.96C384.466 123.36 384.458 124.806 384.153 126.203C383.848 127.6 383.253 128.918 382.406 130.07C382.406 130.07 384.036 132.07 382.946 136.21C382.206 138.9 379.896 141 378.316 141.06Z" fill="#263238"/>
<path d="M358.386 118.81C358.238 119.709 358.184 120.62 358.226 121.53C358.237 122.429 358.362 123.322 358.596 124.19C359.031 125.91 360.103 127.4 361.596 128.36C363.137 129.268 364.87 129.799 366.656 129.91C367.566 129.91 368.476 130.01 369.376 129.98C370.276 129.95 371.196 129.86 372.126 129.84C371.226 130.01 370.316 130.14 369.396 130.29C368.476 130.44 367.556 130.36 366.626 130.4C364.735 130.362 362.884 129.846 361.246 128.9C359.638 127.84 358.511 126.192 358.106 124.31C357.736 122.482 357.833 120.591 358.386 118.81Z" fill="#263238"/>
<path d="M376.386 115.39C378.152 115.492 379.878 115.958 381.456 116.76C383.099 117.555 384.41 118.904 385.156 120.57C385.474 121.419 385.653 122.314 385.686 123.22C385.747 124.119 385.655 125.022 385.416 125.89C384.959 127.627 383.872 129.132 382.366 130.11C383.674 128.983 384.577 127.459 384.936 125.77C385.296 124.102 385.164 122.365 384.556 120.77C384.245 119.998 383.79 119.292 383.216 118.69C382.618 118.092 381.946 117.575 381.216 117.15C379.709 116.311 378.079 115.716 376.386 115.39Z" fill="#263238"/>
<path d="M360.936 111.34C359.648 110.793 358.28 110.456 356.886 110.34C355.527 110.2 354.156 110.436 352.922 111.022C351.688 111.607 350.637 112.519 349.886 113.66C349.084 114.806 348.461 116.067 348.036 117.4C348.234 115.981 348.724 114.619 349.476 113.4C350.204 112.112 351.313 111.081 352.65 110.449C353.988 109.817 355.489 109.615 356.946 109.87C358.367 110.065 359.728 110.567 360.936 111.34Z" fill="#263238"/>
<path d="M350.896 124.9C352.443 124.458 353.906 123.762 355.226 122.84C355.869 122.38 356.448 121.835 356.946 121.22C357.437 120.599 357.863 119.929 358.216 119.22C358.096 120.053 357.8 120.851 357.346 121.56C356.892 122.285 356.301 122.913 355.606 123.41C354.92 123.905 354.161 124.29 353.356 124.55C352.56 124.799 351.729 124.918 350.896 124.9Z" fill="#263238"/>
<path d="M358.546 143.27C357.05 142.873 355.772 141.9 354.991 140.565C354.21 139.229 353.989 137.638 354.376 136.14C354.653 135.083 355.221 134.124 356.016 133.374C356.811 132.623 357.8 132.111 358.872 131.895C359.943 131.679 361.054 131.768 362.077 132.152C363.1 132.537 363.995 133.2 364.66 134.068C365.325 134.935 365.733 135.972 365.838 137.06C365.943 138.148 365.74 139.244 365.253 140.222C364.766 141.201 364.014 142.023 363.083 142.595C362.152 143.168 361.079 143.467 359.986 143.46C359.5 143.45 359.017 143.387 358.546 143.27ZM355.136 136.34C354.884 137.306 354.924 138.325 355.251 139.268C355.578 140.212 356.177 141.037 356.973 141.64C357.769 142.243 358.726 142.596 359.722 142.655C360.719 142.715 361.711 142.477 362.573 141.973C363.434 141.469 364.127 140.72 364.564 139.823C365 138.925 365.161 137.918 365.026 136.928C364.89 135.939 364.464 135.013 363.802 134.265C363.14 133.518 362.271 132.984 361.306 132.73C360.897 132.625 360.478 132.568 360.056 132.56C358.935 132.56 357.846 132.931 356.958 133.615C356.07 134.298 355.433 135.257 355.146 136.34H355.136Z" fill="#455A64"/>
<path d="M346.836 141.71C344.466 141.42 342.836 138.58 343.246 135.39C343.399 133.941 344.004 132.576 344.976 131.49C345.363 130.998 345.87 130.615 346.449 130.377C347.027 130.139 347.657 130.055 348.278 130.132C348.899 130.21 349.489 130.446 349.992 130.819C350.494 131.192 350.892 131.688 351.146 132.26C351.822 133.549 352.074 135.019 351.866 136.46C351.496 139.46 349.456 141.75 347.216 141.74L346.836 141.71ZM345.546 132C344.685 132.964 344.15 134.175 344.016 135.46C343.676 138.23 345.016 140.68 346.936 140.92C348.856 141.16 350.756 139.11 351.096 136.34C351.277 135.061 351.057 133.758 350.466 132.61C350.251 132.16 349.931 131.768 349.532 131.469C349.133 131.169 348.668 130.971 348.176 130.89C348.079 130.88 347.982 130.88 347.886 130.89C347.44 130.901 347.001 131.006 346.598 131.197C346.195 131.388 345.837 131.662 345.546 132Z" fill="#455A64"/>
<path d="M354.446 136.83L354.926 136.38C354.266 135.67 352.656 134.62 351.306 135.75L351.726 136.25C352.936 135.24 354.386 136.76 354.446 136.83Z" fill="#455A64"/>
<path d="M381.206 142.21L381.826 141.98C381.716 141.7 380.746 139.16 379.316 138.74C377.886 138.32 365.776 136.9 365.396 136.89V137.54C367.936 137.62 378.126 139.07 379.156 139.37C380.186 139.67 380.956 141.52 381.206 142.21Z" fill="#455A64"/>
<path d="M372.826 140.67C372.826 140.67 377.236 134.36 380.106 135.93C382.976 137.5 379.656 146.65 376.296 147.93C375.875 148.12 375.42 148.223 374.958 148.233C374.497 148.242 374.038 148.159 373.609 147.987C373.18 147.815 372.791 147.559 372.464 147.233C372.137 146.907 371.879 146.518 371.706 146.09L372.826 140.67Z" fill="#D3766A"/>
<path d="M379.086 138.53V138.62C376.726 139.62 375.486 141.76 374.616 144.03C374.754 143.794 374.941 143.591 375.165 143.435C375.388 143.278 375.643 143.171 375.912 143.122C376.18 143.073 376.456 143.082 376.721 143.149C376.986 143.216 377.233 143.339 377.446 143.51C377.506 143.56 377.446 143.65 377.376 143.64C376.962 143.508 376.519 143.508 376.105 143.638C375.691 143.769 375.328 144.025 375.066 144.37C374.629 144.955 374.257 145.585 373.956 146.25C373.846 146.46 373.466 146.35 373.546 146.1C373.546 143 375.856 138.83 379.086 138.53Z" fill="#263238"/>
<path d="M360.956 161.7L366.466 172.21L378.666 157L382.976 161.05C382.976 161.05 371.896 184.42 371.706 183.44L366.236 174.44L360.386 181.67L359.246 165.13L360.956 161.7Z" fill="#EBEBEB"/>
<path d="M359.356 173.51C359.266 170.77 359.086 168.01 359.116 165.27C359.116 165.18 359.266 165.12 359.296 165.27C360.106 167.84 360.426 178.27 360.686 180.8C360.926 180.49 366.136 174.41 366.206 174.49C367.336 175.89 371.346 182.43 371.636 183.04C373.386 179.32 380.166 165.79 382.326 162.23C382.336 162.207 382.356 162.19 382.379 162.182C382.402 162.173 382.428 162.174 382.451 162.185C382.473 162.196 382.491 162.215 382.499 162.238C382.508 162.262 382.506 162.287 382.496 162.31C381.016 166.19 372.066 184.4 371.906 184.31C369.828 181.246 367.912 178.075 366.166 174.81C365.316 176.11 360.166 182.9 360.056 182.5C359.667 179.517 359.434 176.517 359.356 173.51Z" fill="#263238"/>
<path d="M428.066 254.33C419.876 255.11 409.986 248.33 384.476 228.04C380.936 225.23 394.076 194.97 398.006 197.78C402.946 201.32 421.366 216.12 422.576 217.37C432.786 227.93 433.616 253.8 428.066 254.33Z" fill="#D3766A"/>
<path d="M407.016 207.48C407.016 207.48 399.956 196.64 394.546 192.1C387.216 186.01 378.396 183.78 374.636 183.1C366.796 181.61 346.806 183.42 346.326 189.27C345.886 194.56 366.226 191.68 366.226 191.68C366.226 191.68 345.006 191.2 345.656 197.68C346.306 204.16 369.716 199.46 369.716 199.46C369.716 199.46 347.906 199.46 349.626 206.02C350.926 211.02 372.376 207.93 372.376 207.93C372.376 207.93 353.626 208.05 354.746 213.22C355.976 218.92 375.956 217.34 375.956 217.34C381.006 229.98 388.846 233.81 394.576 235.98C395.906 236.46 407.016 207.48 407.016 207.48Z" fill="#D3766A"/>
<path d="M373.546 191.33C371.056 191.19 368.546 191.02 366.036 191.1C363.526 191.18 361.036 191.34 358.576 191.64C355.329 191.98 352.131 192.691 349.046 193.76C354.656 192.27 363.586 191.86 366.046 191.76C368.506 191.66 371.046 191.49 373.516 191.41C373.596 191.43 373.546 191.34 373.546 191.33Z" fill="#263238"/>
<path d="M373.966 200.34C370.776 200.29 367.606 200.12 364.416 200.22C361.226 200.32 358.236 200.67 355.076 200.98C354.836 200.98 354.926 201.13 355.166 201.11C358.346 200.93 361.286 201.01 364.456 200.86C367.626 200.71 370.806 200.45 373.966 200.42C374.016 200.41 374.006 200.34 373.966 200.34Z" fill="#263238"/>
<path d="M375.726 208C370.837 207.81 365.941 208.121 361.116 208.93C360.876 208.93 361.016 209.11 361.266 209.09C366.116 208.69 369.916 208.34 375.716 208.17C375.806 208.17 375.826 208 375.726 208Z" fill="#263238"/>
<path d="M407.186 203.3L395.236 240.66C395.236 240.66 422.376 258.21 428.706 254.13C435.036 250.05 431.926 228.06 425.316 219.45C422.546 215.86 407.186 203.3 407.186 203.3Z" fill="#730034"/>
<path d="M406.796 204.54L407.256 203.32H407.146C409.686 205.57 412.236 207.81 414.746 210.09C417.256 212.37 419.746 214.63 422.156 217.02C423.36 218.187 424.489 219.429 425.536 220.74C426.531 222.08 427.411 223.501 428.166 224.99C429.667 228.022 430.68 231.272 431.166 234.62C431.04 231.192 430.255 227.821 428.856 224.69C428.158 223.11 427.289 221.611 426.266 220.22C425.221 218.858 424.085 217.569 422.866 216.36C420.436 213.96 417.866 211.7 415.296 209.5C412.726 207.3 410.016 205.22 407.296 203.21L407.216 203.16V203.25L406.796 204.54Z" fill="#263238"/>
<path d="M412.896 212.93C412.186 214.76 411.616 216.66 411.016 218.53C410.416 220.4 409.826 222.27 409.266 224.16C408.146 227.92 407.036 231.69 405.986 235.48C405.696 236.48 405.406 237.55 405.136 238.59C404.866 239.63 404.706 240.86 404.406 241.97C404.406 242.06 404.506 242.09 404.536 241.97C404.826 241.05 405.256 240.17 405.536 239.25C405.816 238.33 406.156 237.35 406.456 236.39C407.036 234.51 407.609 232.63 408.176 230.75C409.306 226.99 410.416 223.21 411.416 219.42C411.986 217.27 412.616 215.12 413.056 212.95C413.048 212.936 413.037 212.925 413.024 212.916C413.011 212.907 412.996 212.901 412.981 212.899C412.965 212.898 412.949 212.899 412.935 212.905C412.92 212.91 412.907 212.919 412.896 212.93Z" fill="#263238"/>
<path d="M396.296 237.33C396.026 238.47 395.716 239.59 395.416 240.71L395.346 240.5C397.676 241.92 400.046 243.3 402.416 244.65C404.786 246 407.186 247.33 409.606 248.59C410.806 249.23 412.046 249.81 413.256 250.43C414.466 251.05 415.726 251.59 416.976 252.11C419.47 253.225 422.074 254.076 424.746 254.65C422.003 254.416 419.308 253.786 416.746 252.78C414.154 251.845 411.628 250.736 409.186 249.46C406.726 248.22 404.336 246.86 401.996 245.41C399.656 243.96 397.376 242.41 395.156 240.81L395.036 240.72L395.086 240.6C395.466 239.51 395.866 238.41 396.296 237.33Z" fill="#263238"/>
<path d="M189.05 315.72L192.08 333.89L212.6 457.53H215.91L200.99 333.89L198.78 315.72H189.05Z" fill="#DBDBDB"/>
<path d="M198.78 315.72H189.05L192.08 333.89H200.99L198.78 315.72Z" fill="#A6A6A6"/>
<path d="M124.58 457.53H127.89L148.42 333.89L151.45 315.72H141.71L139.51 333.89L124.58 457.53Z" fill="#DBDBDB"/>
<path d="M141.71 315.72L139.51 333.89H148.42L151.45 315.72H141.71Z" fill="#A6A6A6"/>
<path d="M63 457.53H66.31L86.84 333.89L89.87 315.72H80.14L77.93 333.89L63 457.53Z" fill="#DBDBDB"/>
<path d="M77.9301 333.89H86.84L89.87 315.72H80.1401L77.9301 333.89Z" fill="#A6A6A6"/>
<path d="M68.25 324.26H218.68V308.41H162.37L143.44 198.3H73.99L68.25 324.26Z" fill="#DBDBDB"/>
<path d="M68.25 324.26H76.45L81.8 198.3H73.99L68.25 324.26Z" fill="#A6A6A6"/>
<path d="M302.42 413.64C299.93 415.24 222.07 435.07 218.62 433.95C217.31 433.53 213.77 422.36 209.86 408.74C209.02 405.8 208.16 402.74 207.31 399.66C201.8 379.58 196.42 358.14 196.42 358.14L248.42 344.72L257.93 386.61L260.02 395.81C260.02 395.81 293.23 401.55 296.88 403.18C300.53 404.81 304.93 412 302.42 413.64Z" fill="#FFC4C0"/>
<path d="M211.42 413.93C214.71 425.1 217.54 433.58 218.68 433.93C222.13 435.05 299.99 415.21 302.48 413.61C304.97 412.01 300.57 404.81 296.94 403.16C294.69 402.16 281.19 399.59 271.17 397.76C279.92 399.46 296.34 404.63 263.02 408.49C235.42 411.72 217.24 413.42 211.42 413.93Z" fill="#263238"/>
<path d="M233.27 456.89C230.45 457.81 150.11 457.14 147.06 455.18C145.9 454.44 147.59 422.12 148.3 418.99C150.69 408.38 162.87 376.22 162.87 376.22L216.61 376.51L196.81 428.85C196.81 428.85 227.46 442.85 230.57 445.37C233.68 447.89 236.08 456 233.27 456.89Z" fill="#FFC4C0"/>
<path d="M147.06 455.18C150.11 457.18 230.45 457.81 233.27 456.9C236.09 455.99 233.67 447.9 230.58 445.37C229.12 444.2 221.7 440.55 214.19 436.97C223.63 441.76 238.72 452.7 147.07 435.97C146.64 445.22 146.42 454.78 147.06 455.18Z" fill="#263238"/>
<path d="M102.04 303.73C118.78 320.84 171.86 304.46 175.37 311.4C178.47 317.52 146.19 419.4 146.19 419.4L205.08 423.18C205.08 423.18 250.89 310.23 231.42 279C220.9 262.14 178.15 270.89 152.03 268.86C144.15 268.24 139.77 252.24 139.77 252.24L93.3399 254.24C93.3399 254.24 82.8899 284.18 102.04 303.73Z" fill="#37474F"/>
<path d="M214.68 269.79L167.09 309.59C150.73 309.95 115.19 317.17 102.09 303.73C82.94 284.18 93.38 254.25 93.38 254.25L139.81 252.25C139.81 252.25 144.19 268.25 152.06 268.87C170.35 270.28 196.85 266.4 214.68 269.79Z" fill="#263238"/>
<path d="M206.75 410C205.11 409.57 189.84 408.53 186.47 408.31C179.73 407.88 158.47 406.82 154.69 407C154.59 407 154.58 407.16 154.69 407.18C158.05 407.73 171.6 408.72 174.96 408.92C181.71 409.32 204.89 410.56 206.75 410.29C206.782 410.282 206.81 410.263 206.83 410.236C206.851 410.21 206.862 410.178 206.862 410.145C206.862 410.112 206.851 410.08 206.83 410.054C206.81 410.027 206.782 410.008 206.75 410Z" fill="#263238"/>
<path d="M182.23 305.22C178.38 303.51 149.85 305.67 129.23 304.64C122.53 304.3 115.76 303.17 110.48 299.01C105.851 295.202 102.449 290.113 100.7 284.38C98.42 277.46 98.34 270.15 98.42 263C98.42 261.24 98.42 259.47 98.5 257.7C98.5 257.6 98.32 257.58 98.32 257.7C97.32 270.62 96.74 285.03 105.58 295.8C109.506 300.52 114.931 303.752 120.95 304.96C133.46 307.67 179.95 304.85 181.61 306.04C183.61 307.45 157.54 400.25 157.02 402.04C156.92 402.37 157.5 402.57 157.62 402.24C160.23 395 185.58 306.71 182.23 305.22Z" fill="#263238"/>
<path d="M233.65 282C230.58 275.1 224.08 271 214.74 269.73C214.58 269.73 214.6 269.94 214.74 269.98C222.94 271.98 228.87 274.98 232.34 281.69C233.97 284.81 234.93 289.26 235.58 295.25C238.8 325.13 215.58 394.25 215.12 395.47C215.12 395.58 215.23 395.66 215.28 395.55C218.71 389.2 246.31 310.47 233.65 282Z" fill="#263238"/>
<path d="M259.29 383.86L215.29 395.23C215.29 395.23 245.79 289.23 228.75 276.42C224.03 272.88 214.04 272 202.44 277.62C185.14 286 165.44 302.42 146.44 308.93C128.64 315.03 107.03 311.06 99.32 303.28C83.11 286.92 93.32 254.28 93.32 254.28L157.06 249.12C157.06 249.12 156.14 249.93 159.3 252.5C159.3 252.5 196.45 242.37 213.19 251.62C243.42 268.27 259.29 383.86 259.29 383.86Z" fill="#37474F"/>
<path d="M121.07 256.77C121.067 256.756 121.061 256.742 121.052 256.73C121.043 256.718 121.033 256.707 121.02 256.7C121.008 256.692 120.994 256.686 120.979 256.684C120.964 256.681 120.949 256.682 120.935 256.685C120.921 256.688 120.907 256.694 120.895 256.703C120.883 256.711 120.872 256.722 120.865 256.735C120.857 256.747 120.851 256.761 120.849 256.776C120.846 256.791 120.847 256.806 120.85 256.82C121.01 259.215 120.93 261.621 120.61 264C120.194 266.269 119.156 268.378 117.61 270.09C114.26 273.78 109.29 275.2 104.77 276.85C104.53 276.93 104.59 277.36 104.86 277.31C109.92 276.31 115.21 274.78 118.77 270.8C120.398 268.963 121.442 266.683 121.77 264.25C122.164 261.737 121.924 259.166 121.07 256.77Z" fill="#263238"/>
<path d="M227.58 274.47C220.58 270.47 210.05 274.2 205.02 276.38C204.92 276.38 205.02 276.59 205.08 276.55C209.71 274.66 221.29 271.55 227.73 275.75C242.62 285.35 226.32 356.17 215.31 395.23C215.14 395.84 215.61 395.66 215.85 395.07C217.75 390.41 231.97 341.07 234.85 308.66C235.28 303.68 237.69 280.22 227.58 274.47Z" fill="#263238"/>
<path d="M253.72 372.28C252.38 372.28 240.98 375.34 238.48 376.02C233.48 377.38 221.84 380.93 219.14 382.1C219.07 382.1 219.14 382.28 219.2 382.27C221.82 381.9 227.89 380.27 230.39 379.6C235.39 378.2 252.57 373.29 253.82 372.55C253.92 372.49 253.85 372.28 253.72 372.28Z" fill="#263238"/>
<path d="M225.33 272.75C220.63 270.44 215.15 270.26 210.08 271.11C204.734 272.156 199.58 274.017 194.8 276.63C184.62 281.83 174.98 288.06 164.8 293.23C154.62 298.4 143.8 302.53 132.41 303.37C122.69 304.09 110.29 302.91 103.65 294.42C93.41 281.34 98.03 257.83 98.07 256.32C98.07 256.2 97.92 256.21 97.9 256.32C91.65 285.25 101.76 295.94 108.46 300.32C113.78 303.8 121.24 304.42 126.16 304.62C137.53 305.09 148.77 301.82 159.09 297.18C169.68 292.42 179.52 286.18 189.61 280.49C199.28 275 210.07 269.31 221.49 271.72C222.788 272.003 224.065 272.377 225.31 272.84C225.36 272.88 225.42 272.78 225.33 272.75Z" fill="#263238"/>
<path d="M151.53 171.12C152.22 175.25 152.92 179.4 153.45 183.56C153.77 186.1 153.93 188.62 154.02 191.16C153.268 192.166 152.402 193.082 151.44 193.89C151.44 193.25 151.39 192.6 151.37 191.98C151.27 188.98 150.93 185.98 150.55 182.98C150.55 182.88 150.4 182.92 150.41 182.98C150.7 186.08 150.77 189.24 150.82 192.36C150.82 193.04 150.82 193.72 150.82 194.36C149.911 195.067 148.948 195.703 147.94 196.26C147.94 195.513 147.94 194.773 147.94 194.04C147.94 192.31 147.94 190.59 147.82 188.87C147.663 185.482 147.329 182.104 146.82 178.75C146.82 178.61 146.63 178.66 146.64 178.75C146.98 182.22 147.2 185.75 147.32 189.21C147.32 190.86 147.4 192.52 147.4 194.21C147.4 195 147.4 195.8 147.34 196.6C145.509 197.545 143.598 198.328 141.63 198.94C136.03 200.71 129.91 200.39 124.2 199.31C119.146 198.409 114.404 196.237 110.42 193C111.797 190.321 112.806 187.469 113.42 184.52C113.42 184.42 113.33 184.38 113.29 184.47C112.62 186.36 111.88 188.2 111.07 190.01C110.68 190.86 110.26 191.69 109.85 192.52L109.67 192.36C109.28 192.01 108.87 191.64 108.46 191.24C109.248 189.511 109.945 187.742 110.55 185.94C111.475 183.401 112.184 180.788 112.67 178.13C112.67 177.96 112.5 177.88 112.44 178.05C111.59 180.53 110.8 183.05 109.92 185.52C109.3 187.26 108.58 188.96 107.92 190.68C106.62 189.429 105.853 187.723 105.78 185.92C105.92 184.361 106.329 182.839 106.99 181.42C107.592 179.811 108.113 178.172 108.55 176.51C109.48 173.08 112.35 168.21 113.31 154.1C113.53 150.78 113.31 147.43 113.57 144.1C113.679 141.362 114.688 138.737 116.44 136.63C117.909 135.062 119.775 133.922 121.84 133.33C121.84 133.24 132.16 122.24 144.51 129.15C158.51 137 158.84 177.55 158 182.42C157.359 185.15 156.263 187.753 154.76 190.12C154.67 187.98 154.44 185.84 154.17 183.76C153.62 179.46 152.7 175.26 151.76 171.05C151.755 171.035 151.748 171.021 151.738 171.009C151.728 170.996 151.716 170.986 151.702 170.979C151.688 170.972 151.672 170.967 151.657 170.965C151.641 170.964 151.625 170.965 151.61 170.97C151.595 170.975 151.581 170.982 151.569 170.992C151.556 171.002 151.546 171.014 151.539 171.028C151.532 171.042 151.527 171.058 151.525 171.073C151.524 171.089 151.525 171.105 151.53 171.12Z" fill="#263238"/>
<path d="M133.56 190.83C148.45 207.59 168.48 223.16 176.56 222.54C183.08 222.04 221.15 196.89 223.76 193.21C226 190.05 206.59 167.14 202.85 168.94C196.57 171.94 174.66 191.73 172.72 191.53C170.78 191.33 154.55 185.07 138.38 178.31C122.92 171.83 123.23 179.19 133.56 190.83Z" fill="#FFC4C0"/>
<path d="M219.57 196.65C222.63 194.75 235.89 184.78 238.96 181.18C242.03 177.58 250.11 166.59 247.59 163.96C245.07 161.33 242.45 164.36 242.45 164.36C242.45 164.36 245.13 159.17 242.36 156.76C239.59 154.35 235.65 159.19 235.65 159.19C235.65 159.19 238.02 153.66 235.08 151.45C232.14 149.24 229 154.77 229 154.77C229 154.77 231.4 149.77 228.21 149.02C224.37 148.02 220.99 157.68 217.3 161.4C216.46 162.24 199.11 177.3 199.11 177.3L219.57 196.65Z" fill="#FFC4C0"/>
<path d="M229.28 154.31C226.78 161.38 224.46 164.04 218.65 168.61C218.54 168.7 218.65 168.89 218.77 168.8C224.86 164.8 228.25 161.93 229.63 154.41C229.7 154 229.42 154 229.28 154.31Z" fill="#263238"/>
<path d="M235.84 158.62C232.6 165.74 230.11 168.62 224.38 173.88C224.3 173.96 224.38 174.1 224.51 174.03C230.51 169.37 233.87 166.38 236.18 158.84C236.28 158.5 235.99 158.3 235.84 158.62Z" fill="#263238"/>
<path d="M242.15 164.62C238.51 171.28 235.92 174.62 229.71 178.95C229.694 178.96 229.681 178.973 229.67 178.988C229.659 179.003 229.651 179.02 229.647 179.038C229.643 179.056 229.642 179.075 229.645 179.093C229.649 179.112 229.655 179.129 229.665 179.145C229.675 179.161 229.688 179.174 229.703 179.185C229.718 179.196 229.735 179.204 229.753 179.208C229.771 179.212 229.79 179.213 229.808 179.21C229.827 179.206 229.844 179.2 229.86 179.19C236.62 175.35 239.86 171.25 242.34 164.75C242.51 164.3 242.42 164.2 242.15 164.62Z" fill="#263238"/>
<path d="M193.15 177.53C193.15 177.53 195.79 168.53 197.82 164.8C199.85 161.07 212.52 150.06 215.06 152.66C218.33 156.02 212.28 163.82 208.81 167.26C208.81 167.26 216.4 175.02 213.26 181.56C210.12 188.1 193.15 177.53 193.15 177.53Z" fill="#FFC4C0"/>
<path d="M215.65 153.88C216.43 159.09 211.59 163.31 208.48 166.88C208.433 166.93 208.398 166.991 208.379 167.057C208.36 167.124 208.357 167.194 208.371 167.261C208.384 167.329 208.414 167.392 208.458 167.446C208.501 167.5 208.557 167.542 208.62 167.57C211.62 171.04 214.76 176.79 213.54 181.44C213.54 181.58 213.7 181.65 213.75 181.52C215.75 176.7 213.08 170.8 209.59 167.21C212.84 163.58 217.51 159.14 215.7 153.85C215.69 153.84 215.65 153.84 215.65 153.88Z" fill="#263238"/>
<path d="M190 176.91L215.58 205.91C215.58 205.91 184.09 224.63 175.63 223.42C167.17 222.21 156.45 215.36 134.52 192.32C117.15 174.07 130.24 173.32 140.78 178.07C149.39 181.93 171.22 190.66 172.88 189.83C174.54 189 190 176.91 190 176.91Z" fill="#730034"/>
<path d="M215.57 205.91C215.57 205.91 187.09 222.85 177.03 223.46C176.564 223.506 176.095 223.506 175.63 223.46C167.17 222.24 156.45 215.4 134.51 192.36C126.83 184.28 125.11 179.64 126.51 177.36C128.26 174.52 134.92 175.45 140.81 178.09C149.41 181.95 171.24 190.69 172.91 189.85C174.58 189.01 190.03 176.93 190.03 176.93L215.57 205.91Z" fill="#730034"/>
<path d="M185.09 183C188.58 187.51 192.29 191.87 196.09 196.14C197.95 198.23 199.81 200.33 201.74 202.35C203.67 204.37 205.9 206.45 207.9 208.57C207.99 208.66 208.14 208.57 208.05 208.43C206.13 206.27 204.36 203.95 202.48 201.73C200.6 199.51 198.8 197.52 196.95 195.42C193.17 191.14 189.36 186.87 185.44 182.73C185.404 182.684 185.351 182.653 185.293 182.646C185.235 182.638 185.176 182.654 185.13 182.69C185.084 182.726 185.053 182.779 185.046 182.837C185.038 182.895 185.054 182.954 185.09 183Z" fill="#263238"/>
<path opacity="0.1" d="M183.42 221.94C181.363 222.716 179.216 223.227 177.03 223.46C176.564 223.506 176.095 223.506 175.63 223.46C167.17 222.24 156.45 215.4 134.51 192.36C126.83 184.28 125.11 179.64 126.51 177.36C126.779 176.943 127.146 176.6 127.58 176.36L183.42 221.94Z" fill="black"/>
<path d="M155.57 232.8L157.06 249C157.06 249 137.95 251.94 90.48 254C90.48 254 98.3 202.89 113.55 183.33C121.17 173.55 131.06 173.42 137.86 179.26C139.57 180.74 155.99 205.73 158.77 215.12C161.2 223.42 155.57 232.8 155.57 232.8Z" fill="#730034"/>
<path d="M134.94 184.74C136.72 188.65 138.43 192.59 140.03 196.57C141.63 200.55 143.24 204.57 144.6 208.62C145.29 210.62 145.94 212.72 146.48 214.82C147.039 216.956 147.191 219.178 146.93 221.37C146.662 223.54 146.142 225.671 145.38 227.72C144.631 229.766 143.693 231.737 142.58 233.61L142.65 233.34C142.9 236.2 143.06 239.07 143.27 241.93C143.48 244.79 143.62 247.66 143.75 250.53C143.37 247.677 143.02 244.827 142.7 241.98C142.4 239.13 142.05 236.28 141.78 233.42V233.29L141.86 233.15C144.015 229.505 145.407 225.46 145.95 221.26C146.57 217.07 145.03 212.98 143.77 208.9C142.51 204.82 140.98 200.81 139.49 196.79L134.94 184.74Z" fill="#263238"/>
<path d="M144.85 200.47C144.899 200.737 144.844 201.013 144.698 201.241C144.551 201.469 144.323 201.633 144.06 201.7C143.799 201.731 143.536 201.659 143.329 201.498C143.121 201.337 142.985 201.1 142.95 200.84C142.901 200.573 142.956 200.297 143.102 200.069C143.249 199.841 143.477 199.677 143.74 199.61C144.001 199.579 144.264 199.651 144.471 199.812C144.679 199.973 144.815 200.21 144.85 200.47Z" fill="#263238"/>
<path d="M149.14 212.23C149.189 212.497 149.134 212.773 148.988 213.001C148.841 213.229 148.613 213.393 148.35 213.46C148.089 213.491 147.826 213.419 147.619 213.258C147.411 213.097 147.275 212.86 147.24 212.6C147.191 212.333 147.246 212.057 147.392 211.829C147.539 211.601 147.767 211.437 148.03 211.37C148.291 211.339 148.554 211.411 148.761 211.572C148.969 211.733 149.105 211.97 149.14 212.23Z" fill="#263238"/>
<path d="M149.65 224.22C149.701 224.485 149.649 224.759 149.504 224.986C149.359 225.213 149.132 225.376 148.87 225.44C148.609 225.471 148.346 225.399 148.139 225.238C147.931 225.077 147.795 224.84 147.76 224.58C147.709 224.313 147.762 224.036 147.909 223.807C148.056 223.578 148.286 223.414 148.55 223.35C148.811 223.322 149.072 223.397 149.278 223.56C149.484 223.723 149.617 223.96 149.65 224.22Z" fill="#263238"/>
<path d="M146.3 234.13C146.351 234.395 146.299 234.669 146.154 234.896C146.009 235.123 145.782 235.286 145.52 235.35C145.259 235.381 144.996 235.309 144.789 235.148C144.581 234.987 144.445 234.75 144.41 234.49C144.359 234.223 144.412 233.946 144.559 233.717C144.706 233.488 144.936 233.324 145.2 233.26C145.461 233.232 145.722 233.307 145.928 233.47C146.134 233.633 146.267 233.87 146.3 234.13Z" fill="#263238"/>
<path d="M147.58 245C147.626 245.265 147.57 245.539 147.424 245.765C147.277 245.991 147.051 246.153 146.79 246.22C146.529 246.251 146.266 246.179 146.059 246.018C145.851 245.857 145.715 245.62 145.68 245.36C145.631 245.093 145.686 244.817 145.832 244.589C145.979 244.361 146.207 244.197 146.47 244.13C146.732 244.099 146.996 244.173 147.204 244.336C147.412 244.499 147.547 244.738 147.58 245Z" fill="#263238"/>
<path d="M112.51 186.06C102.9 204.51 86.1499 242.31 92.7399 252.29C99.3299 262.27 134.2 267.39 146.12 268.97C150.05 269.49 162.91 241.12 158.97 239.58C152.27 236.96 120.81 232.65 119.72 230.58C119.04 229.28 124.11 204.77 124.21 190.47C124.35 171.88 115.5 180.33 112.51 186.06Z" fill="#FFC4C0"/>
<path d="M155.5 238.57C155.5 238.57 167.85 239.75 175.89 240.9C180.38 241.54 187.97 243.33 191.05 245.3C195.66 248.3 213.05 263.58 209.41 267.87C206.13 271.76 192.87 256.7 192.87 256.7C192.87 256.7 207.59 270.7 202.78 274.7C197.97 278.7 185.26 259.65 185.26 259.65C185.26 259.65 200.06 274.38 194.45 277.65C190.22 280.14 177.73 263.58 177.73 263.58C177.73 263.58 190.37 276.33 186.12 279.08C181.43 282.08 168.94 267.55 168.94 267.55C156.94 272.71 149.17 270.28 143.82 267.88C142.52 267.29 155.5 238.57 155.5 238.57Z" fill="#FFC4C0"/>
<path d="M188.09 251.53C189.88 253.12 191.7 254.71 193.34 256.44C194.98 258.17 196.57 259.98 198.04 261.86C200.001 264.281 201.678 266.918 203.04 269.72C200.25 264.92 194.46 258.61 192.82 256.88C191.18 255.15 189.63 253.33 187.99 251.59C187.98 251.55 188.05 251.5 188.09 251.53Z" fill="#263238"/>
<path d="M181.71 257.35C183.91 259.47 186.17 261.49 188.27 263.71C190.37 265.93 192.16 268.19 194.09 270.54C194.24 270.72 194.09 270.74 193.94 270.54C191.94 268.27 189.86 266.33 187.81 264.09C185.76 261.85 183.81 259.52 181.66 257.37C181.62 257.36 181.68 257.32 181.71 257.35Z" fill="#263238"/>
<path d="M175.34 261.35C178.786 264.522 181.896 268.04 184.62 271.85C184.76 272.04 184.62 272.04 184.42 271.85C181.42 268.3 179.05 265.5 175.23 261.47C175.17 261.41 175.27 261.29 175.34 261.35Z" fill="#263238"/>
<path d="M156.59 237.93L132.98 269.87C132.98 269.87 96.53 263.17 90.86 251.07C85.19 238.97 101.1 203.62 110.1 188.88C119.1 174.14 125.21 174.22 124.8 190.69C124.43 205.44 120.01 229.32 120.61 230.1C121.21 230.88 156.59 237.93 156.59 237.93Z" fill="#730034"/>
<path d="M147.14 237.77C143.44 242.11 139.93 246.62 136.53 251.2C134.86 253.44 133.18 255.69 131.6 258C130.02 260.31 128.44 262.91 126.77 265.29C126.7 265.4 126.86 265.53 126.93 265.42C128.66 263.09 130.57 260.89 132.36 258.6C134.15 256.31 135.73 254.13 137.36 251.89C140.78 247.31 144.18 242.72 147.43 238.03C147.444 237.991 147.446 237.948 147.436 237.907C147.426 237.867 147.404 237.83 147.373 237.802C147.342 237.774 147.303 237.756 147.261 237.75C147.22 237.745 147.178 237.752 147.14 237.77Z" fill="#263238"/>
<path d="M156.66 237.93C153.86 237.83 120.39 230.78 120.35 230.77C120.31 230.76 121.51 220.18 121.77 218.19C122.303 214.11 122.92 210.04 123.62 205.98C123.62 205.89 123.79 205.89 123.78 205.98C123.7 208.44 123.53 210.91 123.31 213.35C123.64 212.27 123.99 211.2 124.4 210.15C124.412 210.135 124.428 210.125 124.446 210.12C124.465 210.115 124.484 210.116 124.502 210.122C124.519 210.129 124.535 210.141 124.545 210.157C124.555 210.172 124.561 210.191 124.56 210.21C124.1 212.29 123.56 214.37 123.02 216.43C122.96 216.98 122.93 217.52 122.86 218.06C122.62 220.113 122.35 222.157 122.05 224.19C121.9 225.19 121.3 229.08 121.17 230.12C125.6 230.79 154.09 236.85 156.69 237.72C156.79 237.76 156.76 237.94 156.66 237.93Z" fill="#263238"/>
<path d="M90.92 251.23C91.3946 252.178 92.0156 253.045 92.76 253.8C92.86 253.89 92.76 253.92 92.61 253.8C91.7737 253.161 91.164 252.271 90.87 251.26C90.86 251.24 90.88 251.17 90.92 251.23Z" fill="#263238"/>
<path d="M123.26 178.28C123.51 179.53 129.15 187.75 134.81 187.67C136.66 187.67 136.95 177.57 136.95 177.57L137.14 176.83L139.81 166.49L127.81 158.24L126.08 157.14C126.08 157.14 125.54 160.02 124.9 163.61C124.9 163.78 124.83 163.94 124.8 164.12C124.77 164.3 124.72 164.51 124.69 164.7C124.59 165.24 124.49 165.78 124.4 166.33C124.31 166.88 124.25 167.15 124.2 167.59C124.15 168.03 124.07 168.46 124 168.9C123.537 172.006 123.29 175.14 123.26 178.28Z" fill="#FFC4C0"/>
<path d="M124.91 163.61C125.865 166.57 127.454 169.286 129.567 171.569C131.679 173.852 134.263 175.648 137.14 176.83L139.81 166.49L127.81 158.24L126.08 157.14C126.08 157.14 125.55 160 124.91 163.61Z" fill="#263238"/>
<path d="M154.11 148.74C157.25 167.22 146.54 171.19 142.55 171.86C138.93 172.47 126.55 174.09 121.55 156.03C116.55 137.97 124.12 130.68 132.32 128.84C140.52 127 150.97 130.26 154.11 148.74Z" fill="#FFC4C0"/>
<path d="M150.08 144C149.64 144 149.22 144 148.78 143.94C148.318 143.981 147.855 143.872 147.46 143.63C147.353 143.528 147.283 143.393 147.259 143.247C147.236 143.101 147.261 142.951 147.33 142.82C147.506 142.583 147.743 142.397 148.016 142.283C148.289 142.169 148.587 142.13 148.88 142.17C149.489 142.156 150.081 142.37 150.54 142.77C150.639 142.868 150.707 142.992 150.737 143.127C150.766 143.263 150.756 143.404 150.708 143.534C150.659 143.664 150.574 143.777 150.463 143.859C150.351 143.942 150.218 143.991 150.08 144Z" fill="#263238"/>
<path d="M137.84 146.18C138.251 146.044 138.655 145.887 139.05 145.71C139.501 145.601 139.905 145.348 140.2 144.99C140.268 144.858 140.292 144.708 140.266 144.561C140.241 144.415 140.169 144.281 140.06 144.18C139.817 144.011 139.532 143.911 139.236 143.889C138.941 143.868 138.645 143.927 138.38 144.06C137.801 144.246 137.312 144.642 137.01 145.17C136.95 145.294 136.927 145.432 136.943 145.569C136.96 145.705 137.015 145.834 137.102 145.94C137.189 146.047 137.305 146.126 137.436 146.168C137.567 146.211 137.707 146.215 137.84 146.18Z" fill="#263238"/>
<path d="M141.42 150.44C141.42 150.39 141.34 150.52 141.35 150.57C141.63 151.82 141.74 153.31 140.68 153.94C140.68 153.94 140.68 154.03 140.68 154.01C142.05 153.55 141.88 151.58 141.42 150.44Z" fill="#263238"/>
<path d="M140.03 149.34C137.98 149.57 138.6 153.67 140.5 153.45C142.4 153.23 141.76 149.14 140.03 149.34Z" fill="#263238"/>
<path d="M139.26 149.68C138.94 149.96 138.65 150.43 138.26 150.53C137.87 150.63 137.32 150.29 136.93 149.92C136.93 149.92 136.86 149.92 136.87 149.98C136.98 150.77 137.4 151.53 138.26 151.52C139.12 151.51 139.49 150.73 139.57 149.91C139.55 149.76 139.42 149.56 139.26 149.68Z" fill="#263238"/>
<path d="M148.42 149.05C148.42 149 148.53 149.05 148.54 149.15C148.68 150.43 149.06 151.87 150.27 152.15V152.22C148.81 152.2 148.33 150.28 148.42 149.05Z" fill="#263238"/>
<path d="M149.35 147.56C151.35 147.11 152.12 151.19 150.24 151.61C148.36 152.03 147.65 147.94 149.35 147.56Z" fill="#263238"/>
<path d="M150.25 147.67C150.61 147.83 151 148.17 151.39 148.12C151.78 148.07 152.09 147.57 152.3 147.12C152.3 147.07 152.36 147.12 152.37 147.12C152.53 147.9 152.42 148.76 151.7 149.05C150.98 149.34 150.42 148.73 150.09 147.99C150.03 147.85 150.1 147.61 150.25 147.67Z" fill="#263238"/>
<path d="M147.62 155.13C147.62 155.13 148.19 156.98 148.33 157.87C148.33 157.95 148.14 158.03 147.84 158.1C147.097 158.367 146.295 158.423 145.522 158.263C144.749 158.102 144.035 157.731 143.46 157.19C143.445 157.174 143.437 157.154 143.436 157.132C143.435 157.111 143.441 157.09 143.455 157.073C143.468 157.056 143.487 157.044 143.508 157.04C143.529 157.036 143.551 157.039 143.57 157.05C144.837 157.641 146.261 157.806 147.63 157.52C147.63 157.27 146.55 154.39 146.69 154.35C147.393 154.302 148.099 154.346 148.79 154.48C147.71 150.59 146.02 146.91 145.01 143.02C145.003 142.992 145.006 142.962 145.019 142.936C145.032 142.911 145.054 142.89 145.081 142.879C145.108 142.868 145.138 142.867 145.165 142.877C145.192 142.886 145.215 142.905 145.23 142.93C147.166 146.823 148.707 150.9 149.83 155.1C149.95 155.59 148 155.22 147.62 155.13Z" fill="#263238"/>
<path d="M147.6 157.89C147.22 158.692 146.637 159.381 145.91 159.89C145.512 160.147 145.043 160.273 144.57 160.25C143.57 160.18 143.32 159.25 143.35 158.48C143.368 158.047 143.435 157.618 143.55 157.2C144.792 157.856 146.211 158.097 147.6 157.89Z" fill="#263238"/>
<path d="M145.91 159.84C145.512 160.097 145.043 160.223 144.57 160.2C143.57 160.13 143.32 159.2 143.35 158.43C143.873 158.34 144.412 158.43 144.877 158.686C145.342 158.942 145.707 159.349 145.91 159.84Z" fill="#FF9ABB"/>
<path d="M121.95 157.48C125.11 157.23 124.8 150.57 124.8 150.57C124.8 150.57 131.15 149.57 131.8 140.14C132.051 142.908 131.488 145.688 130.18 148.14C130.18 148.14 141.18 145.19 144.42 135.14C144.42 135.14 143.29 140.21 141.8 142.14C141.8 142.14 146.28 140.09 147.97 135.92C147.97 135.92 150.78 141.02 152.52 142.28C152.52 142.28 148.99 122.77 131.18 127.7C131.18 127.7 119.94 130.23 117.27 139.86C114.6 149.49 121.95 157.48 121.95 157.48Z" fill="#263238"/>
<path d="M124.61 155.26C124.61 155.26 120.05 149.76 117.52 151.43C114.99 153.1 118.76 161.3 121.96 162.21C122.363 162.353 122.79 162.413 123.217 162.387C123.643 162.361 124.06 162.248 124.442 162.057C124.824 161.866 125.164 161.599 125.44 161.273C125.716 160.947 125.924 160.568 126.05 160.16L124.61 155.26Z" fill="#FFC4C0"/>
<path d="M118.66 153.76V153.84C120.91 154.54 122.22 156.47 123.2 158.5C123.056 158.292 122.869 158.117 122.651 157.988C122.433 157.859 122.189 157.779 121.937 157.753C121.685 157.728 121.431 157.757 121.191 157.839C120.952 157.922 120.733 158.055 120.55 158.23C120.5 158.28 120.55 158.36 120.62 158.35C120.992 158.194 121.403 158.159 121.795 158.249C122.188 158.338 122.543 158.549 122.81 158.85C123.257 159.357 123.649 159.91 123.98 160.5C124.1 160.68 124.44 160.55 124.35 160.33V160.28C124.14 157.5 121.67 153.79 118.66 153.76Z" fill="#263238"/>
<path d="M137.23 176.49L134.81 185.21L123.27 175.81L120.71 179.53C120.71 179.53 132.71 195.17 132.71 194.4L135.34 186.83L140.87 191.28L139.06 178.76L137.23 176.49Z" fill="#730034"/>
<path d="M140.31 185C139.95 182.94 139.63 180.86 139.17 178.82C139.17 178.75 139.04 178.73 139.03 178.82C138.84 180.82 140.28 188.72 140.49 190.62C140.26 190.43 135.4 186.74 135.36 186.81C134.75 188.03 132.81 193.55 132.69 194.05C130.79 191.56 122.81 181.82 120.63 179.51C120.57 179.45 120.46 179.51 120.51 179.6C122.24 182.25 132.58 195.13 132.71 195.08C133.761 192.462 134.675 189.792 135.45 187.08C136.3 187.91 141.26 192.14 141.24 191.83C141.051 189.538 140.741 187.259 140.31 185Z" fill="#263238"/>
<path d="M266 109.5C265.996 115.687 267.713 121.753 270.957 127.021C274.202 132.289 278.848 136.551 284.375 139.331C289.902 142.112 296.093 143.301 302.257 142.765C308.421 142.23 314.315 139.991 319.28 136.3L335.69 140.48L328.88 125.25C331.275 120.774 332.618 115.811 332.807 110.738C332.996 105.666 332.025 100.617 329.97 95.9751C327.914 91.3337 324.827 87.222 320.944 83.9527C317.061 80.6835 312.483 78.3427 307.559 77.1084C302.635 75.8741 297.494 75.7787 292.528 76.8295C287.562 77.8804 282.9 80.0497 278.898 83.1727C274.896 86.2957 271.659 90.29 269.433 94.852C267.206 99.4141 266.049 104.424 266.05 109.5H266Z" fill="white"/>
<path d="M266 109.5C266.028 115.672 267.758 121.717 271 126.97C272.582 129.606 274.558 131.983 276.86 134.02C277.411 134.552 277.988 135.056 278.59 135.53L280.44 136.89C281.06 137.35 281.75 137.7 282.39 138.1L283.39 138.69C283.72 138.88 284.08 139.03 284.39 139.2L286.47 140.2L288.69 141C289.408 141.263 290.143 141.477 290.89 141.64C291.64 141.8 292.36 142.05 293.12 142.15C294.623 142.422 296.144 142.586 297.67 142.64C299.196 142.745 300.728 142.725 302.25 142.58C308.359 141.993 314.184 139.715 319.07 136L319.2 135.9H319.37L335.75 139.99L335.24 140.6L328.39 125.39L328.29 125.17L328.41 124.96C330.762 120.547 332.082 115.657 332.271 110.66C332.459 105.663 331.512 100.688 329.5 96.11C327.456 91.5685 324.45 87.5253 320.69 84.26C316.866 81.0007 312.347 78.6578 307.48 77.41C302.582 76.149 297.461 76.0248 292.507 77.0467C287.554 78.0687 282.9 80.2099 278.901 83.3065C274.902 86.4031 271.665 90.3731 269.436 94.913C267.206 99.4529 266.045 104.442 266.04 109.5H266ZM266 109.5C266.007 104.423 267.164 99.4138 269.384 94.8483C271.604 90.2828 274.831 86.2798 278.82 83.14C282.825 79.9931 287.481 77.7794 292.45 76.66C297.461 75.576 302.654 75.6504 307.632 76.8776C312.61 78.1048 317.242 80.4524 321.176 83.7413C325.109 87.0303 328.239 91.1739 330.328 95.8562C332.417 100.539 333.41 105.636 333.23 110.76C333.061 115.911 331.691 120.952 329.23 125.48V125.05L336 140.3L336.37 141.13L335.49 140.91L319.15 136.65L319.45 136.59C314.434 140.275 308.493 142.494 302.29 143C300.746 143.12 299.194 143.12 297.65 143C296.109 142.924 294.575 142.737 293.06 142.44C292.29 142.33 291.56 142.07 290.81 141.89C290.056 141.717 289.314 141.493 288.59 141.22L286.43 140.41L284.35 139.41C284 139.23 283.65 139.08 283.35 138.89L282.35 138.28C281.7 137.86 281.02 137.5 280.4 137.04L278.56 135.65C277.953 135.176 277.372 134.668 276.82 134.13C275.691 133.085 274.626 131.973 273.63 130.8C272.668 129.597 271.783 128.334 270.98 127.02C267.741 121.749 266.018 115.687 266 109.5Z" fill="#263238"/>
<path d="M301.13 113.33V117C301.138 117.361 301.073 117.719 300.939 118.054C300.805 118.389 300.604 118.693 300.349 118.949C300.094 119.204 299.789 119.405 299.454 119.539C299.119 119.673 298.761 119.738 298.4 119.73C297.679 119.725 296.99 119.435 296.483 118.923C295.975 118.412 295.69 117.721 295.69 117V111.2C295.69 111.14 295.69 111.14 295.69 111.09C295.69 111.04 295.69 111.03 295.69 110.97C295.71 110.252 296.004 109.57 296.512 109.062C297.02 108.554 297.702 108.26 298.42 108.24C300.078 108.24 301.667 107.581 302.839 106.409C304.012 105.237 304.67 103.648 304.67 101.99C304.67 100.332 304.012 98.7427 302.839 97.5706C301.667 96.3985 300.078 95.74 298.42 95.74C297.337 95.7363 296.272 96.0181 295.333 96.5571C294.394 97.0961 293.613 97.8732 293.07 98.81C292.888 99.127 292.645 99.4047 292.354 99.6269C292.064 99.8491 291.733 100.011 291.379 100.104C291.026 100.198 290.657 100.219 290.295 100.169C289.933 100.118 289.585 99.9963 289.27 99.81C288.648 99.4397 288.199 98.8379 288.021 98.1366C287.843 97.4353 287.95 96.692 288.32 96.07C289.295 94.3913 290.671 92.9809 292.325 91.9655C293.979 90.9501 295.86 90.3614 297.798 90.2523C299.735 90.1433 301.67 90.5172 303.428 91.3406C305.186 92.164 306.711 93.4111 307.868 94.9698C309.025 96.5285 309.776 98.3501 310.055 100.271C310.333 102.192 310.131 104.152 309.465 105.975C308.799 107.798 307.69 109.428 306.239 110.717C304.788 112.005 303.039 112.914 301.15 113.36L301.13 113.33ZM301.13 125.55V126.55C301.14 126.912 301.076 127.271 300.942 127.607C300.808 127.944 300.608 128.249 300.352 128.505C300.097 128.761 299.792 128.963 299.457 129.098C299.121 129.233 298.762 129.298 298.4 129.29C297.675 129.287 296.981 128.997 296.469 128.484C295.957 127.97 295.67 127.275 295.67 126.55V125.55C295.68 124.829 295.971 124.141 296.481 123.631C296.991 123.121 297.679 122.83 298.4 122.82C298.76 122.816 299.116 122.884 299.45 123.02C299.783 123.155 300.085 123.356 300.339 123.611C300.594 123.865 300.795 124.167 300.93 124.501C301.066 124.834 301.134 125.19 301.13 125.55Z" fill="#263238"/>
<path d="M384.21 82.7C384.211 86.2793 383.216 89.7883 381.338 92.8353C379.46 95.8823 376.772 98.3472 373.574 99.955C370.376 101.563 366.794 102.25 363.228 101.94C359.662 101.63 356.253 100.335 353.38 98.2L343.92 100.62L347.86 91.81C346.473 89.2201 345.694 86.3479 345.584 83.4119C345.473 80.4758 346.034 77.5533 347.223 74.8666C348.412 72.1799 350.199 69.7998 352.446 67.9074C354.694 66.015 357.343 64.6602 360.193 63.9459C363.043 63.2316 366.019 63.1768 368.893 63.7856C371.767 64.3943 374.465 65.6506 376.781 67.4589C379.096 69.2672 380.969 71.5799 382.257 74.2209C383.544 76.862 384.212 79.7619 384.21 82.7Z" fill="#730034"/>
<path d="M384.21 82.7C384.212 86.2812 383.226 89.7935 381.36 92.85C380.891 93.595 380.38 94.3129 379.83 95C379.254 95.7035 378.637 96.3714 377.98 97C376.678 98.2232 375.21 99.2567 373.62 100.07C372.028 100.899 370.329 101.502 368.57 101.86C367.689 102.038 366.797 102.152 365.9 102.2C365.005 102.275 364.105 102.275 363.21 102.2C359.6 101.917 356.139 100.64 353.21 98.51L353.51 98.57L344.07 101.07L343.19 101.3L343.56 100.46L347.46 91.63V92.06C346.046 89.4424 345.248 86.5369 345.126 83.5644C345.005 80.5919 345.563 77.6309 346.758 74.9065C347.953 72.1822 349.754 69.7663 352.023 67.8428C354.293 65.9193 356.971 64.5389 359.854 63.8064C362.738 63.074 365.75 63.009 368.663 63.6162C371.575 64.2235 374.31 65.4871 376.661 67.3108C379.011 69.1345 380.915 71.4704 382.226 74.1406C383.538 76.8108 384.223 79.745 384.23 82.72L384.21 82.7ZM384.21 82.7C384.216 79.7772 383.55 76.8921 382.262 74.2681C380.975 71.644 379.101 69.3514 376.786 67.5677C374.47 65.784 371.775 64.557 368.91 63.9817C366.044 63.4064 363.084 63.4982 360.26 64.25C357.466 64.9858 354.88 66.3544 352.7 68.25C350.56 70.1339 348.852 72.4566 347.69 75.06C346.545 77.6861 346.008 80.5372 346.12 83.4C346.242 86.2566 346.997 89.0504 348.33 91.58L348.45 91.79L348.35 92.01L344.35 100.8L343.84 100.2L353.33 97.86H353.49L353.63 97.96C356.433 100.093 359.774 101.406 363.28 101.75C364.154 101.832 365.033 101.848 365.91 101.8C366.788 101.77 367.664 101.68 368.53 101.53C370.266 101.213 371.949 100.654 373.53 99.87C375.132 99.0944 376.608 98.0832 377.91 96.87C378.564 96.2742 379.182 95.6397 379.76 94.97C380.317 94.282 380.831 93.5607 381.3 92.81C383.184 89.773 384.191 86.2739 384.21 82.7Z" fill="#263238"/>
<path d="M372.42 83.5C372.418 83.8371 372.516 84.1671 372.702 84.4482C372.888 84.7293 373.154 84.9487 373.465 85.0786C373.776 85.2085 374.118 85.243 374.449 85.1778C374.78 85.1125 375.084 84.9504 375.322 84.712C375.56 84.4737 375.722 84.1699 375.788 83.8392C375.853 83.5085 375.819 83.1658 375.689 82.8548C375.559 82.5437 375.339 82.2783 375.058 82.0923C374.777 81.9063 374.447 81.808 374.11 81.81C373.662 81.81 373.232 81.988 372.915 82.305C372.598 82.6219 372.42 83.0518 372.42 83.5Z" fill="#263238"/>
<path d="M363.49 83.5C363.488 83.8366 363.586 84.1663 363.772 84.4472C363.957 84.728 364.222 84.9475 364.533 85.0777C364.843 85.2079 365.185 85.243 365.516 85.1785C365.846 85.1141 366.15 84.953 366.389 84.7156C366.627 84.4783 366.79 84.1754 366.857 83.8453C366.923 83.5153 366.89 83.173 366.762 82.8618C366.633 82.5505 366.415 82.2844 366.136 82.0972C365.856 81.91 365.527 81.81 365.19 81.81C364.741 81.81 364.31 81.9877 363.991 82.3044C363.673 82.621 363.493 83.0509 363.49 83.5Z" fill="#263238"/>
<path d="M354.57 83.5C354.568 83.8366 354.666 84.1663 354.852 84.4472C355.037 84.728 355.302 84.9475 355.612 85.0777C355.923 85.2079 356.265 85.243 356.595 85.1785C356.926 85.1141 357.23 84.953 357.468 84.7156C357.707 84.4783 357.87 84.1754 357.937 83.8453C358.003 83.5153 357.97 83.173 357.841 82.8618C357.713 82.5505 357.495 82.2844 357.215 82.0972C356.936 81.91 356.607 81.81 356.27 81.81C355.821 81.81 355.39 81.9877 355.071 82.3044C354.753 82.621 354.573 83.0509 354.57 83.5Z" fill="#263238"/>
<path d="M113 102C112.998 105.58 113.991 109.091 115.868 112.139C117.746 115.187 120.434 117.654 123.632 119.263C126.83 120.872 130.413 121.56 133.979 121.25C137.546 120.941 140.957 119.646 143.83 117.51L153.29 119.93L149.35 111.12C150.737 108.531 151.516 105.659 151.626 102.723C151.737 99.7875 151.176 96.8654 149.988 94.1789C148.799 91.4924 147.013 89.1124 144.767 87.2198C142.52 85.3273 139.871 83.972 137.022 83.2571C134.172 82.5422 131.197 82.4865 128.323 83.0943C125.449 83.702 122.751 84.9572 120.435 86.7643C118.119 88.5715 116.246 90.883 114.957 93.5231C113.669 96.1632 112.999 99.0623 113 102Z" fill="#730034"/>
<path d="M113 102C113.025 105.573 114.039 109.069 115.93 112.1C116.399 112.854 116.913 113.579 117.47 114.27C118.048 114.94 118.666 115.574 119.32 116.17C120.622 117.383 122.098 118.394 123.7 119.17C125.282 119.951 126.965 120.506 128.7 120.82C129.566 120.975 130.441 121.065 131.32 121.09C132.195 121.165 133.075 121.165 133.95 121.09C137.456 120.754 140.799 119.445 143.6 117.31L143.74 117.2L143.9 117.25L153.39 119.58L152.88 120.19L148.88 111.39L148.78 111.18L148.9 110.97C150.233 108.44 150.988 105.647 151.11 102.79C151.225 99.927 150.688 97.0753 149.54 94.45C148.389 91.8061 146.676 89.4447 144.52 87.53C142.34 85.635 139.753 84.2665 136.96 83.53C134.154 82.791 131.217 82.6987 128.37 83.26C124.039 84.1301 120.142 86.4716 117.341 89.8872C114.54 93.3029 113.006 97.5825 113 102ZM113 102C112.999 99.0609 113.664 96.1599 114.946 93.515C116.228 90.8701 118.093 88.5503 120.4 86.73C122.718 84.9115 125.414 83.6368 128.29 83C131.195 82.3599 134.207 82.3874 137.1 83.0803C139.993 83.7731 142.69 85.1134 144.99 87C148.485 89.8851 150.872 93.8926 151.743 98.3399C152.615 102.787 151.917 107.399 149.77 111.39V110.97L153.67 119.8L154.04 120.64L153.16 120.4L143.72 117.91L144.02 117.85C141.089 119.976 137.629 121.252 134.02 121.54C133.125 121.605 132.226 121.605 131.33 121.54C130.433 121.487 129.541 121.373 128.66 121.2C125.135 120.474 121.879 118.789 119.25 116.33C117.918 115.139 116.777 113.749 115.87 112.21C113.985 109.139 112.991 105.604 113 102Z" fill="#263238"/>
<path d="M133.01 104V106C133.014 106.197 132.978 106.392 132.905 106.575C132.832 106.758 132.722 106.924 132.583 107.063C132.444 107.202 132.278 107.311 132.095 107.385C131.912 107.458 131.717 107.494 131.52 107.49C131.124 107.49 130.744 107.333 130.463 107.054C130.182 106.775 130.023 106.396 130.02 106V102.83C130.02 102.83 130.02 102.83 130.02 102.77C130.02 102.71 130.02 102.77 130.02 102.7C130.033 102.307 130.195 101.934 130.474 101.657C130.753 101.38 131.127 101.22 131.52 101.21C131.984 101.235 132.448 101.165 132.884 101.005C133.321 100.845 133.72 100.597 134.057 100.278C134.394 99.9582 134.663 99.5732 134.847 99.1464C135.03 98.7195 135.125 98.2597 135.125 97.795C135.125 97.3303 135.03 96.8705 134.847 96.4436C134.663 96.0168 134.394 95.6318 134.057 95.3122C133.72 94.9926 133.321 94.7451 132.884 94.5849C132.448 94.4246 131.984 94.3549 131.52 94.38C130.933 94.3713 130.354 94.5163 129.84 94.8004C129.326 95.0846 128.895 95.4981 128.59 96C128.49 96.173 128.356 96.3243 128.197 96.4453C128.038 96.5663 127.856 96.6544 127.663 96.7047C127.469 96.7549 127.268 96.7662 127.07 96.7379C126.872 96.7097 126.682 96.6424 126.51 96.54C126.181 96.3387 125.944 96.0171 125.849 95.6436C125.754 95.2701 125.808 94.8741 126 94.54C126.533 93.6212 127.287 92.8493 128.192 92.2938C129.098 91.7382 130.127 91.4165 131.188 91.3575C132.249 91.2984 133.307 91.504 134.269 91.9556C135.231 92.4072 136.065 93.0908 136.697 93.9448C137.329 94.7988 137.738 95.7964 137.889 96.848C138.04 97.8997 137.927 98.9723 137.56 99.9694C137.194 100.967 136.585 101.857 135.789 102.56C134.993 103.264 134.035 103.759 133 104H133.01ZM133.01 110.67V111.22C133.015 111.418 132.981 111.614 132.908 111.798C132.835 111.982 132.726 112.149 132.586 112.289C132.447 112.429 132.281 112.54 132.097 112.614C131.914 112.688 131.718 112.724 131.52 112.72C131.122 112.72 130.741 112.562 130.459 112.281C130.178 111.999 130.02 111.618 130.02 111.22V110.67C130.028 110.276 130.189 109.9 130.469 109.621C130.748 109.343 131.126 109.185 131.52 109.18C131.714 109.177 131.906 109.213 132.086 109.285C132.266 109.357 132.43 109.464 132.569 109.6C132.707 109.736 132.818 109.897 132.893 110.076C132.969 110.254 133.009 110.446 133.01 110.64V110.67Z" fill="white"/>
<path d="M228.89 109.15C228.899 115.34 227.187 121.41 223.946 126.683C220.704 131.956 216.06 136.224 210.532 139.009C205.004 141.795 198.811 142.989 192.644 142.457C186.477 141.926 180.58 139.69 175.61 136L159.26 140.17L166.07 124.94C163.671 120.464 162.325 115.5 162.134 110.426C161.942 105.352 162.911 100.3 164.966 95.6567C167.02 91.0131 170.107 86.8992 173.991 83.6281C177.875 80.3571 182.454 78.015 187.38 76.7801C192.305 75.5452 197.448 75.4499 202.416 76.5017C207.384 77.5534 212.046 79.7244 216.049 82.8494C220.051 85.9745 223.288 89.9713 225.513 94.5357C227.739 99.1002 228.893 104.112 228.89 109.19V109.15Z" fill="white"/>
<path d="M228.89 109.15C228.874 115.34 227.143 121.404 223.89 126.67C223.087 127.984 222.202 129.247 221.24 130.45C220.244 131.623 219.179 132.735 218.05 133.78C217.46 134.28 216.94 134.86 216.31 135.3L214.52 136.69C213.91 137.15 213.22 137.51 212.58 137.93L211.58 138.54C211.25 138.73 210.89 138.88 210.58 139.06L208.5 140.06L206.33 140.87C205.611 141.149 204.873 141.373 204.12 141.54C203.37 141.72 202.64 141.98 201.87 142.09C200.352 142.387 198.815 142.574 197.27 142.65C195.729 142.77 194.181 142.77 192.64 142.65C186.42 142.149 180.462 139.93 175.43 136.24L175.73 136.3L159.4 140.56L158.52 140.79L158.89 139.95L165.66 124.7V125.13C163.199 120.602 161.83 115.561 161.66 110.41C161.485 105.274 162.485 100.165 164.584 95.4741C166.682 90.7829 169.824 86.6328 173.77 83.34C177.711 80.0816 182.339 77.7589 187.306 76.5465C192.274 75.3341 197.451 75.2635 202.45 76.34C207.417 77.4501 212.072 79.6611 216.07 82.81C220.06 85.9447 223.287 89.9439 225.508 94.5064C227.728 99.0689 228.885 104.076 228.89 109.15ZM228.89 109.15C228.896 104.09 227.743 99.0949 225.518 94.5499C223.293 90.0048 220.056 86.0302 216.055 82.9314C212.054 79.8326 207.397 77.6921 202.44 76.6742C197.482 75.6564 192.358 75.7884 187.46 77.06C182.593 78.3078 178.074 80.6507 174.25 83.91C170.465 87.1881 167.442 91.2527 165.39 95.82C163.375 100.398 162.427 105.374 162.618 110.372C162.808 115.37 164.132 120.259 166.49 124.67L166.6 124.88L166.51 125.1L159.66 140.31L159.15 139.71L175.53 135.61H175.69L175.83 135.71C180.723 139.4 186.548 141.654 192.65 142.22C194.169 142.363 195.697 142.387 197.22 142.29C198.746 142.229 200.267 142.062 201.77 141.79C202.53 141.69 203.26 141.44 204.01 141.28C204.757 141.117 205.492 140.903 206.21 140.64L208.37 139.86L210.45 138.86C210.79 138.69 211.14 138.54 211.45 138.36L212.45 137.76C213.1 137.36 213.79 137.01 214.4 136.56L216.25 135.19C216.855 134.719 217.436 134.219 217.99 133.69C219.122 132.655 220.19 131.553 221.19 130.39C222.153 129.196 223.041 127.943 223.85 126.64C227.113 121.387 228.857 115.334 228.89 109.15Z" fill="#263238"/>
<path d="M183.85 109.15C183.852 109.696 183.692 110.231 183.39 110.686C183.088 111.141 182.657 111.497 182.153 111.707C181.649 111.917 181.094 111.974 180.558 111.868C180.022 111.763 179.529 111.501 179.142 111.115C178.755 110.73 178.491 110.238 178.384 109.702C178.277 109.166 178.331 108.611 178.539 108.106C178.748 107.601 179.102 107.17 179.556 106.866C180.01 106.562 180.544 106.4 181.09 106.4C181.82 106.4 182.521 106.689 183.038 107.205C183.555 107.72 183.847 108.42 183.85 109.15Z" fill="#263238"/>
<path d="M198.31 109.15C198.31 109.692 198.15 110.222 197.849 110.674C197.549 111.125 197.122 111.477 196.621 111.687C196.121 111.896 195.57 111.953 195.038 111.85C194.506 111.747 194.016 111.489 193.63 111.108C193.243 110.728 192.978 110.241 192.868 109.711C192.757 109.18 192.806 108.628 193.008 108.125C193.21 107.622 193.556 107.19 194.003 106.883C194.45 106.576 194.978 106.408 195.52 106.4C195.885 106.395 196.246 106.462 196.585 106.598C196.923 106.734 197.231 106.935 197.491 107.191C197.75 107.447 197.956 107.752 198.097 108.088C198.238 108.425 198.31 108.785 198.31 109.15Z" fill="#263238"/>
<path d="M212.78 109.15C212.782 109.696 212.622 110.231 212.32 110.686C212.018 111.141 211.587 111.497 211.083 111.707C210.579 111.917 210.024 111.974 209.488 111.868C208.952 111.763 208.459 111.501 208.072 111.115C207.685 110.73 207.421 110.238 207.314 109.702C207.206 109.166 207.261 108.611 207.469 108.106C207.678 107.601 208.031 107.17 208.486 106.866C208.94 106.562 209.474 106.4 210.02 106.4C210.75 106.4 211.451 106.689 211.968 107.205C212.485 107.72 212.777 108.42 212.78 109.15Z" fill="#263238"/>
</svg>
