<svg width="157" height="157" viewBox="0 0 157 157" fill="none" xmlns="http://www.w3.org/2000/svg">
<path d="M149.368 51.5821L81.6327 6.07605C80.7051 5.45239 79.615 5.11957 78.4999 5.11957C77.3848 5.11957 76.2947 5.45239 75.3672 6.07605L7.63138 51.5821C6.85813 52.1019 6.22427 52.8062 5.78607 53.6323C5.34787 54.4584 5.1189 55.3808 5.11951 56.3175V130.265C5.11951 133.282 6.30891 136.176 8.42607 138.309C10.5432 140.443 13.4147 141.641 16.4088 141.641H140.591C143.585 141.641 146.457 140.443 148.574 138.309C150.691 136.176 151.88 133.282 151.88 130.265V56.3175C151.881 55.3808 151.652 54.4584 151.214 53.6323C150.776 52.8062 150.142 52.1019 149.368 51.5821ZM56.4294 96.1353L16.4088 124.577V67.3598L56.4294 96.1353ZM67.9797 101.824H89.0202L128.977 130.265H28.0227L67.9797 101.824ZM100.571 96.1353L140.591 67.3598V124.577L100.571 96.1353Z" fill="#730034"/>
<path d="M32.424 11.9457H126.283V66.2592L91.0856 90.4457H67.621L32.424 66.2592V11.9457Z" fill="#F9F5F7"/>
<path d="M86.0289 39.25V27.1337H91.1656C91.723 27.1337 92.235 27.2474 92.7014 27.475C93.1679 27.7025 93.5718 28.0097 93.9131 28.3965C94.2657 28.7833 94.5388 29.2156 94.7322 29.6935C94.9256 30.1713 95.0223 30.6605 95.0223 31.1611C95.0223 31.8437 94.863 32.4921 94.5445 33.1065C94.2259 33.7208 93.7879 34.2214 93.2305 34.6082C92.673 34.995 92.0131 35.1884 91.2509 35.1884H88.3839V39.25H86.0289ZM88.3839 33.1236H91.1144C91.3988 33.1236 91.6548 33.0439 91.8823 32.8846C92.1098 32.7254 92.2919 32.4978 92.4284 32.202C92.5649 31.8949 92.6332 31.5479 92.6332 31.1611C92.6332 30.7401 92.5535 30.3817 92.3943 30.086C92.2464 29.7902 92.0473 29.5683 91.797 29.4204C91.5581 29.2725 91.2964 29.1986 91.012 29.1986H88.3839V33.1236Z" fill="#730034"/>
<path d="M84.5248 29.1986H80.651V39.25H78.3131V29.1986H74.4393V27.1337H84.5248V29.1986Z" fill="#730034"/>
<path d="M68.035 39.3353C67.1476 39.3353 66.3399 39.1646 65.6117 38.8233C64.895 38.482 64.275 38.0213 63.7516 37.4411C63.2397 36.8495 62.8415 36.1896 62.5571 35.4615C62.2726 34.722 62.1304 33.9654 62.1304 33.1918C62.1304 32.3841 62.2783 31.6161 62.5741 30.888C62.8813 30.1485 63.2966 29.4944 63.8199 28.9255C64.3546 28.3453 64.9803 27.8902 65.6971 27.5603C66.4252 27.219 67.2216 27.0483 68.0862 27.0483C68.9622 27.0483 69.7586 27.2247 70.4753 27.5774C71.2034 27.93 71.8235 28.4022 72.3354 28.9938C72.8474 29.5854 73.2456 30.2452 73.53 30.9733C73.8144 31.7015 73.9566 32.4523 73.9566 33.2259C73.9566 34.0223 73.8087 34.7903 73.5129 35.5298C73.2171 36.2579 72.8019 36.912 72.2672 37.4923C71.7438 38.0611 71.1181 38.5105 70.39 38.8404C69.6733 39.1703 68.8883 39.3353 68.035 39.3353ZM64.5196 33.1918C64.5196 33.7152 64.5992 34.2214 64.7585 34.7106C64.9178 35.1998 65.1453 35.6378 65.4411 36.0246C65.7483 36.4001 66.118 36.7016 66.5503 36.9291C66.994 37.1453 67.4946 37.2533 68.0521 37.2533C68.6209 37.2533 69.1272 37.1396 69.5709 36.912C70.0146 36.6731 70.3843 36.3603 70.6801 35.9734C70.9759 35.5753 71.1978 35.1373 71.3457 34.6594C71.5049 34.1702 71.5846 33.681 71.5846 33.1918C71.5846 32.6685 71.4992 32.1679 71.3286 31.6901C71.1693 31.2009 70.9361 30.7686 70.6289 30.3931C70.3331 30.0063 69.9634 29.7048 69.5197 29.4887C69.0874 29.2611 68.5982 29.1474 68.0521 29.1474C67.4718 29.1474 66.9599 29.2668 66.5162 29.5057C66.0839 29.7333 65.7198 30.0404 65.424 30.4273C65.1282 30.8141 64.9007 31.2464 64.7414 31.7242C64.5935 32.202 64.5196 32.6912 64.5196 33.1918Z" fill="#730034"/>
<path d="M96.3619 61.0218L97.4848 59.3256L95.7885 58.7999L96.2186 57.4142L97.9626 58.1549L97.8432 56.3152H99.5394L99.42 58.1549L101.14 57.4142L101.57 58.7999L99.8978 59.3256L101.021 61.0218L99.7784 61.8341L98.7033 60.0423L97.6043 61.8341L96.3619 61.0218Z" fill="#730034"/>
<path d="M88.1259 61.0218L89.2488 59.3256L87.5526 58.7999L87.9826 57.4142L89.7267 58.1549L89.6072 56.3152H91.3035L91.184 58.1549L92.9042 57.4142L93.3342 58.7999L91.6619 59.3256L92.7847 61.0218L91.5424 61.8341L90.4673 60.0423L89.3683 61.8341L88.1259 61.0218Z" fill="#730034"/>
<path d="M79.89 61.0218L81.0129 59.3256L79.3166 58.7999L79.7466 57.4142L81.4907 58.1549L81.3712 56.3152H83.0675L82.9481 58.1549L84.6682 57.4142L85.0983 58.7999L83.4259 59.3256L84.5488 61.0218L83.3064 61.8341L82.2313 60.0423L81.1323 61.8341L79.89 61.0218Z" fill="#730034"/>
<path d="M71.654 61.0218L72.7769 59.3256L71.0806 58.7999L71.5107 57.4142L73.2547 58.1549L73.1353 56.3152H74.8316L74.7121 58.1549L76.4323 57.4142L76.8623 58.7999L75.1899 59.3256L76.3128 61.0218L75.0705 61.8341L73.9954 60.0423L72.8964 61.8341L71.654 61.0218Z" fill="#730034"/>
<path d="M63.4181 61.0218L64.5409 59.3256L62.8447 58.7999L63.2747 57.4142L65.0188 58.1549L64.8993 56.3152H66.5956L66.4761 58.1549L68.1963 57.4142L68.6264 58.7999L66.954 59.3256L68.0769 61.0218L66.8345 61.8341L65.7594 60.0423L64.6604 61.8341L63.4181 61.0218Z" fill="#730034"/>
<path d="M55.1821 61.0218L56.305 59.3256L54.6087 58.7999L55.0387 57.4142L56.7828 58.1549L56.6634 56.3152H58.3596L58.2402 58.1549L59.9604 57.4142L60.3904 58.7999L58.718 59.3256L59.8409 61.0218L58.5986 61.8341L57.5234 60.0423L56.4244 61.8341L55.1821 61.0218Z" fill="#730034"/>
<path fill-rule="evenodd" clip-rule="evenodd" d="M104.098 49.4891H52.9022V48.6359H104.098V49.4891Z" fill="#730034"/>
<path fill-rule="evenodd" clip-rule="evenodd" d="M104.098 68.6602H52.9022V67.8069H104.098V68.6602Z" fill="#730034"/>
</svg>
