<svg width="500" height="500" viewBox="0 0 500 500" fill="none" xmlns="http://www.w3.org/2000/svg">
<g clip-path="url(#clip0_1242_8606)">
<path fill-rule="evenodd" clip-rule="evenodd" d="M253.152 86.3675C304.618 79.8584 361.152 51.1523 402.794 82.0874C446.344 114.44 453.316 177.663 448.827 231.729C444.69 281.546 414.755 322.644 379.848 358.425C344.358 394.803 303.603 438.434 253.152 432.304C204.362 426.375 188.868 365.519 153.912 330.97C118.537 296.007 54.0852 281.316 50.2157 231.729C46.3075 181.646 96.273 144.942 137.112 115.69C170.829 91.5383 212.006 91.5715 253.152 86.3675Z" fill="#FBECEB"/>
<g opacity="0.4">
<path d="M28 240.16C27.0283 247.992 27.6024 255.939 29.69 263.55C31.83 271.01 35.79 277.96 41.43 282.64C42.8063 283.804 44.282 284.844 45.84 285.75C47.3725 286.607 48.9831 287.317 50.65 287.87C53.8985 288.951 57.3217 289.409 60.74 289.22C67.53 288.85 74.06 286.29 80 282.59C80.35 282.36 80.77 282.12 81.08 281.9L81.93 281.26C82.49 280.8 83.05 280.36 83.59 279.85C84.7168 278.843 85.7602 277.746 86.71 276.57C88.7964 274.038 90.6412 271.316 92.22 268.44C95.6926 262.107 98.7005 255.529 101.22 248.76C106.62 234.76 111.37 219.76 116.71 204.65C118.043 200.87 119.43 197.073 120.87 193.26C122.28 189.44 123.81 185.62 125.4 181.78C128.608 173.781 132.422 166.038 136.81 158.62C138.01 156.62 139.3 154.7 140.81 152.73C141.55 151.73 142.36 150.73 143.22 149.79C144.08 148.85 144.98 147.94 145.9 147.08C149.454 143.82 153.446 141.074 157.76 138.92C165.95 134.74 174.1 132.48 181.96 130.15C189.82 127.82 197.53 125.75 204.96 122.98C212.27 120.34 219.257 116.881 225.79 112.67C232.144 108.552 237.76 103.393 242.4 97.41C246.95 91.41 250.54 84.83 252.15 78.14C252.955 74.9559 253.292 71.6713 253.15 68.39C252.985 65.4481 252.255 62.5656 251 59.9C249.861 57.5432 248.247 55.4472 246.259 53.7436C244.271 52.04 241.953 50.7655 239.45 50C236.907 49.1806 234.252 48.7622 231.58 48.76C228.727 48.7497 225.883 49.0855 223.11 49.76C222.39 49.93 221.67 50.14 220.95 50.35L218.39 51.12C216.7 51.66 215.01 52.22 213.39 52.84C210.07 54.07 206.81 55.44 203.57 57C197.1 60.1 190.64 64 183.47 68.18C175.921 72.6869 168.054 76.6374 159.93 80C151.498 83.3304 142.764 85.8387 133.85 87.49C132.75 87.72 131.65 87.87 130.55 88.06L127.55 88.54C125.92 88.81 124.26 89.13 122.61 89.54C119.297 90.2699 116.022 91.1677 112.8 92.23C99.9 96.47 88.29 103.23 79.45 112.68C74.8971 117.506 70.9635 122.881 67.74 128.68C66.0303 131.716 64.5107 134.856 63.19 138.08C61.7922 141.42 60.5705 144.832 59.53 148.3C58.53 151.83 57.53 155.46 56.82 159.19C56.45 160.93 56.07 163.19 55.68 165.29C55.29 167.39 54.81 169.49 54.31 171.56C52.3355 179.771 49.7893 187.834 46.69 195.69C43.69 203.46 40.19 210.92 36.69 218.24C34.93 221.9 33.18 225.54 31.56 229.24C29.8918 232.705 28.6945 236.378 28 240.16ZM24.9 239.83C25.1615 237.718 25.6236 235.635 26.28 233.61C26.88 231.61 27.59 229.7 28.28 227.79C29.68 223.97 31.14 220.21 32.43 216.41C33.72 212.61 34.91 208.8 35.91 204.95C36.91 201.1 37.68 197.21 38.32 193.33C39.5119 185.614 39.9373 177.8 39.59 170C39.52 168.07 39.37 166.14 39.23 164.22C39.09 162.3 38.84 160.53 38.66 158.22C38.2885 153.844 38.1583 149.45 38.27 145.06C38.4617 135.92 39.9636 126.854 42.73 118.14C45.6455 109.039 50.1 100.505 55.9 92.91C61.8083 85.2857 68.8659 78.6262 76.82 73.17C84.6263 67.8223 93.1155 63.5474 102.06 60.46C106.467 58.9176 110.966 57.6518 115.53 56.67C117.81 56.17 120.12 55.76 122.47 55.41L128.15 54.58C135.14 53.5294 142.028 51.8868 148.74 49.67C155.708 47.2966 162.504 44.4466 169.08 41.14C176.08 37.74 183.79 33.82 192.14 30.56C196.35 28.911 200.643 27.4791 205 26.27C207.18 25.67 209.38 25.14 211.58 24.65L214.89 23.98C216.14 23.75 217.39 23.55 218.66 23.39C223.845 22.7024 229.101 22.7596 234.27 23.56C239.641 24.3668 244.829 26.1063 249.6 28.7C254.474 31.3608 258.76 34.98 262.2 39.34C265.588 43.6417 268.022 48.6152 269.34 53.93C270.572 58.957 270.85 64.1705 270.16 69.3C269.535 74.0805 268.221 78.7455 266.26 83.15C262.48 91.2638 257.316 98.6576 251 105C248.001 108.102 244.794 110.996 241.4 113.66C238.029 116.274 234.51 118.692 230.86 120.9C216.33 129.68 200.41 134.7 185.86 141.06C178.58 144.19 171.57 147.74 166.06 152.13C163.477 154.176 161.204 156.584 159.31 159.28C158.88 159.92 158.48 160.56 158.11 161.21C157.74 161.86 157.41 162.5 157.06 163.21C156.38 164.63 155.72 166.21 155.06 167.85C153.82 171.14 152.73 174.73 151.72 178.4C150.71 182.07 149.72 185.83 148.72 189.63L145.81 201.16C144.81 205.03 143.81 208.93 142.75 212.84C138.43 228.45 133.41 244.29 125.75 259.76C121.819 267.798 116.952 275.344 111.25 282.24C109.72 284 108.13 285.74 106.38 287.42C104.64 289.143 102.782 290.744 100.82 292.21C98.791 293.755 96.6445 295.139 94.4 296.35C93.2522 296.96 92.074 297.51 90.87 298L89.03 298.72C88.44 298.94 87.92 299.09 87.36 299.28C82.9266 300.723 78.3499 301.682 73.71 302.14C69.001 302.615 64.2479 302.403 59.6 301.51C54.9754 300.619 50.5421 298.927 46.5 296.51C44.5214 295.355 42.6565 294.016 40.93 292.51C39.2214 291.049 37.6453 289.439 36.22 287.7C30.8662 280.946 27.2752 272.966 25.77 264.48C24.265 256.351 23.9718 248.045 24.9 239.83Z" fill="#EBEBEB"/>
<path d="M336 440.15C326.859 441.588 317.949 444.227 309.5 448C300.97 451.64 292.76 456 284.5 460.48C280.34 462.68 276.19 464.97 271.89 467.1C267.528 469.354 263.04 471.357 258.45 473.1C253.509 474.985 248.353 476.248 243.1 476.86C237.075 477.551 230.972 476.867 225.25 474.86C223.74 474.31 222.25 473.59 220.8 472.92C219.35 472.25 218 471.3 216.61 470.44C215.22 469.58 214.03 468.52 212.78 467.51C211.53 466.5 210.47 465.37 209.33 464.27C205.138 459.947 201.594 455.04 198.81 449.7C196.094 444.466 194.031 438.918 192.67 433.18C191.401 427.784 190.582 422.292 190.22 416.76C189.671 406.63 189.858 396.473 190.78 386.37L191.91 372.26C192.1 369.96 192.23 367.69 192.38 365.43L192.58 362.06L192.71 358.74C192.868 354.433 192.805 350.121 192.52 345.82C192.279 341.74 191.687 337.688 190.75 333.71C189.686 329.548 188.254 325.488 186.47 321.58C184.66 317.46 182.58 313.3 180.33 309.14C175.83 300.78 170.73 292.45 165.75 283.83L162.06 277.31C160.86 275.09 159.67 272.87 158.54 270.58C156.174 265.975 154.168 261.194 152.54 256.28C150.806 251.163 149.898 245.803 149.85 240.4C149.879 234.893 151.154 229.464 153.58 224.52C154.767 222.146 156.18 219.892 157.8 217.79L160.27 214.79C161.11 213.79 161.99 212.98 162.85 212.07C166.377 208.527 170.224 205.317 174.34 202.48C178.523 199.681 182.967 197.293 187.61 195.35C188.78 194.9 189.93 194.35 191.13 193.96L194.72 192.74C197.14 192.05 199.58 191.36 202.06 190.86C212.014 188.799 222.219 188.23 232.34 189.17C237.4 189.582 242.432 190.287 247.41 191.28C252.41 192.21 257.31 193.51 262.18 194.93C264.59 195.69 267.04 196.39 269.41 197.25L273 198.5L276.55 199.85C281.27 201.683 285.91 203.683 290.47 205.85C292.75 206.95 295 208.08 297.26 209.21C299.52 210.34 301.72 211.58 303.92 212.81C306.12 214.04 308.32 215.28 310.47 216.59C312.62 217.9 314.79 219.19 316.89 220.59L329.02 228.44C331.02 229.72 333.02 230.92 335.02 232.17L338.02 234.02L341.02 235.81C356.955 245.315 373.455 253.838 390.43 261.33C398.95 265.11 407.56 268.74 416.67 272.85C421.21 274.85 425.88 277.18 430.67 279.85C435.795 282.724 440.64 286.072 445.14 289.85C449.932 293.914 454.184 298.575 457.79 303.72C461.211 308.632 464.103 313.891 466.42 319.41C467.62 322.05 468.53 324.65 469.49 327.27C469.95 328.57 470.34 329.86 470.76 331.15C471.18 332.44 471.6 333.72 471.94 335.15L473.02 339.24L473.54 341.29L473.94 343.42C474.533 346.252 474.957 349.117 475.21 352C475.35 353.46 475.49 354.92 475.59 356.38V363C475.59 363.74 475.47 364.5 475.41 365.25L474.95 369.74C474.73 371.23 474.38 372.74 474.08 374.19L473.61 376.4C473.43 377.13 473.18 377.86 472.96 378.58C472.51 380.02 472.07 381.47 471.58 382.88C471.09 384.29 470.39 385.65 469.78 387.01C467.309 392.293 464.048 397.168 460.11 401.47L458.71 403.05C458.22 403.55 457.71 404.05 457.21 404.5C456.21 405.45 455.21 406.41 454.21 407.31C452.07 408.98 450.01 410.76 447.77 412.17C443.48 415.063 438.954 417.589 434.24 419.72C429.678 421.749 425.004 423.515 420.24 425.01C411.009 427.881 401.607 430.172 392.09 431.87C389.74 432.28 387.4 432.76 385.09 433.11C382.78 433.46 380.42 433.94 378.09 434.27C375.76 434.6 373.4 434.98 371.09 435.33L364.09 436.33L336 440.15ZM335.48 437.09C344.75 435.75 353.95 434.09 363.02 431.89L366.42 431.08L369.8 430.18C372.05 429.61 374.28 428.92 376.5 428.25C380.96 426.95 385.34 425.43 389.66 423.81C398.224 420.644 406.484 416.712 414.34 412.06C418.147 409.802 421.82 407.324 425.34 404.64C428.679 402.043 431.803 399.181 434.68 396.08C436.15 394.63 437.3 392.98 438.58 391.46L440.25 389.05C440.52 388.65 440.81 388.26 441.07 387.85L441.76 386.61C443.636 383.464 445.063 380.071 446 376.53C446.2 375.66 446.4 374.81 446.64 373.97L447.03 371.35C447.09 370.91 447.18 370.49 447.22 370.05L447.27 368.71C447.27 367.81 447.39 366.94 447.4 366.05L447.3 363.33C447.3 362.88 447.3 362.44 447.25 361.98L447.08 360.59L446.78 357.83L446.23 355.01C445.438 351.115 444.359 347.285 443 343.55C442.72 342.6 442.31 341.55 441.92 340.55C441.53 339.55 441.16 338.55 440.75 337.55C439.9 335.66 439.11 333.7 438.2 331.95C436.583 328.562 434.633 325.343 432.38 322.34C430.296 319.613 427.892 317.145 425.22 314.99C419.83 310.61 412.42 306.78 404.07 302.84C399.92 300.84 395.6 298.9 391.21 296.84C386.82 294.78 382.39 292.65 377.97 290.49C360.105 281.641 342.889 271.54 326.45 260.26L323.36 258.17L320.36 256.02C318.36 254.58 316.29 253.17 314.29 251.7L302.61 243.08C298.89 240.35 295.11 237.71 291.32 235.08L285.58 231.27C283.65 230.05 281.72 228.81 279.77 227.6C275.86 225.26 271.95 222.88 267.94 220.76L264.94 219.13L261.94 217.58C259.94 216.52 257.88 215.58 255.83 214.63C247.712 210.863 239.25 207.89 230.56 205.75C226.281 204.747 221.937 204.042 217.56 203.64C213.237 203.227 208.883 203.227 204.56 203.64C195.906 204.357 187.518 206.983 180 211.33C176.255 213.549 172.764 216.171 169.59 219.15C168.82 219.92 167.99 220.66 167.25 221.44L165.17 223.8C163.9 225.415 162.785 227.146 161.84 228.97C159.971 232.59 159.033 236.617 159.11 240.69C159.251 244.988 160.151 249.226 161.77 253.21C163.479 257.439 165.553 261.511 167.97 265.38C170.43 269.32 173.13 273.2 176.02 277C181.75 284.63 188.02 292.08 194.18 300C197.25 304 200.26 308.12 203.12 312.54C206.134 317.104 208.75 321.918 210.94 326.93C215.48 337.68 217.23 348.56 217.94 359.02C219.31 379.9 216.64 399.11 217.03 416.33C217.21 424.92 218.15 432.85 220.65 439.87C221.906 443.403 223.602 446.763 225.7 449.87C227.468 452.654 229.798 455.038 232.54 456.87C235.538 458.725 238.915 459.88 242.42 460.25C246.558 460.687 250.736 460.593 254.85 459.97C259.301 459.334 263.712 458.443 268.06 457.3C272.48 456.09 276.94 454.76 281.36 453.3C290.24 450.4 299.06 447.09 308.02 444.15C316.969 441.02 326.169 438.658 335.52 437.09H335.48Z" fill="#EBEBEB"/>
<path d="M293.15 89C296.143 88.2497 299.183 87.7018 302.25 87.36C303.71 87.17 305.13 87.06 306.56 86.93C307.99 86.8 309.39 86.77 310.78 86.74C313.56 86.64 316.27 86.74 318.98 86.8C329.72 87.23 339.98 88.87 350.12 90.44L353.71 90.98L355.3 91.21L356.93 91.34C358.02 91.44 359.15 91.41 360.27 91.44C361.39 91.47 362.55 91.34 363.72 91.25C364.89 91.16 366.04 91.04 367.23 90.85C368.42 90.66 369.58 90.5 370.78 90.26C373.14 89.78 375.56 89.26 377.94 88.6C387.58 86.06 397.11 82.28 407.75 79.85C413.368 78.5106 419.164 78.0718 424.92 78.55C429.602 79.0104 434.164 80.3041 438.39 82.37C439.1 82.72 439.83 83.05 440.52 83.37L442.52 84.56C445.167 86.2047 447.669 88.0715 450 90.14C451.18 91.14 452.3 92.4 453.44 93.57C454.58 94.74 455.49 96.06 456.51 97.33C457.53 98.6 458.29 99.96 459.17 101.33C459.62 102.01 459.97 102.7 460.33 103.33L461.43 105.41L461.97 106.47L462.42 107.53L463.3 109.67C463.906 111.078 464.426 112.52 464.86 113.99C466.639 119.668 467.694 125.548 468 131.49C468.271 137.227 467.956 142.977 467.06 148.65C466.144 154.236 464.664 159.714 462.64 165C462.13 166.31 461.59 167.61 461.04 168.89C460.49 170.17 459.84 171.44 459.23 172.69C458.62 173.94 457.96 175.19 457.23 176.41C456.5 177.63 455.87 178.84 455.1 180.03C452.151 184.749 448.823 189.22 445.15 193.4C441.566 197.533 437.653 201.369 433.45 204.87C429.38 208.314 424.998 211.371 420.36 214C415.761 216.588 410.809 218.491 405.66 219.65C400.369 220.757 394.893 220.627 389.66 219.27C384.393 217.85 379.346 215.714 374.66 212.92C365.35 207.336 356.638 200.812 348.66 193.45C344.66 189.85 340.91 186.1 337.35 182.25C337.011 181.884 336.639 181.549 336.24 181.25L335.31 180.44C334.59 179.95 334.04 179.44 333.31 178.94L332.31 178.22C331.94 177.99 331.56 177.78 331.21 177.54C330.52 177.06 329.66 176.66 328.94 176.19C325.383 174.251 321.709 172.534 317.94 171.05L311.36 168.46L307.84 167.09L304.17 165.57C301.68 164.57 299.06 163.3 296.4 161.98C293.551 160.521 290.799 158.881 288.16 157.07C285.18 155.027 282.418 152.681 279.92 150.07C277.207 147.209 274.896 143.993 273.05 140.51L272.33 139.19L271.72 137.84C271.33 136.93 270.92 136.02 270.56 135.1C269.905 133.289 269.364 131.439 268.94 129.56L268.37 126.8L268.02 124.12C267.805 122.375 267.692 120.618 267.68 118.86C267.68 118.4 267.68 118.05 267.68 117.52C267.68 116.81 267.68 116.12 267.77 115.43C267.849 113.974 268.06 112.528 268.4 111.11C268.47 110.76 268.56 110.39 268.65 110.03L269 108.93C269.24 108.21 269.51 107.49 269.78 106.78C270.384 105.393 271.096 104.055 271.91 102.78C272.32 102.17 272.74 101.58 273.18 101C273.4 100.71 273.62 100.41 273.84 100.15L274.53 99.38C274.98 98.89 275.45 98.38 275.94 97.92C276.43 97.46 276.87 97.08 277.36 96.66C277.85 96.24 278.36 95.87 278.81 95.51L280.22 94.51C280.69 94.21 281.22 93.87 281.64 93.61L283.01 92.85C286.232 91.1842 289.634 89.8925 293.15 89Z" fill="#EBEBEB"/>
<path d="M146.71 354C147.284 357.331 147.522 360.711 147.42 364.09C147.33 370.55 145.87 376.46 144.28 382.23C142.695 387.976 140.673 393.593 138.23 399.03C135.743 404.489 132.603 409.626 128.88 414.33C125.011 419.243 120.501 423.615 115.47 427.33C109.835 431.277 103.356 433.856 96.55 434.86C92.9414 435.403 89.2776 435.477 85.65 435.08C82.1481 434.689 78.7258 433.768 75.5 432.35C72.6265 431.064 69.9364 429.403 67.5 427.41C65.332 425.609 63.2749 423.679 61.34 421.63C60.3409 420.535 59.4407 419.354 58.65 418.1C57.921 416.785 57.2989 415.414 56.79 414C55.8203 411.075 55.1502 408.06 54.79 405C53.9246 398.667 53.8541 392.251 54.58 385.9C55.2707 379.806 57.2513 373.929 60.39 368.66C63.4467 363.694 67.4655 359.39 72.21 356C76.94 352.56 82.5 350.09 87.93 347.84C93.36 345.59 98.8 343.59 103.87 341.19C108.94 338.79 113.87 336.13 120.05 334.19C121.7 333.673 123.394 333.308 125.11 333.1C127.104 332.835 129.125 332.865 131.11 333.19C133.79 333.723 136.287 334.939 138.36 336.72C138.871 337.171 139.358 337.648 139.82 338.15C140.25 338.64 140.68 339.15 141.09 339.67C141.8 340.632 142.438 341.645 143 342.7C143.522 343.673 143.99 344.675 144.4 345.7C144.75 346.63 145.14 347.7 145.4 348.55L145.81 349.96L146.14 351.33C146.4 352.25 146.55 353.11 146.71 354Z" fill="#EBEBEB"/>
</g>
<path d="M179.86 189L182.12 176.33C182.429 174.59 182.034 172.799 181.024 171.35C180.013 169.901 178.469 168.912 176.73 168.6C174.989 168.292 173.197 168.687 171.747 169.7C170.298 170.712 169.31 172.259 169 174L166.74 186.66C166.431 188.401 166.825 190.193 167.836 191.644C168.846 193.095 170.39 194.086 172.13 194.4C173.871 194.708 175.663 194.313 177.113 193.3C178.562 192.288 179.55 190.741 179.86 189Z" fill="#E44C42"/>
<path d="M333.3 191.94L331.46 179.2C331.335 178.334 331.041 177.501 330.593 176.748C330.146 175.996 329.555 175.339 328.854 174.815C328.153 174.291 327.355 173.911 326.507 173.695C325.659 173.48 324.776 173.434 323.91 173.56C323.044 173.685 322.211 173.979 321.458 174.427C320.706 174.874 320.049 175.465 319.525 176.166C319.001 176.867 318.621 177.665 318.405 178.513C318.19 179.361 318.144 180.244 318.27 181.11L320.1 193.84C320.355 195.591 321.294 197.169 322.711 198.229C324.129 199.288 325.909 199.742 327.66 199.49C329.408 199.235 330.984 198.297 332.042 196.882C333.099 195.466 333.552 193.689 333.3 191.94Z" fill="#E44C42"/>
<path d="M201.76 142.45L206.81 137.73C208.102 136.524 208.862 134.854 208.924 133.088C208.986 131.322 208.344 129.604 207.14 128.31C205.932 127.018 204.261 126.257 202.493 126.195C200.725 126.133 199.005 126.775 197.71 127.98L192.66 132.7C192.02 133.297 191.504 134.015 191.141 134.812C190.779 135.608 190.577 136.469 190.547 137.344C190.517 138.219 190.66 139.091 190.968 139.91C191.276 140.73 191.742 141.481 192.34 142.12C193.546 143.412 195.216 144.172 196.982 144.234C198.748 144.296 200.466 143.654 201.76 142.45Z" fill="#E44C42"/>
<path d="M208.83 247.51L204.12 242.51C203.523 241.869 202.805 241.352 202.008 240.988C201.21 240.625 200.349 240.422 199.473 240.391C198.598 240.361 197.724 240.503 196.904 240.81C196.083 241.117 195.331 241.582 194.69 242.18C193.4 243.387 192.641 245.058 192.581 246.824C192.521 248.59 193.165 250.308 194.37 251.6L199.08 256.66C200.289 257.951 201.961 258.71 203.729 258.77C205.497 258.83 207.216 258.186 208.51 256.98C209.156 256.381 209.678 255.661 210.044 254.859C210.41 254.058 210.614 253.192 210.644 252.312C210.674 251.431 210.529 250.554 210.217 249.729C209.906 248.905 209.434 248.151 208.83 247.51Z" fill="#E44C42"/>
<path d="M323.497 155.526L314.393 142.466C313.711 141.488 312.364 141.247 311.386 141.93L303.994 147.082C303.016 147.764 302.776 149.111 303.458 150.089L312.562 163.149C313.244 164.128 314.59 164.368 315.569 163.686L322.96 158.534C323.939 157.851 324.179 156.505 323.497 155.526Z" fill="#E44C42"/>
<path d="M276.34 271.1L282.84 268.75C283.663 268.453 284.419 267.996 285.066 267.407C285.712 266.817 286.236 266.106 286.607 265.314C286.979 264.522 287.191 263.664 287.23 262.79C287.27 261.916 287.138 261.043 286.84 260.22C286.543 259.397 286.086 258.641 285.497 257.994C284.907 257.348 284.196 256.824 283.404 256.453C282.612 256.081 281.754 255.869 280.88 255.83C280.006 255.79 279.133 255.922 278.31 256.22L271.81 258.57C270.149 259.175 268.795 260.413 268.046 262.014C267.296 263.614 267.211 265.447 267.81 267.11C268.417 268.767 269.654 270.116 271.252 270.864C272.85 271.611 274.679 271.696 276.34 271.1Z" fill="#E44C42"/>
<path d="M263.478 269.087C305.331 261.805 333.357 221.974 326.075 180.121C318.793 138.268 278.961 110.242 237.108 117.524C195.255 124.806 167.23 164.638 174.512 206.491C181.794 248.344 221.625 276.369 263.478 269.087Z" fill="#E44C42"/>
<path opacity="0.2" d="M243 135.1C245.275 138.018 246.552 141.591 246.64 145.29C246.763 149.076 245.85 152.824 244 156.13C242.134 159.574 239.016 162.17 235.29 163.38C231.726 164.491 227.884 164.311 224.44 162.87C227.844 162.972 231.227 162.309 234.34 160.93C235.781 160.267 237.094 159.357 238.22 158.24C239.358 157.145 240.319 155.88 241.07 154.49C241.45 153.79 241.83 153.05 242.17 152.31C242.51 151.57 242.8 150.8 243.01 150.02C243.519 148.465 243.854 146.859 244.01 145.23C244.334 141.82 243.991 138.379 243 135.1Z" fill="black"/>
<path opacity="0.2" d="M222.83 154.54C221.079 152.635 220.056 150.174 219.94 147.59C219.77 144.932 220.374 142.282 221.68 139.96C222.334 138.744 223.223 137.67 224.296 136.801C225.369 135.933 226.605 135.286 227.93 134.9C230.441 134.169 233.136 134.43 235.46 135.63C233.171 135.755 230.931 136.337 228.87 137.34C227.066 138.311 225.585 139.788 224.61 141.59C222.434 145.538 221.8 150.152 222.83 154.54Z" fill="black"/>
<path opacity="0.2" d="M250.63 239.39C251.588 240.969 251.943 242.84 251.63 244.66C251.332 246.54 250.467 248.285 249.15 249.66C248.481 250.387 247.672 250.972 246.772 251.38C245.871 251.787 244.898 252.008 243.91 252.03C242.056 252.075 240.251 251.434 238.84 250.23C240.45 250.482 242.093 250.445 243.69 250.12C245.102 249.79 246.382 249.041 247.36 247.97C248.406 246.878 249.225 245.59 249.77 244.18C250.336 242.646 250.627 241.025 250.63 239.39Z" fill="black"/>
<path opacity="0.2" d="M240.15 247.57C239.349 246.529 238.99 245.214 239.15 243.91C239.317 242.551 239.916 241.282 240.86 240.29C241.346 239.766 241.935 239.348 242.591 239.064C243.247 238.78 243.955 238.636 244.67 238.64C245.326 238.646 245.973 238.786 246.573 239.051C247.173 239.316 247.713 239.7 248.16 240.18C247.057 240.138 245.954 240.266 244.89 240.56C244.033 240.831 243.261 241.321 242.65 241.98C241.225 243.518 240.346 245.483 240.15 247.57Z" fill="black"/>
<path opacity="0.2" d="M203.42 219.3C204.339 219.427 205.223 219.74 206.017 220.22C206.811 220.7 207.499 221.336 208.04 222.09C208.63 222.906 209.051 223.831 209.277 224.812C209.504 225.792 209.532 226.808 209.36 227.8C209.182 228.817 208.772 229.779 208.161 230.612C207.551 231.444 206.756 232.125 205.84 232.6C204.229 233.49 202.361 233.797 200.55 233.47C201.889 232.591 203.141 231.586 204.29 230.47C205.204 229.599 205.82 228.462 206.05 227.22C206.269 225.931 206.162 224.608 205.74 223.37C205.197 221.894 204.413 220.519 203.42 219.3Z" fill="black"/>
<path opacity="0.2" d="M199.87 230.87C199.192 230.878 198.521 230.728 197.91 230.433C197.3 230.138 196.766 229.706 196.35 229.17C195.889 228.589 195.557 227.917 195.374 227.198C195.191 226.48 195.163 225.73 195.29 225C195.422 224.241 195.734 223.525 196.2 222.913C196.667 222.3 197.274 221.809 197.97 221.48C198.563 221.185 199.209 221.012 199.87 220.969C200.531 220.926 201.194 221.015 201.82 221.23C201.001 221.97 200.232 222.766 199.52 223.61C199.035 224.179 198.717 224.871 198.6 225.61C198.468 226.383 198.488 227.175 198.66 227.94C198.92 228.97 199.327 229.957 199.87 230.87Z" fill="black"/>
<path opacity="0.2" d="M290.22 141.84C290.823 142.548 291.276 143.372 291.551 144.261C291.826 145.149 291.918 146.085 291.82 147.01C291.721 148.01 291.422 148.981 290.941 149.864C290.46 150.746 289.807 151.524 289.02 152.15C288.21 152.789 287.264 153.234 286.255 153.451C285.246 153.668 284.201 153.65 283.2 153.4C281.405 152.993 279.805 151.979 278.67 150.53C280.252 150.762 281.853 150.842 283.45 150.77C284.71 150.733 285.926 150.295 286.92 149.52C287.945 148.704 288.747 147.64 289.25 146.43C289.827 144.965 290.155 143.413 290.22 141.84Z" fill="black"/>
<path opacity="0.2" d="M279.88 148.14C279.369 147.695 278.967 147.137 278.707 146.511C278.447 145.885 278.335 145.207 278.38 144.53C278.424 143.788 278.625 143.064 278.97 142.405C279.315 141.747 279.795 141.169 280.38 140.71C280.98 140.23 281.686 139.901 282.44 139.751C283.194 139.602 283.972 139.636 284.71 139.85C286.002 140.208 287.099 141.064 287.76 142.23C286.656 142.238 285.553 142.321 284.46 142.48C283.729 142.58 283.039 142.873 282.46 143.33C281.844 143.818 281.331 144.423 280.95 145.11C280.453 146.065 280.093 147.085 279.88 148.14Z" fill="black"/>
<path d="M271.36 207.87C274.665 207.248 277.711 205.659 280.112 203.306C282.514 200.952 284.164 197.939 284.853 194.648C285.543 191.357 285.24 187.935 283.985 184.815C282.729 181.696 280.576 179.019 277.799 177.123C275.021 175.227 271.744 174.197 268.382 174.164C265.019 174.131 261.722 175.096 258.908 176.937C256.094 178.778 253.889 181.412 252.572 184.506C251.255 187.6 250.886 191.016 251.51 194.32C252.347 198.748 254.908 202.663 258.63 205.204C262.352 207.745 266.931 208.704 271.36 207.87Z" fill="#E44C42"/>
<path opacity="0.1" d="M271.36 207.87C274.665 207.248 277.711 205.659 280.112 203.306C282.514 200.952 284.164 197.939 284.853 194.648C285.543 191.357 285.24 187.935 283.985 184.815C282.729 181.696 280.576 179.019 277.799 177.123C275.021 175.227 271.744 174.197 268.382 174.164C265.019 174.131 261.722 175.096 258.908 176.937C256.094 178.778 253.889 181.412 252.572 184.506C251.255 187.6 250.886 191.016 251.51 194.32C252.347 198.748 254.908 202.663 258.63 205.204C262.352 207.745 266.931 208.704 271.36 207.87Z" fill="black"/>
<path opacity="0.2" d="M270.11 180C272.492 179.541 274.949 179.655 277.279 180.331C279.608 181.007 281.744 182.227 283.51 183.89C282.289 181.302 280.435 179.063 278.119 177.382C275.803 175.701 273.1 174.632 270.261 174.274C267.422 173.916 264.538 174.281 261.877 175.334C259.216 176.387 256.864 178.095 255.039 180.3C253.214 182.504 251.975 185.133 251.437 187.944C250.899 190.755 251.079 193.656 251.961 196.378C252.842 199.101 254.397 201.557 256.481 203.518C258.564 205.48 261.109 206.884 263.88 207.6C261.474 205.814 259.638 203.367 258.596 200.557C257.554 197.747 257.35 194.695 258.01 191.772C258.67 188.849 260.165 186.18 262.313 184.09C264.461 182 267.17 180.579 270.11 180Z" fill="black"/>
<path opacity="0.2" d="M289.08 180C291.734 183.664 293.193 188.057 293.26 192.58C293.359 197.194 292.223 201.752 289.97 205.78C287.709 209.959 283.945 213.122 279.44 214.63C275.106 216.021 270.429 215.905 266.17 214.3C270.388 214.566 274.61 213.843 278.5 212.19C279.403 211.756 280.281 211.272 281.13 210.74C281.948 210.179 282.714 209.547 283.42 208.85C284.868 207.481 286.09 205.892 287.04 204.14C287.52 203.25 287.99 202.33 288.41 201.4C288.83 200.47 289.19 199.51 289.41 198.53C290.035 196.582 290.437 194.569 290.61 192.53C290.965 188.293 290.444 184.028 289.08 180Z" fill="black"/>
<path d="M308.05 174.69C309.222 174.228 310.231 173.429 310.948 172.393C311.665 171.357 312.059 170.131 312.078 168.871C312.098 167.611 311.743 166.374 311.058 165.316C310.373 164.258 309.389 163.428 308.232 162.93C307.074 162.432 305.795 162.289 304.556 162.52C303.318 162.75 302.175 163.343 301.274 164.224C300.373 165.104 299.753 166.233 299.495 167.466C299.236 168.699 299.349 169.981 299.82 171.15C300.127 171.923 300.584 172.628 301.164 173.225C301.745 173.821 302.437 174.298 303.201 174.626C303.965 174.955 304.787 175.13 305.619 175.141C306.451 175.152 307.277 174.999 308.05 174.69Z" fill="#E44C42"/>
<path opacity="0.1" d="M308.05 174.69C309.222 174.228 310.231 173.429 310.948 172.393C311.665 171.357 312.059 170.131 312.078 168.871C312.098 167.611 311.743 166.374 311.058 165.316C310.373 164.258 309.389 163.428 308.232 162.93C307.074 162.432 305.795 162.289 304.556 162.52C303.318 162.75 302.175 163.343 301.274 164.224C300.373 165.104 299.753 166.233 299.495 167.466C299.236 168.699 299.349 169.981 299.82 171.15C300.127 171.923 300.584 172.628 301.164 173.225C301.745 173.821 302.437 174.298 303.201 174.626C303.965 174.955 304.787 175.13 305.619 175.141C306.451 175.152 307.277 174.999 308.05 174.69Z" fill="black"/>
<path opacity="0.2" d="M305.61 164.58C306.449 164.241 307.356 164.107 308.257 164.188C309.158 164.27 310.026 164.566 310.79 165.05C310.158 164.195 309.32 163.513 308.355 163.067C307.389 162.621 306.327 162.425 305.266 162.498C304.205 162.571 303.18 162.91 302.285 163.484C301.389 164.058 300.653 164.848 300.144 165.781C299.634 166.715 299.368 167.762 299.37 168.825C299.372 169.889 299.642 170.934 300.155 171.866C300.668 172.798 301.407 173.585 302.305 174.155C303.202 174.726 304.229 175.061 305.29 175.13C304.282 174.647 303.435 173.882 302.854 172.927C302.272 171.972 301.98 170.868 302.014 169.751C302.048 168.633 302.406 167.55 303.044 166.632C303.683 165.714 304.574 165.001 305.61 164.58Z" fill="black"/>
<path opacity="0.2" d="M312.56 163.24C313.864 164.348 314.773 165.85 315.15 167.52C315.549 169.228 315.47 171.014 314.92 172.68C314.379 174.42 313.181 175.88 311.58 176.75C310.049 177.569 308.274 177.81 306.58 177.43C308.119 177.149 309.579 176.539 310.86 175.64C312.014 174.761 312.867 173.545 313.3 172.16C313.778 170.699 313.959 169.157 313.832 167.625C313.705 166.093 313.272 164.602 312.56 163.24Z" fill="black"/>
<path d="M295.8 233.42C297.313 232.484 298.515 231.121 299.254 229.503C299.992 227.884 300.235 226.083 299.951 224.327C299.666 222.571 298.868 220.938 297.656 219.635C296.444 218.333 294.874 217.419 293.143 217.008C291.412 216.598 289.598 216.71 287.93 217.329C286.263 217.949 284.816 219.05 283.774 220.491C282.731 221.933 282.139 223.651 282.073 225.429C282.006 227.207 282.468 228.965 283.4 230.48C284.02 231.488 284.833 232.364 285.792 233.058C286.752 233.752 287.838 234.249 288.99 234.523C290.142 234.796 291.336 234.839 292.505 234.65C293.673 234.46 294.793 234.043 295.8 233.42Z" fill="#E44C42"/>
<path opacity="0.1" d="M295.8 233.42C297.313 232.484 298.515 231.121 299.254 229.503C299.992 227.884 300.235 226.083 299.951 224.327C299.666 222.571 298.868 220.938 297.656 219.635C296.444 218.333 294.874 217.419 293.143 217.008C291.412 216.598 289.598 216.71 287.93 217.329C286.263 217.949 284.816 219.05 283.774 220.491C282.731 221.933 282.139 223.651 282.073 225.429C282.006 227.207 282.468 228.965 283.4 230.48C284.02 231.488 284.833 232.364 285.792 233.058C286.752 233.752 287.838 234.249 288.99 234.523C290.142 234.796 291.336 234.839 292.505 234.65C293.673 234.46 294.793 234.043 295.8 233.42Z" fill="black"/>
<path opacity="0.2" d="M289.89 219.86C290.982 219.182 292.22 218.773 293.502 218.667C294.783 218.561 296.071 218.761 297.26 219.25C296.167 218.206 294.828 217.455 293.367 217.065C291.907 216.675 290.372 216.66 288.904 217.019C287.435 217.379 286.082 218.103 284.967 219.124C283.852 220.145 283.013 221.431 282.526 222.862C282.039 224.293 281.92 225.823 282.181 227.312C282.442 228.801 283.073 230.201 284.017 231.381C284.961 232.562 286.187 233.486 287.583 234.067C288.978 234.649 290.497 234.87 292 234.71C290.471 234.28 289.1 233.415 288.053 232.221C287.006 231.027 286.327 229.555 286.1 227.984C285.872 226.412 286.105 224.808 286.771 223.366C287.437 221.924 288.506 220.706 289.85 219.86H289.89Z" fill="black"/>
<path opacity="0.2" d="M299.28 216.28C301.273 217.605 302.815 219.506 303.7 221.73C304.616 223.988 304.916 226.448 304.57 228.86C304.239 231.345 302.986 233.615 301.06 235.22C299.183 236.727 296.857 237.564 294.45 237.6C296.599 236.955 298.564 235.807 300.18 234.25C301.68 232.723 302.636 230.744 302.9 228.62C303.229 226.461 303.082 224.256 302.47 222.16C301.833 219.997 300.746 217.993 299.28 216.28Z" fill="black"/>
<path d="M212.19 185.13C212.39 192.07 206.19 197.89 198.36 198.13C190.53 198.37 184 192.92 183.79 186C183.58 179.08 189.79 173.24 197.61 173C205.43 172.76 212 178.18 212.19 185.13Z" fill="#E44C42"/>
<path opacity="0.1" d="M212.19 185.13C212.39 192.07 206.19 197.89 198.36 198.13C190.53 198.37 184 192.92 183.79 186C183.58 179.08 189.79 173.24 197.61 173C205.43 172.76 212 178.18 212.19 185.13Z" fill="black"/>
<path opacity="0.2" d="M189.27 188.79C189.357 190.645 189.913 192.448 190.885 194.031C191.858 195.613 193.215 196.924 194.83 197.84C188.65 196.64 183.95 191.84 183.78 185.97C183.57 179.03 189.78 173.21 197.61 172.97C200.186 172.838 202.75 173.398 205.036 174.592C207.322 175.786 209.247 177.57 210.61 179.76C208.08 177.843 204.962 176.864 201.79 176.99C194.71 177.2 189.08 182.49 189.27 188.79Z" fill="black"/>
<path opacity="0.2" d="M210.5 174.6C212.156 175.275 213.66 176.273 214.927 177.535C216.194 178.796 217.198 180.297 217.88 181.95C218.616 183.676 218.958 185.545 218.88 187.42C218.804 189.294 218.394 191.14 217.67 192.87C216.849 194.566 215.72 196.096 214.34 197.38C212.998 198.612 211.469 199.625 209.81 200.38C206.631 201.861 203.145 202.567 199.64 202.44C202.79 201.382 205.809 199.969 208.64 198.23C211.292 196.662 213.438 194.364 214.82 191.61C215.424 190.23 215.799 188.761 215.93 187.26C216.112 185.754 216.007 184.227 215.62 182.76C214.699 179.62 212.927 176.795 210.5 174.6Z" fill="black"/>
<path d="M260.78 410.36L264.84 411.11L265.75 415.38L266.65 411.11L270.71 410.35L266.67 409.37L265.75 405.32L264.82 409.37L260.78 410.36Z" fill="#455A64"/>
<path d="M169.97 260.06L174.03 260.81L174.93 265.09L175.84 260.81L179.9 260.06L175.86 259.07L174.93 255.03L174.01 259.07L169.97 260.06Z" fill="#455A64"/>
<path d="M395.48 258.29L399.54 259.04L400.45 263.32L401.36 259.04L405.42 258.29L401.37 257.3L400.45 253.26L399.52 257.3L395.48 258.29Z" fill="#455A64"/>
<path d="M439.36 372.85L441.63 373.27L442.14 375.66L442.64 373.27L444.91 372.85L442.65 372.3L442.14 370.04L441.62 372.3L439.36 372.85Z" fill="#455A64"/>
<path d="M408.3 95.17L410.56 95.59L411.07 97.98L411.58 95.59L413.85 95.17L411.59 94.62L411.07 92.36L410.56 94.62L408.3 95.17Z" fill="#455A64"/>
<path d="M453 166.29L455.27 166.71L455.77 169.1L456.28 166.71L458.55 166.29L456.29 165.74L455.77 163.48L455.26 165.74L453 166.29Z" fill="#455A64"/>
<path d="M106.58 198.36L108.85 198.78L109.35 201.17L109.86 198.78L112.13 198.36L109.87 197.81L109.35 195.55L108.84 197.81L106.58 198.36Z" fill="#455A64"/>
<path d="M48.7 384.69L50.97 385.11L51.48 387.5L51.99 385.11L54.26 384.69L52 384.13L51.48 381.88L50.96 384.13L48.7 384.69Z" fill="#455A64"/>
<path d="M425.06 325.78L427.32 326.2L427.83 328.59L428.34 326.2L430.61 325.77L428.35 325.22L427.83 322.96L427.31 325.22L425.06 325.78Z" fill="#455A64"/>
<path d="M115.68 398.49L117.95 398.91L118.46 401.3L118.96 398.91L121.23 398.49L118.97 397.94L118.46 395.68L117.94 397.94L115.68 398.49Z" fill="#455A64"/>
<path d="M195.59 104.87L197.86 105.28L198.37 107.68L198.88 105.28L201.14 104.86L198.88 104.31L198.37 102.05L197.85 104.31L195.59 104.87Z" fill="#455A64"/>
<path d="M329.91 171.92L332.18 172.34L332.69 174.73L333.19 172.34L335.46 171.91L333.2 171.36L332.69 169.1L332.17 171.36L329.91 171.92Z" fill="#455A64"/>
<path d="M149.64 351.77L151.91 352.19L152.41 354.58L152.92 352.19L155.19 351.77L152.93 351.22L152.41 348.96L151.9 351.22L149.64 351.77Z" fill="#455A64"/>
<path d="M51.48 425.74C51.655 425.74 51.8229 425.81 51.9467 425.933C52.0705 426.057 52.14 426.225 52.14 426.4C52.14 426.575 52.0705 426.743 51.9467 426.867C51.8229 426.99 51.655 427.06 51.48 427.06C51.3049 427.06 51.1371 426.99 51.0133 426.867C50.8895 426.743 50.82 426.575 50.82 426.4C50.82 426.225 50.8895 426.057 51.0133 425.933C51.1371 425.81 51.3049 425.74 51.48 425.74Z" fill="#455A64"/>
<path d="M379.14 345.68C379.315 345.68 379.483 345.75 379.607 345.873C379.73 345.997 379.8 346.165 379.8 346.34C379.8 346.515 379.73 346.683 379.607 346.807C379.483 346.931 379.315 347 379.14 347C378.965 347 378.797 346.931 378.673 346.807C378.55 346.683 378.48 346.515 378.48 346.34C378.48 346.165 378.55 345.997 378.673 345.873C378.797 345.75 378.965 345.68 379.14 345.68Z" fill="#455A64"/>
<path d="M385.36 251.65C385.52 251.67 385.667 251.747 385.773 251.868C385.88 251.989 385.939 252.144 385.939 252.305C385.939 252.466 385.88 252.621 385.773 252.742C385.667 252.863 385.52 252.94 385.36 252.96C385.2 252.94 385.053 252.863 384.947 252.742C384.84 252.621 384.781 252.466 384.781 252.305C384.781 252.144 384.84 251.989 384.947 251.868C385.053 251.747 385.2 251.67 385.36 251.65Z" fill="#455A64"/>
<path d="M339.36 203.16C339.535 203.16 339.703 203.23 339.827 203.353C339.95 203.477 340.02 203.645 340.02 203.82C340.02 203.995 339.95 204.163 339.827 204.287C339.703 204.411 339.535 204.48 339.36 204.48C339.185 204.48 339.017 204.411 338.893 204.287C338.77 204.163 338.7 203.995 338.7 203.82C338.7 203.645 338.77 203.477 338.893 203.353C339.017 203.23 339.185 203.16 339.36 203.16Z" fill="#455A64"/>
<path d="M136.33 434.64C136.49 434.66 136.637 434.737 136.743 434.858C136.85 434.979 136.909 435.134 136.909 435.295C136.909 435.456 136.85 435.611 136.743 435.732C136.637 435.853 136.49 435.93 136.33 435.95C136.17 435.93 136.023 435.853 135.917 435.732C135.81 435.611 135.751 435.456 135.751 435.295C135.751 435.134 135.81 434.979 135.917 434.858C136.023 434.737 136.17 434.66 136.33 434.64Z" fill="#455A64"/>
<path d="M109.35 396.52C109.51 396.54 109.657 396.617 109.763 396.738C109.87 396.859 109.929 397.014 109.929 397.175C109.929 397.336 109.87 397.491 109.763 397.612C109.657 397.733 109.51 397.81 109.35 397.83C109.19 397.81 109.043 397.733 108.937 397.612C108.83 397.491 108.771 397.336 108.771 397.175C108.771 397.014 108.83 396.859 108.937 396.738C109.043 396.617 109.19 396.54 109.35 396.52Z" fill="#455A64"/>
<path d="M177.14 379.06C177.315 379.06 177.483 379.13 177.607 379.253C177.73 379.377 177.8 379.545 177.8 379.72C177.8 379.895 177.73 380.063 177.607 380.187C177.483 380.311 177.315 380.38 177.14 380.38C176.965 380.38 176.797 380.311 176.673 380.187C176.55 380.063 176.48 379.895 176.48 379.72C176.48 379.545 176.55 379.377 176.673 379.253C176.797 379.13 176.965 379.06 177.14 379.06Z" fill="#455A64"/>
<path d="M301.66 396.52C301.82 396.54 301.967 396.617 302.073 396.738C302.18 396.859 302.239 397.014 302.239 397.175C302.239 397.336 302.18 397.491 302.073 397.612C301.967 397.733 301.82 397.81 301.66 397.83C301.5 397.81 301.353 397.733 301.247 397.612C301.14 397.491 301.081 397.336 301.081 397.175C301.081 397.014 301.14 396.859 301.247 396.738C301.353 396.617 301.5 396.54 301.66 396.52Z" fill="#455A64"/>
<path d="M410.44 354.3C410.6 354.32 410.747 354.397 410.853 354.518C410.96 354.639 411.019 354.794 411.019 354.955C411.019 355.116 410.96 355.272 410.853 355.392C410.747 355.513 410.6 355.59 410.44 355.61C410.28 355.59 410.133 355.513 410.027 355.392C409.92 355.272 409.861 355.116 409.861 354.955C409.861 354.794 409.92 354.639 410.027 354.518C410.133 354.397 410.28 354.32 410.44 354.3Z" fill="#455A64"/>
<path d="M382.92 281.55C383.095 281.55 383.263 281.62 383.387 281.743C383.51 281.867 383.58 282.035 383.58 282.21C383.58 282.385 383.51 282.553 383.387 282.677C383.263 282.801 383.095 282.87 382.92 282.87C382.745 282.87 382.577 282.801 382.453 282.677C382.33 282.553 382.26 282.385 382.26 282.21C382.26 282.035 382.33 281.867 382.453 281.743C382.577 281.62 382.745 281.55 382.92 281.55Z" fill="#455A64"/>
<path d="M271.23 395.21C271.342 395.226 271.444 395.282 271.517 395.368C271.591 395.453 271.632 395.562 271.632 395.675C271.632 395.788 271.591 395.897 271.517 395.982C271.444 396.068 271.342 396.124 271.23 396.14C271.118 396.124 271.016 396.068 270.943 395.982C270.869 395.897 270.828 395.788 270.828 395.675C270.828 395.562 270.869 395.453 270.943 395.368C271.016 395.282 271.118 395.226 271.23 395.21Z" fill="#455A64"/>
<path d="M127.5 106.66C127.612 106.676 127.714 106.732 127.787 106.818C127.861 106.903 127.902 107.012 127.902 107.125C127.902 107.238 127.861 107.347 127.787 107.432C127.714 107.518 127.612 107.574 127.5 107.59C127.388 107.574 127.286 107.518 127.213 107.432C127.139 107.347 127.098 107.238 127.098 107.125C127.098 107.012 127.139 106.903 127.213 106.818C127.286 106.732 127.388 106.676 127.5 106.66Z" fill="#455A64"/>
<path d="M308 340.91C308.112 340.926 308.214 340.982 308.287 341.068C308.361 341.153 308.402 341.262 308.402 341.375C308.402 341.488 308.361 341.597 308.287 341.682C308.214 341.768 308.112 341.824 308 341.84C307.888 341.824 307.786 341.768 307.713 341.682C307.639 341.597 307.598 341.488 307.598 341.375C307.598 341.262 307.639 341.153 307.713 341.068C307.786 340.982 307.888 340.926 308 340.91Z" fill="#455A64"/>
<path d="M128.67 400.83C128.782 400.846 128.884 400.903 128.957 400.988C129.031 401.073 129.072 401.182 129.072 401.295C129.072 401.408 129.031 401.517 128.957 401.602C128.884 401.688 128.782 401.744 128.67 401.76C128.558 401.744 128.456 401.688 128.383 401.602C128.309 401.517 128.268 401.408 128.268 401.295C128.268 401.182 128.309 401.073 128.383 400.988C128.456 400.903 128.558 400.846 128.67 400.83Z" fill="#455A64"/>
<path d="M247.64 288.59C247.752 288.606 247.854 288.662 247.927 288.748C248.001 288.833 248.042 288.942 248.042 289.055C248.042 289.168 248.001 289.277 247.927 289.362C247.854 289.448 247.752 289.504 247.64 289.52C247.528 289.504 247.426 289.448 247.353 289.362C247.279 289.277 247.238 289.168 247.238 289.055C247.238 288.942 247.279 288.833 247.353 288.748C247.426 288.662 247.528 288.606 247.64 288.59Z" fill="#455A64"/>
<path d="M348.26 293.94C348.594 293.94 348.915 294.073 349.151 294.309C349.387 294.545 349.52 294.866 349.52 295.2C349.52 295.534 349.387 295.855 349.151 296.091C348.915 296.327 348.594 296.46 348.26 296.46C347.926 296.46 347.605 296.327 347.369 296.091C347.133 295.855 347 295.534 347 295.2C347 294.866 347.133 294.545 347.369 294.309C347.605 294.073 347.926 293.94 348.26 293.94Z" fill="#455A64"/>
<path d="M171.54 120.16L175.59 120.91L176.5 125.19L177.41 120.91L181.47 120.16L177.43 119.17L176.5 115.13L175.58 119.17L171.54 120.16Z" fill="#455A64"/>
<path d="M342.19 154.51L346.25 155.26L347.16 159.54L348.06 155.26L352.12 154.51L348.08 153.52L347.16 149.48L346.23 153.52L342.19 154.51Z" fill="#455A64"/>
<path d="M46.52 257.11L50.57 257.86L51.48 262.14L52.39 257.86L56.45 257.11L52.41 256.12L51.48 252.08L50.56 256.12L46.52 257.11Z" fill="#455A64"/>
<path d="M406.11 53.3L410.17 54.05L411.07 58.33L411.98 54.05L416.04 53.29L412 52.31L411.07 48.27L410.15 52.31L406.11 53.3Z" fill="#455A64"/>
<path d="M260.19 62.95L262.46 63.37L262.97 65.76L263.48 63.37L265.75 62.95L263.49 62.4L262.97 60.14L262.45 62.4L260.19 62.95Z" fill="#455A64"/>
<path d="M51.48 142.84L53.75 143.26L54.26 145.65L54.76 143.26L57.03 142.84L54.77 142.29L54.26 140.03L53.74 142.29L51.48 142.84Z" fill="#455A64"/>
<path d="M93.15 138.87C93.325 138.87 93.4929 138.94 93.6167 139.063C93.7405 139.187 93.81 139.355 93.81 139.53C93.81 139.705 93.7405 139.873 93.6167 139.997C93.4929 140.12 93.325 140.19 93.15 140.19C92.975 140.19 92.8071 140.12 92.6833 139.997C92.5595 139.873 92.49 139.705 92.49 139.53C92.49 139.355 92.5595 139.187 92.6833 139.063C92.8071 138.94 92.975 138.87 93.15 138.87Z" fill="#455A64"/>
<path d="M43.14 374.45C43.315 374.45 43.4829 374.52 43.6067 374.643C43.7305 374.767 43.8 374.935 43.8 375.11C43.8 375.285 43.7305 375.453 43.6067 375.577C43.4829 375.701 43.315 375.77 43.14 375.77C42.965 375.77 42.7971 375.701 42.6733 375.577C42.5495 375.453 42.48 375.285 42.48 375.11C42.48 374.935 42.5495 374.767 42.6733 374.643C42.7971 374.52 42.965 374.45 43.14 374.45Z" fill="#455A64"/>
<path d="M97.09 351.77C97.2498 351.79 97.3968 351.867 97.5034 351.988C97.6101 352.109 97.6689 352.264 97.6689 352.425C97.6689 352.586 97.6101 352.741 97.5034 352.862C97.3968 352.983 97.2498 353.06 97.09 353.08C96.9302 353.06 96.7832 352.983 96.6766 352.862C96.5699 352.741 96.5111 352.586 96.5111 352.425C96.5111 352.264 96.5699 352.109 96.6766 351.988C96.7832 351.867 96.9302 351.79 97.09 351.77Z" fill="#455A64"/>
<path d="M43.78 185.25C43.9398 185.27 44.0868 185.347 44.1934 185.468C44.3001 185.589 44.3589 185.744 44.3589 185.905C44.3589 186.066 44.3001 186.221 44.1934 186.342C44.0868 186.463 43.9398 186.54 43.78 186.56C43.6202 186.54 43.4732 186.463 43.3666 186.342C43.2599 186.221 43.2011 186.066 43.2011 185.905C43.2011 185.744 43.2599 185.589 43.3666 185.468C43.4732 185.347 43.6202 185.27 43.78 185.25Z" fill="#455A64"/>
<path d="M97.09 86.36C97.265 86.36 97.4329 86.4296 97.5567 86.5534C97.6805 86.6771 97.75 86.845 97.75 87.02C97.75 87.1951 97.6805 87.363 97.5567 87.4867C97.4329 87.6105 97.265 87.68 97.09 87.68C96.9149 87.68 96.7471 87.6105 96.6233 87.4867C96.4995 87.363 96.43 87.1951 96.43 87.02C96.43 86.845 96.4995 86.6771 96.6233 86.5534C96.7471 86.4296 96.9149 86.36 97.09 86.36Z" fill="#455A64"/>
<path d="M183.21 52.64C183.37 52.6598 183.517 52.7373 183.623 52.8579C183.73 52.9786 183.789 53.134 183.789 53.295C183.789 53.456 183.73 53.6115 183.623 53.7321C183.517 53.8527 183.37 53.9302 183.21 53.95C183.05 53.9302 182.903 53.8527 182.797 53.7321C182.69 53.6115 182.631 53.456 182.631 53.295C182.631 53.134 182.69 52.9786 182.797 52.8579C182.903 52.7373 183.05 52.6598 183.21 52.64Z" fill="#455A64"/>
<path d="M156.79 287.8C156.902 287.816 157.004 287.872 157.077 287.958C157.151 288.043 157.192 288.152 157.192 288.265C157.192 288.378 157.151 288.487 157.077 288.572C157.004 288.658 156.902 288.714 156.79 288.73C156.678 288.714 156.576 288.658 156.503 288.572C156.429 288.487 156.388 288.378 156.388 288.265C156.388 288.152 156.429 288.043 156.503 287.958C156.576 287.872 156.678 287.816 156.79 287.8Z" fill="#455A64"/>
<path d="M156.34 407.63C156.452 407.646 156.554 407.702 156.627 407.788C156.701 407.873 156.742 407.982 156.742 408.095C156.742 408.208 156.701 408.317 156.627 408.402C156.554 408.488 156.452 408.544 156.34 408.56C156.228 408.544 156.126 408.488 156.053 408.402C155.979 408.317 155.938 408.208 155.938 408.095C155.938 407.982 155.979 407.873 156.053 407.788C156.126 407.702 156.228 407.646 156.34 407.63Z" fill="#455A64"/>
<path d="M394 134.23L396.27 134.65L396.77 137.04L397.28 134.65L399.55 134.23L397.29 133.68L396.77 131.42L396.26 133.68L394 134.23Z" fill="#455A64"/>
<path d="M444.77 252.98L447.04 253.4L447.55 255.79L448.06 253.4L450.32 252.97L448.07 252.42L447.55 250.16L447.03 252.42L444.77 252.98Z" fill="#455A64"/>
<path d="M387.67 136.49C387.83 136.51 387.977 136.587 388.083 136.708C388.19 136.829 388.249 136.984 388.249 137.145C388.249 137.306 388.19 137.461 388.083 137.582C387.977 137.703 387.83 137.78 387.67 137.8C387.51 137.78 387.363 137.703 387.257 137.582C387.15 137.461 387.091 137.306 387.091 137.145C387.091 136.984 387.15 136.829 387.257 136.708C387.363 136.587 387.51 136.51 387.67 136.49Z" fill="#455A64"/>
<path d="M320.5 70.75C320.612 70.7664 320.714 70.8224 320.787 70.9078C320.861 70.9932 320.902 71.1022 320.902 71.215C320.902 71.3278 320.861 71.4368 320.787 71.5222C320.714 71.6076 320.612 71.6636 320.5 71.68C320.388 71.6636 320.286 71.6076 320.213 71.5222C320.139 71.4368 320.098 71.3278 320.098 71.215C320.098 71.1022 320.139 70.9932 320.213 70.9078C320.286 70.8224 320.388 70.7664 320.5 70.75Z" fill="#455A64"/>
<path d="M221.55 450.8C221.662 450.816 221.764 450.872 221.837 450.958C221.911 451.043 221.952 451.152 221.952 451.265C221.952 451.378 221.911 451.487 221.837 451.572C221.764 451.658 221.662 451.714 221.55 451.73C221.438 451.714 221.336 451.658 221.263 451.572C221.189 451.487 221.148 451.378 221.148 451.265C221.148 451.152 221.189 451.043 221.263 450.958C221.336 450.872 221.438 450.816 221.55 450.8Z" fill="#455A64"/>
<path d="M434.66 147.6C434.772 147.616 434.874 147.672 434.947 147.758C435.021 147.843 435.062 147.952 435.062 148.065C435.062 148.178 435.021 148.287 434.947 148.372C434.874 148.458 434.772 148.514 434.66 148.53C434.548 148.514 434.446 148.458 434.373 148.372C434.299 148.287 434.258 148.178 434.258 148.065C434.258 147.952 434.299 147.843 434.373 147.758C434.446 147.672 434.548 147.616 434.66 147.6Z" fill="#455A64"/>
<path d="M341.06 124.73C341.172 124.746 341.274 124.802 341.347 124.888C341.421 124.973 341.462 125.082 341.462 125.195C341.462 125.308 341.421 125.417 341.347 125.502C341.274 125.588 341.172 125.644 341.06 125.66C340.948 125.644 340.846 125.588 340.773 125.502C340.699 125.417 340.658 125.308 340.658 125.195C340.658 125.082 340.699 124.973 340.773 124.888C340.846 124.802 340.948 124.746 341.06 124.73Z" fill="#455A64"/>
<path d="M342.4 53.49C342.512 53.5064 342.614 53.5624 342.687 53.6478C342.761 53.7331 342.802 53.8422 342.802 53.955C342.802 54.0678 342.761 54.1768 342.687 54.2622C342.614 54.3476 342.512 54.4036 342.4 54.42C342.288 54.4036 342.186 54.3476 342.113 54.2622C342.039 54.1768 341.998 54.0678 341.998 53.955C341.998 53.8422 342.039 53.7331 342.113 53.6478C342.186 53.5624 342.288 53.5064 342.4 53.49Z" fill="#455A64"/>
<path d="M212.07 271.27C212.404 271.27 212.725 271.403 212.961 271.639C213.197 271.875 213.33 272.196 213.33 272.53C213.33 272.864 213.197 273.185 212.961 273.421C212.725 273.657 212.404 273.79 212.07 273.79C211.736 273.79 211.415 273.657 211.179 273.421C210.943 273.185 210.81 272.864 210.81 272.53C210.81 272.196 210.943 271.875 211.179 271.639C211.415 271.403 211.736 271.27 212.07 271.27Z" fill="#455A64"/>
<path d="M384.14 206.74C384.456 206.768 384.75 206.914 384.964 207.148C385.179 207.382 385.297 207.688 385.297 208.005C385.297 208.322 385.179 208.628 384.964 208.862C384.75 209.096 384.456 209.242 384.14 209.27C383.824 209.242 383.53 209.096 383.316 208.862C383.101 208.628 382.983 208.322 382.983 208.005C382.983 207.688 383.101 207.382 383.316 207.148C383.53 206.914 383.824 206.768 384.14 206.74Z" fill="#455A64"/>
<path d="M99.23 208C99.5642 208 99.8847 208.133 100.121 208.369C100.357 208.605 100.49 208.926 100.49 209.26C100.49 209.594 100.357 209.915 100.121 210.151C99.8847 210.387 99.5642 210.52 99.23 210.52C98.8958 210.52 98.5753 210.387 98.339 210.151C98.1027 209.915 97.97 209.594 97.97 209.26C97.97 208.926 98.1027 208.605 98.339 208.369C98.5753 208.133 98.8958 208 99.23 208Z" fill="#455A64"/>
<path d="M446.13 215.61C446.464 215.61 446.785 215.743 447.021 215.979C447.257 216.215 447.39 216.536 447.39 216.87C447.39 217.204 447.257 217.525 447.021 217.761C446.785 217.997 446.464 218.13 446.13 218.13C445.796 218.13 445.475 217.997 445.239 217.761C445.003 217.525 444.87 217.204 444.87 216.87C444.87 216.536 445.003 216.215 445.239 215.979C445.475 215.743 445.796 215.61 446.13 215.61Z" fill="#455A64"/>
<path d="M81.66 331C81.9942 331 82.3147 331.133 82.5509 331.369C82.7872 331.605 82.92 331.926 82.92 332.26C82.92 332.594 82.7872 332.915 82.5509 333.151C82.3147 333.387 81.9942 333.52 81.66 333.52C81.3258 333.52 81.0053 333.387 80.769 333.151C80.5327 332.915 80.4 332.594 80.4 332.26C80.4 331.926 80.5327 331.605 80.769 331.369C81.0053 331.133 81.3258 331 81.66 331Z" fill="#455A64"/>
<path d="M145.25 84.87L147.51 85.28L148.02 87.68L148.53 85.28L150.8 84.86L148.54 84.31L148.02 82.05L147.51 84.31L145.25 84.87Z" fill="#455A64"/>
<path d="M268.95 322.63L271.21 323.05L271.72 325.44L272.23 323.05L274.5 322.63L272.24 322.07L271.72 319.81L271.21 322.07L268.95 322.63Z" fill="#455A64"/>
<path d="M342.19 431.94C342.365 431.94 342.533 432.01 342.657 432.133C342.78 432.257 342.85 432.425 342.85 432.6C342.85 432.775 342.78 432.943 342.657 433.067C342.533 433.191 342.365 433.26 342.19 433.26C342.015 433.26 341.847 433.191 341.723 433.067C341.6 432.943 341.53 432.775 341.53 432.6C341.53 432.425 341.6 432.257 341.723 432.133C341.847 432.01 342.015 431.94 342.19 431.94Z" fill="#455A64"/>
<path d="M298.6 425.74C298.775 425.74 298.943 425.81 299.067 425.933C299.19 426.057 299.26 426.225 299.26 426.4C299.26 426.575 299.19 426.743 299.067 426.867C298.943 426.99 298.775 427.06 298.6 427.06C298.425 427.06 298.257 426.99 298.133 426.867C298.01 426.743 297.94 426.575 297.94 426.4C297.94 426.225 298.01 426.057 298.133 425.933C298.257 425.81 298.425 425.74 298.6 425.74Z" fill="#455A64"/>
<path d="M312.63 250L314.89 250.42L315.4 252.81L315.91 250.42L318.18 250L315.92 249.45L315.4 247.19L314.88 249.45L312.63 250Z" fill="#455A64"/>
<path d="M390.38 386.33L392.65 386.75L393.16 389.14L393.66 386.75L395.93 386.33L393.67 385.78L393.16 383.52L392.64 385.78L390.38 386.33Z" fill="#455A64"/>
<path d="M411.07 443.65L413.34 444.07L413.85 446.46L414.36 444.07L416.62 443.65L414.37 443.09L413.85 440.83L413.33 443.09L411.07 443.65Z" fill="#455A64"/>
<path d="M322.2 123.88C322.36 123.9 322.507 123.977 322.613 124.098C322.72 124.219 322.779 124.374 322.779 124.535C322.779 124.696 322.72 124.851 322.613 124.972C322.507 125.093 322.36 125.17 322.2 125.19C322.04 125.17 321.893 125.093 321.787 124.972C321.68 124.851 321.621 124.696 321.621 124.535C321.621 124.374 321.68 124.219 321.787 124.098C321.893 123.977 322.04 123.9 322.2 123.88Z" fill="#455A64"/>
<path d="M395.93 416.52C396.042 416.536 396.144 416.592 396.217 416.678C396.291 416.763 396.332 416.872 396.332 416.985C396.332 417.098 396.291 417.207 396.217 417.292C396.144 417.378 396.042 417.434 395.93 417.45C395.818 417.434 395.716 417.378 395.643 417.292C395.569 417.207 395.528 417.098 395.528 416.985C395.528 416.872 395.569 416.763 395.643 416.678C395.716 416.592 395.818 416.536 395.93 416.52Z" fill="#455A64"/>
<path d="M68.31 271.27L70.58 271.69L71.09 274.08L71.59 271.69L73.86 271.27L71.6 270.71L71.09 268.46L70.57 270.71L68.31 271.27Z" fill="#455A64"/>
<path d="M42.08 320C42.2398 320.02 42.3868 320.097 42.4934 320.218C42.6001 320.339 42.6589 320.494 42.6589 320.655C42.6589 320.816 42.6001 320.971 42.4934 321.092C42.3868 321.213 42.2398 321.29 42.08 321.31C41.9202 321.29 41.7732 321.213 41.6666 321.092C41.5599 320.971 41.5011 320.816 41.5011 320.655C41.5011 320.494 41.5599 320.339 41.6666 320.218C41.7732 320.097 41.9202 320.02 42.08 320Z" fill="#455A64"/>
<path d="M204.56 216.21C204.735 216.21 204.903 216.279 205.027 216.403C205.15 216.527 205.22 216.695 205.22 216.87C205.22 217.045 205.15 217.213 205.027 217.337C204.903 217.46 204.735 217.53 204.56 217.53C204.385 217.53 204.217 217.46 204.093 217.337C203.97 217.213 203.9 217.045 203.9 216.87C203.9 216.695 203.97 216.527 204.093 216.403C204.217 216.279 204.385 216.21 204.56 216.21Z" fill="#455A64"/>
<path d="M156.34 143.42C156.452 143.436 156.554 143.492 156.627 143.578C156.701 143.663 156.742 143.772 156.742 143.885C156.742 143.998 156.701 144.107 156.627 144.192C156.554 144.278 156.452 144.334 156.34 144.35C156.228 144.334 156.126 144.278 156.053 144.192C155.979 144.107 155.938 143.998 155.938 143.885C155.938 143.772 155.979 143.663 156.053 143.578C156.126 143.492 156.228 143.436 156.34 143.42Z" fill="#455A64"/>
<path d="M80.44 61.69C80.7742 61.69 81.0947 61.8228 81.3309 62.059C81.5672 62.2953 81.7 62.6158 81.7 62.95C81.7 63.2842 81.5672 63.6047 81.3309 63.841C81.0947 64.0773 80.7742 64.21 80.44 64.21C80.1058 64.21 79.7853 64.0773 79.549 63.841C79.3127 63.6047 79.18 63.2842 79.18 62.95C79.18 62.6158 79.3127 62.2953 79.549 62.059C79.7853 61.8228 80.1058 61.69 80.44 61.69Z" fill="#455A64"/>
<path d="M379.33 89.84C379.664 89.84 379.985 89.9728 380.221 90.2091C380.457 90.4454 380.59 90.7659 380.59 91.1C380.59 91.4342 380.457 91.7547 380.221 91.991C379.985 92.2273 379.664 92.36 379.33 92.36C378.996 92.36 378.675 92.2273 378.439 91.991C378.203 91.7547 378.07 91.4342 378.07 91.1C378.07 90.7659 378.203 90.4454 378.439 90.2091C378.675 89.9728 378.996 89.84 379.33 89.84Z" fill="#455A64"/>
<path d="M367.65 440.84C361.838 440.828 356.053 440.058 350.44 438.55C336.21 434.76 325.29 426.22 318.85 413.86C311.32 399.39 311.45 383.07 314.75 374.02L317.57 375.02C314.38 383.74 314.71 399.39 321.51 412.44C327.51 424.04 337.82 432.06 351.21 435.62C370.44 440.74 390.02 436.74 404.94 424.62C421.5 411.19 429.89 389.8 428.56 364.39C427.23 338.98 415.51 308.32 403.11 275.83C391.11 244.48 378.78 212.07 376.19 184.09C373.5 155.02 381.48 129.09 399.25 109.09C421 84.65 456.81 70.56 500 69.48L500.08 72.48C457.76 73.54 422.76 87.27 401.54 111.15C384.33 130.5 376.61 155.65 379.22 183.88C381.77 211.44 394.06 243.66 405.96 274.82C418.44 307.54 430.24 338.44 431.59 364.3C432.97 390.69 424.19 412.96 406.87 427.01C395.784 436.008 381.928 440.894 367.65 440.84Z" fill="#C7C7C7"/>
<path d="M288 355.55C287.69 356.27 305.93 394.4 307.37 395.93C307.439 396.002 307.516 396.066 307.6 396.12C309.76 397.82 324.19 403.49 325.35 403.88C328.22 404.83 356.99 360.51 359.19 352.66C359.74 350.66 347.92 327.3 343.9 324.08C342.18 322.7 335.65 320.51 334.82 320.78C333.66 321.23 288.32 354.83 288 355.55Z" fill="#E44C42"/>
<path opacity="0.1" d="M288 355.55C287.69 356.27 305.93 394.4 307.37 395.93C307.439 396.002 307.516 396.066 307.6 396.12C309.76 397.82 324.19 403.49 325.35 403.88C328.22 404.83 356.99 360.51 359.19 352.66C359.74 350.66 347.92 327.3 343.9 324.08C342.18 322.7 335.65 320.51 334.82 320.78C333.66 321.23 288.32 354.83 288 355.55Z" fill="black"/>
<path opacity="0.1" d="M288 355.55C287.69 356.27 305.93 394.4 307.37 395.93C307.439 396.003 307.516 396.066 307.6 396.12C315.03 387.89 349.84 349.18 349.87 348.56C349.9 347.94 338 325.89 334.83 320.78C333.66 321.23 288.32 354.83 288 355.55Z" fill="black"/>
<path d="M184.31 324.46L148.87 329.37C142.1 330.37 136.15 331.07 133.04 331.16C132.314 331.259 131.575 331.191 130.88 330.96C130.88 330.96 130.88 330.96 130.83 330.96C129.17 329.15 119.83 275.29 120.12 273.3C120.41 271.31 126.12 272.03 128.12 273.83C130.12 275.63 142.96 294.65 142.96 294.65L178.4 290.09L184.31 324.46Z" fill="#455A64"/>
<path d="M125.62 332L125.09 329.22C125.397 329.146 125.688 329.017 125.95 328.84C126.442 328.483 126.803 327.974 126.978 327.392C127.152 326.81 127.13 326.186 126.915 325.618C126.7 325.049 126.304 324.567 125.788 324.246C125.272 323.925 124.665 323.782 124.06 323.84L123.57 321.32C123.889 321.243 124.191 321.108 124.46 320.92C124.974 320.572 125.354 320.06 125.54 319.467C125.726 318.875 125.706 318.238 125.484 317.658C125.261 317.079 124.849 316.592 124.315 316.276C123.78 315.961 123.155 315.835 122.54 315.92L122.05 313.4C122.389 313.329 122.712 313.193 123 313C123.527 312.651 123.918 312.13 124.106 311.527C124.294 310.923 124.269 310.273 124.034 309.686C123.799 309.099 123.37 308.611 122.817 308.304C122.264 307.997 121.623 307.889 121 308L120.52 305.48C120.861 305.398 121.183 305.252 121.47 305.05C121.997 304.701 122.388 304.181 122.576 303.577C122.764 302.973 122.739 302.323 122.504 301.736C122.269 301.149 121.84 300.661 121.287 300.354C120.734 300.047 120.093 299.939 119.47 300.05L119 297.5C119.359 297.432 119.7 297.289 120 297.08C120.516 296.725 120.897 296.205 121.079 295.605C121.26 295.006 121.232 294.362 121 293.78C120.767 293.198 120.343 292.713 119.798 292.404C119.253 292.095 118.619 291.981 118 292.08L117.52 289.57C117.879 289.497 118.22 289.35 118.52 289.14C119.119 288.724 119.529 288.087 119.66 287.369C119.792 286.652 119.633 285.911 119.22 285.31C118.918 284.874 118.498 284.534 118.009 284.328C117.52 284.123 116.983 284.061 116.46 284.15L115.98 281.63C116.341 281.563 116.683 281.416 116.98 281.2C117.526 280.852 117.932 280.322 118.126 279.703C118.32 279.085 118.289 278.418 118.039 277.82C117.789 277.223 117.336 276.732 116.76 276.436C116.184 276.139 115.522 276.056 114.89 276.2L114.44 273.83L120.02 273.23L130.83 331L125.62 332Z" fill="#37474F"/>
<path d="M142.51 328.75C142.404 327.146 141.965 325.581 141.221 324.156C140.477 322.73 139.445 321.475 138.19 320.47C135.945 318.636 133.079 317.741 130.19 317.97C130.11 317.97 130.12 318.14 130.19 318.15C133.085 318.369 135.831 319.522 138.015 321.435C140.198 323.349 141.702 325.919 142.3 328.76C142.301 328.788 142.314 328.814 142.334 328.833C142.355 328.851 142.382 328.861 142.41 328.86C142.438 328.859 142.464 328.846 142.483 328.826C142.502 328.805 142.511 328.778 142.51 328.75Z" fill="#37474F"/>
<path d="M149.29 327C149.05 323.06 148.48 319.14 147.88 315.24C147.28 311.34 146.67 307.52 146.02 303.67C145.65 301.46 145.28 299.25 144.8 297.07C144.793 297.045 144.777 297.023 144.757 297.008C144.736 296.993 144.711 296.984 144.685 296.984C144.659 296.984 144.634 296.993 144.613 297.008C144.593 297.023 144.577 297.045 144.57 297.07C144.86 301 145.46 304.92 145.98 308.83C146.5 312.74 147.05 316.57 147.67 320.43C148.03 322.64 148.44 324.83 148.96 327.02C148.971 327.056 148.994 327.088 149.026 327.11C149.057 327.132 149.095 327.142 149.133 327.14C149.171 327.138 149.207 327.123 149.236 327.097C149.264 327.072 149.283 327.038 149.29 327Z" fill="#37474F"/>
<path d="M152.28 326.18C152.04 322.23 151.47 318.32 150.87 314.42C150.27 310.52 149.66 306.7 149.01 302.84C148.65 300.64 148.27 298.43 147.79 296.24C147.783 296.215 147.767 296.194 147.747 296.178C147.726 296.163 147.701 296.154 147.675 296.154C147.649 296.154 147.624 296.163 147.603 296.178C147.583 296.194 147.567 296.215 147.56 296.24C147.85 300.18 148.45 304.09 148.97 308C149.49 311.91 150.04 315.74 150.66 319.6C151.02 321.82 151.43 324.01 151.95 326.19C151.96 326.227 151.982 326.259 152.013 326.281C152.044 326.304 152.081 326.316 152.119 326.314C152.157 326.313 152.193 326.299 152.223 326.275C152.252 326.251 152.272 326.217 152.28 326.18Z" fill="#37474F"/>
<path d="M159.44 327.9L155.44 293.02C158.254 290.418 161.788 288.727 165.58 288.17C180.35 285.61 207.39 284.7 223.14 287.47C236.43 289.8 278.63 329.4 285.27 334.65C287.7 336.56 293.34 333.12 293.34 333.12L312.56 372.44C312.56 372.44 297.4 382.6 282.39 373.79C263.91 362.94 225.97 324.72 218.47 323.17C211.69 321.77 182.66 328.52 168.02 330.31C164.954 330.669 161.871 329.803 159.44 327.9Z" fill="#E44C42"/>
<path d="M164.54 324.83C164.46 320.88 164.04 316.94 163.59 313.02C163.14 309.1 162.69 305.26 162.2 301.39C161.91 299.17 161.63 296.94 161.2 294.74C161.193 294.715 161.177 294.694 161.157 294.678C161.136 294.663 161.111 294.654 161.085 294.654C161.059 294.654 161.034 294.663 161.013 294.678C160.993 294.694 160.977 294.715 160.97 294.74C161.11 298.68 161.55 302.62 161.92 306.55C162.29 310.48 162.68 314.33 163.15 318.2C163.42 320.43 163.74 322.64 164.15 324.84C164.151 324.892 164.173 324.941 164.211 324.976C164.248 325.012 164.298 325.031 164.35 325.03C164.402 325.029 164.451 325.007 164.486 324.969C164.522 324.932 164.541 324.882 164.54 324.83Z" fill="#263238"/>
<path opacity="0.1" d="M224 301.74C223.111 302.187 222.337 302.834 221.74 303.63C221.122 304.402 220.592 305.241 220.16 306.13C219.305 307.893 218.693 309.763 218.34 311.69C218.15 312.64 218.04 313.6 217.93 314.56C217.82 315.52 217.8 316.48 217.82 317.44C217.84 318.4 217.89 319.36 217.99 320.32C218.104 321.278 218.267 322.229 218.48 323.17C218.75 322.23 218.93 321.29 219.1 320.36C219.27 319.43 219.47 318.51 219.61 317.59C219.75 316.67 219.94 315.75 220.08 314.84L220.33 313.48C220.41 313.02 220.47 312.56 220.57 312.12C220.92 310.32 221.32 308.54 221.82 306.79C222.26 304.997 222.997 303.29 224 301.74Z" fill="black"/>
<path d="M237.739 301.713C240.29 297.294 237.309 290.797 231.081 287.203C224.853 283.608 217.736 284.278 215.185 288.697C212.635 293.117 215.616 299.614 221.844 303.208C228.072 306.803 235.188 306.133 237.739 301.713Z" fill="#E44C42"/>
<path opacity="0.1" d="M237.739 301.713C240.29 297.294 237.309 290.797 231.081 287.203C224.853 283.608 217.736 284.278 215.185 288.697C212.635 293.117 215.616 299.614 221.844 303.208C228.072 306.803 235.188 306.133 237.739 301.713Z" fill="black"/>
<path opacity="0.1" d="M312.55 372.44C312.55 372.44 297.39 382.6 282.38 373.79C263.91 362.94 225.97 324.72 218.46 323.17C211.68 321.77 182.66 328.53 168.01 330.31C164.947 330.666 161.868 329.8 159.44 327.9L155.76 295.9L302.57 352L312.55 372.44Z" fill="black"/>
<path d="M237.32 368.61C237.32 368.61 245 403.54 245 403.56C246.49 410.23 247.68 416.11 248 419.2C248 419.2 248 419.2 248 419.25C248.169 419.963 248.169 420.707 248 421.42C248.006 421.44 248.006 421.46 248 421.48C246.32 423.27 193.35 436.78 191.35 436.62C189.35 436.46 189.61 430.75 191.25 428.62C192.89 426.49 210.86 412.21 210.86 412.21L203.56 377.21L237.32 368.61Z" fill="#455A64"/>
<path d="M249.37 426.54L246.65 427.28C246.548 426.981 246.392 426.703 246.19 426.46C245.963 426.179 245.683 425.945 245.365 425.772C245.048 425.599 244.699 425.491 244.34 425.453C243.981 425.415 243.617 425.448 243.271 425.55C242.924 425.653 242.601 425.823 242.32 426.05C241.928 426.365 241.628 426.781 241.452 427.253C241.276 427.724 241.23 428.235 241.32 428.73L238.85 429.41C238.617 428.754 238.144 428.211 237.527 427.888C236.91 427.566 236.194 427.489 235.523 427.672C234.851 427.856 234.274 428.286 233.906 428.877C233.538 429.468 233.408 430.177 233.54 430.86L231.06 431.54C230.964 431.215 230.804 430.912 230.59 430.65C230.197 430.171 229.654 429.838 229.049 429.705C228.443 429.572 227.811 429.647 227.253 429.917C226.695 430.187 226.245 430.637 225.974 431.195C225.703 431.752 225.628 432.384 225.76 432.99L223.29 433.67C223.182 433.335 223.012 433.023 222.79 432.75C222.399 432.26 221.853 431.919 221.241 431.782C220.63 431.646 219.99 431.722 219.428 431.998C218.865 432.275 218.414 432.735 218.149 433.302C217.884 433.87 217.821 434.511 217.97 435.12L215.49 435.79C215.39 435.448 215.223 435.128 215 434.85C214.604 434.365 214.055 434.028 213.443 433.896C212.83 433.764 212.191 433.844 211.631 434.123C211.07 434.403 210.621 434.864 210.357 435.432C210.094 436.001 210.031 436.642 210.18 437.25L207.71 437.92C207.618 437.554 207.447 437.213 207.21 436.92C206.809 436.436 206.256 436.103 205.641 435.975C205.026 435.847 204.386 435.932 203.826 436.216C203.266 436.5 202.818 436.965 202.557 437.536C202.297 438.108 202.237 438.751 202.39 439.36L199.92 440.03C199.825 439.664 199.651 439.322 199.41 439.03C199.01 438.541 198.454 438.204 197.835 438.075C197.217 437.947 196.573 438.034 196.011 438.323C195.449 438.613 195.003 439.086 194.748 439.664C194.493 440.242 194.445 440.89 194.61 441.5L192.28 442.13L191.28 436.62L248 421.43L249.37 426.54Z" fill="#37474F"/>
<path d="M244.84 410C243.249 410.232 241.724 410.791 240.36 411.643C238.997 412.495 237.825 413.621 236.92 414.95C235.273 417.329 234.606 420.252 235.06 423.11C235.06 423.19 235.23 423.17 235.23 423.11C235.224 420.205 236.161 417.376 237.899 415.049C239.637 412.721 242.083 411.02 244.87 410.2C244.883 410.198 244.896 410.193 244.907 410.187C244.918 410.18 244.928 410.171 244.936 410.16C244.944 410.149 244.95 410.137 244.953 410.124C244.956 410.111 244.957 410.098 244.955 410.085C244.953 410.072 244.948 410.059 244.942 410.048C244.935 410.036 244.926 410.026 244.915 410.019C244.904 410.011 244.892 410.005 244.879 410.002C244.867 409.999 244.853 409.998 244.84 410Z" fill="#37474F"/>
<path d="M242.61 403.33C238.69 403.87 234.83 404.74 230.99 405.64C227.15 406.54 223.39 407.45 219.6 408.39C217.43 408.93 215.25 409.47 213.11 410.13C213.081 410.138 213.056 410.157 213.041 410.183C213.026 410.21 213.022 410.241 213.03 410.27C213.038 410.299 213.057 410.324 213.083 410.339C213.11 410.354 213.141 410.358 213.17 410.35C217.07 409.75 220.93 408.85 224.78 408.03C228.63 407.21 232.42 406.36 236.22 405.44C238.4 404.92 240.55 404.34 242.69 403.65C242.723 403.632 242.75 403.604 242.765 403.569C242.781 403.534 242.784 403.496 242.775 403.459C242.766 403.422 242.745 403.389 242.715 403.366C242.685 403.343 242.648 403.33 242.61 403.33Z" fill="#37474F"/>
<path d="M241.52 400.41C237.61 400.96 233.75 401.83 229.9 402.73C226.05 403.63 222.3 404.54 218.51 405.48C216.34 406.01 214.17 406.56 212.03 407.21C212.005 407.221 211.984 407.241 211.971 407.265C211.958 407.29 211.955 407.318 211.961 407.345C211.967 407.373 211.982 407.397 212.003 407.414C212.025 407.431 212.052 407.44 212.08 407.44C215.98 406.84 219.84 405.94 223.7 405.11C227.56 404.28 231.33 403.45 235.13 402.53C237.31 402 239.47 401.42 241.6 400.74C241.642 400.728 241.677 400.7 241.699 400.662C241.721 400.624 241.727 400.579 241.717 400.537C241.707 400.495 241.68 400.458 241.644 400.434C241.607 400.411 241.563 400.402 241.52 400.41Z" fill="#37474F"/>
<path d="M295.37 337.32L279.26 341.7C278.65 341.87 278.19 346.59 278.19 346.59C278.19 346.59 236.27 323.33 219.1 322.91C213.22 322.76 199.7 332.43 198.95 341.73C197.73 356.79 199.32 377.89 202.17 390.25C203.175 393.981 204.894 397.482 207.23 400.56L243.05 393.89C243.05 393.89 243.69 386.54 242.97 382.48C241.88 376.33 237.83 362.39 237.83 362.39C249.34 364.32 280.51 379.86 280.51 379.86C280.51 379.86 297.34 392.98 315.42 377.77L295.37 337.32Z" fill="#E44C42"/>
<path d="M279.37 340.52C279.011 344.114 278.376 347.674 277.47 351.17C277.47 351.3 277.25 351.28 277.28 351.17C277.81 347.61 278.28 344.01 279 340.49C279.05 340.18 279.4 340.24 279.37 340.52Z" fill="#263238"/>
<path d="M295.39 335.4C295.47 335.4 295.52 335.53 295.44 335.56C292.838 336.423 290.285 337.424 287.79 338.56C286.63 339.07 280.27 342.3 281.25 344.45C281.41 344.81 281.8 344.9 282.33 344.79C283.039 344.548 283.711 344.212 284.33 343.79C285.65 343.08 286.99 342.43 288.33 341.79C290.837 340.682 293.46 339.857 296.15 339.33C296.24 339.33 296.26 339.45 296.15 339.48C292.506 340.606 288.959 342.02 285.54 343.71C283.89 344.56 281.54 346.37 280.82 344.45C280.1 342.53 284.14 339.76 285.27 339.12C288.456 337.419 291.861 336.167 295.39 335.4Z" fill="#263238"/>
<path d="M281.07 344.17C280.578 344.595 280.06 344.989 279.52 345.35C279.131 345.671 278.682 345.912 278.2 346.06C278.1 346.06 278.07 345.95 278.12 345.88C278.46 345.456 278.865 345.088 279.32 344.79C279.79 344.4 280.26 344.01 280.74 343.64C281.06 343.39 281.37 343.9 281.07 344.17Z" fill="#263238"/>
<path d="M209.76 394.52C213.62 394.05 217.43 393.26 221.22 392.44C225.01 391.62 228.73 390.78 232.47 389.92C234.61 389.42 236.76 388.92 238.88 388.31C238.909 388.31 238.937 388.298 238.958 388.278C238.978 388.257 238.99 388.229 238.99 388.2C238.99 388.171 238.978 388.143 238.958 388.122C238.937 388.102 238.909 388.09 238.88 388.09C235.03 388.61 231.22 389.43 227.41 390.18C223.6 390.93 219.88 391.69 216.13 392.53C213.97 393.02 211.85 393.53 209.73 394.19C209.693 394.202 209.662 394.226 209.641 394.258C209.62 394.29 209.61 394.329 209.614 394.367C209.617 394.405 209.633 394.441 209.66 394.469C209.687 394.497 209.722 394.515 209.76 394.52Z" fill="#263238"/>
<path opacity="0.1" d="M218.61 337.32C218.486 338.709 218.706 340.106 219.25 341.39C219.48 342.04 219.77 342.66 220.04 343.3C220.31 343.94 220.67 344.52 221.04 345.12C222.406 347.472 223.993 349.689 225.78 351.74C227.532 353.788 229.426 355.71 231.45 357.49C233.449 359.301 235.596 360.94 237.87 362.39C236.32 360.14 234.6 358.11 232.87 356.07C231.14 354.03 229.44 352.07 227.72 350.07C226 348.07 224.3 346.07 222.72 344.01C221.93 343.01 221.13 341.94 220.42 340.85C219.626 339.781 219.015 338.588 218.61 337.32Z" fill="black"/>
<path d="M226.13 326C223.9 321.41 216.85 320.25 210.38 323.4C203.91 326.55 200.49 332.82 202.73 337.4C204.97 341.98 212.02 343.15 218.48 340C224.94 336.85 228.37 330.57 226.13 326Z" fill="#E44C42"/>
<path opacity="0.1" d="M226.13 326C223.9 321.41 216.85 320.25 210.38 323.4C203.91 326.55 200.49 332.82 202.73 337.4C204.97 341.98 212.02 343.15 218.48 340C224.94 336.85 228.37 330.57 226.13 326Z" fill="black"/>
<path d="M332.21 334.31C319.34 315.96 312.21 300.52 312.59 293.67C312.9 287.67 315.99 270.04 321.59 260.48C323.28 257.6 341.13 264.58 340.69 268.12C340.25 271.66 334.94 290.12 334.45 294.76C334.16 297.37 339.45 323.97 340.75 329.99C343 340 337.92 342.45 332.21 334.31Z" fill="#EB9481"/>
<path d="M329.32 247.54C328.32 248.54 327.83 248.04 328.07 245.59C328.31 243.14 331.32 233.59 327.91 232.86C324.5 232.13 320.45 245.56 320.37 249.68C320.48 253.308 320.892 256.92 321.6 260.48C322.92 258 326.68 252.34 329.32 247.54Z" fill="#A6A6A6"/>
<path d="M340.7 268.12C344.15 261.04 348.88 252.44 348.19 243.58C348.136 242.593 347.752 241.653 347.1 240.91C346.86 236.91 344.91 235.91 344.91 235.91C343.56 232.27 341.41 231.44 341.41 231.44C341.41 231.44 341.08 226.78 338.23 226.51C335.03 226.2 336.12 232.81 334.5 236.82C330.78 245.99 322.94 257.99 321.6 260.53L340.7 268.12Z" fill="#A6A6A6"/>
<path d="M337.36 249.12C338.476 246.446 339.412 243.7 340.16 240.9C340.785 237.79 341.176 234.638 341.33 231.47C341.326 231.458 341.324 231.445 341.326 231.432C341.327 231.419 341.332 231.407 341.339 231.396C341.347 231.386 341.357 231.377 341.368 231.371C341.379 231.365 341.392 231.362 341.405 231.362C341.418 231.362 341.431 231.365 341.442 231.371C341.453 231.377 341.463 231.386 341.471 231.396C341.478 231.407 341.483 231.419 341.484 231.432C341.486 231.445 341.485 231.458 341.48 231.47C341.796 237.622 340.412 243.742 337.48 249.16C337.42 249.29 337.31 249.25 337.36 249.12Z" fill="#263238"/>
<path d="M342.57 252.16C343.44 249.46 344.93 244.7 344.82 235.86H344.87C345.678 241.406 344.926 247.067 342.7 252.21C342.63 252.37 342.51 252.34 342.57 252.16Z" fill="#263238"/>
<path d="M345.4 253.75C346.544 249.574 347.11 245.26 347.08 240.93C347.08 240.93 347.13 240.93 347.14 240.93C347.56 246.7 347.06 248.85 345.56 253.82C345.5 254 345.35 253.93 345.4 253.75Z" fill="#263238"/>
<path d="M340.7 268.12L321.6 260.48C319.522 261.519 317.787 263.133 316.6 265.13C314.6 268.45 310.91 291.57 312.36 298.13C313.81 304.69 326.26 328.61 333.04 336.64C339.82 344.67 342.66 338.84 341.53 332.05C340.4 325.26 335.37 296.9 335.39 295.2C335.41 293.5 340.62 278.25 341.39 275.1C342.16 271.95 340.7 268.12 340.7 268.12Z" fill="#E44C42"/>
<path opacity="0.1" d="M333.06 336.63C327.92 330.55 319.51 315.29 315.11 305.42L338.28 313.09C339.61 320.83 341.02 328.83 341.55 332.09C342.68 338.83 339.84 344.66 333.06 336.63Z" fill="black"/>
<path opacity="0.1" d="M339.82 272.91C337.19 271.7 334.49 270.63 331.82 269.58C329.15 268.53 326.47 267.5 323.82 266.48C322.28 265.9 320.74 265.31 319.19 264.78C319.09 264.78 319.06 264.84 319.19 264.89C321.84 266.07 324.55 267.13 327.24 268.21C329.93 269.29 332.57 270.35 335.24 271.38C336.77 271.97 338.31 272.54 339.87 273.05C339.92 273.1 340 273 339.82 272.91Z" fill="black"/>
<path d="M292 335.06L315.5 377.06C317.954 377.584 320.515 377.121 322.63 375.77C331.36 370.6 345.76 358.13 351.16 346.88C355.04 338.78 351.94 332.32 345.96 329.8C344.45 329.17 324.74 322.9 317.67 323.55C309.952 324.494 302.507 327.002 295.79 330.92C294.201 331.963 292.899 333.386 292 335.06Z" fill="#E44C42"/>
<path d="M289.5 335.35C289.41 334.74 292.84 332.94 293.33 333.12C293.82 333.3 317.99 376.9 318.05 377.22C318.11 377.54 313.9 379.58 313.6 379.22C313.3 378.86 289.61 336.18 289.5 335.35Z" fill="#E44C42"/>
<path opacity="0.1" d="M289.5 335.35C289.41 334.74 292.84 332.94 293.33 333.12C293.82 333.3 317.99 376.9 318.05 377.22C318.11 377.54 313.9 379.58 313.6 379.22C313.3 378.86 289.61 336.18 289.5 335.35Z" fill="black"/>
<path d="M317.3 344.16L313.18 323.13L331.76 322.92L335.89 343.95L317.3 344.16Z" fill="#E44C42"/>
<path opacity="0.2" d="M317.3 344.16L313.18 323.13L331.76 322.92L335.89 343.95L317.3 344.16Z" fill="black"/>
<path opacity="0.1" d="M317.3 344.16L316.78 341.49L335.37 341.28L335.89 343.95L317.3 344.16Z" fill="black"/>
<path opacity="0.1" d="M328.13 326.58C327.81 326.582 327.498 326.479 327.243 326.285C326.988 326.092 326.804 325.819 326.72 325.51C326.695 325.369 326.702 325.224 326.742 325.087C326.782 324.949 326.853 324.823 326.95 324.717C327.047 324.612 327.167 324.53 327.3 324.479C327.434 324.427 327.577 324.407 327.72 324.42C328.04 324.418 328.352 324.521 328.607 324.715C328.862 324.908 329.046 325.181 329.13 325.49C329.155 325.631 329.148 325.776 329.108 325.913C329.068 326.051 328.997 326.177 328.9 326.283C328.803 326.388 328.683 326.47 328.55 326.521C328.416 326.573 328.273 326.593 328.13 326.58Z" fill="black"/>
<path opacity="0.1" d="M324.2 326.62C323.881 326.625 323.569 326.523 323.314 326.331C323.058 326.139 322.874 325.868 322.79 325.56C322.763 325.419 322.769 325.273 322.808 325.135C322.847 324.996 322.918 324.869 323.015 324.763C323.113 324.657 323.233 324.575 323.368 324.524C323.502 324.473 323.647 324.455 323.79 324.47C324.109 324.465 324.421 324.567 324.676 324.759C324.932 324.951 325.116 325.222 325.2 325.53C325.225 325.671 325.218 325.816 325.178 325.953C325.138 326.091 325.067 326.217 324.97 326.323C324.873 326.428 324.753 326.51 324.62 326.561C324.486 326.613 324.343 326.633 324.2 326.62Z" fill="black"/>
<path opacity="0.1" d="M320.27 326.66C319.949 326.67 319.635 326.57 319.379 326.378C319.122 326.185 318.939 325.911 318.86 325.6C318.833 325.459 318.839 325.313 318.878 325.175C318.917 325.036 318.988 324.909 319.085 324.803C319.183 324.697 319.303 324.615 319.438 324.564C319.572 324.513 319.717 324.495 319.86 324.51C320.18 324.502 320.494 324.602 320.75 324.794C321.006 324.987 321.189 325.26 321.27 325.57C321.3 325.712 321.295 325.858 321.257 325.997C321.219 326.137 321.148 326.265 321.05 326.372C320.952 326.478 320.83 326.56 320.695 326.61C320.559 326.66 320.414 326.677 320.27 326.66Z" fill="black"/>
<path opacity="0.1" d="M329.706 329.388C329.957 328.878 329.655 328.215 329.031 327.908C328.406 327.6 327.697 327.765 327.445 328.275C327.194 328.785 327.496 329.448 328.121 329.756C328.745 330.063 329.455 329.899 329.706 329.388Z" fill="black"/>
<path opacity="0.1" d="M324.86 330C324.54 330.008 324.226 329.908 323.97 329.715C323.714 329.523 323.531 329.25 323.45 328.94C323.42 328.798 323.425 328.652 323.463 328.512C323.501 328.373 323.572 328.245 323.67 328.138C323.768 328.032 323.89 327.95 324.025 327.9C324.161 327.85 324.306 327.833 324.45 327.85C324.771 327.84 325.085 327.94 325.341 328.132C325.598 328.325 325.781 328.599 325.86 328.91C325.887 329.051 325.881 329.197 325.842 329.335C325.803 329.474 325.732 329.601 325.635 329.707C325.537 329.813 325.417 329.895 325.282 329.946C325.148 329.996 325.003 330.015 324.86 330Z" fill="black"/>
<path opacity="0.1" d="M320.92 330C320.601 330.005 320.289 329.903 320.034 329.711C319.778 329.519 319.594 329.248 319.51 328.94C319.485 328.799 319.492 328.654 319.532 328.517C319.572 328.379 319.643 328.253 319.74 328.147C319.837 328.042 319.957 327.96 320.09 327.909C320.224 327.857 320.367 327.837 320.51 327.85C320.83 327.844 321.142 327.945 321.398 328.137C321.654 328.329 321.837 328.601 321.92 328.91C321.947 329.051 321.941 329.197 321.902 329.335C321.863 329.474 321.792 329.601 321.695 329.707C321.597 329.813 321.477 329.895 321.342 329.946C321.208 329.997 321.063 330.015 320.92 330Z" fill="black"/>
<path opacity="0.1" d="M329.45 333.27C329.129 333.28 328.815 333.18 328.559 332.988C328.302 332.795 328.119 332.521 328.04 332.21C328.013 332.069 328.019 331.923 328.058 331.785C328.097 331.646 328.168 331.519 328.265 331.413C328.363 331.307 328.483 331.225 328.618 331.174C328.752 331.123 328.897 331.105 329.04 331.12C329.36 331.112 329.674 331.212 329.93 331.404C330.186 331.597 330.369 331.87 330.45 332.18C330.48 332.321 330.475 332.468 330.437 332.607C330.399 332.747 330.328 332.875 330.23 332.982C330.132 333.088 330.01 333.17 329.875 333.22C329.739 333.27 329.594 333.287 329.45 333.27Z" fill="black"/>
<path opacity="0.1" d="M325.51 333.32C325.191 333.325 324.879 333.223 324.624 333.031C324.368 332.839 324.184 332.568 324.1 332.26C324.073 332.119 324.079 331.973 324.118 331.835C324.157 331.696 324.228 331.569 324.325 331.463C324.423 331.357 324.543 331.275 324.678 331.224C324.812 331.174 324.957 331.155 325.1 331.17C325.42 331.164 325.732 331.265 325.988 331.457C326.244 331.649 326.427 331.921 326.51 332.23C326.537 332.371 326.531 332.517 326.492 332.655C326.453 332.794 326.382 332.921 326.285 333.027C326.187 333.133 326.067 333.215 325.932 333.266C325.798 333.317 325.653 333.335 325.51 333.32Z" fill="black"/>
<path opacity="0.1" d="M321.58 333.36C321.261 333.365 320.949 333.263 320.694 333.071C320.438 332.879 320.254 332.608 320.17 332.3C320.143 332.159 320.149 332.013 320.188 331.875C320.227 331.736 320.298 331.609 320.395 331.503C320.493 331.397 320.613 331.315 320.748 331.264C320.882 331.213 321.027 331.195 321.17 331.21C321.489 331.205 321.801 331.307 322.056 331.499C322.312 331.691 322.496 331.962 322.58 332.27C322.607 332.411 322.601 332.557 322.562 332.695C322.523 332.834 322.452 332.961 322.355 333.067C322.257 333.173 322.137 333.255 322.002 333.306C321.868 333.356 321.723 333.375 321.58 333.36Z" fill="black"/>
<path d="M338.05 334C339.24 336.92 346.11 338.46 350.4 337.94C350.69 337.94 352.69 335.94 355.22 333.77C356.77 332.43 358.52 330.97 360.22 329.77C360.56 329.53 350 321 350 321C348.317 323.12 346.383 325.027 344.24 326.68C344.001 326.842 343.75 326.986 343.49 327.11L343.36 327.17C341.91 327.91 336.9 331.21 338.05 334Z" fill="#EB9481"/>
<path d="M359.7 329.16C356.48 330.72 348.29 333.89 344.1 328.31C343.83 327.957 343.589 327.583 343.38 327.19C343.42 327.161 343.464 327.137 343.51 327.12C343.77 326.999 344.021 326.859 344.26 326.7C346.396 325.039 348.324 323.125 350 321C350 321 357.63 327.15 359.7 329.16Z" fill="#263238"/>
<path d="M372.32 324.25C368.8 327.59 355.74 331.38 351.6 329.77C345.6 327.44 341.73 320.63 345.22 314.77C348.6 309.1 365.71 304.45 369.78 306.53C375.78 309.59 377.5 319.32 372.32 324.25Z" fill="#EB9481"/>
<path d="M358.41 316.32C358.41 316.32 358.41 316.4 358.36 316.42C357.47 316.7 356.49 317.18 356.49 318.09H356.44C356.22 317.07 357.52 316.45 358.41 316.32Z" fill="#263238"/>
<path d="M359.62 316.78C360.23 318.16 357.43 319.29 356.86 318.01C356.29 316.73 359.1 315.62 359.62 316.78Z" fill="#263238"/>
<path d="M356.57 311.54C356.57 311.54 356.5 311.49 356.46 311.54C355.6 311.91 354.56 312.2 353.95 311.54C354.43 312.43 355.81 312 356.57 311.54Z" fill="#263238"/>
<path d="M357.16 310.4C356.71 308.96 353.86 309.97 354.28 311.31C354.7 312.65 357.54 311.61 357.16 310.4Z" fill="#263238"/>
<path d="M361.44 317.36C361.44 316.94 361.44 316.54 361.44 316.12C361.383 315.684 361.47 315.241 361.69 314.86C361.782 314.754 361.906 314.68 362.043 314.652C362.18 314.623 362.323 314.64 362.45 314.7C362.682 314.862 362.866 315.083 362.986 315.339C363.105 315.595 363.155 315.878 363.13 316.16C363.159 316.739 362.974 317.309 362.61 317.76C362.519 317.851 362.404 317.914 362.279 317.943C362.153 317.971 362.023 317.965 361.901 317.923C361.779 317.881 361.672 317.807 361.59 317.707C361.509 317.608 361.457 317.487 361.44 317.36Z" fill="#263238"/>
<path d="M358 308.75C358.22 309.11 358.49 309.41 358.74 309.75C358.99 310.09 359.22 310.46 359.69 310.62C359.827 310.652 359.971 310.638 360.099 310.58C360.228 310.522 360.333 310.424 360.4 310.3C360.492 310.032 360.511 309.744 360.455 309.466C360.399 309.189 360.269 308.931 360.08 308.72C359.767 308.233 359.287 307.877 358.73 307.72C358.599 307.693 358.463 307.705 358.339 307.754C358.214 307.804 358.107 307.888 358.029 307.997C357.952 308.106 357.908 308.235 357.903 308.369C357.898 308.503 357.931 308.635 358 308.75Z" fill="#263238"/>
<path d="M351.61 319.41C351.497 318.172 351.096 316.977 350.44 315.92C350.44 315.81 350.57 315.64 350.66 315.59L352.52 314.91C352.3 314.72 351.26 313.71 351.61 313.59C354.629 312.489 357.752 311.695 360.93 311.22C360.948 311.226 360.963 311.238 360.974 311.253C360.985 311.268 360.99 311.286 360.99 311.305C360.99 311.324 360.985 311.342 360.974 311.357C360.963 311.372 360.948 311.384 360.93 311.39C358.15 312.39 355.2 312.96 352.39 313.96C352.782 314.311 353.119 314.719 353.39 315.17C353.39 315.28 351.39 315.78 351.1 315.93C351.816 316.89 352.128 318.093 351.97 319.28C351.9 319.74 351.61 320 351.61 319.41Z" fill="#263238"/>
<path d="M349.57 318.39C349.57 317.83 351.23 316.28 351.69 317.08C351.994 317.746 352.126 318.478 352.074 319.208C352.021 319.939 351.786 320.644 351.39 321.26C350.53 322.33 350.39 319.51 350.05 319.18C349.71 318.85 349.59 318.8 349.57 318.39Z" fill="#263238"/>
<path d="M350 319.17L349.84 319.01C350.046 318.933 350.265 318.899 350.484 318.911C350.704 318.923 350.918 318.981 351.114 319.081C351.31 319.181 351.482 319.32 351.621 319.49C351.76 319.661 351.862 319.858 351.92 320.07C351.824 320.503 351.632 320.91 351.36 321.26C350.53 322.32 350.37 319.51 350 319.17Z" fill="#FF9ABB"/>
<path d="M362.24 328.49C360.7 325.49 363.68 322.3 366.95 321.75C366.95 321.75 362.33 314.02 368.74 310.8C367.517 310.53 366.369 309.994 365.377 309.23C364.385 308.466 363.573 307.493 363 306.38L360.67 306.87C360.56 305.92 362.56 304 365.32 305.25C367.396 304.529 369.671 304.637 371.67 305.55C372.516 305.96 373.226 306.606 373.713 307.409C374.201 308.213 374.447 309.14 374.42 310.08C376.067 311.063 377.269 312.648 377.77 314.5C378.013 315.472 378.022 316.488 377.794 317.463C377.566 318.439 377.109 319.346 376.46 320.11C376.46 320.11 377.46 324.5 374.85 326.44C374.128 327.003 373.295 327.408 372.406 327.626C371.516 327.845 370.591 327.874 369.69 327.71C369.69 327.71 369 329.22 366.31 329.76C364.59 330.11 362.71 329.38 362.24 328.49Z" fill="#263238"/>
<path d="M369.41 310.73C368.847 310.893 368.303 311.117 367.79 311.4C367.275 311.675 366.795 312.011 366.36 312.4C365.498 313.141 364.947 314.18 364.82 315.31C364.736 316.453 364.921 317.601 365.36 318.66C365.61 319.19 365.82 319.73 366.09 320.24C366.36 320.75 366.67 321.24 366.95 321.78C366.6 321.31 366.26 320.83 365.95 320.35C365.64 319.87 365.39 319.3 365.1 318.78C364.592 317.683 364.365 316.477 364.44 315.27C364.591 314.043 365.22 312.926 366.19 312.16C367.125 311.418 368.233 310.926 369.41 310.73Z" fill="#263238"/>
<path d="M376.46 320.11C376.906 321.152 377.127 322.277 377.11 323.41C377.117 324.58 376.714 325.716 375.97 326.62C375.57 327.042 375.104 327.397 374.59 327.67C374.092 327.964 373.548 328.17 372.98 328.28C371.851 328.51 370.676 328.306 369.69 327.71C370.707 328.143 371.837 328.234 372.91 327.97C373.962 327.702 374.916 327.14 375.66 326.35C376.018 325.953 376.296 325.491 376.48 324.99C376.653 324.476 376.757 323.941 376.79 323.4C376.859 322.293 376.748 321.181 376.46 320.11Z" fill="#263238"/>
<path d="M374.42 310.08C374.369 309.185 374.177 308.304 373.85 307.47C373.538 306.653 373.017 305.933 372.34 305.38C371.643 304.852 370.825 304.508 369.96 304.38C369.075 304.25 368.175 304.25 367.29 304.38C368.162 304.092 369.085 303.986 370 304.07C370.948 304.123 371.856 304.469 372.6 305.06C373.343 305.651 373.885 306.458 374.15 307.37C374.432 308.244 374.524 309.168 374.42 310.08Z" fill="#263238"/>
<path d="M363.78 308.14C364.472 308.906 365.286 309.551 366.19 310.05C366.636 310.293 367.114 310.471 367.61 310.58C368.116 310.686 368.633 310.737 369.15 310.73C368.635 310.899 368.089 310.953 367.55 310.89C367.008 310.835 366.482 310.675 366 310.42C365.52 310.157 365.084 309.819 364.71 309.42C364.334 309.045 364.02 308.613 363.78 308.14Z" fill="#263238"/>
<path d="M360.8 326.21C360.8 326.21 366.01 327.09 365.87 329.32C365.73 331.55 359.1 332.2 357.34 330.49C357.098 330.286 356.899 330.035 356.757 329.752C356.615 329.47 356.531 329.161 356.511 328.845C356.492 328.529 356.537 328.212 356.643 327.914C356.749 327.616 356.915 327.342 357.13 327.11L360.8 326.21Z" fill="#EB9481"/>
<path d="M364 329.46C364 329.46 364 329.52 363.95 329.46C363.297 328.948 362.544 328.579 361.74 328.375C360.936 328.172 360.098 328.14 359.28 328.28C359.467 328.295 359.649 328.35 359.812 328.442C359.975 328.534 360.117 328.661 360.226 328.813C360.336 328.965 360.411 329.14 360.446 329.324C360.481 329.508 360.476 329.698 360.43 329.88C360.43 329.93 360.35 329.88 360.34 329.88C360.298 329.584 360.165 329.309 359.962 329.091C359.758 328.873 359.492 328.722 359.2 328.66C358.713 328.558 358.217 328.512 357.72 328.52C357.55 328.52 357.51 328.25 357.72 328.23C359.54 327.34 362.83 327.55 364 329.46Z" fill="#263238"/>
<g opacity="0.2">
<path d="M356 321.35C355.957 321.373 355.925 321.412 355.91 321.459C355.895 321.505 355.899 321.556 355.92 321.6C355.937 321.634 355.963 321.662 355.996 321.681C356.029 321.7 356.067 321.709 356.104 321.706C356.142 321.704 356.178 321.69 356.208 321.666C356.238 321.643 356.26 321.611 356.272 321.575C356.283 321.539 356.284 321.5 356.273 321.463C356.263 321.427 356.241 321.395 356.212 321.37C356.183 321.346 356.147 321.331 356.109 321.328C356.071 321.324 356.033 321.332 356 321.35Z" fill="black"/>
<path d="M354.34 317.84C354.297 317.863 354.265 317.902 354.25 317.949C354.235 317.995 354.239 318.046 354.26 318.09C354.271 318.111 354.287 318.13 354.306 318.145C354.325 318.16 354.347 318.172 354.37 318.178C354.393 318.185 354.418 318.186 354.442 318.183C354.466 318.18 354.489 318.172 354.51 318.16C354.553 318.136 354.585 318.097 354.6 318.051C354.615 318.004 354.611 317.954 354.59 317.91C354.579 317.889 354.563 317.87 354.544 317.855C354.525 317.839 354.503 317.828 354.48 317.822C354.457 317.815 354.432 317.813 354.408 317.816C354.384 317.82 354.361 317.828 354.34 317.84Z" fill="black"/>
<path d="M353.77 319.68C353.749 319.691 353.73 319.707 353.715 319.726C353.699 319.745 353.688 319.767 353.682 319.79C353.675 319.813 353.673 319.838 353.677 319.862C353.68 319.886 353.688 319.909 353.7 319.93C353.723 319.973 353.762 320.005 353.809 320.02C353.856 320.035 353.906 320.031 353.95 320.01C353.986 319.982 354.012 319.943 354.021 319.898C354.031 319.854 354.024 319.807 354.002 319.767C353.981 319.727 353.945 319.696 353.902 319.68C353.86 319.664 353.813 319.664 353.77 319.68Z" fill="black"/>
<path d="M357.3 320.54C357.266 320.557 357.237 320.583 357.219 320.616C357.2 320.649 357.191 320.686 357.194 320.724C357.196 320.762 357.21 320.798 357.234 320.828C357.257 320.858 357.289 320.88 357.325 320.892C357.361 320.903 357.4 320.904 357.437 320.893C357.473 320.882 357.505 320.861 357.53 320.832C357.554 320.803 357.569 320.767 357.572 320.729C357.576 320.691 357.568 320.653 357.55 320.62C357.527 320.577 357.488 320.545 357.441 320.53C357.394 320.515 357.344 320.519 357.3 320.54Z" fill="black"/>
<path d="M355.52 319.41C355.486 319.427 355.457 319.453 355.439 319.486C355.42 319.519 355.411 319.557 355.414 319.594C355.416 319.632 355.43 319.668 355.454 319.698C355.477 319.728 355.509 319.75 355.545 319.762C355.581 319.773 355.62 319.774 355.657 319.763C355.693 319.753 355.725 319.731 355.75 319.702C355.774 319.673 355.789 319.637 355.792 319.599C355.796 319.561 355.788 319.523 355.77 319.49C355.747 319.447 355.708 319.415 355.661 319.4C355.614 319.385 355.564 319.389 355.52 319.41Z" fill="black"/>
<path d="M353.44 309.72C353.413 309.727 353.387 309.741 353.365 309.759C353.344 309.778 353.327 309.801 353.315 309.827C353.304 309.852 353.298 309.881 353.299 309.909C353.3 309.937 353.307 309.965 353.32 309.991C353.333 310.016 353.351 310.038 353.374 310.055C353.397 310.072 353.423 310.084 353.451 310.09C353.479 310.095 353.507 310.095 353.535 310.088C353.562 310.081 353.588 310.068 353.61 310.05C353.653 310.027 353.685 309.988 353.7 309.941C353.715 309.894 353.711 309.844 353.69 309.8C353.667 309.757 353.628 309.725 353.581 309.71C353.534 309.695 353.484 309.699 353.44 309.72Z" fill="black"/>
<path d="M353.18 311.49C353.146 311.507 353.118 311.533 353.099 311.566C353.08 311.599 353.071 311.637 353.074 311.674C353.076 311.712 353.09 311.748 353.114 311.778C353.137 311.808 353.169 311.83 353.205 311.842C353.241 311.853 353.28 311.854 353.317 311.843C353.353 311.832 353.385 311.811 353.41 311.782C353.434 311.753 353.449 311.717 353.452 311.679C353.456 311.641 353.448 311.603 353.43 311.57C353.407 311.527 353.368 311.495 353.321 311.48C353.274 311.465 353.224 311.469 353.18 311.49Z" fill="black"/>
<path d="M351.93 311.73C351.887 311.753 351.855 311.792 351.84 311.839C351.825 311.885 351.829 311.936 351.85 311.98C351.861 312.002 351.876 312.022 351.894 312.038C351.913 312.054 351.934 312.066 351.958 312.074C351.981 312.081 352.006 312.084 352.03 312.082C352.055 312.079 352.079 312.072 352.1 312.06C352.133 312.032 352.156 311.994 352.165 311.952C352.174 311.909 352.168 311.865 352.148 311.826C352.128 311.788 352.096 311.757 352.056 311.74C352.016 311.722 351.972 311.719 351.93 311.73Z" fill="black"/>
<path d="M352.09 310.22C352.056 310.237 352.028 310.263 352.009 310.296C351.99 310.329 351.981 310.367 351.984 310.404C351.986 310.442 352 310.478 352.024 310.508C352.047 310.538 352.079 310.56 352.115 310.572C352.151 310.583 352.19 310.584 352.227 310.573C352.263 310.562 352.295 310.541 352.32 310.512C352.344 310.483 352.359 310.447 352.362 310.409C352.366 310.371 352.358 310.333 352.34 310.3C352.317 310.257 352.278 310.225 352.231 310.21C352.184 310.195 352.134 310.199 352.09 310.22Z" fill="black"/>
</g>
<path d="M350.31 339.05C350.31 339.05 355.23 335.82 355.07 335.15C354.91 334.48 348.81 333.89 346.72 331.88C344.63 329.87 343.86 326.88 343.62 326.54C343.38 326.2 339.2 329.44 338.37 330.35C337.771 330.873 337.389 331.599 337.296 332.389C337.204 333.178 337.408 333.973 337.87 334.62C340 337.8 347.68 339.82 350.31 339.05Z" fill="#E44C42"/>
<path d="M353.49 335.34C352.113 336.11 350.889 337.127 349.88 338.34C351.259 337.573 352.483 336.555 353.49 335.34Z" fill="#263238"/>
<path d="M343.44 327.34C342.018 328.003 340.733 328.925 339.65 330.06C341.072 329.397 342.357 328.474 343.44 327.34Z" fill="#263238"/>
<path d="M343.36 329.12C341.531 330.084 339.847 331.303 338.36 332.74C340.184 331.766 341.866 330.549 343.36 329.12Z" fill="#263238"/>
<path d="M344.41 331C342.584 331.97 340.902 333.189 339.41 334.62C341.236 333.65 342.918 332.431 344.41 331Z" fill="#263238"/>
<path d="M346.38 332.72C344.554 333.69 342.872 334.908 341.38 336.34C343.204 335.366 344.886 334.148 346.38 332.72Z" fill="#263238"/>
<path d="M348.45 333.93C346.696 334.834 345.085 335.994 343.67 337.37C345.42 336.459 347.03 335.3 348.45 333.93Z" fill="#263238"/>
<path d="M350.91 334.8C349.37 335.641 347.979 336.729 346.79 338.02C348.331 337.181 349.724 336.093 350.91 334.8Z" fill="#263238"/>
<path d="M349.7 343.73C348.579 344.161 347.362 344.279 346.18 344.07C342.36 343.42 337.89 339.41 336.52 334.21C335.65 330.88 336.16 328.42 337.4 326.78C338.103 330.327 339.566 333.679 341.69 336.605C343.813 339.531 346.546 341.962 349.7 343.73Z" fill="#455A64"/>
<path d="M384.26 330C388.15 318.05 383.31 301.26 364.86 299.34C352.11 298 340.7 306.24 337.44 316C332.83 329.8 343.61 344.54 355.5 346.37C364.53 347.75 380.17 342.59 384.26 330ZM354.26 338.27C345.61 336.48 337.41 324.44 340.37 313.56C341.527 309.468 344.134 305.936 347.704 303.625C351.274 301.314 355.563 300.381 359.77 301C373.16 303 378.02 316.25 375.54 325.67C372.93 335.61 360.86 339.58 354.3 338.23L354.26 338.27Z" fill="#E44C42"/>
<path opacity="0.1" d="M354.3 338.23C345.65 336.44 337.45 324.4 340.41 313.52C341.574 309.443 344.178 305.927 347.739 303.624C351.299 301.321 355.574 300.389 359.77 301C373.16 303 378.02 316.25 375.54 325.67C372.93 335.61 360.86 339.58 354.3 338.23Z" fill="#455A64"/>
<path opacity="0.1" d="M354.3 338.23C345.65 336.44 337.45 324.4 340.41 313.52C341.574 309.443 344.178 305.927 347.739 303.624C351.299 301.321 355.574 300.389 359.77 301C373.16 303 378.02 316.25 375.54 325.67C372.93 335.61 360.86 339.58 354.3 338.23Z" fill="#455A64"/>
<g opacity="0.2">
<path d="M374.37 312.13C365.627 308.435 356.506 305.709 347.17 304C349.165 302.571 351.443 301.585 353.85 301.11C359.415 302.422 364.89 304.092 370.24 306.11C371.988 307.835 373.389 309.879 374.37 312.13Z" fill="white"/>
<path d="M361.53 337.93C359.169 338.543 356.704 338.645 354.3 338.23C351.558 337.575 349.043 336.193 347.02 334.23C351.938 335.117 356.787 336.353 361.53 337.93Z" fill="white"/>
<path d="M375.6 315.85C365.596 311.417 355.057 308.304 344.25 306.59C344.437 306.37 344.637 306.16 344.85 305.96C355.368 307.684 365.628 310.721 375.39 315C375.47 315.28 375.54 315.57 375.6 315.85Z" fill="white"/>
<path d="M369.25 334.47C360.473 330.858 351.267 328.391 341.86 327.13C341.74 326.89 341.63 326.64 341.52 326.38C351.26 327.665 360.789 330.227 369.86 334L369.25 334.47Z" fill="white"/>
<path d="M364.84 336.89C364.53 337.01 364.22 337.13 363.9 337.23C357.847 335.083 351.616 333.477 345.28 332.43C345.06 332.18 344.84 331.92 344.63 331.65C351.521 332.734 358.29 334.489 364.84 336.89Z" fill="white"/>
<path d="M373.72 329.82C362.997 324.977 351.6 321.794 339.92 320.38C339.818 319.541 339.782 318.695 339.81 317.85C351.918 319.318 363.725 322.654 374.81 327.74C374.507 328.463 374.142 329.159 373.72 329.82Z" fill="white"/>
</g>
<path d="M366.17 348.9C369.27 348.9 374.7 346.8 376.17 343.01C377.59 339.43 376.05 334.84 369.7 335.06C365.32 335.21 361.33 338.06 360.14 340.98C358.48 345.12 362.09 348.88 366.17 348.9Z" fill="#E44C42"/>
<path opacity="0.1" d="M366.17 348.9C369.27 348.9 374.7 346.8 376.17 343.01C377.59 339.43 376.05 334.84 369.7 335.06C365.32 335.21 361.33 338.06 360.14 340.98C358.48 345.12 362.09 348.88 366.17 348.9Z" fill="black"/>
<path d="M367.48 349.35C369.86 349.35 374.02 347.73 375.18 344.82C376.27 342.07 375.08 338.54 370.18 338.71C366.81 338.83 363.75 341.01 362.83 343.26C361.57 346.44 364.34 349.33 367.48 349.35Z" fill="#E44C42"/>
<path d="M341 354.36C323.15 354.06 298.57 343.56 292.78 339.71C283.97 333.84 287.42 300.28 287.68 293.51C287.8 290.62 313.6 295.58 313.54 298.67C313.49 301.37 309.95 327.16 310.94 327.75C311.75 328.23 329.63 337.75 341.53 344.75C351.73 350.71 345.67 354.44 341 354.36Z" fill="#EB9481"/>
<path d="M312.88 304.71C312.88 304.71 313.37 300.3 313.39 300.01C313.604 298.496 314.035 297.021 314.67 295.63C316.82 290.13 318.55 275.35 306.36 264.07C301.68 259.74 296.61 261.14 300.67 266.49C303.53 270.26 305.83 272.62 306.42 274.12C306.42 274.12 299.42 272.33 296.2 275.04C293.404 277.414 290.781 279.984 288.35 282.73C288.746 283.292 289.181 283.827 289.65 284.33C288.486 285.517 287.681 287.008 287.328 288.632C286.974 290.256 287.086 291.947 287.65 293.51L287.2 301.02L312.88 304.71Z" fill="#A6A6A6"/>
<path d="M315.89 290.05C314.84 287.14 312.52 280.99 308.89 276.63C304.84 271.78 295.73 263.53 292.18 266.56C289.58 268.78 292.78 272.23 292.78 272.23C292.78 272.23 288.3 269.62 286.39 272.14C284.64 274.43 287.28 276.96 287.28 276.96C287.28 276.96 284.28 275.84 283.04 278.37C281.53 281.42 288.04 283.26 289.19 287.67C289.43 288.66 315.89 290.05 315.89 290.05Z" fill="#A6A6A6"/>
<path d="M304.46 281.76C301.668 277.471 297.63 274.139 292.89 272.21C292.77 272.21 292.67 272.21 292.77 272.3C297.024 274.982 300.936 278.172 304.42 281.8C304.42 281.8 304.48 281.79 304.46 281.76Z" fill="#263238"/>
<path d="M299.45 285.71C297.98 283.61 292.85 278.65 287.33 276.86C287.21 276.86 287.11 276.86 287.22 276.96C291.603 279.42 295.692 282.368 299.41 285.75C299.41 285.75 299.47 285.74 299.45 285.71Z" fill="#263238"/>
<path d="M312.88 304.71L287.18 301C287.18 301 284.58 302.9 284.32 309.71C284.06 316.52 286.61 335.87 291.32 339.71C296.03 343.55 319.06 352.66 335.32 354.59C351.58 356.52 348.78 347.75 341.32 344.05C333.86 340.35 311.83 327.57 311.55 327.13C311.27 326.69 313.84 315.02 314.04 310.9C314.24 306.78 312.88 304.71 312.88 304.71Z" fill="#E44C42"/>
<path d="M315.21 329.4C316.51 330.33 317.84 331.19 319.21 332.04C320.58 332.89 321.91 333.7 323.28 334.51C324.65 335.32 326.04 336.09 327.44 336.82L329.56 337.93C330.28 338.27 330.98 338.64 331.72 338.93C331.07 338.46 330.41 338.03 329.72 337.58L327.72 336.29C326.39 335.44 325.02 334.63 323.65 333.82C322.28 333.01 320.89 332.25 319.48 331.51C318.07 330.77 316.66 330.06 315.21 329.4Z" fill="#263238"/>
<path d="M327.63 336.56C328.148 336.79 328.688 336.971 329.24 337.1C329.791 337.232 330.348 337.332 330.91 337.4C330.676 337.231 330.42 337.093 330.15 336.99C329.349 336.673 328.491 336.527 327.63 336.56Z" fill="#263238"/>
<path d="M293.85 341.33C295.13 342.11 296.47 342.8 297.8 343.5C299.13 344.2 300.5 344.82 301.87 345.44C304.6 346.69 307.41 347.78 310.23 348.81C313.05 349.84 315.94 350.72 318.86 351.46C321.768 352.229 324.716 352.84 327.69 353.29C326.24 352.88 324.77 352.57 323.34 352.14C321.91 351.71 320.45 351.35 319.02 350.9L314.73 349.57C313.31 349.08 311.89 348.62 310.49 348.1C307.66 347.1 304.87 346.03 302.1 344.91C299.33 343.79 296.57 342.59 293.85 341.33Z" fill="#263238"/>
<path d="M322.5 352.13C323.358 352.955 324.38 353.589 325.5 353.99C325.076 353.57 324.603 353.204 324.09 352.9C323.589 352.587 323.056 352.329 322.5 352.13Z" fill="#263238"/>
<path opacity="0.1" d="M310.71 308.72C307.88 308.13 305 307.72 302.13 307.26C299.26 306.8 296.45 306.44 293.61 306.04C291.98 305.81 290.35 305.58 288.72 305.41C288.61 305.41 288.6 305.5 288.72 305.52C291.55 306.08 294.43 306.52 297.3 306.97C300.17 307.42 302.97 307.87 305.81 308.28C307.44 308.51 309.07 308.72 310.7 308.87C310.85 308.89 310.86 308.75 310.71 308.72Z" fill="black"/>
</g>
<defs>
<clipPath id="clip0_1242_8606">
<rect width="500" height="500" fill="white"/>
</clipPath>
</defs>
</svg>
