<svg width="500" height="463" viewBox="0 0 500 463" fill="none" xmlns="http://www.w3.org/2000/svg">
<path fill-rule="evenodd" clip-rule="evenodd" d="M253.229 1.75797C320.017 -3.83568 392.429 1.96147 440.997 48.1472C490.379 95.1081 502.926 167.856 499.462 235.915C496.183 300.319 470.227 361.789 422.808 405.493C377.193 447.534 315.256 463.764 253.229 462.853C192.231 461.957 133.989 441.3 88.5602 400.584C40.3156 357.344 -1.16145 300.69 0.0247728 235.915C1.1968 171.915 47.4874 120.629 94.4829 77.1685C139.195 35.8201 192.541 6.84071 253.229 1.75797Z" fill="white"/>
<g clip-path="url(#clip0_834_8884)">
<path d="M410.296 214.656H382.632V248.256H375.512V229.232H340.328V259.352H335.672V188.664H305.096V208.072H289.424V232.208H284.68V217.024H256.88V262.336H248.752V225.496H223.328V197.528H206.04V181.6H186.048V252.256H179.328V222.768H146.384V264.976H141.832V230.528H108.424V199.488H89.704V344.048H410.296V214.656Z" fill="#EBEBEB"/>
<path d="M402.224 225.304H406.904V218.88H402.224V225.304Z" fill="white"/>
<path d="M394.112 225.304H398.792V218.88H394.112V225.304Z" fill="white"/>
<path d="M385.992 225.304H390.672V218.88H385.992V225.304Z" fill="white"/>
<path d="M402.224 234.968H406.904V228.544H402.224V234.968Z" fill="white"/>
<path d="M394.112 234.968H398.792V228.544H394.112V234.968Z" fill="white"/>
<path d="M385.992 234.968H390.672V228.544H385.992V234.968Z" fill="white"/>
<path d="M402.224 244.632H406.904V238.208H402.224V244.632Z" fill="white"/>
<path d="M394.112 244.632H398.792V238.208H394.112V244.632Z" fill="white"/>
<path d="M385.992 244.632H390.672V238.208H385.992V244.632Z" fill="white"/>
<path d="M402.224 254.304H406.904V247.88H402.224V254.304Z" fill="white"/>
<path d="M394.112 254.304H398.792V247.88H394.112V254.304Z" fill="white"/>
<path d="M385.992 254.304H390.672V247.88H385.992V254.304Z" fill="white"/>
<path d="M240.168 235.456H244.848V230.096H240.168V235.456Z" fill="white"/>
<path d="M232.056 235.456H236.736V230.096H232.056V235.456Z" fill="white"/>
<path d="M223.936 235.456H228.616V230.096H223.936V235.456Z" fill="white"/>
<path d="M240.168 243.512H244.848V238.152H240.168V243.512Z" fill="white"/>
<path d="M232.056 243.512H236.736V238.152H232.056V243.512Z" fill="white"/>
<path d="M223.936 243.512H228.616V238.152H223.936V243.512Z" fill="white"/>
<path d="M240.168 251.576H244.848V246.216H240.168V251.576Z" fill="white"/>
<path d="M232.056 251.576H236.736V246.216H232.056V251.576Z" fill="white"/>
<path d="M223.936 251.576H228.616V246.216H223.936V251.576Z" fill="white"/>
<path d="M240.168 259.64H244.848V254.28H240.168V259.64Z" fill="white"/>
<path d="M232.056 259.64H236.736V254.28H232.056V259.64Z" fill="white"/>
<path d="M223.936 259.64H228.616V254.28H223.936V259.64Z" fill="white"/>
<path d="M240.168 267.904H244.848V262.544H240.168V267.904Z" fill="white"/>
<path d="M232.056 267.904H236.736V262.544H232.056V267.904Z" fill="white"/>
<path d="M223.936 267.904H228.616V262.544H223.936V267.904Z" fill="white"/>
<path d="M240.168 276.168H244.848V270.808H240.168V276.168Z" fill="white"/>
<path d="M232.056 276.168H236.736V270.808H232.056V276.168Z" fill="white"/>
<path d="M223.936 276.168H228.616V270.808H223.936V276.168Z" fill="white"/>
<path d="M240.168 284.424H244.848V279.064H240.168V284.424Z" fill="white"/>
<path d="M232.056 284.424H236.736V279.064H232.056V284.424Z" fill="white"/>
<path d="M223.936 284.424H228.616V279.064H223.936V284.424Z" fill="white"/>
<path d="M240.168 292.688H244.848V287.328H240.168V292.688Z" fill="white"/>
<path d="M232.056 292.688H236.736V287.328H232.056V292.688Z" fill="white"/>
<path d="M223.936 292.688H228.616V287.328H223.936V292.688Z" fill="white"/>
<path d="M344.568 237.368H371.512V233.352H344.568V237.368Z" fill="white"/>
<path d="M344.568 245.168H371.512V241.152H344.568V245.168Z" fill="white"/>
<path d="M344.568 252.96H371.512V248.944H344.568V252.96Z" fill="white"/>
<path d="M344.568 260.752H371.512V256.736H344.568V260.752Z" fill="white"/>
<path d="M344.568 268.552H371.512V264.536H344.568V268.552Z" fill="white"/>
<path d="M344.568 276.344H371.512V272.328H344.568V276.344Z" fill="white"/>
<path d="M344.568 284.144H371.512V280.128H344.568V284.144Z" fill="white"/>
<path d="M344.568 291.928H371.512V287.912H344.568V291.928Z" fill="white"/>
<path d="M150.56 230.528H175.336V226.512H150.56V230.528Z" fill="white"/>
<path d="M150.56 238.328H175.336V234.312H150.56V238.328Z" fill="white"/>
<path d="M150.56 246.128H175.336V242.112H150.56V246.128Z" fill="white"/>
<path d="M150.56 253.92H175.336V249.904H150.56V253.92Z" fill="white"/>
<path d="M150.56 261.712H175.336V257.696H150.56V261.712Z" fill="white"/>
<path d="M150.56 269.512H175.336V265.496H150.56V269.512Z" fill="white"/>
<path d="M150.56 277.304H175.336V273.288H150.56V277.304Z" fill="white"/>
<path d="M150.56 285.104H175.336V281.088H150.56V285.104Z" fill="white"/>
<path d="M150.56 292.504H175.336V288.488H150.56V292.504Z" fill="white"/>
<path d="M150.56 299.912H175.336V295.896H150.56V299.912Z" fill="white"/>
<path d="M150.56 307.32H175.336V303.304H150.56V307.32Z" fill="white"/>
<path d="M150.56 314.72H175.336V310.704H150.56V314.72Z" fill="white"/>
<path d="M150.56 322.128H175.336V318.112H150.56V322.128Z" fill="white"/>
<path d="M110.512 239.944H136.68V235.928H110.512V239.944Z" fill="white"/>
<path d="M110.512 247.744H136.68V243.728H110.512V247.744Z" fill="white"/>
<path d="M110.512 255.544H136.68V251.528H110.512V255.544Z" fill="white"/>
<path d="M110.512 263.336H136.68V259.32H110.512V263.336Z" fill="white"/>
<path d="M110.512 271.128H136.68V267.112H110.512V271.128Z" fill="white"/>
<path d="M110.512 278.928H136.68V274.912H110.512V278.928Z" fill="white"/>
<path d="M110.512 286.72H136.68V282.704H110.512V286.72Z" fill="white"/>
<path d="M110.512 294.52H136.68V290.504H110.512V294.52Z" fill="white"/>
<path d="M110.512 301.496H136.68V297.48H110.512V301.496Z" fill="white"/>
<path d="M110.512 308.472H136.68V304.456H110.512V308.472Z" fill="white"/>
<path d="M110.512 315.448H136.68V311.432H110.512V315.448Z" fill="white"/>
<path d="M268.224 224.544H276.544V220.664H268.224V224.544Z" fill="white"/>
<path d="M268.224 232.072H276.544V228.192H268.224V232.072Z" fill="white"/>
<path d="M268.224 239.6H276.544V235.72H268.224V239.6Z" fill="white"/>
<path d="M268.224 247.128H276.544V243.248H268.224V247.128Z" fill="white"/>
<path d="M268.224 254.656H276.544V250.776H268.224V254.656Z" fill="white"/>
<path d="M268.224 262.184H276.544V258.304H268.224V262.184Z" fill="white"/>
<path d="M268.224 269.712H276.544V265.832H268.224V269.712Z" fill="white"/>
<path d="M268.224 277.24H276.544V273.36H268.224V277.24Z" fill="white"/>
<path d="M256.904 224.544H265.224V220.664H256.904V224.544Z" fill="white"/>
<path d="M256.904 232.072H265.224V228.192H256.904V232.072Z" fill="white"/>
<path d="M256.904 239.6H265.224V235.72H256.904V239.6Z" fill="white"/>
<path d="M256.904 247.128H265.224V243.248H256.904V247.128Z" fill="white"/>
<path d="M256.904 254.656H265.224V250.776H256.904V254.656Z" fill="white"/>
<path d="M256.904 262.184H265.224V258.304H256.904V262.184Z" fill="white"/>
<path d="M256.904 269.712H265.224V265.832H256.904V269.712Z" fill="white"/>
<path d="M256.904 277.24H265.224V273.36H256.904V277.24Z" fill="white"/>
<path d="M322.36 198.856H331.032V192.736H322.36V198.856Z" fill="white"/>
<path d="M309.44 198.856H318.112V192.736H309.44V198.856Z" fill="white"/>
<path d="M322.36 207.84H331.032V201.72H322.36V207.84Z" fill="white"/>
<path d="M309.44 207.84H318.112V201.72H309.44V207.84Z" fill="white"/>
<path d="M322.36 216.832H331.032V210.712H322.36V216.832Z" fill="white"/>
<path d="M309.44 216.832H318.112V210.712H309.44V216.832Z" fill="white"/>
<path d="M322.36 225.816H331.032V219.696H322.36V225.816Z" fill="white"/>
<path d="M309.44 225.816H318.112V219.696H309.44V225.816Z" fill="white"/>
<path d="M322.36 234.808H331.032V228.688H322.36V234.808Z" fill="white"/>
<path d="M309.44 234.808H318.112V228.688H309.44V234.808Z" fill="white"/>
<path d="M322.36 243.8H331.032V237.68H322.36V243.8Z" fill="white"/>
<path d="M309.44 243.8H318.112V237.68H309.44V243.8Z" fill="white"/>
<path d="M322.36 252.784H331.032V246.664H322.36V252.784Z" fill="white"/>
<path d="M309.44 252.784H318.112V246.664H309.44V252.784Z" fill="white"/>
<path d="M322.36 261.776H331.032V255.656H322.36V261.776Z" fill="white"/>
<path d="M309.44 261.776H318.112V255.656H309.44V261.776Z" fill="white"/>
<path d="M293.416 216.832H302.088V210.712H293.416V216.832Z" fill="white"/>
<path d="M293.416 225.816H302.088V219.696H293.416V225.816Z" fill="white"/>
<path d="M293.416 234.808H302.088V228.688H293.416V234.808Z" fill="white"/>
<path d="M293.416 243.8H302.088V237.68H293.416V243.8Z" fill="white"/>
<path d="M293.416 252.784H302.088V246.664H293.416V252.784Z" fill="white"/>
<path d="M293.416 261.776H302.088V255.656H293.416V261.776Z" fill="white"/>
<path d="M322.36 270.656H331.032V264.536H322.36V270.656Z" fill="white"/>
<path d="M309.44 270.656H318.112V264.536H309.44V270.656Z" fill="white"/>
<path d="M293.416 270.656H302.088V264.536H293.416V270.656Z" fill="white"/>
<path d="M322.36 279.528H331.032V273.408H322.36V279.528Z" fill="white"/>
<path d="M309.44 279.528H318.112V273.408H309.44V279.528Z" fill="white"/>
<path d="M293.416 279.528H302.088V273.408H293.416V279.528Z" fill="white"/>
<path d="M322.36 288.408H331.032V282.288H322.36V288.408Z" fill="white"/>
<path d="M309.44 288.408H318.112V282.288H309.44V288.408Z" fill="white"/>
<path d="M293.416 288.408H302.088V282.288H293.416V288.408Z" fill="white"/>
<path d="M322.36 297.288H331.032V291.168H322.36V297.288Z" fill="white"/>
<path d="M309.44 297.288H318.112V291.168H309.44V297.288Z" fill="white"/>
<path d="M293.416 297.288H302.088V291.168H293.416V297.288Z" fill="white"/>
<path d="M322.36 306.168H331.032V300.048H322.36V306.168Z" fill="white"/>
<path d="M309.44 306.168H318.112V300.048H309.44V306.168Z" fill="white"/>
<path d="M293.416 306.168H302.088V300.048H293.416V306.168Z" fill="white"/>
<path d="M215.12 206.824H219.8V201.464H215.12V206.824Z" fill="white"/>
<path d="M207.008 206.824H211.688V201.464H207.008V206.824Z" fill="white"/>
<path d="M215.12 214.888H219.8V209.528H215.12V214.888Z" fill="white"/>
<path d="M207.008 214.888H211.688V209.528H207.008V214.888Z" fill="white"/>
<path d="M215.12 222.952H219.8V217.592H215.12V222.952Z" fill="white"/>
<path d="M207.008 222.952H211.688V217.592H207.008V222.952Z" fill="white"/>
<path d="M215.12 231.024H219.8V225.664H215.12V231.024Z" fill="white"/>
<path d="M207.008 231.024H211.688V225.664H207.008V231.024Z" fill="white"/>
<path d="M215.12 239.288H219.8V233.928H215.12V239.288Z" fill="white"/>
<path d="M207.008 239.288H211.688V233.928H207.008V239.288Z" fill="white"/>
<path d="M215.12 247.544H219.8V242.184H215.12V247.544Z" fill="white"/>
<path d="M207.008 247.544H211.688V242.184H207.008V247.544Z" fill="white"/>
<path d="M215.12 255.808H219.8V250.448H215.12V255.808Z" fill="white"/>
<path d="M207.008 255.808H211.688V250.448H207.008V255.808Z" fill="white"/>
<path d="M215.12 264.072H219.8V258.712H215.12V264.072Z" fill="white"/>
<path d="M207.008 264.072H211.688V258.712H207.008V264.072Z" fill="white"/>
<path d="M215.12 272.424H219.8V267.064H215.12V272.424Z" fill="white"/>
<path d="M207.008 272.424H211.688V267.064H207.008V272.424Z" fill="white"/>
<path d="M215.12 280.768H219.8V275.408H215.12V280.768Z" fill="white"/>
<path d="M207.008 280.768H211.688V275.408H207.008V280.768Z" fill="white"/>
<path d="M215.12 289.12H219.8V283.76H215.12V289.12Z" fill="white"/>
<path d="M207.008 289.12H211.688V283.76H207.008V289.12Z" fill="white"/>
<path d="M215.12 297.48H219.8V292.12H215.12V297.48Z" fill="white"/>
<path d="M207.008 297.48H211.688V292.12H207.008V297.48Z" fill="white"/>
<path d="M100.808 208.648H105.488V202.336H100.808V208.648Z" fill="white"/>
<path d="M92.704 208.648H97.384V202.336H92.704V208.648Z" fill="white"/>
<path d="M100.808 218.152H105.488V211.84H100.808V218.152Z" fill="white"/>
<path d="M92.704 218.152H97.384V211.84H92.704V218.152Z" fill="white"/>
<path d="M100.808 227.648H105.488V221.336H100.808V227.648Z" fill="white"/>
<path d="M92.704 227.648H97.384V221.336H92.704V227.648Z" fill="white"/>
<path d="M100.808 237.152H105.488V230.84H100.808V237.152Z" fill="white"/>
<path d="M92.704 237.152H97.384V230.84H92.704V237.152Z" fill="white"/>
<path d="M100.808 246.888H105.488V240.576H100.808V246.888Z" fill="white"/>
<path d="M92.704 246.888H97.384V240.576H92.704V246.888Z" fill="white"/>
<path d="M100.808 256.624H105.488V250.312H100.808V256.624Z" fill="white"/>
<path d="M92.704 256.624H97.384V250.312H92.704V256.624Z" fill="white"/>
<path d="M100.808 266.352H105.488V260.04H100.808V266.352Z" fill="white"/>
<path d="M92.704 266.352H97.384V260.04H92.704V266.352Z" fill="white"/>
<path d="M100.808 276.096H105.488V269.784H100.808V276.096Z" fill="white"/>
<path d="M92.704 276.096H97.384V269.784H92.704V276.096Z" fill="white"/>
<path d="M100.808 285.936H105.488V279.624H100.808V285.936Z" fill="white"/>
<path d="M92.704 285.936H97.384V279.624H92.704V285.936Z" fill="white"/>
<path d="M100.808 295.768H105.488V289.456H100.808V295.768Z" fill="white"/>
<path d="M92.704 295.768H97.384V289.456H92.704V295.768Z" fill="white"/>
<path d="M100.808 305.608H105.488V299.296H100.808V305.608Z" fill="white"/>
<path d="M92.704 305.608H97.384V299.296H92.704V305.608Z" fill="white"/>
<path d="M100.808 315.448H105.488V309.136H100.808V315.448Z" fill="white"/>
<path d="M92.704 315.448H97.384V309.136H92.704V315.448Z" fill="white"/>
<path d="M197.76 206.824H202.44V201.464H197.76V206.824Z" fill="white"/>
<path d="M189.648 206.824H194.328V201.464H189.648V206.824Z" fill="white"/>
<path d="M197.76 198.56H202.44V193.2H197.76V198.56Z" fill="white"/>
<path d="M189.648 198.56H194.328V193.2H189.648V198.56Z" fill="white"/>
<path d="M197.76 190.296H202.44V184.936H197.76V190.296Z" fill="white"/>
<path d="M189.648 190.296H194.328V184.936H189.648V190.296Z" fill="white"/>
<path d="M197.76 214.888H202.44V209.528H197.76V214.888Z" fill="white"/>
<path d="M189.648 214.888H194.328V209.528H189.648V214.888Z" fill="white"/>
<path d="M197.76 222.952H202.44V217.592H197.76V222.952Z" fill="white"/>
<path d="M189.648 222.952H194.328V217.592H189.648V222.952Z" fill="white"/>
<path d="M197.76 231.024H202.44V225.664H197.76V231.024Z" fill="white"/>
<path d="M189.648 231.024H194.328V225.664H189.648V231.024Z" fill="white"/>
<path d="M197.76 239.288H202.44V233.928H197.76V239.288Z" fill="white"/>
<path d="M189.648 239.288H194.328V233.928H189.648V239.288Z" fill="white"/>
<path d="M197.76 247.544H202.44V242.184H197.76V247.544Z" fill="white"/>
<path d="M189.648 247.544H194.328V242.184H189.648V247.544Z" fill="white"/>
<path d="M197.76 255.808H202.44V250.448H197.76V255.808Z" fill="white"/>
<path d="M189.648 255.808H194.328V250.448H189.648V255.808Z" fill="white"/>
<path d="M197.76 264.072H202.44V258.712H197.76V264.072Z" fill="white"/>
<path d="M189.648 264.072H194.328V258.712H189.648V264.072Z" fill="white"/>
<path d="M197.76 272.424H202.44V267.064H197.76V272.424Z" fill="white"/>
<path d="M189.648 272.424H194.328V267.064H189.648V272.424Z" fill="white"/>
<path d="M197.76 280.768H202.44V275.408H197.76V280.768Z" fill="white"/>
<path d="M189.648 280.768H194.328V275.408H189.648V280.768Z" fill="white"/>
<path d="M197.76 289.12H202.44V283.76H197.76V289.12Z" fill="white"/>
<path d="M189.648 289.12H194.328V283.76H189.648V289.12Z" fill="white"/>
<path d="M197.76 297.48H202.44V292.12H197.76V297.48Z" fill="white"/>
<path d="M189.648 297.48H194.328V292.12H189.648V297.48Z" fill="white"/>
<path d="M406.888 170.08H320.752C320.752 170.08 329.296 146.752 342.44 146.752C355.584 146.752 359.696 162.856 359.696 162.856C359.696 162.856 368.568 154.104 375.856 154.104C383.144 154.104 389.456 165.664 389.456 165.664C389.456 165.664 399.768 159.448 406.888 170.08Z" fill="#EBEBEB"/>
<path d="M358.68 123.944H318.424C318.424 123.944 327.416 110.912 334.504 110.912C341.592 110.912 343.688 119.6 343.688 119.6C343.688 119.6 348.688 115.544 353.288 116.272C357.888 117 358.68 123.944 358.68 123.944Z" fill="#EBEBEB"/>
<path d="M171.52 163.136H93.12C93.12 163.136 103.856 139.136 115.344 137.664C126.832 136.192 132.32 155.472 132.32 155.472C132.32 155.472 139.728 148.648 145.552 148.648C151.376 148.648 155.88 157.64 155.88 157.64C155.88 157.64 167.52 151.48 171.52 163.136Z" fill="#EBEBEB"/>
<path d="M246.04 103.8H193.072C193.072 103.8 202.168 86.432 212.04 86.2C221.912 85.968 227.096 99.344 227.096 99.344C227.096 99.344 242.448 87 246.04 103.8Z" fill="#EBEBEB"/>
<path d="M282.208 385.624C354.244 385.624 412.64 381.759 412.64 376.992C412.64 372.225 354.244 368.36 282.208 368.36C210.172 368.36 151.776 372.225 151.776 376.992C151.776 381.759 210.172 385.624 282.208 385.624Z" fill="#EBEBEB"/>
<path d="M437.472 344.048L390.6 344.24L343.736 344.312L250 344.44L156.264 344.312L109.4 344.24L62.528 344.048L109.4 343.848L156.264 343.776L250 343.648L343.736 343.776L390.6 343.848L437.472 344.048Z" fill="#263238"/>
<path d="M244.152 220.312C257.688 234.392 298.352 297.056 301.52 298.928C301.52 298.928 301.52 339.912 278.872 331.728C256.224 323.544 235.464 250.016 231.032 226.576C228.696 214.2 233.096 208.824 244.152 220.312Z" fill="#FFC4C0"/>
<path d="M240.704 268.76L282.208 264.04C282.208 264.04 256.464 229.888 243.16 217.696C229.288 204.992 222.488 206.776 228.92 230.84C235.384 255.048 240.704 268.76 240.704 268.76Z" fill="#E44C42"/>
<path d="M238.752 246.152C238.296 247.297 238.005 248.501 237.888 249.728C239.336 247.727 240.238 245.383 240.504 242.928C239.764 243.91 239.173 244.996 238.752 246.152ZM262.064 247.088C260.922 246.631 259.72 246.34 258.496 246.224C260.493 247.674 262.835 248.575 265.288 248.84C264.307 248.098 263.22 247.507 262.064 247.088ZM255.88 263.232C255.392 262.104 254.745 261.05 253.96 260.104C254.144 261.319 254.499 262.501 255.016 263.616C255.489 264.751 256.131 265.809 256.92 266.752C256.741 265.536 256.391 264.351 255.88 263.232ZM231.528 211.232C231.32 210.792 231.112 210.36 230.872 209.928C230.587 209.9 230.301 209.9 230.016 209.928C230.208 210.512 230.424 211.072 230.664 211.632C231.145 212.765 231.789 213.822 232.576 214.768C232.396 213.546 232.043 212.355 231.528 211.232ZM279.36 260.304L278.56 260.624C277.428 261.111 276.369 261.755 275.416 262.536C276.636 262.355 277.823 262.002 278.944 261.488C279.264 261.344 279.576 261.192 279.888 261.024L279.36 260.304ZM247.36 227.336C246.231 227.82 245.175 228.461 244.224 229.24C245.444 229.065 246.632 228.715 247.752 228.2C248.883 227.715 249.939 227.071 250.888 226.288C249.662 226.464 248.468 226.817 247.344 227.336H247.36ZM244.576 227.408C244.529 227.44 244.483 227.475 244.44 227.512H244.584C244.584 227.512 244.56 227.432 244.56 227.408H244.576Z" fill="white"/>
<path d="M242.696 261.296C243.664 261.072 244.68 260.984 245.664 260.848L248.72 260.424C250.776 260.136 252.84 259.88 254.904 259.624C259.032 259.144 263.16 258.64 267.296 258.232C268.432 258.12 269.576 258.008 270.712 257.92C271.848 257.832 273.112 257.832 274.312 257.744C274.384 257.744 274.384 257.848 274.312 257.856C273.296 258.008 272.288 258.24 271.272 258.4C270.256 258.56 269.176 258.704 268.128 258.832C266.072 259.096 264 259.336 261.936 259.568C257.872 260.008 253.8 260.472 249.72 260.832L246.312 261.12C245.12 261.224 243.912 261.4 242.712 261.392C242.703 261.389 242.695 261.383 242.688 261.375C242.682 261.368 242.678 261.358 242.676 261.349C242.674 261.339 242.675 261.329 242.679 261.32C242.682 261.31 242.688 261.302 242.696 261.296Z" fill="#263238"/>
<path opacity="0.1" d="M260.84 266.472L240.712 268.76C240.712 268.76 235.392 255.048 228.92 230.84C226.192 220.632 225.848 214.432 227.416 211.64L260.84 266.472Z" fill="black"/>
<path d="M252.216 354.12H189.088C188.568 352.088 188.064 350.12 187.56 348.12C186.984 345.856 186.416 343.648 185.872 341.496C185.752 341.016 185.624 340.536 185.504 340.064C185.088 338.416 184.68 336.816 184.28 335.264C184.04 334.312 183.8 333.376 183.568 332.448C183.336 331.52 183.088 330.576 182.856 329.672C182.792 329.432 182.736 329.192 182.672 328.96L182.48 328.16L182.24 327.224C182.152 326.896 182.072 326.576 181.992 326.256C181.832 325.648 181.68 325.048 181.536 324.464C181.312 323.6 181.096 322.752 180.888 321.928C180.8 321.568 180.704 321.208 180.616 320.856C180.464 320.28 180.32 319.72 180.184 319.168C180.088 318.8 180 318.44 179.912 318.088C179.539 316.637 179.192 315.277 178.872 314.008C178.784 313.672 178.704 313.344 178.616 313.024C178.48 312.472 178.344 311.944 178.216 311.424C178.125 311.104 178.045 310.792 177.976 310.488C177.696 309.4 177.44 308.408 177.224 307.536C177.16 307.304 177.104 307.08 177.048 306.864C176.904 306.288 176.768 305.776 176.656 305.32C176.608 305.136 176.568 304.96 176.52 304.8L176.392 304.296C176.392 304.184 176.336 304.072 176.312 303.976L176.2 303.544C176.2 303.475 176.184 303.411 176.152 303.352L176.008 302.784H237.456C237.456 302.784 239.48 309.76 242.72 321.008C243.376 323.296 244.088 325.808 244.848 328.392C247 335.896 249.512 344.648 252.216 354.12Z" fill="#37474F"/>
<path d="M199.424 354.12H197.824C195.488 344.451 193.224 334.763 191.032 325.056C190.499 322.693 189.965 320.331 189.432 317.968L189.288 317.304C189.285 317.281 189.291 317.258 189.304 317.239C189.317 317.22 189.337 317.206 189.359 317.2C189.382 317.194 189.405 317.197 189.426 317.207C189.447 317.217 189.463 317.235 189.472 317.256C189.472 317.328 189.512 317.4 189.536 317.472C190.245 320.011 190.952 322.552 191.656 325.096C194.36 334.744 196.949 344.419 199.424 354.12Z" fill="#263238"/>
<path d="M235.464 302.792L232.752 316.392L230.528 327.528L226.744 346.504L226.352 348.448L225.704 351.688L225.2 354.12H189.08C188.568 352.08 188.056 350.12 187.56 348.12C186.984 345.856 186.416 343.648 185.872 341.496C185.752 341.016 185.624 340.536 185.504 340.064C185.088 338.416 184.68 336.816 184.28 335.264C184.04 334.312 183.8 333.376 183.568 332.448C183.336 331.52 183.088 330.576 182.856 329.672C182.792 329.432 182.736 329.192 182.672 328.96L182.48 328.16L182.24 327.224C182.152 326.896 182.072 326.576 181.992 326.256C181.832 325.648 181.68 325.048 181.536 324.464C181.312 323.6 181.096 322.752 180.888 321.928C180.792 321.56 180.704 321.208 180.616 320.856C180.464 320.28 180.32 319.72 180.184 319.168C180.088 318.8 180 318.44 179.912 318.088C179.539 316.637 179.192 315.277 178.872 314.008C178.784 313.672 178.704 313.344 178.616 313.024C178.48 312.472 178.344 311.944 178.216 311.424C178.125 311.104 178.045 310.792 177.976 310.488C177.696 309.4 177.44 308.408 177.224 307.536C177.16 307.304 177.104 307.08 177.048 306.864C176.904 306.288 176.768 305.776 176.656 305.32C176.608 305.136 176.568 304.96 176.52 304.8L176.392 304.296C176.392 304.184 176.336 304.072 176.312 303.976L176.2 303.544C176.2 303.475 176.184 303.411 176.152 303.352L176.008 302.784L235.464 302.792Z" fill="#263238"/>
<path d="M235.472 302.768C235.472 303.104 235.216 306.768 234.624 312.368C234.456 313.968 234.256 315.792 234.024 317.712C233.664 320.744 233.224 324.112 232.664 327.624C231.72 333.792 230.488 340.52 228.888 347.096C228.32 349.496 227.696 351.808 227.032 354.104H147.712C148.648 342.016 149.504 331.08 150.184 322.464C151.136 310.336 151.784 302.744 151.784 302.744H223.736L235.472 302.768Z" fill="#37474F"/>
<path d="M235.304 310.056C235.216 312.896 235.096 315.728 234.912 318.552C234.72 321.616 234.44 324.672 234.04 327.728C234.04 327.84 234.04 327.952 234 328.064C233.627 330.928 233.197 333.784 232.712 336.632C232.256 339.288 231.912 342.152 230.744 344.632C230.3 345.583 229.669 346.435 228.888 347.136C228.173 347.79 227.298 348.242 226.352 348.448C226.197 348.487 226.039 348.514 225.88 348.528H225.744C225.773 348.545 225.797 348.569 225.813 348.599C225.828 348.629 225.835 348.663 225.832 348.696C225.832 349.648 225.832 350.616 225.72 351.56C225.72 351.6 225.72 351.64 225.72 351.68C225.624 352.48 225.472 353.32 225.32 354.136H223.96V354.088C224.2 353.192 224.4 352.288 224.624 351.384C224.848 350.48 225.168 349.56 225.384 348.624C225.396 348.589 225.418 348.558 225.448 348.536C224.585 348.577 223.729 348.354 222.997 347.894C222.265 347.435 221.691 346.763 221.352 345.968C221.011 344.751 220.989 343.468 221.288 342.24C221.536 340.64 221.776 338.992 222.024 337.368C222.488 334.384 223.088 331.432 223.624 328.464L223.864 327.112C224.928 321.072 226.04 315.032 227.376 309.048C227.424 308.8 227.48 308.552 227.536 308.304C227.592 308.056 227.84 308.184 227.824 308.344C227.784 308.744 227.744 309.144 227.696 309.552C227.461 311.851 227.195 314.139 226.896 316.416C226.512 319.096 226.248 321.792 225.872 324.472C225.744 325.384 225.616 326.296 225.48 327.208C224.864 331.616 224.224 336.008 223.472 340.416C223.12 342.456 221.872 346.112 224.784 346.744C225.457 346.893 226.16 346.806 226.776 346.496C228.073 345.715 229.042 344.49 229.504 343.048C230.224 340.647 230.746 338.191 231.064 335.704C231.544 333.037 231.971 330.347 232.344 327.632C232.824 324.267 233.325 320.904 233.848 317.544C234.109 315.832 234.376 314.12 234.648 312.408L235.032 310.008C235.04 309.84 235.304 309.888 235.304 310.056Z" fill="#263238"/>
<path d="M165.112 331.144C168.415 331.11 171.702 330.666 174.896 329.824C176.368 329.448 177.824 328.976 179.272 328.504C180.707 328.108 182.049 327.434 183.224 326.52C185.448 324.6 186.48 321.584 187.448 318.896C188.499 315.869 189.351 312.777 190 309.64C190 309.488 190.256 309.544 190.264 309.688C190.341 313.236 189.891 316.776 188.928 320.192C188.128 323.096 187.056 326.328 184.712 328.36C182.368 330.392 178.904 331.256 175.744 331.64C172.201 332.052 168.619 332.004 165.088 331.496C165.041 331.493 164.998 331.471 164.967 331.436C164.936 331.401 164.921 331.355 164.924 331.308C164.927 331.261 164.949 331.218 164.984 331.187C165.019 331.156 165.065 331.141 165.112 331.144Z" fill="#263238"/>
<path d="M159.6 309.736C159.424 314.173 159.237 318.616 159.04 323.064C158.587 333.416 158.088 343.768 157.544 354.12H156.056C156.739 343.747 157.456 333.379 158.208 323.016C158.533 318.584 158.869 314.155 159.216 309.728C159.217 309.677 159.238 309.629 159.275 309.593C159.312 309.558 159.361 309.539 159.412 309.54C159.463 309.541 159.511 309.562 159.547 309.599C159.582 309.636 159.601 309.685 159.6 309.736Z" fill="#263238"/>
<path d="M249.128 335.624L141.52 327.464C141.52 327.464 163.168 241.664 205.912 210.12C216.84 202.064 228.8 207.232 234.184 213.256C247.864 228.6 249.448 335.28 249.128 335.624Z" fill="#E44C42"/>
<path d="M210.888 214.024C210.437 215.168 210.146 216.368 210.024 217.592C210.761 216.615 211.353 215.537 211.784 214.392C212.236 213.248 212.526 212.048 212.648 210.824C211.914 211.803 211.322 212.88 210.888 214.024ZM199.208 260.312C198.748 261.455 198.46 262.66 198.352 263.888C199.793 261.884 200.692 259.542 200.96 257.088C200.226 258.074 199.636 259.159 199.208 260.312ZM160.76 280.16C160.305 281.305 160.014 282.509 159.896 283.736C161.344 281.735 162.246 279.391 162.512 276.936C161.784 277.926 161.194 279.01 160.76 280.16ZM191.792 309.4C191.328 310.54 191.036 311.742 190.928 312.968C192.369 310.964 193.268 308.622 193.536 306.168C192.802 307.156 192.215 308.244 191.792 309.4ZM238.752 246.136C238.296 247.281 238.005 248.485 237.888 249.712C239.336 247.711 240.238 245.367 240.504 242.912C239.762 243.899 239.172 244.991 238.752 246.152V246.136ZM219.6 304.336C219.135 305.476 218.841 306.678 218.728 307.904C219.463 306.928 220.054 305.85 220.48 304.704C220.935 303.561 221.226 302.36 221.344 301.136C220.611 302.113 220.024 303.191 219.6 304.336ZM180.824 243.96C180.368 245.102 180.077 246.304 179.96 247.528C181.41 245.529 182.309 243.184 182.568 240.728C181.831 241.714 181.244 242.803 180.824 243.96ZM223.816 228.6C222.675 228.139 221.473 227.848 220.248 227.736C221.226 228.467 222.304 229.054 223.448 229.48C224.591 229.943 225.796 230.234 227.024 230.344C226.044 229.611 224.964 229.023 223.816 228.6ZM236.008 267.168C234.867 266.709 233.665 266.418 232.44 266.304C233.416 267.038 234.494 267.626 235.64 268.048C236.781 268.51 237.983 268.803 239.208 268.92C238.231 268.194 237.153 267.615 236.008 267.2V267.168ZM239.28 313.264C238.138 312.808 236.936 312.517 235.712 312.4C236.688 313.137 237.766 313.727 238.912 314.152C240.055 314.606 241.256 314.897 242.48 315.016C241.499 314.296 240.422 313.717 239.28 313.296V313.264ZM162.68 309.472C161.538 309.015 160.337 308.724 159.112 308.608C161.109 310.058 163.451 310.959 165.904 311.224C164.917 310.499 163.831 309.92 162.68 309.504V309.472ZM190.368 279.872C189.226 279.413 188.025 279.12 186.8 279C187.777 279.736 188.855 280.329 190 280.76C191.144 281.211 192.344 281.502 193.568 281.624C192.589 280.899 191.511 280.317 190.368 279.896V279.872ZM231.528 211.208C231.416 210.968 231.304 210.736 231.184 210.504C230.792 210.208 230.384 209.92 229.944 209.64C230.142 210.311 230.383 210.968 230.664 211.608C231.145 212.741 231.789 213.798 232.576 214.744C232.394 213.53 232.041 212.348 231.528 211.232V211.208ZM200.08 236.088C199.598 234.956 198.954 233.899 198.168 232.952C198.553 235.392 199.574 237.688 201.128 239.608C200.952 238.39 200.599 237.204 200.08 236.088ZM227.848 330.752C227.365 329.622 226.724 328.566 225.944 327.616C226.121 328.833 226.471 330.018 226.984 331.136C227.44 332.188 228.029 333.177 228.736 334.08H228.864C228.679 332.929 228.338 331.809 227.848 330.752ZM217.632 275C217.145 273.87 216.502 272.814 215.72 271.864C216.118 274.299 217.134 276.591 218.672 278.52C218.495 277.303 218.145 276.118 217.632 275ZM144.336 317.512C144.288 317.68 144.24 317.848 144.184 318.008C144.288 318.12 144.384 318.24 144.48 318.352C144.448 318.077 144.4 317.805 144.336 317.536V317.512ZM176.336 296.168C175.85 295.04 175.207 293.987 174.424 293.04C174.811 295.477 175.832 297.77 177.384 299.688C177.193 298.478 176.832 297.301 176.312 296.192L176.336 296.168ZM183.2 326.968C182.715 325.837 182.071 324.781 181.288 323.832C181.684 326.271 182.704 328.567 184.248 330.496C184.06 329.285 183.699 328.108 183.176 327L183.2 326.968ZM237.016 289.912C235.886 290.399 234.831 291.043 233.88 291.824C235.097 291.644 236.283 291.291 237.4 290.776C238.535 290.293 239.594 289.649 240.544 288.864C239.314 289.047 238.118 289.408 236.992 289.936L237.016 289.912ZM152.136 294.584L151.728 295.688C152.591 295.272 153.397 294.747 154.128 294.128C153.441 294.218 152.766 294.379 152.112 294.608L152.136 294.584ZM207 321.24C205.869 321.721 204.813 322.363 203.864 323.144C205.083 322.966 206.271 322.616 207.392 322.104C208.522 321.614 209.578 320.968 210.528 320.184C209.297 320.365 208.1 320.729 206.976 321.264L207 321.24ZM157.936 328.376L157.384 328.64L159.264 328.784C160.05 328.387 160.786 327.898 161.456 327.328C160.23 327.515 159.037 327.876 157.912 328.4L157.936 328.376ZM176.784 262.592C175.657 263.085 174.602 263.728 173.648 264.504C176.086 264.11 178.382 263.093 180.312 261.552C179.083 261.732 177.886 262.091 176.76 262.616L176.784 262.592ZM204.368 293.232C203.237 293.72 202.181 294.367 201.232 295.152C203.672 294.76 205.969 293.74 207.896 292.192C206.667 292.376 205.471 292.734 204.344 293.256L204.368 293.232ZM218.768 251.112C217.64 251.602 216.585 252.246 215.632 253.024C218.07 252.637 220.365 251.62 222.288 250.072C221.054 250.253 219.852 250.612 218.72 251.136L218.768 251.112Z" fill="white"/>
<path d="M228.088 231.184C221.88 230.264 215.576 217.736 214.488 209.192C214.416 208.6 224.088 190.144 225.6 186.296C225.912 185.496 247.48 201.784 247.48 201.784C247.48 201.784 241.88 208.92 239.264 215.664C239.08 216.224 234.088 232.064 228.088 231.184Z" fill="#FFC4C0"/>
<path d="M247.512 201.784C247.512 201.784 241.912 208.92 239.288 215.656C239.24 215.792 238.92 216.784 238.392 218.2C227.304 212.6 222.784 202.6 220.96 196C223.056 191.8 225.008 187.856 225.632 186.296C225.944 185.504 247.512 201.784 247.512 201.784Z" fill="#263238"/>
<path d="M230.584 156.32C224.272 163.624 217.96 189.968 221.568 198.064C226.808 209.792 240.768 216.84 252.064 209.344C263.048 202.072 270.664 167.592 266.128 159.688C259.456 148.04 239.896 145.536 230.584 156.32Z" fill="#FFC4C0"/>
<path d="M247.448 177.72C246.648 177.784 245.848 177.72 245.048 177.72C244.199 177.836 243.335 177.667 242.592 177.24C242.385 177.06 242.243 176.817 242.188 176.548C242.133 176.279 242.168 175.999 242.288 175.752C242.6 175.301 243.028 174.941 243.526 174.711C244.023 174.48 244.574 174.387 245.12 174.44C246.242 174.374 247.348 174.728 248.224 175.432C248.409 175.607 248.541 175.831 248.602 176.078C248.664 176.325 248.653 176.584 248.571 176.825C248.489 177.066 248.34 177.279 248.141 177.438C247.942 177.596 247.701 177.694 247.448 177.72Z" fill="#263238"/>
<path d="M246.744 181.584C246.744 181.512 246.584 181.64 246.568 181.72C246.272 183.52 245.624 185.536 243.888 185.808C243.832 185.808 243.816 185.904 243.888 185.912C245.912 186.024 246.744 183.344 246.744 181.584Z" fill="#263238"/>
<path d="M245.512 179.392C242.672 178.592 241.296 184.344 243.912 185.072C246.528 185.8 247.888 180.056 245.512 179.392Z" fill="#263238"/>
<path d="M257.064 183.8C257.064 183.736 257.184 183.92 257.168 183.992C256.688 185.752 256.432 187.856 257.896 188.792C257.944 188.792 257.896 188.912 257.856 188.888C255.96 188.184 256.328 185.4 257.064 183.8Z" fill="#263238"/>
<path d="M259.096 182.328C262.008 182.792 260.864 188.576 258.168 188.144C255.472 187.712 256.656 181.936 259.096 182.328Z" fill="#263238"/>
<path d="M262.048 179.48C261.313 179.138 260.597 178.756 259.904 178.336C259.091 178.036 258.401 177.473 257.944 176.736C257.844 176.479 257.832 176.195 257.91 175.93C257.988 175.665 258.152 175.434 258.376 175.272C259.36 174.632 260.496 174.928 261.504 175.424C262.532 175.892 263.35 176.724 263.8 177.76C263.895 178.004 263.916 178.27 263.861 178.525C263.806 178.78 263.677 179.014 263.491 179.197C263.304 179.38 263.068 179.505 262.812 179.555C262.555 179.605 262.29 179.579 262.048 179.48Z" fill="#263238"/>
<path d="M240.792 196.984C241.112 197.504 241.4 198.176 242.032 198.384C242.699 198.528 243.389 198.528 244.056 198.384C244.069 198.383 244.083 198.386 244.095 198.393C244.106 198.4 244.115 198.41 244.121 198.423C244.126 198.435 244.127 198.449 244.124 198.462C244.121 198.475 244.114 198.487 244.104 198.496C243.767 198.784 243.359 198.975 242.922 199.05C242.486 199.124 242.037 199.08 241.624 198.92C241.283 198.74 241.004 198.463 240.821 198.124C240.639 197.785 240.562 197.399 240.6 197.016C240.6 196.912 240.744 196.904 240.792 196.984Z" fill="#263238"/>
<path d="M243.928 192.112C244.213 192.922 244.663 193.665 245.247 194.294C245.832 194.923 246.541 195.425 247.328 195.768C248.012 196.077 248.737 196.287 249.48 196.392C249.619 196.423 249.761 196.439 249.904 196.44C250.04 196.449 250.176 196.449 250.312 196.44C250.411 196.446 250.509 196.419 250.59 196.362C250.672 196.305 250.731 196.223 250.76 196.128C250.764 196.064 250.764 196 250.76 195.936V195.776C251.12 194.416 251.488 192.304 251.488 192.304C251.928 192.672 254.2 194.432 254.336 193.704C255.4 187.704 256.576 181.032 256.368 174.832C256.368 174.787 256.35 174.745 256.319 174.713C256.287 174.682 256.245 174.664 256.2 174.664C256.155 174.664 256.113 174.682 256.081 174.713C256.05 174.745 256.032 174.787 256.032 174.832C254.784 180.56 254.552 186.472 253.384 192.248C252.602 191.605 251.731 191.077 250.8 190.68C250.592 190.68 250.168 194.776 249.952 195.368C249.954 195.389 249.954 195.411 249.952 195.432C247.552 195.176 246.016 194.064 244.152 191.992C244.032 191.856 243.856 191.944 243.928 192.112Z" fill="#263238"/>
<path d="M248.84 195.504C247.854 196.299 246.681 196.828 245.432 197.04C244.748 197.135 244.052 197.015 243.44 196.696C242.112 195.984 242.384 194.672 242.912 193.616C243.199 193.059 243.551 192.539 243.96 192.064C245.177 193.703 246.888 194.908 248.84 195.504Z" fill="#263238"/>
<path d="M245.432 197.04C244.748 197.135 244.052 197.015 243.44 196.696C242.112 195.984 242.384 194.672 242.912 193.616C244.4 194.136 245.656 195.536 245.432 197.04Z" fill="#FF97B8"/>
<path d="M268.544 169.944C257.344 174.632 246.016 161.664 246.016 161.664C244.733 163.632 242.848 165.133 240.642 165.943C238.437 166.753 236.028 166.829 233.776 166.16C233.776 166.16 228.4 182.376 224.016 181.4C217.352 179.976 220.016 156.888 223.032 152.872C226.048 148.856 231.968 148.872 231.968 148.872C231.968 148.872 233.096 145.504 237.88 143.208C243.16 140.664 257.88 148.64 257.88 148.64C259.216 146.724 260.984 145.148 263.04 144.04C263.536 143.761 264.084 143.586 264.651 143.525C265.217 143.464 265.789 143.518 266.334 143.685C266.879 143.852 267.383 144.127 267.818 144.495C268.253 144.863 268.609 145.315 268.864 145.824C267.771 146.875 266.932 148.161 266.408 149.584C264.608 154.288 268.584 155.112 269.472 150.688C269.858 149.046 269.642 147.32 268.864 145.824C271.424 143.344 274.824 143.072 276.448 145.024C279.432 148.6 277.864 166.056 268.544 169.944Z" fill="#263238"/>
<path d="M241.072 190.488C239.694 190.046 238.468 189.226 237.533 188.122C236.598 187.017 235.992 185.672 235.784 184.24C235.576 182.808 235.774 181.346 236.356 180.021C236.938 178.696 237.88 177.561 239.076 176.745C240.271 175.93 241.672 175.466 243.118 175.407C244.564 175.349 245.997 175.697 247.255 176.413C248.513 177.129 249.544 178.184 250.231 179.457C250.919 180.731 251.235 182.172 251.144 183.616C251.068 184.789 250.726 185.929 250.144 186.95C249.562 187.971 248.755 188.846 247.784 189.509C246.813 190.171 245.704 190.603 244.541 190.773C243.378 190.943 242.192 190.845 241.072 190.488ZM245.488 176.768C244.969 176.6 244.432 176.495 243.888 176.456C242.183 176.335 240.496 176.869 239.171 177.949C237.846 179.03 236.984 180.575 236.759 182.27C236.535 183.964 236.965 185.681 237.963 187.069C238.961 188.457 240.45 189.412 242.128 189.739C243.806 190.066 245.546 189.741 246.992 188.829C248.438 187.918 249.482 186.489 249.91 184.834C250.339 183.179 250.12 181.423 249.298 179.924C248.476 178.425 247.114 177.296 245.488 176.768Z" fill="#E44C42"/>
<path d="M258.12 193.72C255.352 192.68 253.912 188.92 254.92 184.992C255.35 183.113 256.36 181.417 257.808 180.144C258.393 179.554 259.121 179.127 259.921 178.902C260.721 178.678 261.565 178.666 262.371 178.866C263.177 179.066 263.918 179.471 264.52 180.043C265.123 180.615 265.566 181.333 265.808 182.128C266.486 183.933 266.584 185.905 266.088 187.768C265.064 191.896 261.728 194.64 258.648 193.872C258.468 193.837 258.291 193.786 258.12 193.72ZM262.448 180L262.072 179.888C261.426 179.757 260.757 179.784 260.124 179.967C259.49 180.149 258.91 180.482 258.432 180.936C257.154 182.07 256.262 183.575 255.88 185.24C254.992 188.824 256.312 192.248 258.848 192.872C261.384 193.496 264.152 191.096 265.04 187.52C265.485 185.869 265.401 184.12 264.8 182.52C264.607 181.958 264.297 181.444 263.892 181.01C263.487 180.576 262.995 180.231 262.448 180Z" fill="#E44C42"/>
<path d="M250.72 184.448L250.224 183.544C251.56 182.8 254.472 182.032 255.936 184.344L255.056 184.888C253.752 182.816 250.84 184.376 250.72 184.448Z" fill="#E44C42"/>
<path d="M216.576 179.728L215.776 179.088C216.08 178.712 218.776 175.408 221.104 175.488C223.288 175.568 236.616 179.488 237.184 179.688L236.888 180.68C233.064 179.544 222.76 176.576 221.072 176.52C219.52 176.464 217.304 178.816 216.576 179.728Z" fill="#E44C42"/>
<path d="M226.872 179.896C226.872 179.896 224.72 169.592 220.272 170.032C215.824 170.472 215.072 183.728 218.632 187.112C219.057 187.577 219.572 187.952 220.146 188.213C220.719 188.474 221.34 188.616 221.97 188.631C222.6 188.646 223.226 188.533 223.812 188.3C224.397 188.066 224.929 187.717 225.376 187.272L226.872 179.896Z" fill="#FFC4C0"/>
<path d="M220.152 173.84C220.088 173.8 220.032 173.888 220.08 173.944C222.536 176.408 222.912 179.824 222.792 183.136C222.376 181.664 221.432 180.544 219.512 180.968C219.416 180.968 219.44 181.136 219.512 181.16C220.104 181.215 220.665 181.453 221.115 181.842C221.565 182.23 221.883 182.75 222.024 183.328C222.259 184.293 222.39 185.28 222.416 186.272C222.416 186.6 222.976 186.664 223.008 186.272C223.004 186.245 223.004 186.219 223.008 186.192C224.72 182.496 224.048 175.952 220.152 173.84Z" fill="#263238"/>
<path d="M281.72 252.216C283.744 246.888 330.672 256.536 328.8 264.704C321.928 294.624 302.776 321.36 297.936 327.472C291.584 335.472 278.944 333.696 274.336 328.848C267.656 321.816 279.72 257.496 281.72 252.216Z" fill="#FFC4C0"/>
<path d="M278.416 266.904C277.373 269.771 276.547 272.713 275.944 275.704C275.264 278.664 274.672 281.64 274.192 284.632C273.243 290.684 272.709 296.795 272.592 302.92C272.504 306.344 272.592 309.76 272.592 313.184C272.592 313.264 272.72 313.256 272.72 313.184C272.72 310.152 272.904 307.096 273.152 304.072C273.4 301.048 273.704 297.968 274.096 294.936C274.856 288.976 275.696 283.024 276.776 277.112C277.075 275.453 277.387 273.8 277.712 272.152C278.056 270.44 278.448 268.736 278.672 267C278.672 266.872 278.472 266.76 278.416 266.904Z" fill="#263238"/>
<path d="M270.4 167.888C270.091 171.962 269.481 176.008 268.576 179.992C268.424 180.672 268.256 181.368 268.088 182.056C267.416 184.792 266.616 187.544 265.688 190.192C265.475 190.832 265.251 191.464 265.016 192.088C262.176 199.76 258.424 206.36 254.2 209.16C253.127 209.879 251.989 210.495 250.8 211C244.745 207.468 239.688 202.454 236.105 196.429C232.522 190.404 230.531 183.567 230.32 176.56L229.04 176.208C229.24 175.896 229.448 175.576 229.648 175.24C229.848 174.904 230.096 174.48 230.312 174.08C230.632 163.78 234.793 153.973 241.976 146.584C252.032 143.88 264.072 147.744 269.136 156.568C270.368 158.752 270.744 162.864 270.4 167.888Z" fill="#FFC4C0"/>
<path d="M249.32 175.664C248.47 175.708 247.618 175.708 246.768 175.664C245.784 175.664 245 175.736 244.16 175.152C243.934 174.961 243.779 174.698 243.721 174.408C243.663 174.117 243.705 173.816 243.84 173.552C244.456 172.464 245.656 172.184 246.84 172.16C248.028 172.09 249.2 172.463 250.128 173.208C250.334 173.39 250.482 173.629 250.553 173.894C250.625 174.16 250.617 174.44 250.532 174.702C250.446 174.963 250.285 175.193 250.07 175.364C249.855 175.535 249.594 175.639 249.32 175.664Z" fill="#263238"/>
<path d="M248.576 179.8C248.576 179.728 248.408 179.864 248.392 179.936C248.08 181.848 247.392 183.984 245.552 184.272C245.496 184.272 245.48 184.376 245.552 184.384C247.696 184.464 248.576 181.624 248.576 179.8Z" fill="#263238"/>
<path d="M247.272 177.44C244.264 176.6 242.808 182.68 245.592 183.456C248.376 184.232 249.792 178.144 247.272 177.44Z" fill="#263238"/>
<path d="M259.512 182.104C259.512 182.04 259.64 182.232 259.616 182.312C259.104 184.176 258.816 186.4 260.416 187.432C260.464 187.432 260.416 187.56 260.376 187.536C258.344 186.744 258.728 183.8 259.512 182.104Z" fill="#263238"/>
<path d="M261.664 180.544C264.744 181.04 263.528 187.168 260.672 186.712C257.816 186.256 259.08 180.128 261.664 180.544Z" fill="#263238"/>
<path d="M264.784 177.528C263.984 177.184 263.288 176.728 262.52 176.32C261.662 176.005 260.932 175.418 260.44 174.648C260.335 174.376 260.323 174.078 260.405 173.798C260.488 173.519 260.66 173.275 260.896 173.104C261.944 172.424 263.144 172.736 264.208 173.264C265.286 173.763 266.142 174.643 266.608 175.736C266.699 175.989 266.715 176.263 266.655 176.525C266.595 176.788 266.461 177.027 266.269 177.216C266.078 177.404 265.836 177.534 265.572 177.589C265.309 177.644 265.036 177.623 264.784 177.528Z" fill="#263238"/>
<path d="M242.272 196.072C242.616 196.616 242.92 197.328 243.592 197.552C244.295 197.708 245.025 197.708 245.728 197.552C245.742 197.552 245.756 197.555 245.768 197.563C245.78 197.57 245.79 197.581 245.796 197.594C245.802 197.606 245.804 197.621 245.802 197.635C245.8 197.648 245.793 197.661 245.784 197.672C245.427 197.978 244.993 198.181 244.53 198.26C244.066 198.339 243.59 198.29 243.152 198.12C242.793 197.929 242.498 197.635 242.306 197.276C242.114 196.917 242.032 196.509 242.072 196.104C242.064 195.992 242.216 195.992 242.272 196.072Z" fill="#263238"/>
<path d="M245.6 190.904C245.898 191.764 246.372 192.552 246.99 193.22C247.608 193.888 248.358 194.42 249.192 194.784C249.917 195.111 250.684 195.332 251.472 195.44C251.622 195.474 251.774 195.493 251.928 195.496C252.069 195.505 252.211 195.505 252.352 195.496C252.457 195.503 252.561 195.474 252.648 195.415C252.735 195.355 252.8 195.268 252.832 195.168C252.84 195.104 252.84 195.04 252.832 194.976V194.808C253.216 193.368 253.632 191.128 253.632 191.128C254.096 191.52 256.504 193.384 256.64 192.616C257.768 186.216 259.04 179.184 258.8 172.616C258.8 172.569 258.781 172.525 258.748 172.492C258.715 172.459 258.671 172.44 258.624 172.44C258.577 172.44 258.533 172.459 258.5 172.492C258.467 172.525 258.448 172.569 258.448 172.616C257.12 178.68 256.848 184.944 255.64 191.016C254.783 190.354 253.838 189.815 252.832 189.416C252.616 189.416 252.16 193.752 251.936 194.384C251.939 194.405 251.939 194.427 251.936 194.448C249.432 194.176 247.768 193.008 245.8 190.8C245.704 190.64 245.52 190.728 245.6 190.904Z" fill="#263238"/>
<path d="M250.8 194.504C249.755 195.339 248.512 195.89 247.192 196.104C246.469 196.208 245.732 196.079 245.088 195.736C243.672 194.984 243.968 193.592 244.528 192.48C244.83 191.889 245.2 191.336 245.632 190.832C246.918 192.577 248.729 193.864 250.8 194.504Z" fill="#263238"/>
<path d="M247.184 196.128C246.461 196.232 245.725 196.103 245.08 195.76C243.664 195.008 243.96 193.616 244.52 192.504C246.088 193.056 247.424 194.528 247.184 196.128Z" fill="#FF97B8"/>
<path d="M271.664 167.432C271.24 167.608 270.816 167.76 270.4 167.888C258.944 171.44 247.8 158.656 247.8 158.656C246.447 160.747 244.453 162.345 242.118 163.21C239.782 164.075 237.229 164.161 234.84 163.456C233.598 167.117 232.076 170.677 230.288 174.104C230.503 167.301 232.395 160.657 235.794 154.761C239.194 148.864 243.996 143.899 249.776 140.304C253.425 141.584 256.976 143.13 260.4 144.928C261.818 142.899 263.692 141.23 265.872 140.056C266.397 139.76 266.977 139.574 267.576 139.509C268.175 139.443 268.782 139.5 269.358 139.676C269.935 139.852 270.47 140.143 270.931 140.531C271.392 140.919 271.769 141.397 272.04 141.936C270.885 143.058 269.997 144.425 269.44 145.936C267.536 150.912 271.744 151.784 272.68 147.104C273.093 145.363 272.866 143.531 272.04 141.944C274.752 139.328 278.352 139.04 280.04 141.144C283.192 144.84 281.544 163.312 271.664 167.432Z" fill="#263238"/>
<path d="M250.296 175.112C248.965 174.003 247.314 173.347 245.584 173.24C245.063 173.206 244.541 173.225 244.024 173.296C242.727 173.464 241.49 173.94 240.415 174.684C239.341 175.429 238.46 176.421 237.848 177.576C237.671 177.899 237.521 178.236 237.4 178.584C237.122 179.323 236.958 180.1 236.912 180.888C236.8 182.703 237.295 184.504 238.319 186.008C239.343 187.511 240.838 188.631 242.568 189.192C243.217 189.396 243.889 189.522 244.568 189.568H245.08C247.041 189.572 248.939 188.872 250.428 187.597C251.918 186.321 252.901 184.554 253.2 182.616C253.2 182.384 253.256 182.152 253.272 181.912C253.288 181.672 253.272 181.56 253.272 181.392C253.269 180.191 253.001 179.005 252.487 177.919C251.972 176.833 251.224 175.875 250.296 175.112ZM244.632 188.472C242.912 188.362 241.291 187.629 240.072 186.41C238.854 185.191 238.121 183.57 238.011 181.85C237.901 180.13 238.422 178.429 239.476 177.065C240.529 175.701 242.044 174.768 243.736 174.44C244.323 174.326 244.923 174.288 245.52 174.328C246.107 174.366 246.688 174.476 247.248 174.656C247.962 174.886 248.635 175.229 249.24 175.672C250.483 176.572 251.401 177.852 251.853 179.319C252.306 180.786 252.269 182.36 251.749 183.805C251.229 185.249 250.254 186.485 248.97 187.327C247.687 188.169 246.164 188.571 244.632 188.472Z" fill="#E44C42"/>
<path d="M268.72 180.336L268.576 179.992C268.086 178.867 267.244 177.932 266.176 177.328C265.831 177.136 265.463 176.991 265.08 176.896C264.523 176.76 263.945 176.728 263.376 176.8C262.216 176.962 261.129 177.46 260.248 178.232C259.586 178.795 259.015 179.456 258.552 180.192C258.199 180.737 257.902 181.316 257.664 181.92C257.501 182.309 257.367 182.711 257.264 183.12C257.235 183.201 257.211 183.284 257.192 183.368C256.718 185.182 256.768 187.093 257.336 188.88C257.573 189.707 257.991 190.472 258.56 191.118C259.128 191.764 259.833 192.276 260.624 192.616C260.792 192.68 260.96 192.728 261.136 192.776C261.799 192.926 262.484 192.943 263.153 192.825C263.822 192.707 264.461 192.456 265.032 192.088C267.069 190.756 268.505 188.68 269.032 186.304C269.554 184.331 269.445 182.244 268.72 180.336ZM267.92 186.04C267.556 187.6 266.78 189.034 265.672 190.192C265.15 190.8 264.478 191.26 263.723 191.527C262.968 191.794 262.156 191.857 261.368 191.712C258.68 191.048 257.28 187.424 258.224 183.632C258.628 181.869 259.57 180.275 260.92 179.072C261.428 178.591 262.044 178.239 262.717 178.046C263.389 177.852 264.098 177.823 264.784 177.96C264.917 177.992 265.048 178.032 265.176 178.08C265.755 178.327 266.276 178.692 266.706 179.152C267.136 179.612 267.465 180.157 267.672 180.752C267.843 181.173 267.972 181.61 268.056 182.056C268.312 183.376 268.276 184.735 267.952 186.04H267.92Z" fill="#E44C42"/>
<path d="M252.784 182.792L252.264 181.832C253.68 181.032 256.768 180.232 258.312 182.712L257.384 183.288C256 181.064 252.92 182.72 252.784 182.792Z" fill="#E44C42"/>
<path d="M238.44 177.752L238.128 178.8L237.4 178.584C235.6 178.056 232.944 177.288 230.296 176.552L229.016 176.2C229.216 175.888 229.424 175.568 229.624 175.232L230.272 175.416C233.472 176.296 236.568 177.2 237.848 177.576L238.44 177.752Z" fill="#E44C42"/>
<g opacity="0.3">
<path d="M280.4 215.632C272.43 217.387 264.117 216.74 256.515 213.771C248.913 210.803 242.361 205.646 237.69 198.954C233.018 192.262 230.435 184.335 230.269 176.175C230.103 168.015 232.36 159.989 236.755 153.112C241.15 146.235 247.486 140.816 254.961 137.54C262.436 134.264 270.715 133.278 278.75 134.707C286.786 136.137 294.217 139.917 300.104 145.569C305.991 151.222 310.07 158.493 311.824 166.464C312.99 171.756 313.102 177.225 312.153 182.56C311.205 187.895 309.215 192.991 306.297 197.557C303.379 202.123 299.59 206.069 295.146 209.171C290.703 212.272 285.692 214.468 280.4 215.632Z" fill="white"/>
<path d="M235.336 195.144C240.563 204.686 249.345 211.778 259.773 214.881C270.2 217.983 281.431 216.844 291.024 211.712L235.336 195.144Z" fill="#EBEBEB"/>
<path d="M236.52 153.52L312.792 176.216C312.858 172.939 312.536 169.665 311.832 166.464C311.034 162.791 309.728 159.248 307.952 155.936L251.648 139.176C245.462 142.585 240.253 147.524 236.52 153.52Z" fill="#EBEBEB"/>
<path d="M230.568 180.152L303.216 201.752C304.947 199.673 306.472 197.431 307.768 195.056L230.408 172.032C230.185 174.737 230.239 177.458 230.568 180.152Z" fill="#EBEBEB"/>
<path d="M233.88 158.512L312.28 181.848C312.36 181.352 312.432 180.856 312.488 180.36L234.504 157.16C234.288 157.6 234.072 158.048 233.88 158.512Z" fill="#EBEBEB"/>
<path d="M264.704 134.648L299.504 145C298.6 144.16 297.648 143.4 296.664 142.6L268.4 134.2C267.161 134.286 265.927 134.435 264.704 134.648Z" fill="#EBEBEB"/>
</g>
<path d="M286.08 266.642L296.674 264.309L286.414 217.721L275.82 220.054L286.08 266.642Z" fill="#EBEBEB"/>
<path d="M316.336 165.472C314.385 156.612 309.85 148.529 303.306 142.246C296.761 135.963 288.5 131.761 279.568 130.173C270.635 128.585 261.432 129.681 253.123 133.323C244.814 136.965 237.771 142.989 232.885 150.634C227.999 158.279 225.49 167.2 225.675 176.271C225.86 185.342 228.73 194.154 233.923 201.593C239.116 209.032 246.398 214.765 254.849 218.066C263.3 221.366 272.54 222.087 281.4 220.136C293.28 217.516 303.633 210.287 310.184 200.036C316.735 189.786 318.948 177.353 316.336 165.472ZM280.4 215.632C272.43 217.389 264.117 216.743 256.514 213.775C248.911 210.808 242.358 205.652 237.686 198.961C233.013 192.269 230.429 184.342 230.262 176.182C230.094 168.022 232.35 159.996 236.745 153.118C241.139 146.24 247.475 140.82 254.95 137.543C262.425 134.266 270.704 133.28 278.74 134.709C286.775 136.137 294.207 139.917 300.095 145.569C305.982 151.222 310.061 158.493 311.816 166.464C312.982 171.755 313.094 177.224 312.146 182.559C311.198 187.894 309.209 192.989 306.292 197.555C303.374 202.121 299.586 206.067 295.144 209.169C290.701 212.27 285.691 214.467 280.4 215.632Z" fill="#455A64"/>
<path d="M290.456 299.424L306.48 295.896L297.392 254.592L281.36 258.12L290.456 299.424Z" fill="#263238"/>
<path d="M297.448 169.928C297.431 169.881 297.418 169.833 297.408 169.784C297.216 169.096 297.616 170.448 297.472 170C297.328 169.552 297.12 168.92 296.92 168.4C296.22 166.544 295.364 164.751 294.36 163.04C294.224 162.8 294.072 162.56 293.936 162.32C293.888 162.24 294.288 162.88 293.936 162.376L293.656 161.944C293.288 161.392 292.912 160.848 292.52 160.344C291.653 159.173 290.71 158.061 289.696 157.016L288.96 156.28C288.624 155.952 289.352 156.64 288.888 156.216L288.424 155.792C287.824 155.272 287.208 154.768 286.568 154.288C285.928 153.808 285.168 153.28 284.44 152.824C284.104 152.616 283.768 152.416 283.424 152.224C282.832 151.88 283.68 152.344 283.24 152.12L282.608 151.8C280.697 150.86 278.698 150.109 276.64 149.56H276.536L276.312 149.512L275.392 149.312C274.792 149.192 274.2 149.088 273.592 149C272.321 148.818 271.042 148.701 269.76 148.648C269.404 148.608 269.059 148.497 268.746 148.324C268.432 148.15 268.156 147.916 267.933 147.636C267.482 147.07 267.274 146.347 267.356 145.628C267.438 144.909 267.802 144.251 268.368 143.801C268.934 143.35 269.657 143.142 270.376 143.224C278.55 143.477 286.367 146.634 292.424 152.128C296.448 155.897 299.595 160.504 301.64 165.624C302.108 166.767 302.498 167.94 302.808 169.136C302.919 169.851 302.742 170.58 302.316 171.165C301.89 171.75 301.25 172.142 300.536 172.256C299.823 172.352 299.101 172.169 298.52 171.746C297.939 171.323 297.543 170.692 297.416 169.984L297.448 169.928Z" fill="white"/>
<path d="M298.568 177.968C298.649 178.494 298.885 178.984 299.245 179.376C299.605 179.768 300.073 180.045 300.59 180.17C301.107 180.296 301.65 180.265 302.15 180.082C302.65 179.899 303.084 179.571 303.397 179.141C303.711 178.711 303.889 178.197 303.91 177.665C303.932 177.133 303.794 176.607 303.516 176.153C303.238 175.7 302.831 175.339 302.348 175.116C301.864 174.894 301.326 174.82 300.8 174.904C300.099 175.016 299.47 175.401 299.052 175.976C298.634 176.55 298.46 177.266 298.568 177.968Z" fill="white"/>
<path d="M325.648 274.056C325.648 274.056 337.104 255.224 322.84 237.256C316.968 229.864 303.112 216.608 275 218.456C268.328 218.896 259.136 224.248 270.288 227.488C278.208 229.792 283.928 228.856 288.296 231.032C288.296 231.032 277.408 239.232 278.112 245.896C278.424 248.872 278.656 255.376 280.376 261.568C280.376 261.568 282.632 263.168 284.464 262.896C284.464 262.896 289.4 277.136 307.152 281.512L325.648 274.056Z" fill="#FFC4C0"/>
<path d="M316.816 234.84C312.224 233.008 302.416 229.296 293.336 229.04C283.248 228.76 263.736 230.944 263.616 238.392C263.52 243.856 271.04 243.672 271.04 243.672C271.04 243.672 263.168 246.272 264.168 251.224C265.072 255.736 270.88 255.224 270.88 255.224C270.88 255.224 266.376 257.624 268.088 261.8C270.144 266.824 279.24 261 285.688 264.264C287.176 265.032 316.816 234.84 316.816 234.84Z" fill="#FFC4C0"/>
<path d="M294.8 239.744C290.2 238.736 279.152 239.12 271.136 243.496C270.952 243.592 270.928 243.784 271.136 243.728C278.838 241.482 286.784 240.176 294.8 239.84C294.872 239.84 294.872 239.8 294.8 239.744Z" fill="#263238"/>
<path d="M294.24 249.92C290.176 249.456 278.808 250.36 270.84 255.072C270.656 255.176 270.648 255.368 270.84 255.304C278.42 252.662 286.276 250.888 294.256 250.016C294.269 250.014 294.28 250.007 294.288 249.996C294.295 249.986 294.298 249.973 294.296 249.96C294.294 249.947 294.287 249.936 294.276 249.928C294.266 249.921 294.253 249.918 294.24 249.92Z" fill="#263238"/>
<path d="M310.616 282.736C306.544 281.769 302.613 280.283 298.92 278.312C295.202 276.3 291.911 273.583 289.232 270.312C288.432 269.312 287.632 268.272 286.936 267.208C286.24 266.144 285.472 264.936 284.648 263.88C284.584 263.8 284.432 263.88 284.48 263.952C285.407 266.173 286.548 268.297 287.888 270.296C289.089 272.165 290.525 273.872 292.16 275.376C295.388 278.248 299.213 280.369 303.36 281.584C305.715 282.24 308.125 282.676 310.56 282.888C310.68 282.92 310.728 282.76 310.616 282.736Z" fill="#263238"/>
<path d="M193.84 222.472C173.232 250.144 138.84 322.264 133.784 332.872C130.352 340.072 167.976 359.032 169.568 353.8C171.616 347.096 205.256 258.6 209.968 226.336C212.544 208.648 200.968 212.896 193.84 222.472Z" fill="#FFC4C0"/>
<path d="M170.584 350.2C169.712 356.72 165.28 369.856 161.984 371.864C158.688 373.872 141.368 373.464 132.64 373.464C123.912 373.464 122.24 371.024 122.344 368.024C122.448 365.024 140.8 364.448 140.8 364.448C140.8 364.448 116.336 371.424 110.184 372.6C104.032 373.776 89.864 377.32 87.784 372.224C86.864 369.92 90.744 367.592 90.744 367.592C90.744 367.592 84.8 369.328 83.848 366.376C82.776 363.008 87.504 361.16 87.504 361.16C87.504 361.16 83.784 361.904 83.696 359.16C83.536 353 106.8 349.992 106.8 349.992C106.8 349.992 88.992 358.664 88.4 353.656C87.6 346.736 124.112 339.144 127.912 336.128C130.677 333.823 133.263 331.312 135.648 328.616L170.584 350.2Z" fill="#FFC4C0"/>
<path d="M122.472 369.512C122.41 369.087 122.451 368.654 122.59 368.247C122.729 367.841 122.963 367.474 123.272 367.176C123.899 366.601 124.619 366.136 125.4 365.8C127.014 365.114 128.688 364.579 130.4 364.2C133.84 363.328 137.368 362.712 140.88 361.8C137.26 361.746 133.647 362.149 130.128 363C128.33 363.412 126.598 364.075 124.984 364.968C124.148 365.427 123.416 366.054 122.832 366.808C122.545 367.19 122.361 367.639 122.298 368.113C122.235 368.586 122.295 369.068 122.472 369.512Z" fill="#263238"/>
<path d="M90.8 367.56C93.32 366.944 95.8 366.24 98.272 365.52C100.744 364.8 103.208 364.048 105.672 363.304L113.04 361C115.496 360.2 117.952 359.464 120.432 358.72C117.857 359.003 115.305 359.46 112.792 360.088C110.264 360.664 107.784 361.384 105.312 362.136C102.84 362.888 100.392 363.736 97.976 364.632C95.56 365.528 93.12 366.472 90.8 367.56Z" fill="#263238"/>
<path d="M114.496 352.6C112.123 352.749 109.764 353.075 107.44 353.576C105.108 354.04 102.803 354.633 100.536 355.352C98.2638 356.057 96.0335 356.89 93.856 357.848C91.6707 358.782 89.5558 359.873 87.528 361.112C89.776 360.312 91.968 359.472 94.2 358.712C96.432 357.952 98.656 357.2 100.904 356.512C103.152 355.824 105.4 355.144 107.664 354.48C109.928 353.816 112.2 353.24 114.496 352.6Z" fill="#263238"/>
<path d="M110.896 346.776C107.074 347.084 103.309 347.891 99.696 349.176C96.0482 350.384 92.5756 352.068 89.368 354.184C92.984 352.896 96.504 351.536 100.096 350.336C103.688 349.136 107.248 347.952 110.896 346.776Z" fill="#263238"/>
<path d="M202.6 269.904L160.84 268.752C160.84 268.752 183.6 232.528 195.792 219.24C208.52 205.4 215.448 206.592 211.104 231.112C206.728 255.8 202.6 269.904 202.6 269.904Z" fill="#E44C42"/>
<path d="M176.76 262.616C175.633 263.109 174.578 263.752 173.624 264.528C176.062 264.134 178.358 263.117 180.288 261.576C179.068 261.751 177.88 262.101 176.76 262.616ZM200.08 236.088C199.598 234.956 198.954 233.899 198.168 232.952C198.553 235.392 199.574 237.688 201.128 239.608C200.952 238.39 200.599 237.204 200.08 236.088ZM180.824 243.96C180.368 245.102 180.077 246.304 179.96 247.528C181.41 245.529 182.309 243.184 182.568 240.728C181.831 241.714 181.244 242.803 180.824 243.96ZM199.224 260.312C198.764 261.455 198.476 262.66 198.368 263.888C199.809 261.884 200.708 259.542 200.976 257.088C200.236 258.073 199.64 259.159 199.208 260.312H199.224ZM211.464 212.752C211.264 213.168 211.08 213.592 210.904 214.024C210.452 215.168 210.162 216.368 210.04 217.592C210.777 216.615 211.369 215.537 211.8 214.392C211.84 214.288 211.872 214.192 211.904 214.088C211.79 213.631 211.637 213.184 211.448 212.752H211.464Z" fill="white"/>
<path d="M199.984 262.64C198.992 262.496 197.976 262.496 196.984 262.448L193.904 262.28C191.835 262.179 189.757 262.096 187.672 262.032C183.512 261.904 179.36 261.76 175.208 261.704C174.064 261.704 172.92 261.704 171.776 261.704C170.632 261.704 169.376 261.824 168.176 261.832C168.104 261.832 168.112 261.944 168.176 261.944C169.2 262.008 170.224 262.16 171.256 262.224C172.288 262.288 173.36 262.352 174.416 262.392C176.496 262.472 178.576 262.544 180.656 262.592C184.744 262.688 188.84 262.8 192.928 262.808H196.4C197.592 262.808 198.8 262.872 200 262.768C200.032 262.744 200.048 262.648 199.984 262.64Z" fill="#263238"/>
<path d="M210.696 242.744C210.696 242.664 210.6 242.616 210.56 242.696C209.785 244.123 209.122 245.607 208.576 247.136C208.72 246.408 208.888 245.68 209.024 244.944C209.48 242.592 209.896 240.224 210.36 237.872C210.355 237.858 210.346 237.846 210.334 237.837C210.322 237.828 210.307 237.824 210.292 237.824C210.277 237.824 210.262 237.828 210.25 237.837C210.238 237.846 210.229 237.858 210.224 237.872C209.144 241.92 207.888 245.928 206.928 250.008C205.968 254.088 205 258.168 204.104 262.264C203.616 264.528 203.176 267.352 202.68 269.608C201.472 269.752 199.92 269.608 198.616 269.776C198.504 269.776 198.536 269.976 198.616 269.976C199.992 270.016 201.632 270.328 203.08 270.24C203.264 270.24 206.768 255.688 208.224 248.72C209.12 246.736 209.952 244.752 210.696 242.744Z" fill="#263238"/>
<path d="M240.4 220.12C239.816 222.032 239.152 223.92 238.392 225.768C237.758 227.433 236.979 229.039 236.064 230.568C234.336 233.296 231.68 235.552 228.312 235.544C225.112 235.544 222.184 233.688 220.136 231.32C217.896 228.736 216.408 225.496 215.072 222.376C214.272 220.448 213.472 218.48 212.832 216.488C212.504 215.48 212.16 214.472 211.872 213.448C211.584 212.424 211.336 211.392 210.984 210.392C210.984 210.312 210.808 210.32 210.832 210.392C211.424 212.696 213.144 219.992 213.832 221.848C215.096 225.248 216.52 228.76 218.8 231.624C220.96 234.328 223.896 236.376 227.408 236.712C230.92 237.048 233.928 235.2 235.864 232.416C237.002 230.662 237.891 228.759 238.504 226.76C239.248 224.568 239.872 222.32 240.44 220.072C240.472 220.104 240.4 220.096 240.4 220.12Z" fill="#263238"/>
</g>
<defs>
<clipPath id="clip0_834_8884">
<rect width="400" height="400" fill="white" transform="translate(50 31)"/>
</clipPath>
</defs>
</svg>
