<svg width="500" height="390" viewBox="0 0 500 390" fill="none" xmlns="http://www.w3.org/2000/svg">
<path fill-rule="evenodd" clip-rule="evenodd" d="M237.154 386.864C191.717 383.616 150.853 367.162 114.384 339.865C69.7407 306.449 14.9162 272.67 10.3447 217.094C5.61758 159.626 50.359 111.806 92.376 72.3152C132.807 34.3155 182.739 -6.9201 237.154 3.92108C288.602 14.1709 293.806 86.5069 333.829 120.419C382.104 161.324 477 154.917 488.739 217.094C500.266 278.15 430.332 324.011 378.828 358.767C337.341 386.762 287.076 390.433 237.154 386.864Z" fill="white"/>
<path d="M243.556 137.913C264.09 159.272 325.777 254.333 330.583 257.172C330.583 257.172 330.583 319.345 296.226 306.93C261.869 294.515 230.376 182.973 223.653 147.415C220.109 128.641 226.784 120.485 243.556 137.913Z" fill="#FFC4C0"/>
<path d="M238.325 211.408L301.286 204.248C301.286 204.248 262.233 152.439 242.051 133.944C221.007 114.672 210.692 117.379 220.449 153.883C230.255 190.607 238.325 211.408 238.325 211.408Z" fill="#730034"/>
<path d="M235.364 177.112C234.672 178.849 234.231 180.675 234.053 182.536C236.25 179.501 237.618 175.946 238.022 172.221C236.899 173.711 236.003 175.359 235.364 177.112ZM270.728 178.532C268.996 177.838 267.173 177.397 265.315 177.221C268.345 179.42 271.897 180.788 275.619 181.189C274.131 180.064 272.482 179.168 270.728 178.532ZM261.347 203.022C260.606 201.31 259.625 199.712 258.434 198.277C258.713 200.12 259.252 201.913 260.036 203.604C260.753 205.327 261.727 206.931 262.925 208.362C262.653 206.516 262.122 204.719 261.347 203.022ZM224.405 124.138C224.09 123.471 223.774 122.816 223.41 122.16C222.978 122.118 222.543 122.118 222.112 122.16C222.403 123.046 222.731 123.896 223.095 124.745C223.824 126.464 224.801 128.067 225.995 129.502C225.722 127.648 225.186 125.842 224.405 124.138ZM296.966 198.58L295.752 199.066C294.035 199.805 292.429 200.781 290.983 201.966C292.833 201.692 294.635 201.156 296.335 200.376C296.82 200.158 297.294 199.927 297.767 199.672L296.966 198.58ZM248.422 148.568C246.709 149.303 245.107 150.275 243.665 151.456C245.516 151.191 247.318 150.659 249.017 149.879C250.732 149.142 252.334 148.166 253.774 146.978C251.915 147.245 250.104 147.781 248.398 148.568H248.422ZM244.199 148.677C244.127 148.726 244.058 148.779 243.993 148.835H244.211C244.211 148.835 244.175 148.714 244.175 148.677H244.199Z" fill="white"/>
<path d="M241.347 200.085C242.816 199.745 244.357 199.612 245.85 199.405L250.485 198.762C253.604 198.325 256.735 197.937 259.867 197.549C266.129 196.82 272.391 196.056 278.665 195.437C280.388 195.267 282.124 195.097 283.847 194.964C285.57 194.83 287.488 194.83 289.308 194.697C289.417 194.697 289.417 194.854 289.308 194.866C287.767 195.097 286.238 195.449 284.697 195.692C283.155 195.934 281.517 196.153 279.927 196.347C276.808 196.748 273.665 197.112 270.534 197.464C264.369 198.131 258.192 198.835 252.002 199.381L246.833 199.818C245.024 199.976 243.192 200.243 241.371 200.231C241.357 200.225 241.345 200.217 241.335 200.205C241.326 200.193 241.319 200.18 241.317 200.165C241.314 200.15 241.316 200.135 241.321 200.121C241.327 200.107 241.335 200.094 241.347 200.085Z" fill="#263238"/>
<path opacity="0.1" d="M268.871 207.937L238.337 211.408C238.337 211.408 230.267 190.607 220.449 153.883C216.311 138.398 215.789 128.993 218.167 124.757L268.871 207.937Z" fill="black"/>
<path d="M255.789 340.898H160.024C159.235 337.815 158.471 334.83 157.706 331.796C156.832 328.362 155.971 325.012 155.146 321.748C154.964 321.019 154.769 320.291 154.587 319.575C153.956 317.075 153.337 314.648 152.731 312.294C152.366 310.849 152.002 309.43 151.65 308.022C151.299 306.614 150.922 305.182 150.57 303.811C150.473 303.447 150.388 303.083 150.291 302.731L150 301.517L149.636 300.097C149.502 299.599 149.381 299.114 149.26 298.629C149.017 297.706 148.786 296.796 148.568 295.91C148.228 294.599 147.9 293.313 147.585 292.063C147.451 291.517 147.306 290.971 147.172 290.437C146.942 289.563 146.723 288.714 146.517 287.876C146.371 287.318 146.238 286.772 146.104 286.238C145.538 284.037 145.012 281.974 144.527 280.049C144.393 279.539 144.272 279.041 144.138 278.556C143.932 277.718 143.726 276.917 143.532 276.129C143.394 275.643 143.273 275.17 143.167 274.709C142.743 273.058 142.354 271.553 142.027 270.231C141.93 269.879 141.845 269.539 141.76 269.211C141.541 268.337 141.335 267.561 141.165 266.869C141.092 266.59 141.032 266.323 140.959 266.08L140.765 265.315C140.765 265.146 140.68 264.976 140.643 264.83L140.473 264.175C140.473 264.07 140.449 263.972 140.4 263.883L140.182 263.022H233.398C233.398 263.022 236.468 273.604 241.383 290.667C242.379 294.138 243.459 297.949 244.612 301.869C247.876 313.252 251.687 326.529 255.789 340.898Z" fill="#37474F"/>
<path d="M175.704 340.898H173.277C169.733 326.23 166.299 311.533 162.973 296.808C162.164 293.224 161.355 289.64 160.546 286.056L160.328 285.049C160.324 285.014 160.332 284.978 160.352 284.949C160.372 284.92 160.402 284.9 160.436 284.891C160.47 284.882 160.506 284.886 160.537 284.901C160.569 284.917 160.593 284.943 160.607 284.976C160.607 285.085 160.667 285.194 160.704 285.303C161.78 289.155 162.852 293.01 163.92 296.869C168.022 311.505 171.95 326.181 175.704 340.898Z" fill="#263238"/>
<path d="M230.376 263.034L226.262 283.665L222.888 300.558L217.148 329.345L216.553 332.294L215.57 337.209L214.806 340.898H160.012C159.235 337.803 158.459 334.83 157.706 331.796C156.832 328.362 155.971 325.012 155.146 321.748C154.964 321.019 154.769 320.291 154.587 319.575C153.956 317.075 153.337 314.648 152.731 312.294C152.366 310.849 152.002 309.43 151.65 308.022C151.299 306.614 150.922 305.182 150.57 303.811C150.473 303.447 150.388 303.083 150.291 302.731L150 301.517L149.636 300.097C149.502 299.599 149.381 299.114 149.26 298.629C149.017 297.706 148.786 296.796 148.568 295.91C148.228 294.599 147.9 293.313 147.585 292.063C147.439 291.505 147.306 290.971 147.172 290.437C146.942 289.563 146.723 288.714 146.517 287.876C146.371 287.318 146.238 286.772 146.104 286.238C145.538 284.037 145.012 281.974 144.527 280.049C144.393 279.539 144.272 279.041 144.138 278.556C143.932 277.718 143.726 276.917 143.532 276.129C143.394 275.643 143.273 275.17 143.167 274.709C142.743 273.058 142.354 271.553 142.027 270.231C141.93 269.879 141.845 269.539 141.76 269.211C141.541 268.337 141.335 267.561 141.165 266.869C141.092 266.59 141.032 266.323 140.959 266.08L140.765 265.315C140.765 265.146 140.68 264.976 140.643 264.83L140.473 264.175C140.473 264.07 140.449 263.972 140.4 263.883L140.182 263.022L230.376 263.034Z" fill="#263238"/>
<path d="M230.388 262.998C230.388 263.507 230 269.065 229.102 277.561C228.847 279.988 228.544 282.755 228.192 285.667C227.646 290.267 226.978 295.376 226.129 300.704C224.697 310.061 222.828 320.267 220.4 330.243C219.539 333.883 218.592 337.391 217.585 340.874H97.2572C98.6771 322.536 99.9757 305.947 101.007 292.876C102.451 274.478 103.434 262.961 103.434 262.961H212.585L230.388 262.998Z" fill="#37474F"/>
<path d="M230.133 274.053C230 278.362 229.818 282.658 229.539 286.942C229.247 291.59 228.823 296.226 228.216 300.862C228.216 301.032 228.216 301.201 228.155 301.371C227.589 305.716 226.938 310.049 226.201 314.369C225.51 318.398 224.988 322.743 223.216 326.505C222.543 327.948 221.585 329.24 220.4 330.303C219.316 331.295 217.989 331.982 216.553 332.294C216.318 332.353 216.079 332.393 215.837 332.415H215.631C215.675 332.44 215.711 332.478 215.735 332.523C215.759 332.568 215.769 332.619 215.764 332.67C215.764 334.114 215.764 335.583 215.595 337.015C215.595 337.075 215.595 337.136 215.595 337.197C215.449 338.41 215.218 339.684 214.988 340.922H212.925V340.849C213.289 339.49 213.592 338.119 213.932 336.748C214.272 335.376 214.757 333.981 215.085 332.561C215.103 332.507 215.137 332.461 215.182 332.427C213.872 332.49 212.575 332.15 211.464 331.454C210.353 330.757 209.482 329.738 208.968 328.532C208.451 326.686 208.417 324.738 208.871 322.876C209.247 320.449 209.612 317.949 209.988 315.485C210.692 310.959 211.602 306.481 212.415 301.978L212.779 299.927C214.393 290.765 216.08 281.602 218.107 272.524C218.18 272.148 218.264 271.772 218.349 271.396C218.434 271.019 218.811 271.214 218.786 271.456C218.726 272.063 218.665 272.67 218.592 273.289C218.236 276.776 217.832 280.247 217.379 283.701C216.796 287.767 216.396 291.857 215.825 295.922C215.631 297.306 215.437 298.689 215.231 300.073C214.296 306.76 213.325 313.422 212.184 320.109C211.65 323.204 209.757 328.75 214.175 329.709C215.195 329.935 216.263 329.802 217.197 329.332C219.163 328.147 220.634 326.289 221.335 324.102C222.427 320.459 223.219 316.733 223.701 312.961C224.43 308.916 225.077 304.834 225.643 300.716C226.371 295.611 227.132 290.51 227.925 285.413C228.321 282.815 228.726 280.218 229.138 277.621L229.721 273.981C229.733 273.726 230.133 273.799 230.133 274.053Z" fill="#263238"/>
<path d="M123.653 306.044C128.664 305.992 133.649 305.319 138.495 304.041C140.728 303.471 142.937 302.755 145.133 302.039C147.31 301.438 149.347 300.416 151.129 299.029C154.502 296.116 156.068 291.541 157.536 287.464C159.13 282.872 160.424 278.182 161.408 273.422C161.408 273.192 161.796 273.277 161.808 273.495C161.925 278.878 161.242 284.248 159.782 289.43C158.568 293.835 156.942 298.738 153.386 301.82C149.83 304.903 144.575 306.214 139.782 306.796C134.406 307.421 128.973 307.348 123.616 306.578C123.546 306.573 123.48 306.54 123.433 306.487C123.386 306.433 123.363 306.363 123.368 306.292C123.373 306.222 123.405 306.156 123.459 306.109C123.512 306.062 123.582 306.039 123.653 306.044Z" fill="#263238"/>
<path d="M115.291 273.568C115.024 280.299 114.741 287.039 114.442 293.786C113.754 309.49 112.998 325.194 112.172 340.898H109.915C110.951 325.162 112.039 309.434 113.18 293.714C113.673 286.99 114.183 280.271 114.709 273.556C114.71 273.479 114.743 273.405 114.798 273.352C114.854 273.298 114.929 273.269 115.006 273.271C115.083 273.272 115.157 273.304 115.21 273.36C115.264 273.416 115.293 273.491 115.291 273.568Z" fill="#263238"/>
<path d="M251.104 312.84L87.864 300.461C87.864 300.461 120.704 170.303 185.546 122.451C202.124 110.231 220.267 118.07 228.434 127.209C249.187 150.485 251.59 312.318 251.104 312.84Z" fill="#730034"/>
<path d="M193.095 128.374C192.41 130.109 191.969 131.93 191.784 133.786C192.901 132.304 193.8 130.669 194.454 128.932C195.139 127.197 195.58 125.376 195.764 123.519C194.652 125.005 193.753 126.639 193.095 128.374ZM175.376 198.592C174.678 200.327 174.241 202.155 174.078 204.017C176.264 200.977 177.627 197.424 178.034 193.701C176.92 195.197 176.025 196.844 175.376 198.592ZM117.051 228.701C116.36 230.439 115.919 232.265 115.74 234.126C117.937 231.091 119.304 227.536 119.709 223.811C118.604 225.312 117.71 226.958 117.051 228.701ZM164.126 273.058C163.422 274.787 162.98 276.611 162.815 278.471C165.002 275.431 166.365 271.877 166.772 268.155C165.659 269.654 164.768 271.305 164.126 273.058ZM235.364 177.087C234.672 178.824 234.231 180.651 234.053 182.512C236.25 179.477 237.618 175.921 238.022 172.197C236.896 173.694 236.001 175.35 235.364 177.112V177.087ZM206.311 265.376C205.605 267.105 205.159 268.929 204.988 270.789C206.104 269.308 206.999 267.672 207.646 265.934C208.336 264.201 208.777 262.379 208.956 260.522C207.844 262.004 206.953 263.639 206.311 265.376ZM147.488 173.786C146.796 175.519 146.354 177.342 146.177 179.199C148.377 176.166 149.741 172.609 150.133 168.883C149.016 170.379 148.124 172.031 147.488 173.786ZM212.706 150.485C210.976 149.786 209.152 149.345 207.294 149.175C208.777 150.284 210.412 151.175 212.148 151.82C213.882 152.522 215.71 152.964 217.573 153.131C216.087 152.019 214.448 151.128 212.706 150.485ZM231.201 208.993C229.47 208.297 227.647 207.855 225.789 207.682C227.269 208.796 228.905 209.687 230.643 210.328C232.374 211.028 234.197 211.473 236.056 211.65C234.573 210.549 232.938 209.671 231.201 209.041V208.993ZM236.165 278.92C234.432 278.228 232.61 277.787 230.752 277.609C232.232 278.727 233.868 279.622 235.607 280.267C237.34 280.956 239.162 281.397 241.019 281.578C239.531 280.486 237.897 279.607 236.165 278.968V278.92ZM119.964 273.167C118.231 272.474 116.408 272.033 114.551 271.857C117.58 274.056 121.132 275.424 124.854 275.825C123.357 274.726 121.71 273.847 119.964 273.216V273.167ZM161.966 228.265C160.234 227.569 158.411 227.123 156.553 226.942C158.036 228.058 159.671 228.957 161.408 229.612C163.143 230.297 164.964 230.738 166.82 230.922C165.335 229.822 163.701 228.939 161.966 228.301V228.265ZM224.405 124.102C224.235 123.738 224.065 123.386 223.883 123.034C223.289 122.585 222.67 122.148 222.002 121.723C222.303 122.741 222.668 123.738 223.095 124.709C223.824 126.428 224.801 128.031 225.995 129.466C225.718 127.624 225.183 125.831 224.405 124.138V124.102ZM176.699 161.845C175.967 160.127 174.99 158.525 173.798 157.087C174.382 160.789 175.931 164.272 178.289 167.184C178.022 165.337 177.486 163.538 176.699 161.845ZM218.823 305.449C218.091 303.734 217.118 302.132 215.934 300.692C216.203 302.538 216.734 304.336 217.512 306.032C218.204 307.628 219.097 309.128 220.17 310.498H220.364C220.084 308.752 219.565 307.053 218.823 305.449ZM203.325 220.874C202.587 219.159 201.61 217.558 200.425 216.116C201.028 219.81 202.57 223.287 204.903 226.214C204.634 224.368 204.103 222.569 203.325 220.874ZM92.1358 285.364C92.063 285.619 91.9902 285.874 91.9053 286.117C92.063 286.286 92.2087 286.468 92.3543 286.638C92.3057 286.222 92.2328 285.809 92.1358 285.4V285.364ZM140.68 252.985C139.943 251.274 138.966 249.676 137.779 248.24C138.366 251.937 139.914 255.415 142.269 258.325C141.98 256.49 141.433 254.704 140.643 253.022L140.68 252.985ZM151.092 299.709C150.356 297.993 149.379 296.392 148.192 294.951C148.793 298.652 150.339 302.134 152.682 305.061C152.396 303.224 151.849 301.438 151.056 299.757L151.092 299.709ZM232.731 243.495C231.017 244.234 229.415 245.211 227.973 246.396C229.82 246.123 231.618 245.588 233.313 244.806C235.034 244.074 236.641 243.097 238.082 241.905C236.217 242.183 234.402 242.731 232.694 243.532L232.731 243.495ZM103.968 250.583L103.349 252.257C104.658 251.626 105.882 250.83 106.99 249.891C105.948 250.027 104.923 250.271 103.932 250.619L103.968 250.583ZM187.197 291.019C185.481 291.75 183.879 292.722 182.439 293.908C184.289 293.638 186.091 293.106 187.791 292.33C189.505 291.587 191.107 290.606 192.548 289.417C190.681 289.693 188.865 290.245 187.16 291.056L187.197 291.019ZM112.767 301.845L111.93 302.245L114.781 302.464C115.974 301.862 117.09 301.12 118.107 300.255C116.247 300.539 114.436 301.087 112.731 301.881L112.767 301.845ZM141.359 202.051C139.65 202.798 138.049 203.774 136.602 204.951C140.301 204.354 143.783 202.812 146.711 200.473C144.846 200.747 143.031 201.291 141.323 202.087L141.359 202.051ZM183.204 248.532C181.488 249.272 179.886 250.253 178.447 251.444C182.149 250.85 185.633 249.302 188.556 246.954C186.692 247.232 184.877 247.776 183.167 248.568L183.204 248.532ZM205.048 184.636C203.337 185.38 201.736 186.356 200.291 187.536C203.99 186.95 207.471 185.406 210.388 183.058C208.516 183.333 206.693 183.877 204.976 184.672L205.048 184.636Z" fill="white"/>
<path d="M219.187 154.405C209.769 153.01 200.206 134.005 198.556 121.044C198.447 120.146 213.119 92.1481 215.413 86.3107C215.886 85.0971 248.604 109.806 248.604 109.806C248.604 109.806 240.109 120.631 236.141 130.862C235.862 131.711 228.289 155.74 219.187 154.405Z" fill="#FFC4C0"/>
<path d="M248.653 109.806C248.653 109.806 240.158 120.631 236.177 130.849C236.104 131.056 235.619 132.561 234.818 134.709C217.998 126.214 211.141 111.044 208.374 101.032C211.553 94.6602 214.515 88.6772 215.461 86.3106C215.934 85.1092 248.653 109.806 248.653 109.806Z" fill="#263238"/>
<path d="M222.973 40.8374C213.398 51.9175 203.823 91.8811 209.296 104.163C217.245 121.954 238.422 132.646 255.558 121.274C272.221 110.243 283.774 57.9369 276.893 45.9466C266.772 28.2767 237.1 24.4781 222.973 40.8374Z" fill="#FFC4C0"/>
<path d="M248.556 73.3009C247.342 73.398 246.129 73.3009 244.915 73.3009C243.627 73.4764 242.317 73.2203 241.189 72.5728C240.875 72.2997 240.659 71.9305 240.576 71.5224C240.492 71.1143 240.546 70.6901 240.728 70.3155C241.202 69.6312 241.85 69.0858 242.605 68.7359C243.361 68.386 244.196 68.2442 245.024 68.3252C246.726 68.2251 248.405 68.7615 249.733 69.8301C250.014 70.0948 250.213 70.4348 250.307 70.8096C250.4 71.1843 250.384 71.578 250.26 71.9438C250.136 72.3095 249.909 72.6319 249.607 72.8725C249.305 73.1131 248.94 73.2619 248.556 73.3009Z" fill="#263238"/>
<path d="M247.488 79.1626C247.488 79.0534 247.245 79.2475 247.221 79.3689C246.772 82.0995 245.789 85.1577 243.155 85.5704C243.07 85.5704 243.046 85.716 243.155 85.7281C246.226 85.898 247.488 81.8325 247.488 79.1626Z" fill="#263238"/>
<path d="M245.619 75.8374C241.311 74.6238 239.223 83.3495 243.192 84.4538C247.16 85.5582 249.223 76.8446 245.619 75.8374Z" fill="#263238"/>
<path d="M263.143 82.5243C263.143 82.4272 263.325 82.7063 263.301 82.8155C262.573 85.4854 262.184 88.6772 264.405 90.0971C264.478 90.0971 264.405 90.2791 264.345 90.2427C261.468 89.1747 262.027 84.9514 263.143 82.5243Z" fill="#263238"/>
<path d="M266.226 80.2913C270.643 80.9951 268.908 89.7694 264.818 89.1141C260.728 88.4587 262.524 79.6966 266.226 80.2913Z" fill="#263238"/>
<path d="M270.704 75.9709C269.589 75.4527 268.503 74.8733 267.451 74.2354C266.218 73.7797 265.172 72.9256 264.478 71.8083C264.326 71.4177 264.308 70.9878 264.427 70.5859C264.545 70.184 264.794 69.8328 265.133 69.5874C266.626 68.6165 268.349 69.0655 269.879 69.818C271.438 70.528 272.679 71.7905 273.362 73.3617C273.505 73.7311 273.537 74.1346 273.454 74.5221C273.37 74.9096 273.175 75.2641 272.892 75.5418C272.609 75.8195 272.251 76.0082 271.862 76.0844C271.473 76.1607 271.071 76.1212 270.704 75.9709Z" fill="#263238"/>
<path d="M238.459 102.524C238.944 103.313 239.381 104.333 240.34 104.648C241.352 104.866 242.398 104.866 243.41 104.648C243.431 104.646 243.451 104.651 243.469 104.661C243.487 104.672 243.5 104.688 243.508 104.706C243.517 104.725 243.518 104.746 243.514 104.766C243.509 104.786 243.498 104.804 243.483 104.818C242.972 105.254 242.353 105.545 241.691 105.658C241.028 105.771 240.348 105.703 239.721 105.461C239.204 105.189 238.78 104.769 238.503 104.254C238.227 103.739 238.11 103.154 238.167 102.573C238.167 102.415 238.386 102.403 238.459 102.524Z" fill="#263238"/>
<path d="M243.216 95.1335C243.649 96.3625 244.33 97.4892 245.218 98.4434C246.105 99.3975 247.179 100.159 248.374 100.68C249.412 101.148 250.511 101.467 251.638 101.626C251.849 101.674 252.065 101.698 252.282 101.699C252.488 101.712 252.694 101.712 252.9 101.699C253.05 101.708 253.199 101.666 253.323 101.581C253.446 101.495 253.537 101.37 253.58 101.226C253.586 101.129 253.586 101.031 253.58 100.934V100.692C254.126 98.6286 254.684 95.4248 254.684 95.4248C255.352 95.983 258.798 98.6529 259.005 97.5485C260.619 88.4466 262.403 78.3252 262.087 68.9199C262.087 68.8523 262.06 68.7875 262.013 68.7397C261.965 68.6919 261.9 68.665 261.832 68.665C261.765 68.665 261.7 68.6919 261.652 68.7397C261.604 68.7875 261.578 68.8523 261.578 68.9199C259.684 77.6092 259.332 86.5777 257.561 95.3398C256.374 94.3647 255.054 93.5638 253.641 92.9612C253.325 92.9612 252.682 99.1748 252.354 100.073C252.357 100.105 252.357 100.138 252.354 100.17C248.714 99.7815 246.383 98.0947 243.556 94.9515C243.374 94.7451 243.107 94.8786 243.216 95.1335Z" fill="#263238"/>
<path d="M250.667 100.279C249.172 101.485 247.392 102.288 245.498 102.609C244.46 102.754 243.404 102.571 242.476 102.087C240.461 101.007 240.874 99.017 241.675 97.415C242.111 96.5707 242.644 95.7805 243.265 95.0607C245.111 97.5465 247.706 99.3753 250.667 100.279Z" fill="#263238"/>
<path d="M245.498 102.609C244.46 102.754 243.404 102.571 242.476 102.087C240.461 101.007 240.874 99.017 241.675 97.415C243.932 98.2039 245.837 100.328 245.498 102.609Z" fill="#FF97B8"/>
<path d="M280.558 61.5048C263.568 68.6165 246.383 48.9442 246.383 48.9442C244.436 51.9298 241.577 54.2067 238.231 55.4357C234.885 56.6647 231.232 56.78 227.815 55.7646C227.815 55.7646 219.66 80.3641 213.01 78.8835C202.9 76.7233 206.942 41.699 211.517 35.6068C216.092 29.5146 225.073 29.5388 225.073 29.5388C225.073 29.5388 226.784 24.4296 234.041 20.9466C242.051 17.0874 264.381 29.1869 264.381 29.1869C266.408 26.2801 269.089 23.8899 272.209 22.2087C272.962 21.7855 273.793 21.5196 274.652 21.427C275.511 21.3344 276.38 21.4171 277.206 21.6702C278.032 21.9232 278.798 22.3412 279.457 22.899C280.117 23.4567 280.657 24.1426 281.044 24.9151C279.386 26.5098 278.112 28.4601 277.318 30.6189C274.587 37.7549 280.619 39.0049 281.966 32.2937C282.551 29.803 282.224 27.185 281.044 24.9151C284.927 21.1529 290.085 20.7403 292.548 23.7015C297.075 29.1262 294.697 55.6068 280.558 61.5048Z" fill="#263238"/>
<path d="M238.883 92.6699C236.793 91.9996 234.933 90.7558 233.514 89.0801C232.096 87.4043 231.177 85.364 230.861 83.1914C230.545 81.0188 230.846 78.8013 231.729 76.7913C232.612 74.7813 234.042 73.0596 235.855 71.8223C237.669 70.585 239.793 69.8817 241.987 69.7926C244.18 69.7035 246.355 70.2322 248.263 71.3184C250.171 72.4046 251.735 74.0047 252.778 75.9364C253.821 77.8682 254.301 80.0541 254.163 82.2451C254.048 84.0244 253.529 85.7541 252.646 87.303C251.763 88.8518 250.538 90.1791 249.066 91.184C247.593 92.1889 245.91 92.845 244.146 93.1024C242.382 93.3599 240.582 93.2119 238.883 92.6699ZM245.582 71.8568C244.795 71.6019 243.98 71.443 243.155 71.3835C240.569 71.1999 238.009 72.0102 236 73.6491C233.99 75.288 232.681 77.6319 232.341 80.2027C232 82.7734 232.653 85.3773 234.167 87.483C235.68 89.5886 237.94 91.0374 240.486 91.5337C243.031 92.0301 245.67 91.5365 247.864 90.1538C250.057 88.7711 251.641 86.6034 252.291 84.093C252.941 81.5827 252.609 78.9188 251.363 76.6449C250.116 74.371 248.049 72.6585 245.582 71.8568Z" fill="#730034"/>
<path d="M264.745 97.5728C260.546 95.9951 258.362 90.2913 259.891 84.3325C260.542 81.4817 262.075 78.9086 264.272 76.9781C265.159 76.0836 266.264 75.4347 267.477 75.0948C268.69 74.7549 269.971 74.7356 271.194 75.0389C272.417 75.3422 273.54 75.9577 274.454 76.8251C275.368 77.6926 276.041 78.7824 276.408 79.9879C277.436 82.7261 277.585 85.717 276.832 88.5437C275.279 94.8058 270.218 98.9684 265.546 97.8034C265.273 97.7507 265.005 97.6736 264.745 97.5728ZM271.311 76.7597L270.74 76.5898C269.76 76.3917 268.746 76.4328 267.785 76.7095C266.824 76.9863 265.943 77.4905 265.218 78.1796C263.28 79.9 261.927 82.1825 261.347 84.7087C260 90.1456 262.002 95.3398 265.849 96.2864C269.697 97.233 273.896 93.5922 275.243 88.1675C275.918 85.6634 275.791 83.0104 274.879 80.5825C274.585 79.7306 274.116 78.95 273.502 78.2914C272.887 77.6328 272.14 77.1109 271.311 76.7597Z" fill="#730034"/>
<path d="M253.519 83.5073L252.767 82.1359C254.794 81.0073 259.211 79.8422 261.432 83.3495L260.097 84.1747C258.119 81.0315 253.701 83.398 253.519 83.5073Z" fill="#730034"/>
<path d="M201.723 76.3471L200.51 75.3762C200.971 74.8058 205.061 69.7937 208.592 69.915C211.905 70.0364 232.124 75.983 232.985 76.2864L232.536 77.7912C226.735 76.0679 211.104 71.5655 208.544 71.4805C206.189 71.3956 202.828 74.9636 201.723 76.3471Z" fill="#730034"/>
<path d="M217.342 76.6019C217.342 76.6019 214.078 60.9709 207.33 61.6383C200.582 62.3058 199.442 82.415 204.842 87.5485C205.487 88.2542 206.268 88.8222 207.138 89.2181C208.009 89.6141 208.95 89.8299 209.906 89.8526C210.861 89.8753 211.812 89.7043 212.7 89.3501C213.588 88.9958 214.395 88.4656 215.073 87.7913L217.342 76.6019Z" fill="#FFC4C0"/>
<path d="M207.148 67.415C207.051 67.3544 206.966 67.4878 207.039 67.5728C210.764 71.3107 211.335 76.4927 211.153 81.517C210.522 79.284 209.09 77.5849 206.177 78.2281C206.031 78.2281 206.068 78.483 206.177 78.5194C207.076 78.6025 207.926 78.964 208.609 79.5536C209.292 80.1433 209.774 80.9315 209.988 81.8082C210.344 83.2717 210.543 84.7687 210.582 86.2743C210.582 86.7718 211.432 86.8689 211.481 86.2743C211.475 86.234 211.475 86.1931 211.481 86.1529C214.078 80.5461 213.058 70.6189 207.148 67.415Z" fill="#263238"/>
<path d="M300.546 186.311C303.616 178.228 374.806 192.864 371.966 205.255C361.541 250.643 332.488 291.201 325.146 300.473C315.51 312.609 296.335 309.915 289.345 302.561C279.211 291.893 297.512 194.32 300.546 186.311Z" fill="#FFC4C0"/>
<path d="M295.534 208.592C293.952 212.942 292.698 217.404 291.784 221.942C290.752 226.432 289.854 230.947 289.126 235.485C287.687 244.667 286.876 253.936 286.699 263.228C286.565 268.422 286.699 273.604 286.699 278.799C286.699 278.92 286.893 278.908 286.893 278.799C286.893 274.199 287.172 269.563 287.549 264.976C287.925 260.388 288.386 255.716 288.981 251.117C290.133 242.075 291.408 233.046 293.046 224.078C293.499 221.561 293.972 219.053 294.466 216.553C294.988 213.956 295.582 211.371 295.922 208.738C295.922 208.544 295.619 208.374 295.534 208.592Z" fill="#263238"/>
<path d="M283.374 58.3859C282.905 64.5663 281.98 70.7036 280.607 76.7475C280.376 77.7791 280.121 78.8349 279.866 79.8786C278.847 84.0291 277.633 88.2038 276.226 92.2208C275.902 93.1917 275.562 94.1504 275.206 95.097C270.898 106.735 265.206 116.748 258.798 120.995C257.171 122.086 255.444 123.021 253.641 123.786C244.455 118.429 236.784 110.822 231.349 101.683C225.913 92.5427 222.893 82.1702 222.573 71.5412L220.631 71.0072C220.934 70.5339 221.25 70.0485 221.553 69.5388C221.857 69.0291 222.233 68.3859 222.561 67.7791C223.047 52.1545 229.358 37.2764 240.255 26.0679C255.51 21.966 273.774 27.8276 281.456 41.2136C283.325 44.5267 283.896 50.7645 283.374 58.3859Z" fill="#FFC4C0"/>
<path d="M251.396 70.182C250.106 70.2488 248.814 70.2488 247.524 70.182C246.032 70.182 244.842 70.2913 243.568 69.4053C243.225 69.115 242.99 68.7171 242.902 68.2764C242.814 67.8357 242.877 67.3781 243.082 66.9782C244.017 65.3277 245.837 64.9029 247.633 64.8665C249.436 64.7598 251.213 65.3264 252.621 66.4563C252.933 66.733 253.158 67.095 253.267 67.4976C253.375 67.9003 253.364 68.326 253.233 68.7222C253.103 69.1184 252.86 69.4677 252.533 69.7272C252.206 69.9866 251.811 70.1447 251.396 70.182Z" fill="#263238"/>
<path d="M250.267 76.4563C250.267 76.347 250.012 76.5533 249.988 76.6626C249.514 79.5631 248.471 82.8033 245.68 83.2402C245.595 83.2402 245.57 83.398 245.68 83.4101C248.932 83.5315 250.267 79.2233 250.267 76.4563Z" fill="#263238"/>
<path d="M248.289 72.8762C243.726 71.6019 241.517 80.8252 245.74 82.0024C249.964 83.1796 252.112 73.9442 248.289 72.8762Z" fill="#263238"/>
<path d="M266.857 79.9514C266.857 79.8543 267.051 80.1456 267.015 80.2669C266.238 83.0946 265.801 86.4684 268.228 88.0339C268.301 88.0339 268.228 88.2281 268.167 88.1917C265.085 86.9902 265.667 82.5242 266.857 79.9514Z" fill="#263238"/>
<path d="M270.121 77.5849C274.794 78.3373 272.949 87.6335 268.617 86.9417C264.284 86.25 266.201 76.9538 270.121 77.5849Z" fill="#263238"/>
<path d="M274.854 73.0097C273.641 72.4878 272.585 71.7961 271.42 71.1771C270.119 70.6996 269.011 69.8086 268.265 68.6407C268.105 68.2287 268.087 67.7756 268.212 67.352C268.337 66.9283 268.599 66.558 268.956 66.2985C270.546 65.267 272.367 65.7403 273.981 66.5412C275.616 67.2976 276.914 68.6337 277.621 70.2912C277.759 70.6753 277.784 71.0909 277.693 71.4887C277.602 71.8865 277.399 72.2498 277.108 72.5358C276.817 72.8218 276.45 73.0184 276.05 73.1024C275.651 73.1864 275.236 73.1542 274.854 73.0097Z" fill="#263238"/>
<path d="M240.704 101.141C241.226 101.966 241.687 103.046 242.706 103.386C243.773 103.622 244.879 103.622 245.947 103.386C245.968 103.385 245.989 103.391 246.007 103.402C246.026 103.413 246.04 103.43 246.049 103.449C246.058 103.468 246.061 103.49 246.058 103.511C246.055 103.532 246.046 103.552 246.032 103.568C245.49 104.032 244.832 104.34 244.129 104.459C243.426 104.579 242.704 104.506 242.039 104.248C241.494 103.957 241.047 103.512 240.755 102.967C240.463 102.423 240.34 101.804 240.4 101.189C240.388 101.019 240.619 101.019 240.704 101.141Z" fill="#263238"/>
<path d="M245.752 93.301C246.205 94.605 246.923 95.8012 247.861 96.8142C248.799 97.8272 249.936 98.635 251.201 99.1869C252.301 99.6828 253.465 100.018 254.66 100.182C254.887 100.233 255.119 100.262 255.352 100.267C255.566 100.28 255.781 100.28 255.995 100.267C256.155 100.277 256.313 100.234 256.445 100.144C256.577 100.053 256.675 99.9217 256.723 99.7694C256.736 99.6727 256.736 99.5748 256.723 99.4782V99.2233C257.306 97.0388 257.937 93.6408 257.937 93.6408C258.641 94.2354 262.294 97.0631 262.5 95.8981C264.211 86.1893 266.141 75.5218 265.777 65.5583C265.777 65.4874 265.749 65.4195 265.698 65.3695C265.648 65.3194 265.58 65.2913 265.51 65.2913C265.439 65.2913 265.371 65.3194 265.321 65.3695C265.271 65.4195 265.243 65.4874 265.243 65.5583C263.228 74.7573 262.815 84.2597 260.983 93.4709C259.684 92.4663 258.25 91.6493 256.723 91.0437C256.396 91.0437 255.704 97.6213 255.364 98.5801C255.369 98.6122 255.369 98.645 255.364 98.6772C251.565 98.2646 249.041 96.4927 246.056 93.1432C245.91 92.9005 245.631 93.034 245.752 93.301Z" fill="#263238"/>
<path d="M253.641 98.7621C252.056 100.029 250.17 100.865 248.167 101.189C247.071 101.347 245.953 101.151 244.976 100.631C242.828 99.4903 243.277 97.3786 244.126 95.6917C244.584 94.7953 245.146 93.9562 245.801 93.1917C247.752 95.8384 250.499 97.7906 253.641 98.7621Z" fill="#263238"/>
<path d="M248.155 101.226C247.059 101.383 245.941 101.187 244.964 100.667C242.816 99.5267 243.265 97.415 244.114 95.7281C246.493 96.5655 248.519 98.7985 248.155 101.226Z" fill="#FF97B8"/>
<path d="M285.291 57.6941C284.648 57.9611 284.005 58.1917 283.374 58.3859C265.995 63.7742 249.09 44.381 249.09 44.381C247.037 47.5533 244.013 49.9766 240.47 51.2889C236.926 52.6013 233.053 52.7324 229.43 51.6626C227.545 57.2158 225.236 62.6161 222.524 67.8155C222.851 57.4958 225.72 47.4164 230.877 38.4718C236.034 29.5272 243.32 21.9942 252.087 16.5412C257.623 18.4837 263.01 20.8281 268.204 23.5558C270.355 20.4773 273.198 17.946 276.505 16.165C277.301 15.7162 278.181 15.4336 279.09 15.3345C279.999 15.2354 280.919 15.3217 281.794 15.5884C282.668 15.855 283.48 16.2963 284.179 16.8856C284.878 17.4749 285.451 18.2 285.862 19.0169C284.11 20.7195 282.762 22.793 281.917 25.0849C279.029 32.6334 285.413 33.9563 286.832 26.8568C287.46 24.2156 287.115 21.4369 285.862 19.0291C289.976 15.0606 295.437 14.6237 297.997 17.8155C302.779 23.4223 300.279 51.4441 285.291 57.6941Z" fill="#263238"/>
<path d="M252.876 69.3447C250.856 67.6616 248.352 66.6668 245.728 66.5049C244.938 66.4537 244.146 66.4821 243.362 66.5898C241.395 66.8441 239.517 67.5664 237.887 68.6961C236.257 69.8258 234.921 71.3301 233.993 73.0825C233.724 73.5726 233.497 74.0841 233.313 74.6117C232.892 75.7327 232.642 76.9111 232.573 78.1068C232.403 80.8608 233.154 83.5929 234.708 85.8733C236.261 88.1538 238.528 89.8531 241.153 90.7039C242.138 91.0136 243.157 91.205 244.187 91.2743H244.964C247.939 91.2799 250.817 90.2191 253.077 88.2842C255.337 86.3493 256.829 83.6686 257.282 80.7282C257.282 80.3762 257.366 80.0243 257.391 79.6602C257.415 79.2961 257.391 79.1262 257.391 78.8714C257.387 77.0489 256.98 75.2498 256.2 73.6029C255.419 71.9559 254.284 70.5018 252.876 69.3447ZM244.284 89.6117C241.675 89.4446 239.216 88.3326 237.367 86.4837C235.519 84.6348 234.407 82.1756 234.24 79.5664C234.074 76.9572 234.864 74.3766 236.462 72.3076C238.06 70.2385 240.358 68.8228 242.925 68.3253C243.816 68.1525 244.725 68.0954 245.631 68.1554C246.522 68.2135 247.402 68.3806 248.252 68.6529C249.336 69.0012 250.356 69.5216 251.274 70.1942C253.161 71.5599 254.552 73.5017 255.238 75.727C255.925 77.9523 255.87 80.3405 255.081 82.5316C254.292 84.7228 252.813 86.5981 250.865 87.8752C248.918 89.1522 246.608 89.7616 244.284 89.6117Z" fill="#730034"/>
<path d="M280.825 77.2694L280.607 76.7476C279.864 75.0413 278.586 73.6229 276.966 72.7063C276.443 72.4155 275.884 72.1951 275.303 72.051C274.458 71.8452 273.582 71.7958 272.718 71.9053C270.959 72.1514 269.309 72.9065 267.973 74.0777C266.97 74.9324 266.102 75.935 265.4 77.051C264.865 77.8778 264.414 78.7559 264.053 79.6723C263.806 80.2631 263.603 80.8716 263.447 81.4927C263.403 81.6159 263.366 81.7415 263.337 81.8689C262.618 84.6207 262.694 87.5201 263.556 90.2306C263.915 91.4858 264.549 92.6455 265.412 93.6256C266.275 94.6058 267.344 95.382 268.544 95.8981C268.799 95.9951 269.053 96.068 269.32 96.1408C270.325 96.3689 271.366 96.3941 272.381 96.2149C273.396 96.0356 274.364 95.6556 275.231 95.0971C278.321 93.0769 280.499 89.9277 281.299 86.3228C282.09 83.3297 281.925 80.1636 280.825 77.2694ZM279.612 85.9223C279.06 88.2894 277.882 90.4647 276.201 92.2209C275.41 93.143 274.391 93.8413 273.245 94.246C272.099 94.6506 270.867 94.7474 269.672 94.5267C265.595 93.5194 263.471 88.0218 264.903 82.2694C265.515 79.595 266.944 77.1773 268.993 75.3519C269.764 74.6227 270.698 74.0889 271.718 73.7954C272.738 73.5019 273.814 73.4572 274.854 73.665C275.056 73.7129 275.255 73.7738 275.449 73.8471C276.328 74.2217 277.118 74.7758 277.77 75.4738C278.422 76.1718 278.921 76.9984 279.235 77.9005C279.495 78.5389 279.69 79.2015 279.818 79.8786C280.206 81.8807 280.152 83.9432 279.66 85.9223H279.612Z" fill="#730034"/>
<path d="M256.65 80.9951L255.862 79.5388C258.01 78.3252 262.694 77.1116 265.036 80.8737L263.629 81.7475C261.529 78.3737 256.857 80.8859 256.65 80.9951Z" fill="#730034"/>
<path d="M234.891 73.3495L234.417 74.9393L233.313 74.6116C230.582 73.8107 226.553 72.6456 222.536 71.5291L220.595 70.9951C220.898 70.5218 221.214 70.0364 221.517 69.5267L222.5 69.8058C227.354 71.1408 232.051 72.5121 233.993 73.0825L234.891 73.3495Z" fill="#730034"/>
<g opacity="0.3">
<path d="M298.544 130.813C286.453 133.476 273.843 132.494 262.31 127.99C250.778 123.487 240.839 115.664 233.752 105.513C226.665 95.3607 222.748 83.3351 222.496 70.9568C222.243 58.5785 225.667 46.4033 232.335 35.971C239.002 25.5388 248.614 17.318 259.953 12.3483C271.293 7.37857 283.852 5.88319 296.041 8.05125C308.231 10.2193 319.504 15.9534 328.434 24.5284C337.365 33.1034 343.552 44.1342 346.214 56.2257C347.982 64.2533 348.152 72.5506 346.713 80.6438C345.275 88.737 342.256 96.4675 337.829 103.394C333.402 110.32 327.654 116.307 320.914 121.011C314.173 125.716 306.572 129.047 298.544 130.813Z" fill="white"/>
<path d="M230.182 99.733C238.112 114.207 251.433 124.967 267.252 129.673C283.071 134.38 300.108 132.652 314.66 124.866L230.182 99.733Z" fill="#EBEBEB"/>
<path d="M231.978 36.5898L347.682 71.0194C347.783 66.048 347.294 61.0821 346.226 56.2257C345.016 50.6544 343.035 45.279 340.34 40.2548L254.927 14.8301C245.542 20.0013 237.641 27.4933 231.978 36.5898Z" fill="#EBEBEB"/>
<path d="M222.949 76.9903L333.155 109.757C335.782 106.604 338.094 103.202 340.061 99.5995L222.706 64.6723C222.368 68.7759 222.449 72.9032 222.949 76.9903Z" fill="#EBEBEB"/>
<path d="M227.973 44.1626L346.905 79.5631C347.027 78.8107 347.136 78.0582 347.221 77.3058L228.92 42.1116C228.592 42.7791 228.265 43.4587 227.973 44.1626Z" fill="#EBEBEB"/>
<path d="M274.733 7.9611L327.524 23.665C326.153 22.3907 324.709 21.2378 323.216 20.0242L280.34 7.28149C278.46 7.41173 276.589 7.63857 274.733 7.9611Z" fill="#EBEBEB"/>
</g>
<path d="M307.16 208.194L323.231 204.655L307.667 133.982L291.595 137.521L307.16 208.194Z" fill="#EBEBEB"/>
<path d="M353.058 54.7209C350.098 41.2799 343.22 29.0185 333.291 19.487C323.363 9.95559 310.831 3.58224 297.281 1.17289C283.731 -1.23645 269.77 0.426435 257.165 5.95127C244.559 11.4761 233.875 20.6148 226.464 32.2116C219.052 43.8085 215.246 57.3427 215.526 71.1028C215.806 84.8628 220.161 98.2308 228.038 109.516C235.916 120.802 246.963 129.498 259.783 134.505C272.603 139.512 286.62 140.605 300.061 137.646C318.082 133.672 333.788 122.704 343.726 107.154C353.664 91.6045 357.021 72.7448 353.058 54.7209ZM298.544 130.813C286.453 133.478 273.843 132.498 262.309 127.997C250.775 123.495 240.835 115.674 233.746 105.523C226.657 95.3718 222.738 83.3465 222.484 70.9678C222.23 58.5891 225.653 46.4131 232.319 35.9797C238.986 25.5463 248.596 17.3242 259.936 12.3533C271.276 7.38231 283.835 5.88579 296.025 8.05296C308.215 10.2201 319.489 15.9536 328.42 24.5284C337.352 33.1031 343.54 44.1339 346.201 56.2257C347.97 64.2525 348.14 72.549 346.702 80.6415C345.265 88.7341 342.247 96.4642 337.821 103.39C333.396 110.317 327.649 116.303 320.91 121.008C314.171 125.714 306.571 129.045 298.544 130.813Z" fill="#455A64"/>
<path d="M313.799 257.925L338.107 252.573L324.32 189.915L300 195.267L313.799 257.925Z" fill="#263238"/>
<path d="M324.405 61.4806C324.38 61.4094 324.359 61.3364 324.345 61.2621C324.053 60.2184 324.66 62.2694 324.442 61.5898C324.223 60.9102 323.908 59.9514 323.604 59.1626C322.542 56.3472 321.243 53.627 319.721 51.0315C319.515 50.6675 319.284 50.3034 319.078 49.9393C319.005 49.8179 319.612 50.7888 319.078 50.0243L318.653 49.3689C318.095 48.5315 317.524 47.7063 316.93 46.9417C315.615 45.1658 314.184 43.4792 312.646 41.8932L311.529 40.7767C311.019 40.2791 312.124 41.3228 311.42 40.6796L310.716 40.0364C309.806 39.2476 308.871 38.483 307.9 37.7548C306.93 37.0267 305.777 36.2257 304.672 35.534C304.163 35.2184 303.653 34.915 303.131 34.6238C302.233 34.1019 303.519 34.8058 302.852 34.466L301.893 33.9806C298.994 32.5541 295.962 31.4159 292.84 30.5825H292.682L292.342 30.5097L290.947 30.2063C290.036 30.0243 289.138 29.8665 288.216 29.733C286.289 29.4572 284.348 29.279 282.403 29.199C281.863 29.1377 281.34 28.9705 280.864 28.707C280.388 28.4436 279.969 28.0891 279.631 27.6637C278.947 26.8045 278.632 25.7088 278.756 24.6177C278.88 23.5266 279.432 22.5294 280.291 21.8455C281.151 21.1615 282.246 20.8469 283.337 20.9709C295.737 21.3545 307.595 26.1432 316.784 34.4781C322.889 40.195 327.662 47.1845 330.765 54.9514C331.475 56.6853 332.067 58.4653 332.536 60.2791C332.704 61.3634 332.436 62.47 331.79 63.3569C331.144 64.2438 330.173 64.839 329.09 65.0121C328.009 65.1575 326.914 64.8804 326.032 64.2383C325.15 63.5963 324.55 62.6389 324.357 61.5655L324.405 61.4806Z" fill="white"/>
<path d="M326.104 73.6772C326.227 74.4752 326.585 75.2187 327.131 75.8134C327.677 76.4082 328.387 76.8275 329.172 77.018C329.957 77.2086 330.78 77.1619 331.538 76.8839C332.296 76.606 332.955 76.1091 333.43 75.4565C333.906 74.8038 334.177 74.0247 334.209 73.2179C334.241 72.4111 334.033 71.6129 333.611 70.9245C333.189 70.2361 332.572 69.6885 331.838 69.351C331.105 69.0136 330.288 68.9016 329.49 69.0291C328.426 69.1993 327.473 69.7837 326.838 70.6546C326.204 71.5256 325.94 72.6122 326.104 73.6772Z" fill="white"/>
<path d="M367.184 219.442C367.184 219.442 384.563 190.874 362.925 163.616C354.017 152.403 332.998 132.294 290.352 135.097C280.231 135.765 266.286 143.883 283.204 148.799C295.218 152.294 303.896 150.874 310.522 154.175C310.522 154.175 294.005 166.614 295.073 176.723C295.546 181.238 295.898 191.104 298.507 200.498C298.507 200.498 301.93 202.925 304.709 202.512C304.709 202.512 312.197 224.114 339.126 230.752L367.184 219.442Z" fill="#FFC4C0"/>
<path d="M353.786 159.951C346.82 157.172 331.942 151.541 318.167 151.153C302.864 150.728 273.265 154.041 273.082 165.34C272.937 173.629 284.345 173.349 284.345 173.349C284.345 173.349 272.403 177.294 273.92 184.806C275.291 191.65 284.102 190.874 284.102 190.874C284.102 190.874 277.269 194.515 279.866 200.849C282.985 208.471 296.784 199.636 306.566 204.587C308.823 205.752 353.786 159.951 353.786 159.951Z" fill="#FFC4C0"/>
<path d="M320.388 167.391C313.41 165.862 296.65 166.444 284.49 173.083C284.211 173.228 284.175 173.519 284.49 173.434C296.174 170.027 308.228 168.046 320.388 167.536C320.498 167.536 320.498 167.476 320.388 167.391Z" fill="#263238"/>
<path d="M319.539 182.828C313.374 182.124 296.129 183.495 284.041 190.643C283.762 190.801 283.75 191.092 284.041 190.995C295.541 186.987 307.457 184.296 319.563 182.973C319.582 182.97 319.6 182.959 319.611 182.943C319.622 182.927 319.627 182.908 319.624 182.888C319.621 182.869 319.61 182.852 319.594 182.84C319.578 182.829 319.558 182.824 319.539 182.828Z" fill="#263238"/>
<path d="M344.381 232.609C338.203 231.143 332.24 228.887 326.638 225.898C320.998 222.846 316.006 218.724 311.942 213.762C310.728 212.245 309.515 210.667 308.459 209.053C307.403 207.439 306.238 205.607 304.988 204.005C304.891 203.883 304.66 204.005 304.733 204.114C306.139 207.483 307.87 210.706 309.903 213.738C311.725 216.573 313.903 219.163 316.383 221.444C321.281 225.801 327.083 229.018 333.374 230.862C336.946 231.856 340.602 232.518 344.296 232.84C344.478 232.888 344.551 232.646 344.381 232.609Z" fill="#263238"/>
<path d="M167.233 141.189C135.971 183.167 83.7985 292.573 76.1286 308.665C70.9223 319.587 127.998 348.35 130.413 340.413C133.519 330.243 184.551 195.995 191.699 147.051C195.607 120.218 178.046 126.663 167.233 141.189Z" fill="#FFC4C0"/>
<path d="M131.954 334.951C130.631 344.842 123.908 364.769 118.908 367.815C113.908 370.862 87.6335 370.243 74.3932 370.243C61.1529 370.243 58.6165 366.541 58.7742 361.99C58.932 357.439 86.7718 356.566 86.7718 356.566C86.7718 356.566 49.6602 367.148 40.3276 368.932C30.9951 370.716 9.50239 376.092 6.34705 368.362C4.95142 364.866 10.8373 361.335 10.8373 361.335C10.8373 361.335 1.82036 363.968 0.376181 359.49C-1.25003 354.381 5.9223 351.578 5.9223 351.578C5.9223 351.578 0.27909 352.706 0.145595 348.544C-0.0971231 339.199 35.1941 334.636 35.1941 334.636C35.1941 334.636 8.17958 347.791 7.28152 340.194C6.06793 329.697 61.4563 318.18 67.2208 313.604C71.4151 310.108 75.3381 306.298 78.9563 302.209L131.954 334.951Z" fill="#FFC4C0"/>
<path d="M58.9684 364.248C58.8748 363.603 58.9361 362.945 59.1471 362.329C59.3582 361.713 59.7129 361.156 60.182 360.704C61.1337 359.832 62.2249 359.127 63.4102 358.616C65.8585 357.576 68.3976 356.764 70.9951 356.189C76.2136 354.866 81.5655 353.932 86.8932 352.549C81.4013 352.466 75.9211 353.078 70.5825 354.369C67.8547 354.995 65.228 356 62.7791 357.354C61.5112 358.051 60.4 359.001 59.5145 360.146C59.0792 360.725 58.8003 361.407 58.7047 362.125C58.609 362.844 58.6999 363.574 58.9684 364.248Z" fill="#263238"/>
<path d="M10.9222 361.286C14.7451 360.352 18.5072 359.284 22.2572 358.192C26.0072 357.099 29.7451 355.959 33.4829 354.83L44.6601 351.335C48.3858 350.121 52.1116 349.005 55.8737 347.876C51.9681 348.306 48.096 348.999 44.2839 349.951C40.4489 350.825 36.6868 351.917 32.9368 353.058C29.1868 354.199 25.4732 355.485 21.8082 356.845C18.1431 358.204 14.4417 359.636 10.9222 361.286Z" fill="#263238"/>
<path d="M46.8689 338.592C43.269 338.818 39.6911 339.313 36.1651 340.073C32.6268 340.776 29.1303 341.676 25.6917 342.767C22.2448 343.836 18.8615 345.1 15.5583 346.553C12.2432 347.97 9.03494 349.625 5.95874 351.505C9.36893 350.291 12.6942 349.017 16.0801 347.864C19.466 346.711 22.8398 345.57 26.25 344.527C29.6602 343.483 33.0704 342.451 36.5049 341.444C39.9393 340.437 43.3859 339.563 46.8689 338.592Z" fill="#263238"/>
<path d="M41.4078 329.757C35.6097 330.224 29.8977 331.448 24.4175 333.398C18.8838 335.231 13.6159 337.785 8.75 340.995C14.2354 339.041 19.5752 336.978 25.0243 335.158C30.4733 333.337 35.8738 331.541 41.4078 329.757Z" fill="#263238"/>
<path d="M180.522 213.143L117.172 211.396C117.172 211.396 151.699 156.444 170.194 136.286C189.502 115.291 200.012 117.1 193.422 154.296C186.784 191.748 180.522 213.143 180.522 213.143Z" fill="#730034"/>
<path d="M141.323 202.087C139.613 202.835 138.013 203.81 136.566 204.988C140.265 204.39 143.747 202.848 146.675 200.51C144.824 200.775 143.022 201.307 141.323 202.087ZM176.699 161.845C175.967 160.127 174.99 158.525 173.799 157.087C174.382 160.789 175.931 164.272 178.289 167.184C178.022 165.337 177.486 163.538 176.699 161.845ZM147.488 173.786C146.796 175.519 146.355 177.342 146.177 179.199C148.377 176.166 149.741 172.609 150.134 168.883C149.016 170.379 148.124 172.031 147.488 173.786ZM175.401 198.592C174.703 200.327 174.265 202.155 174.102 204.017C176.288 200.977 177.651 197.424 178.058 193.701C176.936 195.195 176.032 196.842 175.376 198.592H175.401ZM193.968 126.444C193.665 127.075 193.386 127.718 193.119 128.374C192.434 130.109 191.993 131.93 191.808 133.786C192.926 132.304 193.825 130.669 194.478 128.932C194.539 128.774 194.587 128.629 194.636 128.471C194.463 127.777 194.231 127.099 193.944 126.444H193.968Z" fill="white"/>
<path d="M176.553 202.124C175.049 201.905 173.507 201.905 172.002 201.832L167.33 201.578C164.191 201.424 161.04 201.299 157.876 201.201C151.566 201.007 145.267 200.789 138.968 200.704C137.233 200.704 135.498 200.704 133.762 200.704C132.027 200.704 130.121 200.886 128.301 200.898C128.192 200.898 128.204 201.068 128.301 201.068C129.854 201.165 131.408 201.396 132.973 201.493C134.539 201.59 136.165 201.687 137.767 201.748C140.922 201.869 144.078 201.978 147.233 202.051C153.434 202.197 159.648 202.366 165.849 202.379H171.116C172.925 202.379 174.757 202.476 176.578 202.318C176.626 202.282 176.65 202.136 176.553 202.124Z" fill="#263238"/>
<path d="M192.803 171.942C192.803 171.82 192.658 171.748 192.597 171.869C191.422 174.033 190.416 176.285 189.587 178.604C189.806 177.5 190.061 176.396 190.267 175.279C190.959 171.711 191.59 168.119 192.294 164.551C192.286 164.53 192.272 164.511 192.254 164.498C192.235 164.485 192.213 164.478 192.191 164.478C192.168 164.478 192.146 164.485 192.127 164.498C192.109 164.511 192.095 164.53 192.087 164.551C190.449 170.692 188.544 176.772 187.087 182.961C185.631 189.15 184.163 195.34 182.803 201.553C182.063 204.988 181.396 209.272 180.643 212.694C178.811 212.913 176.456 212.694 174.478 212.949C174.308 212.949 174.357 213.252 174.478 213.252C176.566 213.313 179.053 213.786 181.25 213.653C181.529 213.653 186.845 191.578 189.053 181.007C190.413 177.998 191.675 174.988 192.803 171.942Z" fill="#263238"/>
<path d="M237.864 137.621C236.978 140.522 235.971 143.386 234.818 146.189C233.855 148.715 232.674 151.151 231.286 153.471C228.665 157.609 224.636 161.032 219.527 161.019C214.672 161.019 210.231 158.204 207.124 154.612C203.726 150.692 201.468 145.777 199.442 141.044C198.228 138.119 197.014 135.133 196.044 132.112C195.546 130.582 195.024 129.053 194.587 127.5C194.15 125.947 193.774 124.381 193.24 122.864C193.24 122.743 192.973 122.755 193.01 122.864C193.908 126.359 196.517 137.427 197.561 140.243C199.478 145.4 201.638 150.728 205.097 155.073C208.374 159.175 212.828 162.282 218.155 162.791C223.483 163.301 228.046 160.498 230.983 156.274C232.71 153.614 234.058 150.726 234.988 147.694C236.116 144.369 237.063 140.959 237.925 137.549C237.973 137.597 237.864 137.585 237.864 137.621Z" fill="#263238"/>
<path d="M448.568 146.748C453.973 151.344 457.994 157.351 460.183 164.1C462.371 170.849 462.641 178.074 460.962 184.967C459.282 191.86 455.72 198.151 450.673 203.137C445.626 208.123 439.292 211.609 432.379 213.204L423.883 230.595L415.643 213.325C409.481 212.005 403.746 209.169 398.956 205.073C395.127 201.815 391.976 197.834 389.685 193.358C387.394 188.882 386.006 183.999 385.602 178.987C384.787 168.864 388.025 158.833 394.606 151.098C401.186 143.364 410.57 138.56 420.692 137.744C430.814 136.929 440.846 140.167 448.58 146.748H448.568Z" fill="white"/>
<path d="M448.568 146.748C453.972 151.345 458 157.347 460.206 164.09C460.759 165.767 461.205 167.478 461.541 169.211C461.832 170.954 462.014 172.713 462.087 174.478C462.253 178.018 461.922 181.564 461.104 185.012C460.301 188.469 459.023 191.797 457.306 194.903C456.438 196.451 455.46 197.935 454.381 199.345C453.339 200.783 452.186 202.138 450.934 203.398C445.874 208.496 439.488 212.077 432.5 213.738L432.876 213.447L424.478 230.886L423.871 232.16L423.265 230.886L414.964 213.653L415.473 214.053C408.242 212.486 401.61 208.88 396.363 203.662C391.117 198.444 387.474 191.832 385.867 184.609C384.26 177.386 384.755 169.853 387.294 162.903C389.833 155.952 394.31 149.875 400.194 145.388C404.862 141.89 410.252 139.477 415.971 138.325C421.687 137.168 427.592 137.325 433.239 138.784C438.886 140.243 444.128 142.966 448.568 146.748ZM448.568 146.748C444.158 142.983 438.942 140.281 433.323 138.85C427.703 137.419 421.83 137.297 416.157 138.494C410.483 139.691 405.16 142.175 400.597 145.755C396.035 149.334 392.356 153.913 389.842 159.138C387.336 164.305 386.041 169.974 386.056 175.716C386.126 181.43 387.435 187.061 389.891 192.221C392.381 197.355 396.003 201.857 400.485 205.388C404.976 208.902 410.197 211.366 415.765 212.597L416.129 212.682L416.274 213.01L424.466 230.303H423.252L431.881 212.973L431.99 212.731H432.245C439.106 211.229 445.41 207.841 450.449 202.949C451.701 201.729 452.857 200.414 453.908 199.017C454.994 197.646 455.979 196.198 456.857 194.684C458.616 191.649 459.94 188.38 460.789 184.976C461.669 181.57 462.045 178.054 461.905 174.539C461.842 172.783 461.676 171.032 461.408 169.296C461.079 167.568 460.646 165.862 460.109 164.187C457.947 157.419 453.952 151.383 448.568 146.748Z" fill="#263238"/>
<path d="M427.788 179.391V183.541C427.798 183.956 427.724 184.369 427.569 184.755C427.414 185.14 427.183 185.49 426.888 185.783C426.593 186.075 426.242 186.305 425.855 186.457C425.469 186.609 425.055 186.68 424.64 186.667C423.812 186.664 423.019 186.333 422.433 185.748C421.847 185.162 421.517 184.369 421.514 183.541V176.897C421.514 176.832 421.58 176.832 421.58 176.767C421.58 176.701 421.514 176.701 421.514 176.636C421.554 175.822 421.897 175.052 422.475 174.478C423.054 173.904 423.826 173.566 424.64 173.532C426.538 173.532 428.358 172.778 429.7 171.436C431.042 170.094 431.796 168.274 431.796 166.376C431.796 164.479 431.042 162.659 429.7 161.317C428.358 159.975 426.538 159.221 424.64 159.221C423.4 159.217 422.182 159.539 421.106 160.155C420.029 160.77 419.134 161.658 418.508 162.728C418.301 163.092 418.023 163.412 417.69 163.668C417.358 163.924 416.978 164.111 416.572 164.219C416.167 164.326 415.744 164.352 415.328 164.294C414.913 164.236 414.513 164.096 414.152 163.882C413.798 163.673 413.49 163.397 413.244 163.069C412.998 162.74 412.819 162.366 412.718 161.969C412.616 161.571 412.595 161.157 412.654 160.751C412.713 160.345 412.852 159.954 413.063 159.602C414.179 157.678 415.756 156.061 417.652 154.897C419.548 153.733 421.703 153.059 423.924 152.934C426.145 152.809 428.362 153.238 430.377 154.182C432.391 155.126 434.139 156.555 435.464 158.342C436.789 160.129 437.65 162.217 437.968 164.419C438.287 166.62 438.054 168.867 437.289 170.956C436.525 173.045 435.253 174.911 433.589 176.387C431.925 177.864 429.92 178.903 427.755 179.413L427.788 179.391ZM427.788 193.376V194.53C427.798 194.945 427.724 195.358 427.569 195.744C427.414 196.129 427.183 196.479 426.888 196.772C426.593 197.064 426.242 197.294 425.855 197.446C425.469 197.598 425.055 197.669 424.64 197.656C423.812 197.653 423.019 197.323 422.433 196.737C421.847 196.152 421.517 195.358 421.514 194.53V193.376C421.528 192.551 421.862 191.764 422.445 191.181C423.029 190.598 423.815 190.264 424.64 190.25C425.054 190.243 425.464 190.318 425.848 190.472C426.232 190.627 426.581 190.856 426.874 191.148C427.168 191.439 427.4 191.786 427.557 192.169C427.714 192.552 427.792 192.962 427.788 193.376Z" fill="#730034"/>
</svg>
