<svg width="400" height="399" viewBox="0 0 400 399" fill="none" xmlns="http://www.w3.org/2000/svg">
<g clip-path="url(#clip0_1412_8060)">
<path fill-rule="evenodd" clip-rule="evenodd" d="M192.375 26.2242C148.49 27.9965 109.391 48.0642 76.2191 76.7234C39.8705 108.127 1.92399 144.484 0.0775733 192.363C-1.8121 241.362 31.1189 283.583 66.9438 317.236C101.566 349.759 144.779 372.271 192.375 372.999C240.689 373.738 287.92 355.511 321.721 321.134C355.185 287.098 370.613 239.985 369.981 192.363C369.359 145.399 352.734 99.1069 318.352 66.9451C284.904 35.6563 238.234 24.3723 192.375 26.2242Z" fill="#FBECEB"/>
<path d="M185.37 251.841L183.04 265.791L167.28 350.921H164.73L176.2 265.791L177.89 251.841H185.37Z" fill="#DBDBDB"/>
<path d="M177.89 251.841H185.37L183.04 265.791H176.2L177.89 251.841Z" fill="#37474F"/>
<path d="M234.87 350.921H232.33L216.56 265.791L214.24 251.841H221.71L223.4 265.791L234.87 350.921Z" fill="#DBDBDB"/>
<path d="M221.71 251.841L223.4 265.791H216.56L214.24 251.841H221.71Z" fill="#37474F"/>
<path d="M282.15 350.921H279.61L263.85 265.791L261.52 251.841H268.99L270.69 265.791L282.15 350.921Z" fill="#DBDBDB"/>
<path d="M270.69 265.791H263.85L261.52 251.841H268.99L270.69 265.791Z" fill="#37474F"/>
<path d="M278.12 258.401H162.61V249.031L205.85 246.221L220.38 162.401H273.71L278.12 258.401Z" fill="#DBDBDB"/>
<path d="M278.12 258.401H271.82L267.72 162.401H273.71L278.12 258.401Z" fill="#37474F"/>
<path d="M366.07 209.591H289.2V350.821H366.07V209.591Z" fill="#455A64"/>
<path d="M366.07 209.591H289.2V218.801H366.07V209.591Z" fill="#263238"/>
<path d="M399.08 202.171H117.72V209.601H399.08V202.171Z" fill="#455A64"/>
<path d="M134.12 209.591L133.87 218.801L130.63 350.821H124.76V209.591H134.12Z" fill="#455A64"/>
<path d="M124.76 209.591H134.12L133.87 218.801H124.76V209.591Z" fill="#263238"/>
<path d="M392.12 209.591H366.07V350.821H392.12V209.591Z" fill="#37474F"/>
<path d="M392.12 209.591H366.07V218.801H392.12V209.591Z" fill="#263238"/>
<path d="M305.11 189.641H241.62V202.171H305.11V189.641Z" fill="#E44C42"/>
<path d="M251.77 189.641H245.57V202.171H251.77V189.641Z" fill="#37474F"/>
<path d="M256.66 189.641H254.07V202.171H256.66V189.641Z" fill="#37474F"/>
<path d="M297.63 189.641H291.43V202.171H297.63V189.641Z" fill="#37474F"/>
<path d="M281.97 180.291H237.93V189.641H281.97V180.291Z" fill="#455A64"/>
<path d="M300.97 180.291H281.97V189.641H300.97V180.291Z" fill="#455A64"/>
<path d="M281.97 181.261H237.93V188.671H281.97V181.261Z" fill="white"/>
<path d="M240.78 182.791C244.21 182.691 247.64 182.631 251.07 182.591L261.37 182.541L271.67 182.591C275.1 182.591 278.53 182.691 281.97 182.791C278.53 182.877 275.097 182.941 271.67 182.981L261.37 183.041L251.07 182.981C247.637 182.941 244.207 182.877 240.78 182.791Z" fill="#DBDBDB"/>
<path d="M240.78 184.241C244.21 184.151 247.64 184.081 251.07 184.051L261.37 183.991L271.67 184.051C275.1 184.051 278.53 184.151 281.97 184.241C278.53 184.331 275.1 184.401 271.67 184.431L261.37 184.491L251.07 184.431C247.64 184.401 244.21 184.331 240.78 184.241Z" fill="#DBDBDB"/>
<path d="M240.78 185.691C244.21 185.601 247.64 185.531 251.07 185.501L261.37 185.441L271.67 185.501C275.1 185.501 278.53 185.601 281.97 185.691C278.53 185.781 275.1 185.851 271.67 185.881L261.37 185.941L251.07 185.881C247.64 185.851 244.21 185.781 240.78 185.691Z" fill="#DBDBDB"/>
<path d="M240.78 187.151C244.21 187.051 247.64 186.991 251.07 186.951H261.37H271.67C275.1 186.951 278.53 187.051 281.97 187.151C278.53 187.237 275.097 187.301 271.67 187.341L261.37 187.391L251.07 187.341C247.637 187.301 244.207 187.237 240.78 187.151Z" fill="#DBDBDB"/>
<path d="M291.87 170.051H247.8V180.291H291.87V170.051Z" fill="#37474F"/>
<path d="M287.21 170.051H283.1V180.291H287.21V170.051Z" fill="#E44C42"/>
<path d="M280.4 170.051H278.81V180.291H280.4V170.051Z" fill="#E44C42"/>
<path d="M84.84 335.531H25.52V340.981H84.84V335.531Z" fill="#E44C42"/>
<path opacity="0.1" d="M84.84 335.531H25.52V340.981H84.84V335.531Z" fill="black"/>
<path d="M80.36 177.121H29.99V335.531H80.36V177.121Z" fill="#E44C42"/>
<path d="M80.36 177.121H29.99V335.541H80.36V177.121Z" fill="#E44C42"/>
<path opacity="0.1" d="M35.21 331.131C34.9899 331.131 34.7788 331.043 34.6231 330.888C34.4675 330.732 34.38 330.521 34.38 330.301V186.501C34.38 186.281 34.4675 186.07 34.6231 185.914C34.7788 185.758 34.9899 185.671 35.21 185.671C35.4301 185.671 35.6413 185.758 35.7969 185.914C35.9526 186.07 36.04 186.281 36.04 186.501V330.301C36.04 330.41 36.0185 330.518 35.9768 330.618C35.9351 330.719 35.874 330.811 35.7969 330.888C35.7198 330.965 35.6283 331.026 35.5276 331.068C35.4269 331.109 35.319 331.131 35.21 331.131Z" fill="black"/>
<path opacity="0.1" d="M39.65 331.131C39.4299 331.131 39.2188 331.043 39.0631 330.888C38.9075 330.732 38.82 330.521 38.82 330.301V186.501C38.82 186.281 38.9075 186.07 39.0631 185.914C39.2188 185.758 39.4299 185.671 39.65 185.671C39.8701 185.671 40.0813 185.758 40.2369 185.914C40.3926 186.07 40.48 186.281 40.48 186.501V330.301C40.48 330.41 40.4585 330.518 40.4168 330.618C40.3751 330.719 40.314 330.811 40.2369 330.888C40.1598 330.965 40.0683 331.026 39.9676 331.068C39.8669 331.109 39.759 331.131 39.65 331.131Z" fill="black"/>
<path opacity="0.1" d="M44.09 331.131C43.8689 331.131 43.6568 331.044 43.4995 330.888C43.3423 330.733 43.2526 330.522 43.25 330.301V186.501C43.2526 186.28 43.3423 186.069 43.4995 185.913C43.6568 185.758 43.8689 185.671 44.09 185.671C44.3101 185.671 44.5212 185.758 44.6769 185.914C44.8326 186.07 44.92 186.281 44.92 186.501V330.301C44.92 330.41 44.8985 330.518 44.8568 330.618C44.8151 330.719 44.754 330.811 44.6769 330.888C44.5998 330.965 44.5083 331.026 44.4076 331.068C44.3069 331.109 44.199 331.131 44.09 331.131Z" fill="black"/>
<path opacity="0.1" d="M48.52 331.131C48.2999 331.131 48.0888 331.043 47.9331 330.888C47.7774 330.732 47.69 330.521 47.69 330.301V186.501C47.69 186.281 47.7774 186.07 47.9331 185.914C48.0888 185.758 48.2999 185.671 48.52 185.671C48.7411 185.671 48.9532 185.758 49.1105 185.913C49.2677 186.069 49.3574 186.28 49.36 186.501V330.301C49.3574 330.522 49.2677 330.733 49.1105 330.888C48.9532 331.044 48.7411 331.131 48.52 331.131Z" fill="black"/>
<path opacity="0.1" d="M53 331.131C52.7799 331.131 52.5688 331.043 52.4131 330.888C52.2575 330.732 52.17 330.521 52.17 330.301V186.501C52.17 186.281 52.2575 186.07 52.4131 185.914C52.5688 185.758 52.7799 185.671 53 185.671C53.2202 185.671 53.4313 185.758 53.5869 185.914C53.7426 186.07 53.83 186.281 53.83 186.501V330.301C53.83 330.41 53.8086 330.518 53.7669 330.618C53.7252 330.719 53.664 330.811 53.5869 330.888C53.5099 330.965 53.4184 331.026 53.3177 331.068C53.217 331.109 53.109 331.131 53 331.131Z" fill="black"/>
<path opacity="0.1" d="M57.4 331.131C57.1789 331.131 56.9668 331.044 56.8095 330.888C56.6523 330.733 56.5626 330.522 56.56 330.301V186.501C56.5626 186.28 56.6523 186.069 56.8095 185.913C56.9668 185.758 57.1789 185.671 57.4 185.671C57.6201 185.671 57.8312 185.758 57.9869 185.914C58.1426 186.07 58.23 186.281 58.23 186.501V330.301C58.23 330.41 58.2085 330.518 58.1668 330.618C58.1251 330.719 58.064 330.811 57.9869 330.888C57.9098 330.965 57.8183 331.026 57.7176 331.068C57.6169 331.109 57.509 331.131 57.4 331.131Z" fill="black"/>
<path opacity="0.1" d="M61.83 331.131C61.6099 331.131 61.3988 331.043 61.2431 330.888C61.0874 330.732 61 330.521 61 330.301V186.501C61 186.281 61.0874 186.07 61.2431 185.914C61.3988 185.758 61.6099 185.671 61.83 185.671C62.0511 185.671 62.2632 185.758 62.4205 185.913C62.5777 186.069 62.6674 186.28 62.67 186.501V330.301C62.6674 330.522 62.5777 330.733 62.4205 330.888C62.2632 331.044 62.0511 331.131 61.83 331.131Z" fill="black"/>
<path opacity="0.1" d="M66.27 331.131C66.0499 331.131 65.8388 331.043 65.6831 330.888C65.5275 330.732 65.44 330.521 65.44 330.301V186.501C65.44 186.281 65.5275 186.07 65.6831 185.914C65.8388 185.758 66.0499 185.671 66.27 185.671C66.4901 185.671 66.7012 185.758 66.8569 185.914C67.0126 186.07 67.1 186.281 67.1 186.501V330.301C67.1 330.41 67.0785 330.518 67.0368 330.618C66.9951 330.719 66.934 330.811 66.8569 330.888C66.7798 330.965 66.6883 331.026 66.5876 331.068C66.4869 331.109 66.379 331.131 66.27 331.131Z" fill="black"/>
<path opacity="0.1" d="M70.71 331.131C70.4889 331.131 70.2768 331.044 70.1195 330.888C69.9623 330.733 69.8726 330.522 69.87 330.301V186.501C69.8726 186.28 69.9623 186.069 70.1195 185.913C70.2768 185.758 70.4889 185.671 70.71 185.671C70.9301 185.671 71.1413 185.758 71.2969 185.914C71.4526 186.07 71.54 186.281 71.54 186.501V330.301C71.54 330.41 71.5185 330.518 71.4768 330.618C71.4351 330.719 71.374 330.811 71.2969 330.888C71.2198 330.965 71.1283 331.026 71.0276 331.068C70.9269 331.109 70.819 331.131 70.71 331.131Z" fill="black"/>
<path opacity="0.1" d="M75.14 331.131C74.9199 331.131 74.7088 331.043 74.5531 330.888C74.3974 330.732 74.31 330.521 74.31 330.301V186.501C74.31 186.281 74.3974 186.07 74.5531 185.914C74.7088 185.758 74.9199 185.671 75.14 185.671C75.3611 185.671 75.5732 185.758 75.7305 185.913C75.8877 186.069 75.9774 186.28 75.98 186.501V330.301C75.9774 330.522 75.8877 330.733 75.7305 330.888C75.5732 331.044 75.3611 331.131 75.14 331.131Z" fill="black"/>
<path opacity="0.1" d="M80.36 177.121V183.681L29.99 182.191V177.121H80.36Z" fill="black"/>
<path d="M88.4201 340.991H21.9401V350.831H88.4201V340.991Z" fill="#E44C42"/>
<path d="M93.94 177.811C93.94 183.091 90.16 187.681 83.73 187.681C74.21 187.681 73.73 177.861 73.73 177.861H36.73C36.73 177.861 36.21 187.681 26.73 187.681C20.29 187.681 16.52 183.091 16.52 177.811C16.52 173.151 19.83 166.551 29.52 166.551H81C90.64 166.551 93.94 173.151 93.94 177.811Z" fill="#E44C42"/>
<path opacity="0.1" d="M36.66 177.861C36.5905 176.948 36.3277 176.061 35.889 175.258C35.4503 174.455 34.8459 173.755 34.1157 173.204C33.3855 172.652 32.5464 172.262 31.6541 172.06C30.7617 171.858 29.8365 171.848 28.94 172.031C24.64 172.881 22.17 177.791 24.42 180.881C26.13 183.241 29.29 182.421 29.83 180.331C30.58 177.451 27.69 176.011 28.74 174.331C29.79 172.651 32.56 172.871 34.23 174.041C35.4152 175.033 36.2641 176.367 36.66 177.861Z" fill="black"/>
<path opacity="0.1" d="M73.69 177.861C73.7609 176.948 74.0249 176.061 74.4647 175.258C74.9044 174.455 75.5098 173.754 76.2408 173.203C76.9717 172.652 77.8114 172.262 78.7043 172.06C79.5972 171.858 80.5229 171.848 81.42 172.031C85.72 172.881 88.18 177.791 85.94 180.881C84.23 183.241 81.07 182.421 80.53 180.331C79.78 177.451 82.66 176.011 81.62 174.331C80.58 172.651 77.8 172.871 76.13 174.041C74.9436 175.033 74.0917 176.367 73.69 177.861Z" fill="black"/>
<path d="M32.06 117.441C32.06 121.861 26.8 125.941 20.68 125.941C14.56 125.941 9.29004 121.941 9.29004 117.441H32.06Z" fill="#455A64"/>
<path d="M29.89 116.401C28.21 112.461 26.6 108.491 25 104.521C24.19 102.521 23.43 100.521 22.64 98.5208L20.3 92.5208H21L18.65 98.5208C17.87 100.521 17.11 102.521 16.29 104.521C14.69 108.521 13.09 112.461 11.4 116.401C12.8 112.351 14.27 108.331 15.75 104.311C16.48 102.311 17.26 100.311 18.02 98.3107L20.3 92.3107L20.65 91.3907L21 92.3107L23.28 98.3107C24.03 100.311 24.81 102.311 25.54 104.311C27 108.331 28.5 112.351 29.89 116.401Z" fill="#263238"/>
<path d="M32.7 115.901H8.64001V117.441H32.7V115.901Z" fill="#E44C42"/>
<path d="M101.07 131.351C101.07 135.771 95.82 139.841 89.69 139.841C83.56 139.841 78.3 135.891 78.3 131.351H101.07Z" fill="#455A64"/>
<path d="M98.91 130.311C97.22 126.371 95.61 122.401 94.02 118.421C93.2 116.421 92.44 114.421 91.65 112.421L89.31 106.421H90.01L87.67 112.421C86.88 114.421 86.12 116.421 85.31 118.421C83.71 122.421 82.1 126.421 80.41 130.311C81.81 126.261 83.28 122.231 84.77 118.221C85.5 116.221 86.28 114.221 87.03 112.221L89.31 106.221L89.66 105.291L90.01 106.221L92.29 112.221C93.04 114.221 93.82 116.221 94.55 118.221C96 122.231 97.51 126.261 98.91 130.311Z" fill="#263238"/>
<path d="M101.72 129.811H77.66V131.351H101.72V129.811Z" fill="#E44C42"/>
<path d="M89.2299 106.771C87.3199 106.541 86.2299 105.301 84.2299 104.181C81.2299 102.551 69.42 99.8007 64.23 99.1807C62.16 98.9207 57.55 99.8908 54.5 99.2808C51.45 98.6708 47.57 96.0008 45.56 95.4408C40.5 94.0108 28.56 92.0108 25.14 92.3508C22.79 92.5808 21.34 93.3507 19.5 92.7907C16.5 91.9507 17.02 87.5908 20.87 88.3608C24.72 89.1308 25.68 90.1107 30.77 91.0407C32.97 91.4407 46.31 92.5408 50.01 93.2808C51.8638 93.5908 53.6692 94.1421 55.38 94.9208C57.2531 94.863 59.1258 95.0512 60.95 95.4808C64.66 96.2208 77.38 100.351 79.58 100.821C84.58 101.921 85.9 101.391 89.75 102.171C93.6 102.951 92.3099 107.151 89.2299 106.771Z" fill="#455A64"/>
<path d="M79.15 158.211H30.57V166.561H79.15V158.211Z" fill="#455A64"/>
<path d="M76.64 156.151H33.09V158.201H76.64V156.151Z" fill="#37474F"/>
<path d="M57.86 156.161H51.86C50.959 151.647 50.6231 147.038 50.86 142.441C51.15 133.941 53.67 97.2808 53.67 97.2808H56C56 97.2808 58.52 133.941 58.81 142.441C59.0596 147.036 58.7405 151.644 57.86 156.161Z" fill="#455A64"/>
<path d="M56.74 91.7107C56.74 94.8007 55.96 95.6407 55.96 95.6407H53.76C53.76 95.6407 52.99 94.8007 52.99 91.7107C52.99 88.6207 54.44 78.8907 54.44 78.8907H55.27C55.27 78.8907 56.74 88.6307 56.74 91.7107Z" fill="#455A64"/>
<path d="M57.74 96.8807C57.74 97.4503 57.5711 98.0072 57.2546 98.4808C56.9382 98.9544 56.4884 99.3235 55.9621 99.5415C55.4359 99.7595 54.8568 99.8165 54.2981 99.7054C53.7395 99.5943 53.2263 99.32 52.8235 98.9172C52.4207 98.5144 52.1464 98.0013 52.0353 97.4426C51.9242 96.8839 51.9812 96.3049 52.1992 95.7786C52.4172 95.2524 52.7863 94.8026 53.2599 94.4861C53.7336 94.1696 54.2904 94.0007 54.86 94.0007C55.6238 94.0007 56.3563 94.3042 56.8965 94.8443C57.4366 95.3844 57.74 96.1169 57.74 96.8807Z" fill="#37474F"/>
<path d="M54.86 81.1908C56.1303 81.1908 57.16 80.161 57.16 78.8908C57.16 77.6205 56.1303 76.5908 54.86 76.5908C53.5897 76.5908 52.56 77.6205 52.56 78.8908C52.56 80.161 53.5897 81.1908 54.86 81.1908Z" fill="#37474F"/>
<path d="M354.53 134.661C343.39 145.571 341.53 162.451 343.86 177.241C343.93 177.571 344.44 177.481 344.44 177.171C344.44 173.801 344.34 170.461 344.35 167.171C344.41 167.021 344.46 166.871 344.53 166.721C347.532 164.746 350.016 162.077 351.77 158.941C353.63 155.281 354.36 151.151 355.77 147.331C355.91 146.961 355.52 147.071 355.26 147.261C348.48 152.261 346.32 157.641 344.37 164.831C344.411 161.069 344.806 157.319 345.55 153.631C347.02 146.811 349.92 140.051 354.82 134.981C354.841 134.962 354.858 134.939 354.87 134.913C354.882 134.887 354.889 134.86 354.891 134.831C354.892 134.803 354.888 134.775 354.878 134.748C354.869 134.721 354.854 134.697 354.835 134.676C354.816 134.655 354.793 134.638 354.767 134.626C354.742 134.613 354.714 134.606 354.686 134.605C354.657 134.604 354.629 134.608 354.602 134.617C354.576 134.627 354.551 134.642 354.53 134.661Z" fill="#263238"/>
<path d="M356.63 135.931C358.54 135.991 359.75 139.061 361.24 139.931C361.397 140.059 361.579 140.153 361.774 140.206C361.969 140.259 362.174 140.271 362.374 140.239C362.574 140.208 362.765 140.135 362.935 140.025C363.105 139.915 363.25 139.771 363.36 139.601C364.84 137.531 362.81 134.981 360.9 133.601C362.26 134.161 363.4 135.151 364.9 135.431C365.089 135.491 365.288 135.51 365.484 135.487C365.681 135.464 365.87 135.399 366.04 135.296C366.209 135.194 366.355 135.057 366.467 134.894C366.579 134.731 366.655 134.546 366.69 134.351C367.34 131.531 363.81 130.281 361.38 130.221C362.56 129.401 365.93 127.221 364.14 126.091C362.35 124.961 358.37 128.171 357.08 129.221C355.18 130.751 352.92 133.051 352.84 135.461C352.7 138.251 355.15 136.521 356.63 135.931Z" fill="#E44C42"/>
<path opacity="0.1" d="M356.63 135.931C358.54 135.991 359.75 139.061 361.24 139.931C361.397 140.059 361.579 140.153 361.774 140.206C361.969 140.259 362.174 140.271 362.374 140.239C362.574 140.208 362.765 140.135 362.935 140.025C363.105 139.915 363.25 139.771 363.36 139.601C364.84 137.531 362.81 134.981 360.9 133.601C362.26 134.161 363.4 135.151 364.9 135.431C365.089 135.491 365.288 135.51 365.484 135.487C365.681 135.464 365.87 135.399 366.04 135.296C366.209 135.194 366.355 135.057 366.467 134.894C366.579 134.731 366.655 134.546 366.69 134.351C367.34 131.531 363.81 130.281 361.38 130.221C362.56 129.401 365.93 127.221 364.14 126.091C362.35 124.961 358.37 128.171 357.08 129.221C355.18 130.751 352.92 133.051 352.84 135.461C352.7 138.251 355.15 136.521 356.63 135.931Z" fill="black"/>
<path d="M356.07 136.401C358.52 135.291 363.23 136.891 363.63 135.961C364.45 134.071 360.68 132.781 358.63 132.531C360.5 132.021 364.09 131.211 363.98 129.411C363.84 127.211 358.48 129.101 355.76 131.181C352.34 133.811 352.37 136.341 352.93 136.841C353.73 137.541 355.67 136.591 356.07 136.401Z" fill="#E44C42"/>
<path d="M329.15 133.581C340.7 144.061 343.21 160.851 341.43 175.721C341.38 176.061 340.86 175.991 340.85 175.671C340.72 172.311 340.69 168.971 340.56 165.671C340.49 165.521 340.43 165.381 340.37 165.231C337.295 163.371 334.712 160.798 332.84 157.731C330.84 154.141 329.95 150.041 328.38 146.281C328.23 145.911 328.63 146.011 328.89 146.191C335.89 150.921 338.22 156.191 340.44 163.331C340.254 159.575 339.715 155.845 338.83 152.191C337.11 145.421 333.96 138.781 328.83 133.901C328.68 133.701 329 133.391 329.15 133.581Z" fill="#263238"/>
<path d="M327.1 134.931C325.19 135.061 324.1 138.171 322.65 139.121C322.499 139.256 322.321 139.358 322.128 139.419C321.934 139.481 321.73 139.5 321.529 139.476C321.327 139.453 321.133 139.387 320.959 139.282C320.785 139.178 320.636 139.037 320.52 138.871C318.96 136.871 320.89 134.241 322.75 132.741C321.41 133.351 320.31 134.381 318.85 134.741C318.665 134.81 318.467 134.838 318.269 134.824C318.072 134.81 317.88 134.753 317.707 134.658C317.533 134.564 317.382 134.433 317.264 134.274C317.145 134.116 317.062 133.934 317.02 133.741C316.26 130.951 319.74 129.571 322.16 129.411C320.96 128.641 317.51 126.551 319.25 125.411C320.99 124.271 325.1 127.271 326.43 128.271C328.38 129.731 330.72 131.941 330.9 134.341C331.12 137.091 328.6 135.461 327.1 134.931Z" fill="#E44C42"/>
<path opacity="0.1" d="M327.1 134.931C325.19 135.061 324.1 138.171 322.65 139.121C322.499 139.256 322.321 139.358 322.128 139.419C321.934 139.481 321.73 139.5 321.529 139.476C321.327 139.453 321.133 139.387 320.959 139.282C320.785 139.178 320.636 139.037 320.52 138.871C318.96 136.871 320.89 134.241 322.75 132.741C321.41 133.351 320.31 134.381 318.85 134.741C318.665 134.81 318.467 134.838 318.269 134.824C318.072 134.81 317.88 134.753 317.707 134.658C317.533 134.564 317.382 134.433 317.264 134.274C317.145 134.116 317.062 133.934 317.02 133.741C316.26 130.951 319.74 129.571 322.16 129.411C320.96 128.641 317.51 126.551 319.25 125.411C320.99 124.271 325.1 127.271 326.43 128.271C328.38 129.731 330.72 131.941 330.9 134.341C331.12 137.091 328.6 135.461 327.1 134.931Z" fill="black"/>
<path d="M327.68 135.381C325.18 134.381 320.54 136.141 320.1 135.231C319.22 133.371 322.93 131.931 324.95 131.611C323.06 131.171 319.45 130.501 319.49 128.691C319.54 126.491 324.97 128.181 327.77 130.151C331.28 132.641 331.36 135.151 330.77 135.701C330.06 136.421 328.09 135.551 327.68 135.381Z" fill="#E44C42"/>
<path d="M341 161.251C341.784 166.859 342.984 172.401 344.59 177.831C344.613 177.938 344.677 178.032 344.769 178.092C344.861 178.152 344.973 178.173 345.08 178.151C345.187 178.128 345.281 178.064 345.341 177.972C345.401 177.88 345.423 177.768 345.4 177.661C344.64 172.561 343.26 167.541 342.5 162.441C341.669 157.275 341.371 152.038 341.61 146.811C342.1 138.201 344.43 129.051 350.05 122.321C350.17 122.161 349.91 121.931 349.78 122.081C338.54 135.191 340.33 151.261 340.34 152.701C338.75 147.271 337.11 141.051 331.09 135.521C330.83 135.291 330.62 135.401 330.67 135.801C331.74 145.871 334.54 151.121 340.38 156.501C340.5 158.101 340.71 159.691 341 161.251Z" fill="#263238"/>
<path d="M350.11 123.821C352.11 122.921 354.92 125.501 356.92 125.681C357.145 125.728 357.378 125.728 357.604 125.682C357.829 125.635 358.043 125.542 358.231 125.408C358.418 125.275 358.577 125.104 358.695 124.907C358.814 124.709 358.891 124.489 358.92 124.261C359.42 121.371 356.02 119.751 353.32 119.261C355.02 119.161 356.7 119.611 358.32 119.161C358.544 119.129 358.759 119.05 358.951 118.929C359.142 118.807 359.306 118.647 359.43 118.458C359.555 118.269 359.638 118.056 359.675 117.832C359.711 117.608 359.699 117.379 359.64 117.161C358.89 113.911 354.59 114.391 352.05 115.551C352.86 114.111 355.23 110.111 352.83 109.881C350.43 109.651 347.89 114.941 347.08 116.671C345.89 119.221 344.7 122.751 345.82 125.281C347.2 128.201 348.87 125.181 350.11 123.821Z" fill="#E44C42"/>
<path opacity="0.1" d="M350.11 123.821C352.11 122.921 354.92 125.501 356.92 125.681C357.145 125.728 357.378 125.728 357.604 125.682C357.829 125.635 358.043 125.542 358.231 125.408C358.418 125.275 358.577 125.104 358.695 124.907C358.814 124.709 358.891 124.489 358.92 124.261C359.42 121.371 356.02 119.751 353.32 119.261C355.02 119.161 356.7 119.611 358.32 119.161C358.544 119.129 358.759 119.05 358.951 118.929C359.142 118.807 359.306 118.647 359.43 118.458C359.555 118.269 359.638 118.056 359.675 117.832C359.711 117.608 359.699 117.379 359.64 117.161C358.89 113.911 354.59 114.391 352.05 115.551C352.86 114.111 355.23 110.111 352.83 109.881C350.43 109.651 347.89 114.941 347.08 116.671C345.89 119.221 344.7 122.751 345.82 125.281C347.2 128.201 348.87 125.181 350.11 123.821Z" fill="black"/>
<path d="M349.77 124.591C351.77 122.201 357.45 121.501 357.4 120.331C357.29 117.961 352.73 118.511 350.5 119.281C352.18 117.811 355.5 115.171 354.5 113.351C353.25 111.131 348.64 115.801 346.87 119.351C344.65 123.801 345.94 126.411 346.78 126.651C347.91 126.951 349.44 125.031 349.77 124.591Z" fill="#E44C42"/>
<path d="M333.57 164.281L328.57 202.171H358.74C358.12 198.811 352.5 164.241 352.5 164.241L333.57 164.281Z" fill="#E44C42"/>
<path d="M116.82 393.761C119.34 394.571 191.32 393.641 194.03 391.861C195.08 391.201 195.55 380.711 195.76 368.011C195.76 367.881 195.68 321.101 195.68 321.101L148.75 321.581L149.35 368.481C149.35 368.481 122 381.161 119.18 383.431C116.36 385.701 114.29 392.951 116.82 393.761Z" fill="#FFC4C0"/>
<path d="M138.44 373.411C138.63 373.351 138.73 373.301 138.74 373.241L138.44 373.411Z" fill="#E44C42"/>
<path d="M195.62 374.631C195.36 384.181 194.89 391.321 194.03 391.861C191.32 393.641 119.34 394.571 116.82 393.751C114.3 392.931 116.42 385.691 119.18 383.431C120.51 382.341 127.47 378.881 134.37 375.561C124.12 381.391 116.41 389.441 195.62 374.631Z" fill="#263238"/>
<path d="M195.62 374.631C195.36 384.181 194.89 391.321 194.03 391.861C192.96 392.561 180.97 393.141 166.75 393.521L184.09 376.731C187.71 376.091 191.553 375.391 195.62 374.631Z" fill="#37474F"/>
<path d="M210.45 113.771C210.45 113.771 198.29 236.301 196.53 245.581C196.12 247.701 197.22 258.281 197.05 273.061C196.68 305.301 195.83 363.451 195.83 363.451H149.16C149.16 363.451 147.67 262.701 149.92 244.161C152.17 225.621 166.52 113.771 166.52 113.771H210.45Z" fill="#FFC4C0"/>
<path d="M197.06 273.031C196.97 280.641 196.85 289.691 196.73 299.031L166.53 113.701H210.45C210.45 113.701 198.29 236.231 196.53 245.511C196.12 247.691 197.22 258.281 197.06 273.031Z" fill="#263238"/>
<path d="M175.73 398.031C178.31 398.661 250.04 392.631 252.62 390.671C253.62 389.941 253.35 379.431 252.62 366.751C252.62 366.621 247.62 320.101 247.62 320.101L201.49 323.841L206.34 370.511C206.34 370.511 179.91 385.101 177.34 387.561C174.77 390.021 173.16 397.421 175.73 398.031Z" fill="#FFC4C0"/>
<path d="M252.62 390.681C250.04 392.681 178.31 398.681 175.73 398.041C173.15 397.401 174.73 390.041 177.36 387.581C178.86 386.171 188.23 380.741 195.93 376.381C185.84 383.011 166.62 397.381 252.93 371.231C253.4 381.831 253.5 390.031 252.62 390.681Z" fill="#263238"/>
<path d="M205.81 365.301L252.13 361.811C252.13 361.811 240.13 253.811 239.84 246.971C239.46 236.811 235.59 193.861 231.49 159.891C231.49 159.891 235.97 135.401 224.73 113.731H166.48C166.48 113.731 170.38 140.161 177.07 156.921C181.575 158.489 185.927 160.467 190.07 162.831C190.07 162.831 194.87 239.561 195.07 249.001C195.46 267.681 205.81 365.301 205.81 365.301Z" fill="#FFC4C0"/>
<path d="M166.48 113.731C166.48 113.731 148.08 238.931 147.36 250.571C146.64 262.211 147.03 265.361 147.03 265.361C147.03 265.361 172.75 273.361 186.2 273.511C216.13 273.791 244.58 262.511 244.58 262.511C244.58 262.511 232.43 160.171 232.34 159.921C235.489 144.205 233.215 127.887 225.89 113.631L166.48 113.731Z" fill="#37474F"/>
<path d="M169.13 113.731L160.31 191.261L155.66 231.731L154.53 241.851C154.18 245.231 153.75 248.601 153.53 251.981C153.31 257.061 153.33 262.151 153.44 267.241C153.31 262.161 153.27 257.071 153.49 251.991C153.7 248.601 154.11 245.231 154.49 241.851L155.59 231.721L160.11 191.241L169.17 113.741L169.13 113.731Z" fill="#455A64"/>
<path d="M241.26 263.751C239.94 255.851 238.95 247.891 237.88 239.941C236.713 231.007 235.587 222.071 234.5 213.131C232.267 195.251 230.157 177.361 228.17 159.461C229 155.515 229.406 151.492 229.38 147.461C229.285 143.417 228.914 139.384 228.27 135.391C227.585 131.401 226.694 127.449 225.6 123.551C224.66 120.241 223.6 116.961 222.39 113.731C223.63 116.951 224.69 120.231 225.63 123.541C226.734 127.438 227.635 131.39 228.33 135.381C228.991 139.376 229.379 143.412 229.49 147.461C229.533 151.518 229.137 155.568 228.31 159.541L234.66 213.181C235.727 222.134 236.827 231.074 237.96 240.001C239 247.881 240 255.841 241.26 263.751Z" fill="#455A64"/>
<path d="M187.25 113.711L184.09 193.711L182.31 235.711L181.86 246.221C181.72 249.721 181.51 253.221 181.53 256.731C181.53 262.211 181.64 267.731 181.8 273.181C181.63 267.701 181.5 262.181 181.49 256.741C181.49 253.231 181.66 249.741 181.79 246.221L182.2 235.711L183.86 193.711L187.26 113.711H187.25Z" fill="#455A64"/>
<path d="M233.68 266.171L228.54 215.481C226.633 196.814 224.777 178.147 222.97 159.481C223.231 155.484 223.198 151.473 222.87 147.481C222.6 143.481 222.11 139.481 221.55 135.481C220.99 131.481 220.31 127.561 219.55 123.611C218.92 120.291 218.24 116.971 217.49 113.681C218.25 116.971 218.93 120.291 219.57 123.611C220.33 127.551 221.02 131.501 221.57 135.471C222.12 139.441 222.65 143.471 222.94 147.471C223.277 151.462 223.32 155.473 223.07 159.471C224.97 178.137 226.837 196.804 228.67 215.471L233.68 266.171Z" fill="#455A64"/>
<path d="M173.81 113.721L167.66 193.251L164.43 234.501L163.67 244.821C163.54 246.541 163.43 248.261 163.33 249.981L163.21 255.151L162.87 269.711L163.17 255.161L163.28 249.991C163.38 248.271 163.48 246.541 163.6 244.821L164.34 234.501L167.44 193.241L173.83 113.731L173.81 113.721Z" fill="#455A64"/>
<path d="M180.52 113.711L175.68 193.271L173 234.531L172.34 244.851C172.16 248.291 171.83 251.721 171.79 255.171C171.66 260.681 171.67 266.171 171.79 271.701C171.68 266.191 171.65 260.701 171.79 255.181C171.79 251.731 172.13 248.291 172.31 244.851L172.94 234.541L175.45 193.271L180.53 113.721L180.52 113.711Z" fill="#455A64"/>
<path d="M192.68 236.141C192.68 243.091 192.51 250.041 192.61 256.991C192.67 262.464 192.76 267.927 192.88 273.381C192.753 267.921 192.65 262.454 192.57 256.981C192.44 250.031 192.57 243.081 192.57 236.131L192.8 194.441L193.48 113.691L193 194.451L192.68 236.141Z" fill="#455A64"/>
<path d="M225.23 268.471L220.85 217.031C219.237 198.191 217.677 179.344 216.17 160.491C216.206 158.458 216.133 156.425 215.95 154.401C215.803 152.401 215.633 150.371 215.44 148.311C215.06 144.264 214.65 140.211 214.21 136.151C213.41 128.684 212.553 121.211 211.64 113.731C212.56 121.191 213.437 128.664 214.27 136.151C214.72 140.151 215.15 144.251 215.54 148.301C215.74 150.301 215.91 152.361 216.07 154.391C216.26 156.422 216.34 158.461 216.31 160.501C217.91 179.341 219.48 198.181 221.02 217.021L225.23 268.471Z" fill="#455A64"/>
<path d="M214.74 270.761L210.74 192.691L209.74 172.271L209.24 162.071L208.62 151.861L206.28 113.681L208.73 151.861L209.39 162.061L209.91 172.271L211 192.681L214.74 270.761Z" fill="#455A64"/>
<path d="M203.69 272.481H203.68L201.65 193.311L199.85 113.691L201.9 193.311L203.69 272.481Z" fill="#455A64"/>
<path d="M233.08 136.581L164.08 129.861C165.52 120.001 166.44 113.731 166.44 113.731L225.85 113.661C229.555 120.83 232.001 128.583 233.08 136.581Z" fill="#263238"/>
<path d="M176.66 8.46071C170.14 15.3407 168.54 26.3907 168.54 26.3907C168.54 26.3907 162.42 37.6507 164.39 43.5907C164.919 45.283 165.849 46.8223 167.101 48.0777C168.352 49.3331 169.889 50.2673 171.58 50.8007L170.85 47.4907C170.85 47.4907 173.13 51.7007 180.39 53.2207C187.65 54.7407 197.12 52.2207 202.01 49.5707C204.908 48.0134 207.354 45.7329 209.11 42.9507L207.39 47.8307C209.73 47.5019 211.953 46.5994 213.86 45.2036C215.767 43.8078 217.299 41.9621 218.32 39.8307C222.26 32.2607 210.01 21.9107 208.93 19.6307C207.85 17.3507 206.07 0.630706 188.49 4.01071C188.49 4.03071 181.15 3.73071 176.66 8.46071Z" fill="#37474F"/>
<path d="M169 50.4407C166.949 49.3811 165.271 47.7203 164.19 45.6807C163.031 43.6953 162.569 41.3788 162.88 39.1007C163.455 36.4194 164.505 33.8625 165.98 31.5507C167.35 29.0907 168.91 26.7207 170.23 24.2407C170.3 24.1007 170.1 24.0007 170 24.1107C168.488 26.002 167.086 27.9786 165.8 30.0307C164.471 31.8957 163.363 33.9093 162.5 36.0307C161.7 37.9979 161.482 40.1531 161.87 42.2407C162.266 43.9349 163.069 45.507 164.21 46.8207C165.609 48.2717 167.193 49.5325 168.92 50.5707C169 50.6607 169.13 50.4907 169 50.4407Z" fill="#37474F"/>
<path d="M219.59 32.1107C217.29 25.9907 211.59 22.2307 208.07 16.9407C206.16 14.0707 204.65 10.8807 202.19 8.42071C202.12 8.35071 202.01 8.42071 202.07 8.53071C204.07 10.7607 205.31 13.4707 206.8 16.0407C208.377 18.597 210.206 20.9889 212.26 23.1807C215.89 27.2807 220.26 32.1207 219.6 38.0207C219.3 40.7407 217.79 43.7907 215.03 44.7207C214.93 44.7207 215.03 44.9307 215.1 44.8807C216.183 44.4106 217.16 43.7248 217.969 42.8652C218.779 42.0056 219.405 40.9902 219.81 39.8807C220.676 37.349 220.598 34.5893 219.59 32.1107Z" fill="#37474F"/>
<path d="M219.89 33.7707C220.015 31.4239 219.407 29.0963 218.15 27.1107C216.781 25.2381 215.025 23.6827 213 22.5507C210.75 21.1407 208.38 19.8107 206.91 17.5507C206.84 17.4607 206.71 17.5507 206.77 17.6607C209.11 21.4407 213.39 23.1107 216.35 26.2607C219.74 29.8607 219.9 35.2607 217.77 39.5407C216.392 42.1523 214.414 44.4003 212 46.1007C212 46.1007 212 46.1907 212.05 46.1607C216.16 43.2907 219.71 39.0307 219.89 33.7707Z" fill="#37474F"/>
<path d="M188 58.8707C186.31 66.1507 166 132.221 161.81 133.211C149.56 136.131 134.81 138.351 134.92 128.271C135.07 112.451 162.92 73.5507 177.52 57.3407C186.32 47.6407 189.69 51.6807 188 58.8707Z" fill="#37474F"/>
<path d="M188 58.8707C186.31 66.1507 166 132.221 161.81 133.211C149.56 136.141 134.81 138.351 134.92 128.271C134.92 127.861 134.92 127.431 134.99 126.981L181.42 53.6207C187.3 49.0307 189.42 52.8807 188 58.8707Z" fill="#263238"/>
<path d="M164.82 122.131C164.82 122.131 209.38 124.061 228.24 121.831C228.24 121.831 215.33 67.3807 201.6 52.7007C195.35 46.0207 189.23 47.0407 184.06 51.3407C182.76 52.4107 166.75 72.7407 165.39 79.8207C164.19 86.0907 169.28 93.0407 169.28 93.0407L164.82 122.131Z" fill="#EBEBEB"/>
<path d="M188.69 65.0907L186.33 60.1407L182.32 63.9307L183.02 67.5807L186.89 68.0007L188.69 65.0907Z" fill="#E44C42"/>
<path d="M186.89 68.0007L185.92 105.021L177.59 121.391L172.14 105.031L183.02 67.5807L186.89 68.0007Z" fill="#E44C42"/>
<path d="M184.56 50.6907C184.56 50.6907 177.71 69.1407 177.29 73.8807C176.87 78.6207 179 96.4107 179 96.4107C179 96.4107 189.44 77.6207 192 71.5507C195.93 62.1107 196.8 48.9807 196.8 48.9807C196.8 48.9807 200.71 50.7607 205.85 57.8007C212.73 67.2307 225.14 102.641 229.21 122.371L182.28 129.111L177.62 121.391L174.42 129.111L163.29 122.901L169.29 93.0407C169.29 93.0407 163.47 86.7007 165.91 78.1307C168.56 68.8107 184.56 50.6907 184.56 50.6907Z" fill="#37474F"/>
<path d="M179 96.3707L172.14 75.0307L176.84 69.3807L172.76 68.5807C172.76 68.5807 183.44 52.0107 184.55 50.6907C184.29 51.3907 177.7 69.2107 177.29 73.8607C176.88 78.5107 178.88 95.4107 179 96.3707Z" fill="#263238"/>
<path d="M193.88 70.8107L195.88 77.9607L179 96.4007C179.31 95.8307 189.47 77.5307 192 71.5507C195.93 62.1207 196.8 48.9807 196.8 48.9807L198.63 69.4807L193.88 70.8107Z" fill="#263238"/>
<path d="M168.9 71.2707C169.9 69.8207 170.85 68.3707 171.9 66.9707C172.07 66.4707 172.27 65.9707 172.46 65.5007C172.744 64.7877 173.078 64.096 173.46 63.4307C173.251 64.1714 172.99 64.8965 172.68 65.6007L172.42 66.2007C173.42 64.8107 174.5 63.4407 175.59 62.1107C173.59 65.3207 171.4 68.4107 169.38 71.5907C168.342 73.1532 167.403 74.7798 166.57 76.4607C166.305 77.0023 166.075 77.5601 165.88 78.1307C165.033 81.038 165.177 84.1445 166.29 86.9607C166.734 88.4847 167.303 89.9697 167.99 91.4007C168.05 91.5007 167.88 91.5907 167.83 91.4907C167.077 90.0341 166.409 88.5349 165.83 87.0007C165.253 85.5065 164.915 83.9304 164.83 82.3307C164.57 77.7907 166.87 74.7707 168.9 71.2707Z" fill="#263238"/>
<path d="M179 96.4108C179 98.5008 179 100.581 178.94 102.671C178.88 104.761 178.76 106.841 178.67 108.921C178.58 111.001 178.41 113.081 178.23 115.161C178.05 117.241 177.86 119.321 177.59 121.391C177.59 119.301 177.59 117.211 177.65 115.131C177.71 113.051 177.83 110.961 177.92 108.881C178.01 106.801 178.18 104.721 178.36 102.641C178.54 100.561 178.73 98.4808 179 96.4108Z" fill="#263238"/>
<path d="M183.17 101.821C183.171 102.167 183.048 102.502 182.822 102.765C182.596 103.028 182.283 103.2 181.94 103.251C181.542 103.293 181.144 103.178 180.83 102.931C180.673 102.792 180.547 102.621 180.461 102.429C180.374 102.238 180.33 102.031 180.33 101.821C180.33 101.612 180.375 101.406 180.461 101.217C180.547 101.027 180.673 100.858 180.83 100.721C180.984 100.596 181.162 100.503 181.353 100.448C181.543 100.393 181.743 100.377 181.94 100.401C182.282 100.449 182.595 100.619 182.821 100.88C183.047 101.141 183.171 101.475 183.17 101.821ZM183.17 101.821C183.17 101.661 183.134 101.504 183.065 101.36C182.996 101.216 182.895 101.09 182.77 100.991C182.656 100.896 182.522 100.829 182.379 100.792C182.235 100.756 182.085 100.752 181.94 100.781C181.693 100.823 181.469 100.951 181.308 101.142C181.146 101.333 181.058 101.575 181.058 101.826C181.058 102.076 181.146 102.318 181.308 102.51C181.469 102.701 181.693 102.829 181.94 102.871C182.085 102.899 182.235 102.895 182.379 102.859C182.522 102.823 182.656 102.755 182.77 102.661C182.896 102.56 182.998 102.432 183.067 102.287C183.136 102.141 183.172 101.982 183.17 101.821Z" fill="#263238"/>
<path d="M182.79 109.551C182.789 109.842 182.7 110.125 182.534 110.364C182.368 110.603 182.133 110.785 181.861 110.887C181.589 110.989 181.292 111.006 181.01 110.934C180.728 110.863 180.474 110.708 180.283 110.489C180.092 110.27 179.972 109.997 179.939 109.708C179.906 109.419 179.963 109.127 180.1 108.871C180.238 108.615 180.451 108.407 180.71 108.275C180.969 108.142 181.262 108.092 181.55 108.131C181.895 108.175 182.211 108.344 182.44 108.605C182.668 108.867 182.793 109.203 182.79 109.551ZM182.79 109.551C182.785 109.391 182.747 109.233 182.678 109.089C182.609 108.944 182.511 108.816 182.39 108.711C182.149 108.533 181.847 108.458 181.55 108.501C181.307 108.548 181.087 108.679 180.93 108.871C180.772 109.062 180.686 109.303 180.686 109.551C180.686 109.799 180.772 110.039 180.93 110.231C181.087 110.422 181.307 110.553 181.55 110.601C181.697 110.625 181.847 110.619 181.992 110.583C182.136 110.547 182.272 110.481 182.39 110.391C182.511 110.286 182.609 110.157 182.678 110.013C182.747 109.868 182.785 109.711 182.79 109.551Z" fill="#263238"/>
<path d="M182.4 117.281C182.417 117.478 182.392 117.676 182.328 117.864C182.264 118.051 182.162 118.223 182.028 118.368C181.894 118.514 181.731 118.63 181.55 118.71C181.369 118.789 181.173 118.83 180.975 118.83C180.777 118.83 180.581 118.789 180.4 118.71C180.219 118.63 180.056 118.514 179.922 118.368C179.789 118.223 179.686 118.051 179.622 117.864C179.558 117.676 179.534 117.478 179.55 117.281C179.551 117.07 179.596 116.862 179.684 116.67C179.772 116.479 179.9 116.308 180.06 116.171C180.27 115.998 180.524 115.888 180.794 115.855C181.064 115.821 181.337 115.865 181.583 115.982C181.828 116.098 182.036 116.282 182.18 116.512C182.325 116.742 182.401 117.009 182.4 117.281ZM182.4 117.281C182.397 117.12 182.359 116.962 182.291 116.818C182.222 116.673 182.123 116.544 182 116.441C181.882 116.35 181.746 116.285 181.602 116.249C181.457 116.213 181.307 116.206 181.16 116.231C180.911 116.265 180.684 116.393 180.525 116.587C180.365 116.782 180.285 117.03 180.3 117.281C180.298 117.529 180.383 117.77 180.54 117.961C180.697 118.153 180.917 118.284 181.16 118.331C181.308 118.353 181.458 118.345 181.603 118.307C181.747 118.269 181.882 118.202 182 118.111C182.122 118.009 182.22 117.882 182.289 117.739C182.358 117.596 182.396 117.44 182.4 117.281Z" fill="#263238"/>
<path d="M198.18 103.481L214.72 100.481L215.24 102.621L198.57 105.641L198.18 103.481Z" fill="#263238"/>
<path d="M198.9 60.7607C203.16 66.6007 225.9 89.9007 226.52 92.2007C226.88 93.4807 221.94 98.1207 222.02 99.0507C222.36 102.821 233.91 132.151 237.17 129.601C241.46 126.251 256.59 99.2007 254.02 88.7907C251.45 78.3807 207.3 52.5507 200.57 50.3807C193.84 48.2107 194.71 55.0307 198.9 60.7607Z" fill="#37474F"/>
<path d="M216.39 80.3307C213.165 77.8838 210.368 74.9205 208.11 71.5607C209.732 72.7502 211.239 74.0894 212.61 75.5607C214.013 77.0323 215.278 78.6289 216.39 80.3307Z" fill="#263238"/>
<path d="M208.93 74.7207C209.622 74.8501 210.294 75.0686 210.93 75.3707C211.576 75.6563 212.181 76.0262 212.73 76.4707C212.037 76.3459 211.364 76.1272 210.73 75.8207C210.084 75.5351 209.479 75.1652 208.93 74.7207Z" fill="#263238"/>
<path d="M224.07 137.461C220.99 135.381 225.21 132.951 225.21 132.951C225.21 132.951 218.3 134.951 215.96 131.621C213.62 128.291 218.9 125.621 219.27 125.401C218.91 125.501 212.51 127.211 210.5 123.581C208.49 119.951 214.11 117.931 214.5 117.811C214.13 117.811 209.14 117.591 208.25 114.491C206.71 109.151 221.02 108.491 224.12 105.271C224.12 105.271 222.73 98.2707 222.62 98.0407C222.62 98.0407 224.19 100.781 226.69 101.491C229.79 102.371 232.57 102.871 233.83 104.361C234.416 105.009 234.778 105.829 234.861 106.699C234.944 107.57 234.744 108.443 234.29 109.191C234.29 109.191 238.2 108.741 239.87 111.551C240.72 112.991 239.17 115.641 239.17 115.641C239.17 115.641 242.32 115.411 243.65 118.001C244.71 120.061 242.99 122.401 242.99 122.401C242.99 122.401 246.12 123.581 246.52 126.041C247.32 131.031 230.66 141.911 224.07 137.461Z" fill="#FFC4C0"/>
<path d="M242.75 122.811C242.81 122.811 242.87 122.811 242.83 122.881C238.062 128.019 231.843 131.584 225 133.101C224.78 133.151 224.62 132.811 224.85 132.721C231.264 130.299 237.293 126.961 242.75 122.811Z" fill="#263238"/>
<path d="M239.26 115.621C239.32 115.571 239.4 115.621 239.34 115.731C234.57 120.781 227.04 125.081 219.19 125.671C218.92 125.671 218.66 125.441 218.97 125.391C224.16 124.611 234.19 119.591 239.26 115.621Z" fill="#263238"/>
<path d="M213.92 117.661C221.43 116.811 227.92 113.661 234.09 109.421C234.17 109.361 234.24 109.481 234.18 109.541C231.72 112.431 227.5 114.711 224.06 116.201C220.915 117.647 217.447 118.243 214 117.931C213.81 117.911 213.76 117.681 213.92 117.661Z" fill="#263238"/>
<path d="M243.17 122.381C244.28 120.991 245.03 119.241 244.28 117.491C243.93 116.698 243.305 116.059 242.52 115.691C241.578 115.371 240.574 115.279 239.59 115.421C240.14 114.648 240.443 113.728 240.459 112.78C240.475 111.832 240.203 110.901 239.68 110.111C239.098 109.436 238.285 109.005 237.4 108.901C236.379 108.807 235.35 108.847 234.34 109.021C234.761 108.529 235.061 107.945 235.215 107.317C235.37 106.688 235.375 106.032 235.23 105.401C235.04 104.718 234.691 104.09 234.211 103.569C233.731 103.047 233.135 102.647 232.47 102.401C230.904 101.834 229.276 101.455 227.62 101.271C226.772 101.144 225.943 100.916 225.15 100.591C224.297 100.194 223.58 99.5542 223.09 98.7507C222.99 98.6107 223.01 98.7508 223.09 98.8808C223.417 99.4229 223.825 99.9118 224.3 100.331C224.811 100.762 225.376 101.125 225.98 101.411C227.48 101.981 229.021 102.436 230.59 102.771C231.942 103.133 233.14 103.926 234 105.031C234.385 105.622 234.601 106.307 234.624 107.013C234.647 107.718 234.476 108.416 234.13 109.031C234.119 109.048 234.114 109.068 234.115 109.088C234.115 109.108 234.122 109.127 234.134 109.143C234.146 109.159 234.162 109.172 234.181 109.178C234.2 109.185 234.221 109.186 234.24 109.181C235.156 109.166 236.071 109.27 236.96 109.491C237.704 109.682 238.371 110.097 238.87 110.681C239.34 111.407 239.609 112.245 239.652 113.108C239.694 113.972 239.507 114.832 239.11 115.601C240.102 115.679 241.073 115.93 241.98 116.341C242.561 116.706 243.028 117.225 243.33 117.841C243.677 118.551 243.819 119.344 243.739 120.13C243.66 120.916 243.362 121.665 242.88 122.291C242.875 122.31 242.875 122.331 242.88 122.351C242.88 122.351 242.88 122.351 242.88 122.401C242.88 122.401 243.88 122.811 243.93 122.821C243.98 122.831 243.93 122.821 243.93 122.761C243.685 122.617 243.431 122.491 243.17 122.381Z" fill="#263238"/>
<path d="M190.58 134.791L176.76 80.8107L135.99 91.9807L149.81 145.971L190.58 134.791Z" fill="#E44C42"/>
<path d="M137.43 110.301L133.17 93.6607L135.99 91.9807L140.61 110.001L137.43 110.301Z" fill="#E44C42"/>
<g opacity="0.2">
<path d="M190.58 134.791L176.76 80.8107L135.99 91.9807L149.81 145.971L190.58 134.791Z" fill="black"/>
<path d="M137.43 110.301L133.17 93.6607L135.99 91.9807L140.61 110.001L137.43 110.301Z" fill="black"/>
</g>
<path d="M190.56 134.701L176.71 80.5907L136.8 88.9607L150.66 143.071L190.56 134.701Z" fill="#E44C42"/>
<path opacity="0.1" d="M190.56 134.701L176.71 80.5907L136.8 88.9607L150.66 143.071L190.56 134.701Z" fill="black"/>
<path d="M180.56 94.6807C181.16 95.2784 181.562 96.0455 181.712 96.8788C181.862 97.712 181.753 98.5713 181.4 99.3407C182.814 99.6151 184.088 100.376 185 101.491C186.51 103.491 184 106.791 184 106.791C185.409 107.375 186.608 108.372 187.44 109.651C188.69 111.751 186.61 115.401 186.61 115.401C187.59 116.663 188.083 118.235 188 119.831C187.64 124.091 181.83 127.081 178.16 129.011C174.49 130.941 162.26 133.011 159.97 133.631L147.34 110.171C147.34 110.171 161.34 96.8007 165.97 95.1707C169.9 93.7307 178.18 92.4807 180.56 94.6807Z" fill="#FFC4C0"/>
<path d="M149 108.621C144.81 111.911 132.28 124.621 135.34 130.911C138.4 137.201 148.59 136.461 162.71 133.031L149 108.621Z" fill="#FFC4C0"/>
<path d="M181 99.0307C176.48 99.5207 172.36 101.331 168.14 102.891C168.05 102.891 168.14 103.071 168.2 103.031C172.37 101.431 176.81 100.681 181.05 99.2407C181.073 99.2302 181.092 99.2118 181.103 99.1889C181.114 99.166 181.117 99.14 181.111 99.1152C181.105 99.0904 181.091 99.0684 181.071 99.053C181.051 99.0376 181.025 99.0297 181 99.0307Z" fill="#263238"/>
<path d="M183.74 106.521C182.727 106.725 181.745 107.061 180.82 107.521C179.813 107.954 178.813 108.404 177.82 108.871C175.82 109.797 173.853 110.777 171.92 111.811C171.84 111.811 171.92 112.001 171.98 111.961C173.98 111.034 175.98 110.147 177.98 109.301C178.98 108.881 179.98 108.461 180.98 108.061C181.967 107.737 182.915 107.308 183.81 106.781C183.828 106.761 183.841 106.737 183.847 106.711C183.853 106.685 183.853 106.658 183.846 106.632C183.839 106.606 183.826 106.582 183.807 106.563C183.789 106.543 183.766 106.529 183.74 106.521Z" fill="#263238"/>
<path d="M186.5 115.441C185.586 115.646 184.714 116.004 183.92 116.501L181.22 117.821C179.41 118.681 177.61 119.551 175.78 120.351C175.69 120.351 175.78 120.541 175.83 120.501C177.7 119.691 179.58 118.911 181.44 118.091L184.17 116.861C185.035 116.56 185.84 116.11 186.55 115.531C186.55 115.531 186.54 115.441 186.5 115.441Z" fill="#263238"/>
<path d="M149 108.621C144.81 111.911 132.28 124.621 135.34 130.911C138.4 137.201 148.34 138.221 161.86 136.011L149 108.621Z" fill="#37474F"/>
<path d="M148.49 108.841C147.011 109.956 145.614 111.176 144.31 112.491L143.31 113.491L142.89 113.771C142.29 114.181 141.7 114.601 141.14 115.061C140.062 115.982 139.047 116.975 138.1 118.031C138.03 118.111 138.15 118.211 138.22 118.141C139.231 117.154 140.318 116.248 141.47 115.431L141.93 115.111C141.38 115.741 140.84 116.371 140.35 117.031C139.02 118.773 137.801 120.596 136.7 122.491C136.696 122.507 136.697 122.525 136.703 122.54C136.71 122.556 136.721 122.569 136.736 122.578C136.75 122.587 136.767 122.591 136.784 122.59C136.801 122.589 136.817 122.582 136.83 122.571C138.83 119.211 147.83 110.201 148.76 109.121C149.69 108.041 149.23 108.221 148.49 108.841Z" fill="#263238"/>
<path d="M196.33 52.6208C196 53.7808 191.18 59.8208 185.83 59.3108C184.09 59.1508 183.44 50.9008 183.44 50.9008L183.32 50.1908L181.58 40.1908L193.58 33.3008L195.3 32.4008C195.3 32.4008 195.6 35.1608 195.93 38.6008C195.93 38.7608 195.93 38.9208 195.93 39.0908C195.93 39.2608 195.98 39.4708 196 39.6508C196.05 40.1708 196.11 40.6508 196.15 41.2208C196.19 41.7908 196.22 42.0008 196.25 42.4208C196.28 42.8408 196.3 43.2508 196.33 43.6708C196.543 46.6503 196.543 49.6412 196.33 52.6208Z" fill="#FFC4C0"/>
<path d="M195.9 38.6108C194.768 41.3376 193.057 43.7857 190.885 45.7853C188.712 47.7849 186.131 49.2881 183.32 50.1908L181.58 40.1908L193.58 33.3008L195.3 32.4008C195.3 32.4008 195.57 35.1708 195.9 38.6108Z" fill="#263238"/>
<path d="M170.6 20.6807C166.22 37.9307 176.06 42.4907 179.77 43.4307C183.15 44.2907 194.77 46.7607 200.89 30.0607C207.01 13.3607 200.39 5.88073 192.77 3.52073C185.15 1.16073 175 3.44073 170.6 20.6807Z" fill="#FFC4C0"/>
<path d="M176 18.3407C176.42 18.3407 176.81 18.3407 177.23 18.3407C177.663 18.4073 178.105 18.33 178.49 18.1207C178.597 18.032 178.672 17.9103 178.703 17.7747C178.733 17.639 178.718 17.497 178.66 17.3707C178.508 17.1372 178.296 16.9489 178.046 16.8257C177.796 16.7026 177.518 16.649 177.24 16.6707C176.667 16.6217 176.096 16.7894 175.64 17.1407C175.532 17.2234 175.452 17.337 175.41 17.4664C175.368 17.5957 175.367 17.7347 175.406 17.8649C175.445 17.9951 175.523 18.1104 175.629 18.1954C175.735 18.2804 175.864 18.331 176 18.3407Z" fill="#37474F"/>
<path d="M188 21.1607C187.61 21.0207 187.27 20.8307 186.89 20.6507C186.485 20.514 186.135 20.2512 185.89 19.9007C185.834 19.7732 185.822 19.6309 185.854 19.4956C185.887 19.3602 185.963 19.2392 186.07 19.1507C186.311 19.0102 186.586 18.9362 186.865 18.9362C187.144 18.9362 187.419 19.0102 187.66 19.1507C188.192 19.3624 188.63 19.7605 188.89 20.2707C188.942 20.3952 188.956 20.5324 188.93 20.6649C188.904 20.7973 188.839 20.919 188.744 21.0144C188.648 21.1099 188.527 21.1748 188.394 21.2008C188.262 21.2269 188.125 21.2129 188 21.1607Z" fill="#37474F"/>
<path d="M184.29 24.7907C184.29 24.7407 184.36 24.8707 184.35 24.9107C184.01 26.0807 183.82 27.4707 184.79 28.1307C184.79 28.1307 184.79 28.2107 184.79 28.1907C183.51 27.6807 183.78 25.8307 184.29 24.7907Z" fill="#263238"/>
<path d="M185.65 23.8307C187.57 24.1707 186.75 27.9907 184.97 27.6807C183.19 27.3707 184 23.5407 185.65 23.8307Z" fill="#263238"/>
<path d="M186.36 24.1907C186.64 24.4807 186.89 24.9307 187.28 25.0607C187.67 25.1907 188.18 24.8807 188.56 24.5607C188.56 24.5607 188.63 24.5607 188.62 24.6207C188.47 25.3507 188.03 26.0407 187.22 25.9807C186.41 25.9207 186.11 25.1707 186.08 24.3907C186.08 24.2507 186.24 24.0307 186.36 24.1907Z" fill="#263238"/>
<path d="M177.43 22.9407C177.43 22.9407 177.33 22.9407 177.32 23.0307C177.11 24.2207 176.68 25.5607 175.52 25.7307C175.52 25.7307 175.52 25.7907 175.52 25.8007C176.87 25.8807 177.43 24.1107 177.43 22.9407Z" fill="#263238"/>
<path d="M176.63 21.4908C174.75 20.9508 173.81 24.7408 175.55 25.2408C177.29 25.7408 178.2 21.9408 176.63 21.4908Z" fill="#263238"/>
<path d="M175.78 21.5407C175.43 21.6707 175.04 21.9607 174.68 21.8907C174.32 21.8207 174.05 21.3307 173.88 20.8907C173.88 20.8907 173.82 20.8907 173.81 20.8907C173.61 21.6107 173.67 22.4307 174.33 22.7407C174.99 23.0507 175.55 22.5107 175.9 21.8307C176 21.7207 175.92 21.4907 175.78 21.5407Z" fill="#263238"/>
<path d="M181.43 34.4808C181.126 34.7846 180.727 34.9752 180.3 35.0208C179.859 34.932 179.441 34.7551 179.07 34.5008C179.07 34.5008 178.99 34.5008 179.01 34.5008C179.142 34.7647 179.343 34.9883 179.591 35.1484C179.839 35.3085 180.125 35.3991 180.42 35.4108C180.673 35.3856 180.913 35.2869 181.11 35.127C181.307 34.967 181.453 34.7528 181.53 34.5108C181.56 34.4908 181.47 34.4508 181.43 34.4808Z" fill="#263238"/>
<path d="M177.29 31.5207C177.604 32.3003 178.11 32.9882 178.76 33.5207C179.111 33.8139 179.544 33.9919 180 34.0307C181 34.0307 181.28 33.2007 181.33 32.4207C181.345 32.002 181.315 31.5829 181.24 31.1707C179.994 31.7026 178.611 31.8252 177.29 31.5207Z" fill="#263238"/>
<path d="M178.76 33.5508C179.115 33.8331 179.547 34.0006 180 34.0308C181 34.0308 181.28 33.2008 181.33 32.4208C180.837 32.2972 180.317 32.3412 179.852 32.5457C179.386 32.7503 179.002 33.1039 178.76 33.5508Z" fill="#FF9CBD"/>
<path d="M177.45 29.0907C177.45 29.0907 176.81 30.8007 176.62 31.6407C176.62 31.7107 176.8 31.8007 177.08 31.8807C177.766 32.1724 178.518 32.2697 179.256 32.1621C179.993 32.0546 180.686 31.7461 181.26 31.2707C181.33 31.2007 181.26 31.0907 181.16 31.1207C179.935 31.6113 178.583 31.6885 177.31 31.3407C177.31 31.1007 178.51 28.4507 178.38 28.4107C177.716 28.3247 177.044 28.3247 176.38 28.4107C177.62 24.8107 179.38 21.4107 180.6 17.8407C180.6 17.7107 180.46 17.6307 180.4 17.7407C178.365 21.2951 176.69 25.0436 175.4 28.9307C175.23 29.4007 177.09 29.1607 177.45 29.0907Z" fill="#263238"/>
<g opacity="0.2">
<path d="M183.77 15.8607C183.056 15.7506 182.351 15.5902 181.66 15.3807C180.96 15.1507 180.32 14.7807 179.66 14.5507C178.317 14.1992 176.922 14.0875 175.54 14.2207C175.42 14.2207 175.42 14.3007 175.54 14.3007C176.999 14.2194 178.458 14.4513 179.82 14.9807C180.901 15.5021 182.048 15.8722 183.23 16.0807C185.95 16.4807 188.57 17.2207 190.6 19.1707C188.703 17.4126 186.325 16.2601 183.77 15.8607Z" fill="black"/>
<path d="M184.38 14.0307C183.704 13.9265 183.036 13.7762 182.38 13.5807C181.72 13.3507 181.12 13.0007 180.45 12.7907C179.176 12.4523 177.852 12.344 176.54 12.4707C176.43 12.4707 176.43 12.5507 176.54 12.5507C177.924 12.471 179.308 12.6892 180.6 13.1907C181.626 13.6709 182.713 14.0074 183.83 14.1907C186.415 14.4074 188.865 15.4365 190.83 17.1307C189.035 15.481 186.79 14.4019 184.38 14.0307Z" fill="black"/>
</g>
<path d="M199.17 30.3207C196.34 29.8707 197.07 23.8907 197.07 23.8907C197.07 23.8907 191.42 22.5807 191.48 14.0107C191.061 16.4839 191.377 19.0259 192.39 21.3207C192.39 21.3207 182.68 17.9107 180.45 8.58073C180.45 8.58073 181.12 13.2307 182.33 15.1107C182.33 15.1107 178.43 12.9507 177.19 9.11073C177.19 9.11073 174.31 13.5107 172.66 14.5207C172.66 14.5207 174.94 -8.87927 195.44 3.73073C195.44 3.73073 204.61 5.83073 206.35 14.7307C208.09 23.6307 199.17 30.3207 199.17 30.3207Z" fill="#37474F"/>
<path d="M199.31 36.4308C199.03 36.4849 198.745 36.5117 198.46 36.5108C198.179 36.5146 197.899 36.4741 197.63 36.3908C197.263 36.3074 196.921 36.1396 196.63 35.9008C196.408 35.7226 196.213 35.5139 196.05 35.2808C195.817 34.9481 195.647 34.5752 195.55 34.1808L197.28 29.6508C197.28 29.6508 202.02 24.8008 204.28 26.5708C206.54 28.3408 202.41 35.8208 199.31 36.4308Z" fill="#FFC4C0"/>
<path d="M203.07 28.6807V28.7607C200.89 29.2607 199.5 30.9807 198.42 32.8307C198.576 32.6473 198.77 32.5 198.988 32.399C199.207 32.2979 199.444 32.2456 199.685 32.2456C199.926 32.2456 200.163 32.2979 200.382 32.399C200.6 32.5 200.794 32.6473 200.95 32.8307C201 32.8307 200.95 32.9507 200.88 32.9307C200.538 32.756 200.15 32.692 199.771 32.7476C199.391 32.8031 199.038 32.9755 198.76 33.2407C198.297 33.684 197.885 34.177 197.53 34.7107C197.41 34.8707 197.09 34.7107 197.2 34.5207C197.6 31.8107 200.22 28.4907 203.07 28.6807Z" fill="#263238"/>
<path d="M199.18 35.6507C199.142 35.7521 199.085 35.8449 199.011 35.924C198.937 36.003 198.848 36.0667 198.75 36.1113C198.651 36.1559 198.545 36.1806 198.437 36.1839C198.329 36.1873 198.221 36.1692 198.12 36.1307C197.917 36.0523 197.753 35.8972 197.663 35.6989C197.573 35.5007 197.565 35.2751 197.64 35.0707C197.678 34.9694 197.735 34.8765 197.809 34.7975C197.883 34.7184 197.972 34.6547 198.07 34.6101C198.169 34.5655 198.275 34.5408 198.383 34.5375C198.491 34.5342 198.599 34.5523 198.7 34.5907C198.802 34.6274 198.896 34.6842 198.976 34.7577C199.056 34.8313 199.12 34.9202 199.164 35.0191C199.209 35.1179 199.234 35.2248 199.236 35.3333C199.239 35.4418 199.22 35.5498 199.18 35.6507Z" fill="white"/>
<path d="M201.06 34.7007C201.004 34.8438 200.894 34.9589 200.753 35.0208C200.613 35.0827 200.453 35.0862 200.31 35.0307C200.237 35.0052 200.171 34.9653 200.114 34.9133C200.057 34.8613 200.012 34.7984 199.98 34.7283C199.948 34.6582 199.931 34.5824 199.929 34.5055C199.927 34.4286 199.941 34.3521 199.97 34.2807C199.997 34.209 200.037 34.1432 200.089 34.0872C200.142 34.0312 200.204 33.9861 200.274 33.9545C200.344 33.9229 200.419 33.9054 200.496 33.903C200.572 33.9007 200.648 33.9135 200.72 33.9407C200.864 33.9988 200.98 34.1104 201.043 34.2521C201.107 34.3939 201.113 34.5547 201.06 34.7007Z" fill="white"/>
<path d="M183.3 50.4008L186.66 58.4008L196.51 48.0308L199.4 51.2608C199.4 51.2608 189.86 67.6008 189.78 66.8708L186.36 60.0308L181.64 64.9408L181.84 52.8008L183.3 50.4008Z" fill="#EBEBEB"/>
<path d="M181.4 58.9007C181.5 56.9007 181.54 54.9007 181.74 52.9007C181.74 52.8307 181.85 52.7907 181.87 52.9007C182.3 54.8207 181.87 62.4807 181.87 64.3107C182.06 64.1007 186.24 59.9907 186.29 60.0507C187.02 61.1407 189.54 66.1607 189.71 66.6207C191.22 64.0207 197.01 54.6207 198.8 52.1207C198.809 52.1035 198.825 52.0907 198.844 52.085C198.863 52.0794 198.883 52.0814 198.9 52.0907C198.917 52.1 198.93 52.1158 198.936 52.1345C198.941 52.1533 198.939 52.1735 198.93 52.1907C197.6 54.9207 189.93 67.6407 189.82 67.6007C188.501 65.2379 187.306 62.8079 186.24 60.3207C185.53 61.2107 181.32 65.8407 181.3 65.5407C181.217 63.3272 181.25 61.1108 181.4 58.9007Z" fill="#263238"/>
</g>
<defs>
<clipPath id="clip0_1412_8060">
<rect width="400" height="399" fill="white"/>
</clipPath>
</defs>
</svg>
