<svg width="212" height="152" viewBox="0 0 212 152" fill="none" xmlns="http://www.w3.org/2000/svg">
<path d="M163.168 97.2616C190.137 97.2616 212 75.4888 212 48.6308C212 21.7727 190.137 0 163.168 0C136.198 0 114.335 21.7727 114.335 48.6308C114.335 75.4888 136.198 97.2616 163.168 97.2616Z" fill="#730034"/>
<path d="M33.3628 152C51.7885 152 66.7255 137.125 66.7255 118.775C66.7255 100.425 51.7885 85.5498 33.3628 85.5498C14.937 85.5498 0 100.425 0 118.775C0 137.125 14.937 152 33.3628 152Z" fill="#F9F5F7"/>
<path d="M133.388 39.5636V74.4049H123.482V39.5636C123.482 26.2988 113.366 15.5106 100.931 15.5106C88.4966 15.5106 78.3803 26.2988 78.3803 39.5636V74.4049H68.4747V39.5636C68.4747 20.5689 83.038 5.12122 100.931 5.12122C118.824 5.12122 133.388 20.5689 133.388 39.5636Z" fill="#C8C4C4"/>
<path d="M68.4747 48.6308L78.3803 49.0296V74.4469H68.4747V48.6308Z" fill="#A6A6A6"/>
<path d="M133.388 51.2753V74.4468H123.482V50.8555L133.388 51.2753Z" fill="#A6A6A6"/>
<path d="M146.075 54.5915H55.7872V136.154H146.075V54.5915Z" fill="#FFC727"/>
<path opacity="0.1" d="M146.075 54.5915H100.931V136.154H146.075V54.5915Z" fill="black"/>
<path d="M104.746 98.3531L108.54 116.214H92.4799L96.2736 98.3531C94.786 97.4394 93.6384 96.0674 93.0049 94.4453C92.3714 92.8232 92.2867 91.0396 92.7635 89.3651C93.2403 87.6907 94.2526 86.2169 95.6468 85.1674C97.041 84.1179 98.741 83.55 100.489 83.55C102.236 83.55 103.936 84.1179 105.331 85.1674C106.725 86.2169 107.737 87.6907 108.214 89.3651C108.691 91.0396 108.606 92.8232 107.972 94.4453C107.339 96.0674 106.191 97.4394 104.704 98.3531H104.746Z" fill="#263238"/>
</svg>
