<svg width="212" height="160" viewBox="0 0 212 160" fill="none" xmlns="http://www.w3.org/2000/svg">
<path d="M163.168 105.262C190.137 105.262 212 83.4888 212 56.6308C212 29.7727 190.137 8 163.168 8C136.198 8 114.335 29.7727 114.335 56.6308C114.335 83.4888 136.198 105.262 163.168 105.262Z" fill="#E44C42"/>
<path d="M33.3628 160C51.7885 160 66.7255 145.125 66.7255 126.775C66.7255 108.425 51.7885 93.5498 33.3628 93.5498C14.937 93.5498 0 108.425 0 126.775C0 145.125 14.937 160 33.3628 160Z" fill="#FBECEB"/>
<path d="M133.388 30.4424V45.2836C129.519 45.2836 127.351 45.2836 123.482 45.2836V30.4424C123.482 17.1776 113.366 10.3894 100.931 10.3894C88.4966 10.3894 78.3803 21.1776 78.3803 34.4424V69.2836H68.4748V34.4424C68.4748 15.4476 83.038 0 100.931 0C118.824 0 133.388 11.4476 133.388 30.4424Z" fill="#C8C4C4"/>
<path d="M68.4748 56.6308L78.3803 57.0296V82.4469H68.4748V56.6308Z" fill="#A6A6A6"/>
<path d="M146.075 62.5915H55.7873V144.154H146.075V62.5915Z" fill="#FFC727"/>
<path opacity="0.1" d="M146.075 62.5915H100.931V144.154H146.075V62.5915Z" fill="black"/>
<path d="M104.746 106.353L108.54 124.214H92.4799L96.2735 106.353C94.786 105.439 93.6384 104.067 93.0049 102.445C92.3714 100.823 92.2866 99.0396 92.7634 97.3651C93.2402 95.6907 94.2525 94.2169 95.6467 93.1674C97.041 92.1179 98.741 91.55 100.489 91.55C102.236 91.55 103.936 92.1179 105.33 93.1674C106.725 94.2169 107.737 95.6907 108.214 97.3651C108.691 99.0396 108.606 100.823 107.972 102.445C107.339 104.067 106.191 105.439 104.704 106.353H104.746Z" fill="#263238"/>
</svg>
