<svg width="18" height="18" viewBox="0 0 18 18" fill="none" xmlns="http://www.w3.org/2000/svg">
<path d="M14.25 5.25C13.425 5.25 12.75 5.925 12.75 6.75V8.25C12.75 9.075 13.425 9.75 14.25 9.75H15.75V11.25H12.75V12.75H15.75C16.575 12.75 17.25 12.075 17.25 11.25V9.75C17.25 8.925 16.575 8.25 15.75 8.25H14.25V6.75H17.25V5.25H14.25ZM6.75 5.25V12.75H9.75C10.575 12.75 11.25 12.075 11.25 11.25V6.75C11.25 5.925 10.575 5.25 9.75 5.25H6.75ZM8.25 6.75H9.75V11.25H8.25V6.75ZM2.25 5.25C1.425 5.25 0.75 5.925 0.75 6.75V12.75H2.25V9.75H3.75V12.75H5.25V6.75C5.25 5.925 4.575 5.25 3.75 5.25H2.25ZM2.25 6.75H3.75V8.25H2.25V6.75Z" fill="#160706"/>
</svg>
