<svg width="55" height="48" viewBox="0 0 55 48" fill="none" xmlns="http://www.w3.org/2000/svg">
<g clip-path="url(#clip0_146_4577)">
<path fill-rule="evenodd" clip-rule="evenodd" d="M24.1328 3.0377C24.1328 1.36002 25.4834 -3.5916e-06 27.1494 -3.5916e-06C28.8154 -3.5916e-06 30.166 1.36002 30.166 3.0377C30.166 4.16208 29.5593 5.14378 28.6577 5.66901V6.10623C34.6274 6.35401 38.4609 8.05358 40.4818 9.67664C40.9754 9.32184 41.5797 9.11311 42.2324 9.11311C43.8984 9.11311 45.249 10.4731 45.249 12.1508C45.249 12.6472 45.1307 13.1158 44.921 13.5296L51.0805 30.377H52.5748C53.528 30.377 54.2988 31.1532 54.2988 32.1131C54.2988 35.9467 48.8975 39.0557 42.2324 39.0557C35.5672 39.0557 30.166 35.9467 30.166 32.1131C30.166 31.1532 30.9367 30.377 31.89 30.377L33.3842 30.377L39.5434 13.5291C39.4075 13.2607 39.31 12.9693 39.2583 12.6623C37.299 12.4618 34.049 12.1987 28.6577 12.1566L28.6577 41.0705C33.7743 41.4917 37.7075 44.0239 37.7075 47.0844C37.7075 47.4872 37.5486 47.8735 37.2657 48.1584C36.9828 48.4432 36.5992 48.6032 36.1992 48.6032H18.0996C17.6996 48.6032 17.3159 48.4432 17.0331 48.1584C16.7502 47.8735 16.5913 47.4872 16.5913 47.0844C16.5913 44.0239 20.5245 41.4917 25.6411 41.0705L25.6411 12.1566C20.2498 12.1987 16.9997 12.4618 15.0404 12.6623C14.9888 12.969 14.8915 13.26 14.7558 13.5281L20.9145 30.377H22.4088C23.3605 30.377 24.1328 31.1532 24.1328 32.1131C24.1328 35.9467 18.7301 39.0557 12.0664 39.0557C5.40273 39.0557 0 35.9467 0 32.1131C0 31.1532 0.772249 30.377 1.72399 30.377H3.21677L9.37763 13.5294C9.168 13.1157 9.04979 12.6472 9.04979 12.1508C9.04979 10.4731 10.4004 9.11311 12.0664 9.11311C12.7191 9.11311 13.3234 9.32184 13.817 9.67664C15.8378 8.05358 19.6713 6.35401 25.6411 6.10623V5.66901C24.7394 5.14377 24.1328 4.16208 24.1328 3.0377ZM17.7018 30.377H6.4296L11.983 15.1874C12.0107 15.1881 12.0385 15.1885 12.0664 15.1885C12.0942 15.1885 12.122 15.1881 12.1496 15.1874L17.7018 30.377ZM42.2324 15.1885C42.2045 15.1885 42.1768 15.1881 42.1492 15.1874L36.597 30.377H47.8678L42.3156 15.1874C42.2879 15.1881 42.2602 15.1885 42.2324 15.1885Z" fill="#FBECEB"/>
</g>
<defs>
<clipPath id="clip0_146_4577">
<rect width="54.2988" height="48.7902" fill="white"/>
</clipPath>
</defs>
</svg>
