<svg width="18" height="18" viewBox="0 0 18 18" fill="none" xmlns="http://www.w3.org/2000/svg">
<path d="M13 2H5C4.73478 2 4.48043 2.09218 4.29289 2.25627C4.10536 2.42036 4 2.6429 4 2.87496V15.0937C3.99984 15.2671 4.05858 15.4367 4.16877 15.5808C4.27895 15.725 4.43561 15.8372 4.61884 15.9033C4.80208 15.9694 5.00363 15.9864 5.19791 15.9521C5.39219 15.9178 5.57043 15.8337 5.71 15.7106L8.98 12.8582L12.295 15.7456C12.4351 15.8675 12.6134 15.9503 12.8073 15.9836C13.0012 16.0169 13.202 15.9992 13.3844 15.9328C13.5668 15.8663 13.7227 15.754 13.8322 15.6102C13.9418 15.4663 14.0002 15.2972 14 15.1243V2.87496C14 2.6429 13.8946 2.42036 13.7071 2.25627C13.5196 2.09218 13.2652 2 13 2Z" fill="#160706"/>
</svg>
