<svg width="18" height="18" viewBox="0 0 18 18" fill="none" xmlns="http://www.w3.org/2000/svg">
<path d="M13 16C12.736 16.0002 12.4825 15.909 12.295 15.7462L9.00012 12.8587L5.7302 15.7113C5.59187 15.8406 5.41192 15.9302 5.21415 15.9682C5.01638 16.0061 4.8101 15.9906 4.6226 15.9238C4.4351 15.8569 4.27522 15.7418 4.16409 15.5937C4.05296 15.4456 3.99582 15.2715 4.00024 15.0944V2.875C4.00024 2.64294 4.10559 2.42038 4.29312 2.25628C4.48066 2.09219 4.735 2 5.00021 2H13C13.2652 2 13.5196 2.09219 13.7071 2.25628C13.8946 2.42038 14 2.64294 14 2.875V15.125C14 15.3571 13.8946 15.5796 13.7071 15.7437C13.5196 15.9078 13.2652 16 13 16ZM13 15.125V2.875H5.00021V15.0944L9.00012 11.625L13 15.125Z" fill="#160706"/>
</svg>
