<svg width="18" height="18" viewBox="0 0 18 18" fill="none" xmlns="http://www.w3.org/2000/svg">
<path d="M5 2.60001H14V3.37501H5V2.60001Z" fill="#160706"/>
<path d="M13.5835 4.625H5.61087C5.50457 4.62342 5.39968 4.59924 5.30251 4.55392C5.20535 4.5086 5.11794 4.44309 5.04554 4.36132C4.97314 4.27955 4.91726 4.18323 4.88126 4.07817C4.84527 3.9731 4.82991 3.86147 4.8361 3.75C4.83559 3.52817 4.91531 3.31441 5.05914 3.15197C5.20297 2.98953 5.40018 2.89053 5.61087 2.875H13.5835C13.6939 2.875 13.7999 2.82891 13.878 2.74686C13.9561 2.66481 14 2.55353 14 2.4375C14 2.32147 13.9561 2.21019 13.878 2.12814C13.7999 2.04609 13.6939 2 13.5835 2H5.61087C5.17916 2.01588 4.7702 2.20724 4.47024 2.53372C4.17027 2.86021 4.00276 3.29629 4.00302 3.75C3.99899 3.8214 3.99899 3.89298 4.00302 3.96437C3.99901 3.99925 3.99901 4.0345 4.00302 4.06938V14.25C4.00276 14.7037 4.17027 15.1398 4.47024 15.4663C4.7702 15.7928 5.17916 15.9841 5.61087 16H13.5835C13.6939 16 13.7999 15.9539 13.878 15.8719C13.9561 15.7898 14 15.6785 14 15.5625V5.09312C14.0002 4.9741 13.9573 4.85945 13.8799 4.77248C13.8026 4.68552 13.6965 4.63279 13.5835 4.625Z" fill="#160706"/>
</svg>
