<svg width="21" height="20" viewBox="0 0 21 20" fill="none" xmlns="http://www.w3.org/2000/svg">
<path d="M6.05554 2.88892H16.0555V3.75003H6.05554V2.88892Z" fill="url(#paint0_linear_756_1436)"/>
<path d="M15.5927 5.13883H6.73431C6.6162 5.13708 6.49965 5.11021 6.3917 5.05986C6.28374 5.0095 6.18661 4.93671 6.10617 4.84586C6.02572 4.75501 5.96363 4.64798 5.92364 4.53125C5.88364 4.41451 5.86658 4.29047 5.87346 4.16661C5.87289 3.92013 5.96147 3.68262 6.12128 3.50213C6.2811 3.32164 6.50022 3.21164 6.73431 3.19439H15.5927C15.7155 3.19439 15.8332 3.14318 15.92 3.05201C16.0068 2.96085 16.0556 2.8372 16.0556 2.70828C16.0556 2.57935 16.0068 2.45571 15.92 2.36455C15.8332 2.27338 15.7155 2.22217 15.5927 2.22217H6.73431C6.25464 2.23981 5.80023 2.45244 5.46694 2.8152C5.13365 3.17795 4.94752 3.66249 4.94782 4.16661C4.94334 4.24594 4.94334 4.32548 4.94782 4.40481C4.94336 4.44355 4.94336 4.48273 4.94782 4.52147V15.8333C4.94752 16.3374 5.13365 16.8219 5.46694 17.1847C5.80023 17.5475 6.25464 17.7601 6.73431 17.7777H15.5927C15.7155 17.7777 15.8332 17.7265 15.92 17.6353C16.0068 17.5442 16.0556 17.4205 16.0556 17.2916V5.65897C16.0558 5.52672 16.0081 5.39933 15.9222 5.30271C15.8362 5.20608 15.7184 5.14749 15.5927 5.13883Z" fill="url(#paint1_linear_756_1436)"/>
<defs>
<linearGradient id="paint0_linear_756_1436" x1="6.05554" y1="2.68189" x2="6.2749" y2="4.8227" gradientUnits="userSpaceOnUse">
<stop offset="0.0520833" stop-color="#F68982"/>
<stop offset="0.807292" stop-color="#E44C42"/>
</linearGradient>
<linearGradient id="paint1_linear_756_1436" x1="4.94446" y1="-1.51767" x2="22.189" y2="8.83403" gradientUnits="userSpaceOnUse">
<stop offset="0.0520833" stop-color="#F68982"/>
<stop offset="0.807292" stop-color="#E44C42"/>
</linearGradient>
</defs>
</svg>
