<svg width="18" height="18" viewBox="0 0 18 18" fill="none" xmlns="http://www.w3.org/2000/svg">
<path d="M5.60477 12.8513H15C14.9978 13.6988 14.9843 14.3318 14.9153 14.8313C14.8335 15.426 14.6843 15.741 14.4555 15.966C14.226 16.1903 13.905 16.3365 13.2975 16.416C12.672 16.4985 11.844 16.5 10.656 16.5H7.34477C6.15677 16.5 5.32877 16.4985 4.70327 16.4168C4.09577 16.3365 3.77477 16.1903 3.54527 15.966C3.31652 15.741 3.16727 15.426 3.08552 14.8313C3.05477 14.6063 3.03452 14.3535 3.02252 14.0663C3.12554 13.7855 3.29518 13.5339 3.51687 13.3331C3.73856 13.1323 4.00568 12.9883 4.29527 12.9135C4.51277 12.8565 4.79552 12.8513 5.60477 12.8513Z" fill="#160706"/>
<path fill-rule="evenodd" clip-rule="evenodd" d="M3.54525 2.034C3.77475 1.80975 4.09575 1.6635 4.70325 1.584C5.32875 1.5015 6.15675 1.5 7.34475 1.5H10.6552C11.8432 1.5 12.6713 1.5015 13.2968 1.584C13.9043 1.6635 14.2253 1.80975 14.4548 2.034C14.6835 2.259 14.8327 2.574 14.9145 3.16875C14.9985 3.7815 15 4.593 15 5.757V11.6355H5.5095C4.83225 11.6347 4.37025 11.6347 3.97425 11.739C3.62635 11.8302 3.29678 11.9806 3 12.1838V5.75625C3 4.593 3.0015 3.7815 3.0855 3.16875C3.16725 2.574 3.3165 2.259 3.54525 2.034ZM8.16218 9.41773C8.07182 9.39803 7.98585 9.35306 7.9156 9.2828L6.35354 7.72074C6.15828 7.52548 6.15828 7.2089 6.35354 7.01363C6.5488 6.81837 6.86538 6.81837 7.06065 7.01363L8.31559 8.26858L11.4687 5.11547C11.664 4.92021 11.9805 4.92021 12.1758 5.11547C12.3711 5.31073 12.3711 5.62732 12.1758 5.82258L8.69427 9.30412C8.55042 9.44797 8.34071 9.48584 8.16218 9.41773Z" fill="#160706"/>
</svg>
