<svg width="18" height="18" viewBox="0 0 18 18" fill="none" xmlns="http://www.w3.org/2000/svg">
<path d="M4 2.60001H13V3.37501H4V2.60001Z" fill="#160706"/>
<path d="M12.2531 11.8688L13.0748 11.0538C13.3249 10.807 13.6621 10.6686 14.0134 10.6686C14.3648 10.6686 14.702 10.807 14.9521 11.0538C15.074 11.1754 15.1707 11.3199 15.2367 11.479C15.3027 11.638 15.3366 11.8085 15.3366 11.9807C15.3366 12.1529 15.3027 12.3234 15.2367 12.4825C15.1707 12.6415 15.074 12.786 14.9521 12.9077L13.3855 14.4609C13.1354 14.7077 12.7982 14.8461 12.4469 14.8461C12.0955 14.8461 11.7583 14.7077 11.5082 14.4609C11.3491 14.3028 11.234 14.1059 11.1742 13.8897C11.1413 13.9168 11.1111 13.947 11.084 13.9799L10.6531 14.4074C10.7496 14.6083 10.8795 14.7912 11.0373 14.9486C11.4125 15.3198 11.919 15.528 12.4469 15.528C12.9747 15.528 13.4812 15.3198 13.8565 14.9486L15.4264 13.382C15.6113 13.1985 15.7581 12.9802 15.8582 12.7397C15.9584 12.4992 16.0099 12.2412 16.0099 11.9807C16.0099 11.7202 15.9584 11.4623 15.8582 11.2218C15.7581 10.9813 15.6113 10.763 15.4264 10.5795C15.0512 10.2082 14.5446 10 14.0168 10C13.4889 10 12.9824 10.2082 12.6072 10.5795L11.388 11.7887L11.555 11.7887C11.7902 11.7845 12.025 11.8115 12.2531 11.8688Z" fill="#160706"/>
<path d="M8.57546 17.3803C8.95068 17.7515 9.45721 17.9598 9.98505 17.9598C10.5129 17.9598 11.0194 17.7515 11.3947 17.3803L12.6139 16.1711L12.4502 16.1711C12.2132 16.1712 11.9774 16.1397 11.7487 16.0776L10.927 16.8926C10.677 17.1394 10.3397 17.2778 9.9884 17.2778C9.63704 17.2778 9.29983 17.1394 9.04978 16.8926C8.92787 16.771 8.83116 16.6265 8.76517 16.4675C8.69918 16.3084 8.66522 16.1379 8.66522 15.9657C8.66522 15.7935 8.69918 15.623 8.76517 15.4639C8.83116 15.3049 8.92787 15.1604 9.04978 15.0388L10.6164 13.4855C10.8664 13.2387 11.2036 13.1003 11.555 13.1003C11.9063 13.1003 12.2435 13.2387 12.4936 13.4855C12.6527 13.6436 12.7679 13.8405 12.8276 14.0567C12.8611 14.034 12.8924 14.0083 12.9212 13.9799L13.3521 13.5523C13.2556 13.3515 13.1257 13.1685 12.9679 13.0112C12.5927 12.64 12.0862 12.4317 11.5583 12.4317C11.0305 12.4317 10.524 12.64 10.1487 13.0112L8.58214 14.5644C8.39762 14.7482 8.25121 14.9665 8.1513 15.207C8.0514 15.4475 7.99997 15.7053 7.99997 15.9657C7.99997 16.2261 8.0514 16.4839 8.1513 16.7244C8.25121 16.9648 8.39762 17.1832 8.58214 17.3669L8.57546 17.3803Z" fill="#160706"/>
<path d="M4.61087 4.625H12.5835C12.6965 4.63279 12.8026 4.68552 12.8799 4.77248C12.9573 4.85945 13.0002 4.9741 13 5.09312V9.60685C12.6988 9.7346 12.4216 9.91909 12.1847 10.1535L9.93096 12.3887H9.9488C9.87148 12.4494 9.79687 12.5153 9.72628 12.5851L8.15969 14.1384L8.15877 14.1393C7.91827 14.3787 7.72743 14.6634 7.59721 14.9768C7.467 15.2902 7.39996 15.6263 7.39996 15.9657C7.39996 15.9771 7.40004 15.9886 7.40019 16H4.61087C4.17916 15.9841 3.7702 15.7928 3.47024 15.4663C3.17027 15.1398 3.00276 14.7037 3.00302 14.25V4.06938C2.99901 4.0345 2.99901 3.99925 3.00302 3.96437C2.99899 3.89298 2.99899 3.8214 3.00302 3.75C3.00276 3.29629 3.17027 2.86021 3.47024 2.53372C3.7702 2.20724 4.17916 2.01588 4.61087 2H12.5835C12.6939 2 12.7999 2.04609 12.878 2.12814C12.9561 2.21019 13 2.32147 13 2.4375C13 2.55353 12.9561 2.66481 12.878 2.74686C12.7999 2.82891 12.6939 2.875 12.5835 2.875H4.61087C4.40018 2.89053 4.20297 2.98953 4.05914 3.15197C3.91531 3.31441 3.83559 3.52817 3.8361 3.75C3.82991 3.86147 3.84527 3.9731 3.88126 4.07817C3.91726 4.18323 3.97314 4.27955 4.04554 4.36132C4.11794 4.44309 4.20535 4.5086 4.30251 4.55392C4.39968 4.59924 4.50457 4.62342 4.61087 4.625Z" fill="#160706"/>
<path d="M8.66566 16H8.00026C8.00006 15.9886 7.99996 15.9771 7.99996 15.9657C7.99996 15.7053 8.05139 15.4475 8.1513 15.207C8.2512 14.9665 8.39761 14.7482 8.58213 14.5644L10.1487 13.0112C10.5239 12.64 11.0305 12.4317 11.5583 12.4317C12.0862 12.4317 12.5927 12.64 12.9679 13.0112C12.9787 13.022 12.9894 13.0329 13 13.044V13.9017L12.9211 13.9799C12.8924 14.0083 12.8611 14.034 12.8276 14.0567C12.7991 13.9536 12.758 13.8548 12.7055 13.7626L12.7037 13.7593C12.655 13.6744 12.5967 13.5951 12.5298 13.523C12.518 13.5103 12.5059 13.4978 12.4936 13.4855C12.2491 13.2442 11.9214 13.1066 11.5786 13.1005L11.555 13.1003C11.3927 13.1003 11.2335 13.1298 11.0845 13.1859C10.9108 13.2512 10.7509 13.3527 10.6164 13.4855L9.04977 15.0388C8.92787 15.1604 8.83115 15.3049 8.76516 15.4639C8.69917 15.623 8.66521 15.7935 8.66521 15.9657C8.66521 15.9771 8.66536 15.9886 8.66566 16Z" fill="#160706"/>
<path d="M10.9749 16H9.26604C9.26549 15.9886 9.26521 15.9771 9.26521 15.9657C9.26521 15.8724 9.28361 15.78 9.31936 15.6938C9.35501 15.6079 9.40777 15.5293 9.47355 15.4635L10.1675 14.7755C10.2862 14.9953 10.4364 15.1967 10.6136 15.3734L10.6153 15.3751C10.7844 15.5424 10.9741 15.6843 11.1784 15.7982L10.9749 16Z" fill="#160706"/>
<path d="M13 10.2771C12.8582 10.3605 12.7261 10.4618 12.6072 10.5795L11.388 11.7887H11.555C11.7642 11.785 11.9731 11.8059 12.1772 11.8509C12.2026 11.8565 12.2279 11.8625 12.2531 11.8688L13 11.128V10.2771Z" fill="#160706"/>
<path d="M13 14.7262V15.4502C12.8217 15.5014 12.6356 15.528 12.4468 15.528C11.919 15.528 11.4125 15.3198 11.0373 14.9486C10.8795 14.7912 10.7496 14.6083 10.6531 14.4074L11.084 13.9799C11.1111 13.947 11.1413 13.9168 11.1742 13.8897C11.1974 13.9737 11.229 14.0549 11.2683 14.1319C11.2815 14.1578 11.2956 14.1832 11.3105 14.2081C11.3585 14.2885 11.4154 14.3636 11.4801 14.4321C11.4893 14.4418 11.4987 14.4514 11.5082 14.4609C11.7527 14.7022 12.0804 14.8398 12.4232 14.8459L12.4468 14.8461C12.5693 14.8461 12.69 14.8293 12.8059 14.797C12.8724 14.7784 12.9373 14.7548 13 14.7262Z" fill="#160706"/>
<path d="M13 11.9731L12.816 12.1556C12.8788 12.1902 12.9401 12.2274 13 12.2672V11.9731Z" fill="#160706"/>
<path d="M12.2493 14.2166L12.2501 14.2193C12.1306 14.1862 12.0203 14.1231 11.9304 14.0346C11.8457 13.9502 11.7844 13.8451 11.7525 13.7298L11.7518 13.7271C11.8713 13.7603 11.9815 13.8234 12.0714 13.9119C12.1561 13.9963 12.2174 14.1013 12.2493 14.2166Z" fill="#160706"/>
</svg>
