<svg width="18" height="18" viewBox="0 0 18 18" fill="none" xmlns="http://www.w3.org/2000/svg">
<path d="M5.60477 12.8513H15C14.9978 13.6988 14.9843 14.3318 14.9153 14.8313C14.8335 15.426 14.6843 15.741 14.4555 15.966C14.226 16.1903 13.905 16.3365 13.2975 16.416C12.672 16.4985 11.844 16.5 10.656 16.5H7.34477C6.15677 16.5 5.32877 16.4985 4.70327 16.4168C4.09577 16.3365 3.77477 16.1903 3.54527 15.966C3.31652 15.741 3.16727 15.426 3.08552 14.8313C3.05477 14.6063 3.03452 14.3535 3.02252 14.0663C3.12554 13.7855 3.29518 13.5339 3.51687 13.3331C3.73856 13.1323 4.00568 12.9883 4.29527 12.9135C4.51277 12.8565 4.79552 12.8513 5.60477 12.8513Z" fill="#160706"/>
<path fill-rule="evenodd" clip-rule="evenodd" d="M4.70325 1.584C4.09575 1.6635 3.77475 1.80975 3.54525 2.034C3.3165 2.259 3.16725 2.574 3.0855 3.16875C3.0015 3.7815 3 4.593 3 5.75625V12.1838C3.29678 11.9806 3.62635 11.8302 3.97425 11.739C4.37025 11.6347 4.83225 11.6347 5.5095 11.6355H15V5.757C15 4.593 14.9985 3.7815 14.9145 3.16875C14.8327 2.574 14.6835 2.259 14.4548 2.034C14.2253 1.80975 13.9043 1.6635 13.2968 1.584C12.6713 1.5015 11.8432 1.5 10.6552 1.5H7.34475C6.15675 1.5 5.32875 1.5015 4.70325 1.584ZM11.5 6C11.7761 6 12 6.22386 12 6.5C12 6.77614 11.7761 7 11.5 7H9.5V9C9.5 9.27614 9.27614 9.5 9 9.5C8.72386 9.5 8.5 9.27614 8.5 9V7H6.5C6.22386 7 6 6.77614 6 6.5C6 6.22386 6.22386 6 6.5 6H8.5V4C8.5 3.72386 8.72386 3.5 9 3.5C9.27614 3.5 9.5 3.72386 9.5 4V6H11.5Z" fill="#160706"/>
</svg>
