<svg width="18" height="18" viewBox="0 0 18 18" fill="none" xmlns="http://www.w3.org/2000/svg">
<path d="M16 4.99995C16 4.46952 15.7893 3.96081 15.4142 3.58574C15.0391 3.21067 14.5304 2.99995 14 2.99995H13.5V2.51402C13.5 2.24495 13.2931 2.01402 13.0241 2.00058C12.9565 1.99732 12.8889 2.00782 12.8255 2.03145C12.762 2.05508 12.7041 2.09133 12.6551 2.13802C12.6061 2.18471 12.5671 2.24087 12.5404 2.30308C12.5138 2.36529 12.5 2.43227 12.5 2.49995V2.99995H5.5V2.51402C5.5 2.24495 5.29313 2.01402 5.02406 2.00058C4.95646 1.99732 4.8889 2.00782 4.82547 2.03145C4.76204 2.05508 4.70407 2.09133 4.65508 2.13802C4.60608 2.18471 4.56707 2.24087 4.54041 2.30308C4.51375 2.36529 4.50001 2.43227 4.5 2.49995V2.99995H4C3.46957 2.99995 2.96086 3.21067 2.58579 3.58574C2.21071 3.96081 2 4.46952 2 4.99995V5.37495C2 5.40811 2.01317 5.4399 2.03661 5.46334C2.06005 5.48678 2.09185 5.49995 2.125 5.49995H15.875C15.9082 5.49995 15.9399 5.48678 15.9634 5.46334C15.9868 5.4399 16 5.40811 16 5.37495V4.99995ZM2 14C2 14.5304 2.21071 15.0391 2.58579 15.4142C2.96086 15.7892 3.46957 16 4 16H14C14.5304 16 15.0391 15.7892 15.4142 15.4142C15.7893 15.0391 16 14.5304 16 14V6.5937C16 6.56884 15.9901 6.54499 15.9725 6.52741C15.955 6.50983 15.9311 6.49995 15.9062 6.49995H2.09375C2.06889 6.49995 2.04504 6.50983 2.02746 6.52741C2.00988 6.54499 2 6.56884 2 6.5937V14ZM12.75 7.49995C12.8983 7.49995 13.0433 7.54394 13.1667 7.62635C13.29 7.70876 13.3861 7.8259 13.4429 7.96294C13.4997 8.09999 13.5145 8.25079 13.4856 8.39627C13.4567 8.54176 13.3852 8.6754 13.2803 8.78028C13.1754 8.88517 13.0418 8.9566 12.8963 8.98554C12.7508 9.01448 12.6 8.99963 12.463 8.94286C12.3259 8.8861 12.2088 8.78997 12.1264 8.66663C12.044 8.54329 12 8.39829 12 8.24995C12 8.05104 12.079 7.86028 12.2197 7.71962C12.3603 7.57897 12.5511 7.49995 12.75 7.49995ZM12.75 9.99995C12.8983 9.99995 13.0433 10.0439 13.1667 10.1264C13.29 10.2088 13.3861 10.3259 13.4429 10.4629C13.4997 10.6 13.5145 10.7508 13.4856 10.8963C13.4567 11.0418 13.3852 11.1754 13.2803 11.2803C13.1754 11.3852 13.0418 11.4566 12.8963 11.4855C12.7508 11.5145 12.6 11.4996 12.463 11.4429C12.3259 11.3861 12.2088 11.29 12.1264 11.1666C12.044 11.0433 12 10.8983 12 10.75C12 10.551 12.079 10.3603 12.2197 10.2196C12.3603 10.079 12.5511 9.99995 12.75 9.99995ZM10.25 7.49995C10.3983 7.49995 10.5433 7.54394 10.6667 7.62635C10.79 7.70876 10.8861 7.8259 10.9429 7.96294C10.9997 8.09999 11.0145 8.25079 10.9856 8.39627C10.9567 8.54176 10.8852 8.6754 10.7803 8.78028C10.6754 8.88517 10.5418 8.9566 10.3963 8.98554C10.2508 9.01448 10.1 8.99963 9.96299 8.94286C9.82594 8.8861 9.70881 8.78997 9.6264 8.66663C9.54399 8.54329 9.5 8.39829 9.5 8.24995C9.5 8.05104 9.57902 7.86028 9.71967 7.71962C9.86032 7.57897 10.0511 7.49995 10.25 7.49995ZM10.25 9.99995C10.3983 9.99995 10.5433 10.0439 10.6667 10.1264C10.79 10.2088 10.8861 10.3259 10.9429 10.4629C10.9997 10.6 11.0145 10.7508 10.9856 10.8963C10.9567 11.0418 10.8852 11.1754 10.7803 11.2803C10.6754 11.3852 10.5418 11.4566 10.3963 11.4855C10.2508 11.5145 10.1 11.4996 9.96299 11.4429C9.82594 11.3861 9.70881 11.29 9.6264 11.1666C9.54399 11.0433 9.5 10.8983 9.5 10.75C9.5 10.551 9.57902 10.3603 9.71967 10.2196C9.86032 10.079 10.0511 9.99995 10.25 9.99995ZM10.25 12.5C10.3983 12.5 10.5433 12.5439 10.6667 12.6264C10.79 12.7088 10.8861 12.8259 10.9429 12.9629C10.9997 13.1 11.0145 13.2508 10.9856 13.3963C10.9567 13.5418 10.8852 13.6754 10.7803 13.7803C10.6754 13.8852 10.5418 13.9566 10.3963 13.9855C10.2508 14.0145 10.1 13.9996 9.96299 13.9429C9.82594 13.8861 9.70881 13.79 9.6264 13.6666C9.54399 13.5433 9.5 13.3983 9.5 13.25C9.5 13.051 9.57902 12.8603 9.71967 12.7196C9.86032 12.579 10.0511 12.5 10.25 12.5ZM7.75 9.99995C7.89834 9.99995 8.04334 10.0439 8.16668 10.1264C8.29001 10.2088 8.38614 10.3259 8.44291 10.4629C8.49968 10.6 8.51453 10.7508 8.48559 10.8963C8.45665 11.0418 8.38522 11.1754 8.28033 11.2803C8.17544 11.3852 8.0418 11.4566 7.89632 11.4855C7.75083 11.5145 7.60003 11.4996 7.46299 11.4429C7.32594 11.3861 7.20881 11.29 7.1264 11.1666C7.04399 11.0433 7 10.8983 7 10.75C7 10.551 7.07902 10.3603 7.21967 10.2196C7.36032 10.079 7.55109 9.99995 7.75 9.99995ZM7.75 12.5C7.89834 12.5 8.04334 12.5439 8.16668 12.6264C8.29001 12.7088 8.38614 12.8259 8.44291 12.9629C8.49968 13.1 8.51453 13.2508 8.48559 13.3963C8.45665 13.5418 8.38522 13.6754 8.28033 13.7803C8.17544 13.8852 8.0418 13.9566 7.89632 13.9855C7.75083 14.0145 7.60003 13.9996 7.46299 13.9429C7.32594 13.8861 7.20881 13.79 7.1264 13.6666C7.04399 13.5433 7 13.3983 7 13.25C7 13.051 7.07902 12.8603 7.21967 12.7196C7.36032 12.579 7.55109 12.5 7.75 12.5ZM5.25 9.99995C5.39834 9.99995 5.54334 10.0439 5.66668 10.1264C5.79001 10.2088 5.88614 10.3259 5.94291 10.4629C5.99968 10.6 6.01453 10.7508 5.98559 10.8963C5.95665 11.0418 5.88522 11.1754 5.78033 11.2803C5.67544 11.3852 5.5418 11.4566 5.39632 11.4855C5.25083 11.5145 5.10003 11.4996 4.96299 11.4429C4.82594 11.3861 4.70881 11.29 4.6264 11.1666C4.54399 11.0433 4.5 10.8983 4.5 10.75C4.5 10.551 4.57902 10.3603 4.71967 10.2196C4.86032 10.079 5.05109 9.99995 5.25 9.99995ZM5.25 12.5C5.39834 12.5 5.54334 12.5439 5.66668 12.6264C5.79001 12.7088 5.88614 12.8259 5.94291 12.9629C5.99968 13.1 6.01453 13.2508 5.98559 13.3963C5.95665 13.5418 5.88522 13.6754 5.78033 13.7803C5.67544 13.8852 5.5418 13.9566 5.39632 13.9855C5.25083 14.0145 5.10003 13.9996 4.96299 13.9429C4.82594 13.8861 4.70881 13.79 4.6264 13.6666C4.54399 13.5433 4.5 13.3983 4.5 13.25C4.5 13.051 4.57902 12.8603 4.71967 12.7196C4.86032 12.579 5.05109 12.5 5.25 12.5Z" fill="#160706"/>
</svg>
