<svg width="18" height="18" viewBox="0 0 18 18" fill="none" xmlns="http://www.w3.org/2000/svg">
<path d="M16 4H12.35L11.82 2.64C11.7475 2.45207 11.6199 2.29041 11.454 2.17621C11.288 2.06202 11.0914 2.0006 10.89 2H7.11C6.90771 1.99959 6.71004 2.06054 6.54311 2.1748C6.37618 2.28907 6.24783 2.45127 6.175 2.64L5.65 4H2C1.73478 4 1.48043 4.10536 1.29289 4.2929C1.10536 4.48043 1 4.73479 1 5V15C1 15.2652 1.10536 15.5196 1.29289 15.7071C1.48043 15.8946 1.73478 16 2 16H16C16.2652 16 16.5196 15.8946 16.7071 15.7071C16.8946 15.5196 17 15.2652 17 15V5C17 4.73479 16.8946 4.48043 16.7071 4.2929C16.5196 4.10536 16.2652 4 16 4ZM3.085 6.815C2.97891 6.815 2.87717 6.77286 2.80216 6.69784C2.72714 6.62283 2.685 6.52109 2.685 6.415C2.685 6.30892 2.72714 6.20717 2.80216 6.13216C2.87717 6.05714 2.97891 6.015 3.085 6.015H4.285C4.39109 6.015 4.49283 6.05714 4.56784 6.13216C4.64286 6.20717 4.685 6.30892 4.685 6.415C4.685 6.52109 4.64286 6.62283 4.56784 6.69784C4.49283 6.77286 4.39109 6.815 4.285 6.815H3.085ZM9 14C8.10998 14 7.23995 13.7361 6.49993 13.2416C5.75991 12.7471 5.18314 12.0443 4.84254 11.2221C4.50195 10.3998 4.41283 9.49501 4.58647 8.6221C4.7601 7.74918 5.18868 6.94736 5.81802 6.31802C6.44736 5.68868 7.24918 5.2601 8.12209 5.08647C8.99501 4.91283 9.89981 5.00195 10.7221 5.34254C11.5443 5.68314 12.2471 6.25991 12.7416 6.99994C13.2361 7.73996 13.5 8.60999 13.5 9.5C13.5 10.6935 13.0259 11.8381 12.182 12.682C11.3381 13.5259 10.1935 14 9 14Z" fill="#160706"/>
<path d="M5.55499 9.53C5.556 10.2046 5.75003 10.8649 6.11416 11.4328C6.4783 12.0007 6.99734 12.4526 7.60999 12.735L8.15499 11.865C7.82303 11.7237 7.52557 11.5123 7.28305 11.2452C7.04053 10.9781 6.85869 10.6616 6.75003 10.3176C6.64136 9.9736 6.60845 9.61014 6.65354 9.25219C6.69863 8.89424 6.82065 8.55029 7.01124 8.24396C7.20183 7.93764 7.45646 7.67619 7.75764 7.47758C8.05883 7.27896 8.39943 7.14789 8.75607 7.09336C9.1127 7.03883 9.47691 7.06213 9.82368 7.16167C10.1705 7.26121 10.4916 7.43462 10.765 7.67L11.31 6.79C10.7921 6.36955 10.1657 6.10443 9.50338 6.02537C8.84102 5.94631 8.16982 6.05654 7.56754 6.34329C6.96526 6.63004 6.45656 7.08157 6.10037 7.64557C5.74418 8.20957 5.55508 8.86295 5.55499 9.53Z" fill="#160706"/>
</svg>
