<svg width="18" height="18" viewBox="0 0 18 18" fill="none" xmlns="http://www.w3.org/2000/svg">
<path d="M15.4407 8.49938L3.06565 2.31188C2.96866 2.26337 2.85971 2.24394 2.75193 2.25591C2.64415 2.26789 2.54213 2.31076 2.45815 2.37938C2.37795 2.44659 2.31809 2.53485 2.2853 2.63422C2.25251 2.73359 2.24808 2.84013 2.27253 2.94188L3.76315 8.4375H10.125V9.5625H3.76315L2.25003 15.0413C2.22709 15.1262 2.22441 15.2154 2.24221 15.3016C2.26001 15.3878 2.29778 15.4686 2.35249 15.5375C2.4072 15.6065 2.47733 15.6616 2.55723 15.6985C2.63713 15.7354 2.72457 15.753 2.81253 15.75C2.90058 15.7495 2.98728 15.7283 3.06565 15.6881L15.4407 9.50063C15.5328 9.45342 15.6101 9.38171 15.6641 9.29338C15.7181 9.20505 15.7467 9.10353 15.7467 9C15.7467 8.89648 15.7181 8.79496 15.6641 8.70663C15.6101 8.6183 15.5328 8.54658 15.4407 8.49938Z" fill="black"/>
</svg>
