<svg width="18" height="18" viewBox="0 0 18 18" fill="none" xmlns="http://www.w3.org/2000/svg">
<path d="M11.2623 3.2427L5.30231 9.0027L11.2623 14.7627C11.4248 14.9192 11.6427 15.0047 11.8682 15.0005C12.0937 14.9963 12.3083 14.9026 12.4648 14.7402C12.6213 14.5778 12.7068 14.3598 12.7026 14.1343C12.6984 13.9088 12.6048 13.6942 12.4423 13.5377L7.74731 9.0027L12.4423 4.4627C12.6048 4.30622 12.6984 4.09162 12.7026 3.86611C12.7068 3.64059 12.6213 3.42264 12.4648 3.2602C12.3083 3.09775 12.0937 3.00412 11.8682 2.9999C11.6427 2.99568 11.4248 3.08122 11.2623 3.2377L11.2623 3.2427Z" fill="black"/>
</svg>
