<svg width="18" height="18" viewBox="0 0 18 18" fill="none" xmlns="http://www.w3.org/2000/svg">
<path d="M14.76 11.26L9.00002 5.29999L3.24002 11.26C3.08354 11.4224 2.998 11.6404 3.00222 11.8659C3.00644 12.0914 3.10007 12.306 3.26252 12.4625C3.42497 12.619 3.64292 12.7045 3.86843 12.7003C4.09394 12.6961 4.30854 12.6024 4.46502 12.44L9.00002 7.74499L13.54 12.44C13.6965 12.6024 13.9111 12.6961 14.1366 12.7003C14.3621 12.7045 14.5801 12.619 14.7425 12.4625C14.905 12.306 14.9986 12.0914 15.0028 11.8659C15.007 11.6404 14.9215 11.4224 14.765 11.26H14.76Z" fill="#160706"/>
</svg>
