<svg width="18" height="18" viewBox="0 0 18 18" fill="none" xmlns="http://www.w3.org/2000/svg">
<path d="M3.24505 6.74044L9.00505 12.7004L14.765 6.74044C14.9215 6.57799 15.0071 6.36004 15.0028 6.13453C14.9986 5.90902 14.905 5.69442 14.7425 5.53794C14.5801 5.38146 14.3621 5.29592 14.1366 5.30014C13.9111 5.30436 13.6965 5.39799 13.54 5.56044L9.00505 10.2554L4.46505 5.56044C4.30857 5.39799 4.09397 5.30436 3.86846 5.30014C3.64294 5.29592 3.42499 5.38146 3.26255 5.53794C3.1001 5.69442 3.00647 5.90902 3.00225 6.13453C2.99803 6.36004 3.08357 6.57799 3.24005 6.74044L3.24505 6.74044Z" fill="#160706"/>
</svg>
