<svg width="18" height="18" viewBox="0 0 18 18" fill="none" xmlns="http://www.w3.org/2000/svg">
<path d="M6.74276 14.7577L12.7028 8.9977L6.74276 3.2377C6.58031 3.08122 6.36236 2.99569 6.13685 2.9999C5.91134 3.00412 5.69674 3.09776 5.54026 3.2602C5.38378 3.42265 5.29824 3.6406 5.30246 3.86611C5.30668 4.09162 5.40031 4.30622 5.56276 4.4627L10.2578 8.9977L5.56276 13.5377C5.40031 13.6942 5.30668 13.9088 5.30246 14.1343C5.29824 14.3598 5.38378 14.5778 5.54026 14.7402C5.69674 14.9026 5.91134 14.9963 6.13685 15.0005C6.36236 15.0047 6.58031 14.9192 6.74276 14.7627L6.74276 14.7577Z" fill="#160706"/>
</svg>
