<svg width="18" height="18" viewBox="0 0 18 18" fill="none" xmlns="http://www.w3.org/2000/svg">
<path d="M9.5 15H2C1.73478 15 1.48043 14.8946 1.29289 14.7071C1.10536 14.5196 1 14.2652 1 14V4C1 3.73478 1.10536 3.48043 1.29289 3.29289C1.48043 3.10536 1.73478 3 2 3H16C16.2652 3 16.5196 3.10536 16.7071 3.29289C16.8946 3.48043 17 3.73478 17 4V9.185C16.3339 8.33662 15.3649 7.77935 14.2967 7.63022C13.2284 7.4811 12.1439 7.75172 11.2709 8.38526C10.3979 9.0188 9.8044 9.96596 9.61497 11.0278C9.42554 12.0897 9.65494 13.1837 10.255 14.08L9.79 14.65L9.5 15ZM3.5 6V6.8H12V6H3.5ZM3.5 8.8H9V8H3.5V8.8ZM3.5 12.3H8.5V11.5H3.5V12.3Z" fill="#160706"/>
<path d="M16.915 11.795C16.9163 11.2678 16.7868 10.7485 16.5379 10.2837C16.2891 9.81894 15.9288 9.42318 15.4894 9.13196C15.0499 8.84074 14.545 8.66316 14.02 8.61516C13.495 8.56716 12.9663 8.65023 12.4813 8.85693C11.9963 9.06362 11.5702 9.38748 11.2412 9.79944C10.9122 10.2114 10.6906 10.6986 10.5963 11.2173C10.502 11.736 10.538 12.27 10.7009 12.7714C10.8639 13.2728 11.1488 13.7259 11.53 14.09L10.56 15.275L11.01 17.08L12.84 14.85C13.4192 15.0213 14.0357 15.0213 14.615 14.85L16.445 17.08L16.895 15.275L15.925 14.09C16.2369 13.7945 16.4855 13.4387 16.6557 13.0442C16.8259 12.6497 16.9141 12.2247 16.915 11.795ZM11.545 11.795C11.539 11.3616 11.6621 10.9363 11.8985 10.573C12.135 10.2098 12.4741 9.92506 12.8728 9.75507C13.2715 9.58508 13.7118 9.53751 14.1376 9.6184C14.5634 9.69929 14.9555 9.90499 15.2641 10.2093C15.5727 10.5137 15.7838 10.9029 15.8705 11.3276C15.9573 11.7522 15.9158 12.1931 15.7514 12.5941C15.5869 12.9951 15.3069 13.3381 14.947 13.5796C14.587 13.821 14.1634 13.95 13.73 13.95C13.1557 13.9514 12.6042 13.7255 12.1958 13.3218C11.7874 12.9181 11.5553 12.3693 11.55 11.795H11.545Z" fill="#160706"/>
</svg>
