<svg width="18" height="18" viewBox="0 0 18 18" fill="none" xmlns="http://www.w3.org/2000/svg">
  <path
    d="M15.1875 2.8125H2.8125C2.51413 2.8125 2.22798 2.93103 2.017 3.142C1.80603 3.35298 1.6875 3.63913 1.6875 3.9375V14.0625C1.6875 14.3609 1.80603 14.647 2.017 14.858C2.22798 15.069 2.51413 15.1875 2.8125 15.1875H3.75398C3.86044 15.1875 3.96472 15.1574 4.05471 15.1005C4.1447 15.0436 4.2167 14.9623 4.26234 14.8662C4.53587 14.2887 4.96773 13.8007 5.50768 13.459C6.04764 13.1173 6.6735 12.9359 7.3125 12.9359C7.9515 12.9359 8.57737 13.1173 9.11732 13.459C9.65727 13.8007 10.0891 14.2887 10.3627 14.8662C10.4083 14.9623 10.4803 15.0436 10.5703 15.1005C10.6603 15.1574 10.7646 15.1875 10.871 15.1875H15.1875C15.4859 15.1875 15.772 15.069 15.983 14.858C16.194 14.647 16.3125 14.3609 16.3125 14.0625V3.9375C16.3125 3.63913 16.194 3.35298 15.983 3.142C15.772 2.93103 15.4859 2.8125 15.1875 2.8125ZM7.3125 11.8125C6.86749 11.8125 6.43248 11.6805 6.06247 11.4333C5.69246 11.1861 5.40407 10.8347 5.23377 10.4235C5.06347 10.0124 5.01892 9.56 5.10573 9.12355C5.19255 8.68709 5.40684 8.28618 5.72151 7.97151C6.03618 7.65684 6.43709 7.44255 6.87355 7.35573C7.31 7.26892 7.7624 7.31347 8.17354 7.48377C8.58467 7.65407 8.93607 7.94246 9.18331 8.31247C9.43054 8.68248 9.5625 9.11749 9.5625 9.5625C9.5625 10.1592 9.32545 10.7315 8.90349 11.1535C8.48153 11.5754 7.90924 11.8125 7.3125 11.8125ZM15.1875 14.0625H11.2099C10.9647 13.6397 10.6522 13.2597 10.2846 12.9375H13.5C13.6492 12.9375 13.7923 12.8782 13.8977 12.7727C14.0032 12.6673 14.0625 12.5242 14.0625 12.375V5.625C14.0625 5.47582 14.0032 5.33274 13.8977 5.22725C13.7923 5.12176 13.6492 5.0625 13.5 5.0625H4.5C4.35082 5.0625 4.20774 5.12176 4.10225 5.22725C3.99676 5.33274 3.9375 5.47582 3.9375 5.625V12.375C3.93744 12.4998 3.97885 12.621 4.05522 12.7196C4.13159 12.8183 4.23858 12.8887 4.35938 12.9199C3.98335 13.2457 3.66422 13.6319 3.41508 14.0625H2.8125V3.9375H15.1875V14.0625Z"
    fill="#160706" />
</svg>