<svg width="18" height="18" viewBox="0 0 18 18" fill="none" xmlns="http://www.w3.org/2000/svg">
<path d="M9 1.25C4.59 1.25 1 4.39 1 8.25C1 12.11 4.59 15.25 9 15.25C9.82507 15.249 10.6461 15.1346 11.44 14.91L14.205 16.67C14.2805 16.7184 14.3676 16.7457 14.4572 16.7489C14.5469 16.752 14.6357 16.7311 14.7144 16.6881C14.7932 16.6452 14.8589 16.5818 14.9047 16.5048C14.9506 16.4277 14.9749 16.3397 14.975 16.25V12.885C15.6006 12.2848 16.0999 11.5656 16.4433 10.7696C16.7868 9.97359 16.9676 9.11691 16.975 8.25C17 4.39 13.41 1.25 9 1.25ZM13 8.25C13 8.38261 12.9473 8.50979 12.8536 8.60355C12.7598 8.69732 12.6326 8.75 12.5 8.75H5.5C5.36739 8.75 5.24022 8.69732 5.14645 8.60355C5.05268 8.50979 5 8.38261 5 8.25C5 8.11739 5.05268 7.99022 5.14645 7.89645C5.24022 7.80268 5.36739 7.75 5.5 7.75H12.5C12.6326 7.75 12.7598 7.80268 12.8536 7.89645C12.9473 7.99022 13 8.11739 13 8.25ZM11.375 10.75C11.375 10.8826 11.3223 11.0098 11.2286 11.1036C11.1348 11.1973 11.0076 11.25 10.875 11.25H7.125C6.99239 11.25 6.86522 11.1973 6.77145 11.1036C6.67768 11.0098 6.625 10.8826 6.625 10.75C6.625 10.6174 6.67768 10.4902 6.77145 10.3964C6.86522 10.3027 6.99239 10.25 7.125 10.25H10.875C11.0076 10.25 11.1348 10.3027 11.2286 10.3964C11.3223 10.4902 11.375 10.6174 11.375 10.75ZM5.14 5.75C5.14 5.61739 5.19268 5.49022 5.28645 5.39645C5.38022 5.30268 5.50739 5.25 5.64 5.25H12.36C12.4926 5.25 12.6198 5.30268 12.7136 5.39645C12.8073 5.49022 12.86 5.61739 12.86 5.75C12.86 5.88261 12.8073 6.00979 12.7136 6.10355C12.6198 6.19732 12.4926 6.25 12.36 6.25H5.64C5.50739 6.25 5.38022 6.19732 5.28645 6.10355C5.19268 6.00979 5.14 5.88261 5.14 5.75Z" fill="#160706"/>
</svg>
