<svg width="18" height="18" viewBox="0 0 18 18" fill="none" xmlns="http://www.w3.org/2000/svg">
<path d="M6.86001 13.845L1.64501 8.63501C1.5631 8.53936 1.52029 8.41632 1.52515 8.29048C1.53001 8.16464 1.58218 8.04527 1.67123 7.95623C1.76027 7.86718 1.87964 7.81501 2.00548 7.81015C2.13132 7.80529 2.25436 7.8481 2.35001 7.93001L6.85001 12.43L15.645 3.64501C15.7407 3.5631 15.8637 3.52029 15.9895 3.52515C16.1154 3.53001 16.2347 3.58218 16.3238 3.67123C16.4128 3.76027 16.465 3.87964 16.4699 4.00548C16.4747 4.13132 16.4319 4.25436 16.35 4.35001L6.86001 13.845Z" fill="#160706"/>
</svg>
