<svg width="18" height="18" viewBox="0 0 18 18" fill="none" xmlns="http://www.w3.org/2000/svg">
<path d="M8.74875 0.75C7.16675 0.75 5.62027 1.21912 4.30489 2.09803C2.9895 2.97695 1.96428 4.22618 1.35887 5.68776C0.753466 7.14934 0.595064 8.75762 0.903697 10.3092C1.21233 11.8608 1.97414 13.2861 3.09278 14.4047C4.21143 15.5234 5.63667 16.2852 7.18827 16.5938C8.73988 16.9024 10.3482 16.744 11.8097 16.1386C13.2713 15.5332 14.5206 14.508 15.3995 13.1926C16.2784 11.8772 16.7475 10.3308 16.7475 8.74875C16.7475 6.62735 15.9048 4.59284 14.4047 3.09278C12.9047 1.59272 10.8702 0.75 8.74875 0.75ZM8.74875 15.4144C7.43042 15.4144 6.14169 15.0234 5.04553 14.291C3.94937 13.5586 3.09502 12.5176 2.59052 11.2996C2.08601 10.0816 1.95401 8.74135 2.21121 7.44835C2.4684 6.15535 3.10324 4.96764 4.03544 4.03544C4.96765 3.10324 6.15535 2.4684 7.44835 2.2112C8.74136 1.95401 10.0816 2.08601 11.2996 2.59052C12.5176 3.09502 13.5586 3.94937 14.291 5.04553C15.0234 6.14168 15.4144 7.43041 15.4144 8.74875C15.4144 9.62409 15.242 10.4909 14.907 11.2996C14.572 12.1083 14.081 12.8431 13.4621 13.4621C12.8431 14.081 12.1083 14.572 11.2996 14.907C10.4909 15.242 9.62409 15.4144 8.74875 15.4144Z" fill="black"/>
<path d="M7.57942 11.7825L4.6413 8.84437C4.54503 8.73196 4.49473 8.58736 4.50044 8.43947C4.50615 8.29158 4.56746 8.15129 4.67211 8.04664C4.77676 7.94198 4.91705 7.88067 5.06495 7.87496C5.21284 7.86925 5.35744 7.91955 5.46985 8.01582L7.57942 10.1254L11.5635 6.1413C11.6759 6.04503 11.8205 5.99473 11.9684 6.00044C12.1163 6.00615 12.2566 6.06746 12.3613 6.17211C12.4659 6.27676 12.5272 6.41705 12.5329 6.56495C12.5386 6.71284 12.4883 6.85744 12.3921 6.96985L7.57942 11.7825Z" fill="black"/>
</svg>
