<svg width="18" height="18" viewBox="0 0 18 18" fill="none" xmlns="http://www.w3.org/2000/svg">
<path d="M9 1C7.41775 1 5.87103 1.46919 4.55544 2.34824C3.23985 3.22729 2.21447 4.47672 1.60897 5.93853C1.00347 7.40034 0.84504 9.00887 1.15372 10.5607C1.4624 12.1126 2.22433 13.538 3.34315 14.6569C4.46197 15.7757 5.88743 16.5376 7.43928 16.8463C8.99113 17.155 10.5997 16.9965 12.0615 16.391C13.5233 15.7855 14.7727 14.7602 15.6518 13.4446C16.5308 12.129 17 10.5823 17 9C17 6.87827 16.1571 4.84344 14.6569 3.34315C13.1566 1.84285 11.1217 1 9 1ZM12.1 11.59C12.0637 11.645 12.0169 11.6922 11.9622 11.729C11.9076 11.7658 11.8462 11.7915 11.7816 11.8045C11.717 11.8175 11.6505 11.8176 11.5859 11.8048C11.5212 11.792 11.4598 11.7666 11.405 11.73L8.455 9.73V5.375C8.455 5.24239 8.50768 5.11521 8.60145 5.02145C8.69522 4.92768 8.8224 4.875 8.955 4.875C9.08761 4.875 9.21479 4.92768 9.30856 5.02145C9.40233 5.11521 9.455 5.24239 9.455 5.375V9.2L11.955 10.895C12.0104 10.9309 12.0581 10.9775 12.0954 11.0319C12.1326 11.0864 12.1588 11.1477 12.1723 11.2123C12.1857 11.2769 12.1863 11.3435 12.1739 11.4084C12.1615 11.4732 12.1364 11.5349 12.1 11.59ZM11.925 4.115C11.2215 3.69096 10.4346 3.42412 9.61822 3.33281C8.80188 3.24149 7.97544 3.32785 7.19561 3.58596C6.41579 3.84408 5.70103 4.26783 5.10037 4.82816C4.49971 5.38848 4.02738 6.07212 3.71578 6.83215C3.40417 7.59219 3.26067 8.41064 3.29512 9.23135C3.32957 10.0521 3.54116 10.8556 3.91536 11.5869C4.28956 12.3181 4.81753 12.9597 5.46303 13.4678C6.10853 13.9758 6.85629 14.3381 7.655 14.53L7.5 15.315C6.58398 15.1018 5.72513 14.6923 4.98275 14.1149C4.24037 13.5374 3.63215 12.8058 3.20007 11.9704C2.76799 11.135 2.52234 10.2158 2.48009 9.27624C2.43784 8.33668 2.59998 7.39913 2.95534 6.52834C3.31069 5.65754 3.85078 4.87423 4.53833 4.23248C5.22588 3.59073 6.04451 3.10584 6.9377 2.81126C7.83089 2.51669 8.77737 2.41946 9.7118 2.52629C10.6462 2.63311 11.5463 2.94144 12.35 3.43L11.925 4.115Z" fill="#160706"/>
</svg>
