<svg width="21" height="20" viewBox="0 0 21 20" fill="none" xmlns="http://www.w3.org/2000/svg">
<path d="M17.375 3.125H3.625C3.29348 3.125 2.97554 3.2567 2.74112 3.49112C2.5067 3.72554 2.375 4.04348 2.375 4.375V15.625C2.375 15.9565 2.5067 16.2745 2.74112 16.5089C2.97554 16.7433 3.29348 16.875 3.625 16.875H4.67109C4.78938 16.875 4.90525 16.8415 5.00524 16.7783C5.10522 16.7151 5.18522 16.6248 5.23594 16.518C5.53986 15.8763 6.0197 15.3341 6.61965 14.9544C7.21959 14.5748 7.915 14.3732 8.625 14.3732C9.335 14.3732 10.0304 14.5748 10.6304 14.9544C11.2303 15.3341 11.7101 15.8763 12.0141 16.518C12.0648 16.6248 12.1448 16.7151 12.2448 16.7783C12.3448 16.8415 12.4606 16.875 12.5789 16.875H17.375C17.7065 16.875 18.0245 16.7433 18.2589 16.5089C18.4933 16.2745 18.625 15.9565 18.625 15.625V4.375C18.625 4.04348 18.4933 3.72554 18.2589 3.49112C18.0245 3.2567 17.7065 3.125 17.375 3.125ZM8.625 13.125C8.13055 13.125 7.6472 12.9784 7.23607 12.7037C6.82495 12.429 6.50452 12.0385 6.3153 11.5817C6.12608 11.1249 6.07657 10.6222 6.17304 10.1373C6.2695 9.65232 6.5076 9.20686 6.85723 8.85723C7.20686 8.5076 7.65232 8.2695 8.13727 8.17304C8.62223 8.07657 9.12489 8.12608 9.58171 8.3153C10.0385 8.50452 10.429 8.82495 10.7037 9.23607C10.9784 9.6472 11.125 10.1305 11.125 10.625C11.125 11.288 10.8616 11.9239 10.3928 12.3928C9.92393 12.8616 9.28804 13.125 8.625 13.125ZM17.375 15.625H12.9555C12.683 15.1552 12.3357 14.733 11.9273 14.375H15.5C15.6658 14.375 15.8247 14.3092 15.9419 14.1919C16.0592 14.0747 16.125 13.9158 16.125 13.75V6.25C16.125 6.08424 16.0592 5.92527 15.9419 5.80806C15.8247 5.69085 15.6658 5.625 15.5 5.625H5.5C5.33424 5.625 5.17527 5.69085 5.05806 5.80806C4.94085 5.92527 4.875 6.08424 4.875 6.25V13.75C4.87493 13.8886 4.92094 14.0233 5.0058 14.1329C5.09065 14.2425 5.20954 14.3208 5.34375 14.3555C4.92595 14.7175 4.57136 15.1465 4.29453 15.625H3.625V4.375H17.375V15.625Z" fill="#C8C4C4"/>
</svg>
