<svg width="18" height="18" viewBox="0 0 18 18" fill="none" xmlns="http://www.w3.org/2000/svg">
<path fill-rule="evenodd" clip-rule="evenodd" d="M2 14.2857V3.57143C2 2.88944 2.26797 2.23539 2.74497 1.75315C3.22196 1.27092 3.86891 1 4.54348 1L12.4565 1C13.1311 1 13.778 1.27092 14.255 1.75315C14.732 2.23539 15 2.88944 15 3.57143V12.4286C15 12.6559 14.9107 12.8739 14.7517 13.0347C14.5927 13.1954 14.377 13.2857 14.1522 13.2857H13.8696V15.2857H14.1522C14.377 15.2857 14.5927 15.376 14.7517 15.5368C14.9107 15.6975 15 15.9155 15 16.1429C15 16.3702 14.9107 16.5882 14.7517 16.7489C14.5927 16.9097 14.377 17 14.1522 17H4.68478C3.97273 17 3.28985 16.714 2.78635 16.205C2.28286 15.696 2 15.0056 2 14.2857ZM12.1739 13.2857H4.68478C4.42245 13.2857 4.17086 13.3911 3.98536 13.5786C3.79986 13.7661 3.69565 14.0205 3.69565 14.2857C3.69565 14.5509 3.79986 14.8053 3.98536 14.9928C4.17086 15.1804 4.42245 15.2857 4.68478 15.2857H12.1739V13.2857ZM12.807 6.45371C12.7593 6.36072 12.6873 6.28275 12.5988 6.22833C12.5102 6.17391 12.4086 6.14513 12.305 6.14514H9.68922C9.53931 6.14514 9.39555 6.20535 9.28955 6.31251C9.18355 6.41967 9.124 6.56502 9.124 6.71657C9.124 6.86812 9.18355 7.01347 9.28955 7.12063C9.39555 7.2278 9.53931 7.288 9.68922 7.288H11.213L9.06409 10.3554C9.00417 10.4409 8.96867 10.5415 8.96147 10.646C8.95427 10.7506 8.97565 10.8551 9.02326 10.9482C9.07088 11.0413 9.14289 11.1193 9.23144 11.1738C9.31998 11.2283 9.42165 11.2571 9.5253 11.2571H12.469C12.6189 11.2571 12.7626 11.1969 12.8686 11.0898C12.9746 10.9826 13.0342 10.8373 13.0342 10.6857C13.0342 10.5342 12.9746 10.3888 12.8686 10.2817C12.7626 10.1745 12.6189 10.1143 12.469 10.1143H10.6184L12.7663 7.04686C12.8264 6.96139 12.8621 6.86084 12.8695 6.75622C12.8769 6.6516 12.8545 6.54694 12.807 6.45371ZM7.16043 4.00571C7.09239 3.80104 6.9625 3.62314 6.78908 3.49711C6.61567 3.37108 6.40749 3.30328 6.19391 3.30328C5.98034 3.30328 5.77216 3.37108 5.59874 3.49711C5.42533 3.62314 5.29543 3.80104 5.22739 4.00571L4.46209 6.32571C4.45926 6.33403 4.45662 6.34242 4.45417 6.35086L4.02122 7.66057C3.99769 7.73186 3.98828 7.80714 3.99352 7.8821C3.99877 7.95707 4.01857 8.03026 4.05179 8.09749C4.08502 8.16472 4.13101 8.22467 4.18715 8.27393C4.2433 8.32319 4.30849 8.36078 4.379 8.38457C4.52141 8.43261 4.67686 8.42149 4.81116 8.35366C4.87766 8.32007 4.93697 8.27357 4.98569 8.21681C5.03441 8.16005 5.0716 8.09415 5.09513 8.02286L5.40035 7.09029H6.98522L7.2927 8.02286C7.34022 8.16668 7.4423 8.28553 7.5765 8.35326C7.71069 8.42098 7.866 8.43204 8.00826 8.384C8.15052 8.33596 8.26808 8.23275 8.33507 8.09708C8.40206 7.96141 8.413 7.80439 8.36548 7.66057L7.93365 6.35086C7.93083 6.34241 7.92782 6.33402 7.92461 6.32571L7.16043 4.00571ZM5.77565 5.94629L6.19165 4.68686L6.60652 5.94629H5.77565Z" fill="#160706"/>
</svg>
