<svg width="18" height="18" viewBox="0 0 18 18" fill="none" xmlns="http://www.w3.org/2000/svg">
<path d="M16.1649 2.99999C16.0968 2.99296 16.0281 2.99296 15.9599 2.99999H1.95995C1.87022 3.00137 1.78108 3.01482 1.69495 3.03999L8.91995 10.235L16.1649 2.99999Z" fill="#160706"/>
<path d="M16.905 3.69501L9.62497 10.945C9.4376 11.1313 9.18415 11.2358 8.91997 11.2358C8.65578 11.2358 8.40233 11.1313 8.21497 10.945L0.999966 3.75001C0.977786 3.83153 0.966025 3.91553 0.964966 4.00001V14C0.964966 14.2652 1.07032 14.5196 1.25786 14.7071C1.4454 14.8947 1.69975 15 1.96497 15H15.965C16.2302 15 16.4845 14.8947 16.6721 14.7071C16.8596 14.5196 16.965 14.2652 16.965 14V4.00001C16.961 3.89583 16.9407 3.79293 16.905 3.69501ZM2.64997 14H1.95497V13.285L5.58997 9.68001L6.29497 10.385L2.64997 14ZM15.955 14H15.255L11.61 10.385L12.315 9.68001L15.95 13.285L15.955 14Z" fill="#160706"/>
</svg>
