<svg width="18" height="18" viewBox="0 0 18 18" fill="none" xmlns="http://www.w3.org/2000/svg">
<path d="M9 1C7.41775 1 5.87103 1.46919 4.55544 2.34824C3.23985 3.22729 2.21447 4.47672 1.60897 5.93853C1.00347 7.40034 0.84504 9.00887 1.15372 10.5607C1.4624 12.1126 2.22433 13.538 3.34315 14.6569C4.46197 15.7757 5.88743 16.5376 7.43928 16.8463C8.99113 17.155 10.5997 16.9965 12.0615 16.391C13.5233 15.7855 14.7727 14.7602 15.6518 13.4446C16.5308 12.129 17 10.5822 17 9C17 6.87827 16.1571 4.84344 14.6569 3.34315C13.1566 1.84285 11.1217 1 9 1ZM9 15.6667C7.68146 15.6667 6.39253 15.2757 5.2962 14.5431C4.19987 13.8106 3.34539 12.7694 2.84081 11.5512C2.33622 10.333 2.2042 8.9926 2.46143 7.6994C2.71867 6.40619 3.35361 5.2183 4.28596 4.28595C5.21831 3.3536 6.40619 2.71867 7.6994 2.46143C8.99261 2.2042 10.333 2.33622 11.5512 2.8408C12.7694 3.34539 13.8106 4.19987 14.5431 5.2962C15.2757 6.39253 15.6667 7.68146 15.6667 9C15.6667 9.87548 15.4942 10.7424 15.1592 11.5512C14.8242 12.3601 14.3331 13.095 13.714 13.714C13.095 14.3331 12.3601 14.8242 11.5512 15.1592C10.7424 15.4942 9.87548 15.6667 9 15.6667Z" fill="black"/>
<path d="M9 10.5C8.80109 10.5 8.61032 10.4164 8.46967 10.2676C8.32902 10.1187 8.25 9.91687 8.25 9.7064V6.0436C8.25 5.83313 8.32902 5.63127 8.46967 5.48244C8.61032 5.33361 8.80109 5.25 9 5.25C9.19891 5.25 9.38968 5.33361 9.53033 5.48244C9.67098 5.63127 9.75 5.83313 9.75 6.0436V9.7064C9.75 9.91687 9.67098 10.1187 9.53033 10.2676C9.38968 10.4164 9.19891 10.5 9 10.5Z" fill="black"/>
<path d="M9 12.75C9.41421 12.75 9.75 12.4142 9.75 12C9.75 11.5858 9.41421 11.25 9 11.25C8.58579 11.25 8.25 11.5858 8.25 12C8.25 12.4142 8.58579 12.75 9 12.75Z" fill="black"/>
</svg>
