<svg width="18" height="18" viewBox="0 0 18 18" fill="none" xmlns="http://www.w3.org/2000/svg">
<path d="M9.185 5.58499C8.78034 5.58546 8.37903 5.65828 8 5.79999L12.4 10.2C12.5436 9.81627 12.6164 9.4097 12.615 8.99999C12.611 8.0929 12.2479 7.22432 11.6051 6.58431C10.9623 5.9443 10.0921 5.58498 9.185 5.58499Z" fill="#160706"/>
<path d="M17.145 8.76501C15.46 5.65001 12.505 3.76501 9.23499 3.76501C8.34467 3.7671 7.46032 3.91056 6.61499 4.19001L7.41999 5.00001C8.01292 4.84678 8.62259 4.76784 9.23499 4.76501C12.05 4.76501 14.61 6.33501 16.135 8.98001C15.5756 9.96132 14.834 10.8268 13.95 11.53L14.66 12.24C15.683 11.4147 16.5327 10.3951 17.16 9.24001L17.29 9.00001L17.145 8.76501Z" fill="#160706"/>
<path d="M2.435 2.88999L4.665 5.11999C3.25546 6.02755 2.10345 7.28287 1.32 8.76499L1.19 8.99999L1.32 9.23999C3.005 12.355 5.96 14.24 9.23 14.24C10.5063 14.2397 11.7661 13.9509 12.915 13.395L15.415 15.895L16.29 15.145L3.29 2.14499L2.435 2.88999ZM6.585 7.03999C6.11722 7.69969 5.89796 8.50364 5.96606 9.30948C6.03415 10.1153 6.38521 10.8711 6.95706 11.4429C7.52891 12.0148 8.28466 12.3658 9.09051 12.4339C9.89635 12.502 10.7003 12.2828 11.36 11.815L12.16 12.615C11.2339 13.0109 10.2372 13.215 9.23 13.215C6.415 13.215 3.855 11.645 2.33 8.99999C3.06186 7.7041 4.11586 6.61909 5.39 5.84999L6.585 7.03999Z" fill="#160706"/>
</svg>
