<svg width="18" height="18" viewBox="0 0 18 18" fill="none" xmlns="http://www.w3.org/2000/svg">
<path d="M16.81 8.76501C15.125 5.65001 12.17 3.76501 8.89999 3.76501C5.62999 3.76501 2.66999 5.65001 0.999985 8.76501L0.859985 9.00001L0.989985 9.24001C2.67499 12.355 5.62999 14.24 8.89999 14.24C12.17 14.24 15.13 12.38 16.81 9.24001L16.94 9.00001L16.81 8.76501ZM8.89999 13.215C6.08499 13.215 3.49999 11.645 1.99999 9.00001C3.49999 6.35501 6.08499 4.78501 8.89999 4.78501C11.715 4.78501 14.27 6.36001 15.795 9.00001C14.27 11.645 11.71 13.215 8.89999 13.215Z" fill="#160706"/>
<path d="M9.04499 12.445C10.9393 12.445 12.475 10.9093 12.475 9.01499C12.475 7.12066 10.9393 5.58499 9.04499 5.58499C7.15065 5.58499 5.61499 7.12066 5.61499 9.01499C5.61499 10.9093 7.15065 12.445 9.04499 12.445Z" fill="#160706"/>
</svg>
