<svg width="21" height="20" viewBox="0 0 21 20" fill="none" xmlns="http://www.w3.org/2000/svg">
<path fill-rule="evenodd" clip-rule="evenodd" d="M2.72223 15.873V3.96823C2.72223 3.21047 3.01998 2.48374 3.54997 1.94792C4.07996 1.4121 4.79879 1.11108 5.54832 1.11108L14.3406 1.11108C15.0901 1.11108 15.8089 1.4121 16.3389 1.94792C16.8689 2.48374 17.1667 3.21047 17.1667 3.96823V13.8095C17.1667 14.0621 17.0674 14.3043 16.8908 14.4829C16.7141 14.6615 16.4745 14.7619 16.2246 14.7619H15.9106V16.9841H16.2246C16.4745 16.9841 16.7141 17.0844 16.8908 17.263C17.0674 17.4417 17.1667 17.6839 17.1667 17.9365C17.1667 18.1891 17.0674 18.4313 16.8908 18.6099C16.7141 18.7885 16.4745 18.8889 16.2246 18.8889H5.70532C4.91416 18.8889 4.15539 18.5711 3.59596 18.0055C3.03652 17.4399 2.72223 16.6728 2.72223 15.873ZM14.0266 14.7619H5.70532C5.41384 14.7619 5.1343 14.8789 4.92819 15.0873C4.72208 15.2957 4.60629 15.5783 4.60629 15.873C4.60629 16.1677 4.72208 16.4503 4.92819 16.6587C5.1343 16.867 5.41384 16.9841 5.70532 16.9841H14.0266V14.7619ZM14.73 7.17077C14.677 7.06744 14.597 6.98081 14.4986 6.92034C14.4003 6.85987 14.2874 6.8279 14.1723 6.82791H11.2658C11.0992 6.82791 10.9395 6.8948 10.8217 7.01387C10.704 7.13294 10.6378 7.29444 10.6378 7.46283C10.6378 7.63122 10.704 7.79272 10.8217 7.91179C10.9395 8.03086 11.0992 8.09775 11.2658 8.09775H12.9589L10.5712 11.506C10.5046 11.601 10.4652 11.7127 10.4572 11.8289C10.4492 11.945 10.4729 12.0612 10.5259 12.1646C10.5788 12.2681 10.6588 12.3548 10.7572 12.4153C10.8555 12.4759 10.9685 12.5079 11.0837 12.5079H14.3544C14.521 12.5079 14.6807 12.441 14.7985 12.3219C14.9163 12.2029 14.9824 12.0414 14.9824 11.873C14.9824 11.7046 14.9163 11.5431 14.7985 11.424C14.6807 11.305 14.521 11.2381 14.3544 11.2381H12.2983L14.6847 7.82981C14.7516 7.73485 14.7913 7.62313 14.7995 7.50688C14.8076 7.39064 14.7828 7.27435 14.73 7.17077ZM8.45605 4.45077C8.38044 4.22336 8.23612 4.02569 8.04343 3.88565C7.85075 3.74561 7.61944 3.67028 7.38213 3.67028C7.14483 3.67028 6.91351 3.74561 6.72083 3.88565C6.52815 4.02569 6.38382 4.22336 6.30822 4.45077L5.45788 7.02854C5.45474 7.03779 5.45181 7.0471 5.44909 7.05648L4.96803 8.51172C4.94188 8.59093 4.93143 8.67457 4.93726 8.75786C4.94308 8.84116 4.96508 8.92248 5.002 8.99718C5.03891 9.07188 5.09002 9.1385 5.1524 9.19323C5.21478 9.24796 5.28721 9.28973 5.36556 9.31616C5.5238 9.36954 5.69652 9.35719 5.84574 9.28182C5.91963 9.2445 5.98553 9.19283 6.03966 9.12976C6.0938 9.0667 6.13512 8.99347 6.16126 8.91426L6.50039 7.87807H8.26136L8.603 8.91426C8.6558 9.07406 8.76923 9.20612 8.91834 9.28137C9.06744 9.35662 9.24001 9.36891 9.39807 9.31553C9.55614 9.26215 9.68676 9.14747 9.76119 8.99673C9.83563 8.84599 9.84778 8.67152 9.79498 8.51172L9.31518 7.05648C9.31204 7.04709 9.30869 7.03777 9.30513 7.02854L8.45605 4.45077ZM6.9174 6.60696L7.37962 5.20759L7.84059 6.60696H6.9174Z" fill="url(#paint0_linear_2110_775)"/>
<defs>
<linearGradient id="paint0_linear_2110_775" x1="2.72223" y1="-3.16302" x2="23.5208" y2="11.0389" gradientUnits="userSpaceOnUse">
<stop offset="0.0520833" stop-color="#AC4162"/>
<stop offset="0.807292" stop-color="#730034"/>
</linearGradient>
</defs>
</svg>
