<svg width="18" height="18" viewBox="0 0 18 18" fill="none" xmlns="http://www.w3.org/2000/svg">
<path d="M7 2H3C2.44772 2 2 2.44772 2 3V7C2 7.55228 2.44772 8 3 8H7C7.55228 8 8 7.55228 8 7V3C8 2.44772 7.55228 2 7 2Z" fill="#160706"/>
<path d="M15 2H11C10.4477 2 10 2.44772 10 3V7C10 7.55228 10.4477 8 11 8H15C15.5523 8 16 7.55228 16 7V3C16 2.44772 15.5523 2 15 2Z" fill="#160706"/>
<path d="M7 10H3C2.44772 10 2 10.4477 2 11V15C2 15.5523 2.44772 16 3 16H7C7.55228 16 8 15.5523 8 15V11C8 10.4477 7.55228 10 7 10Z" fill="#160706"/>
<path d="M15 10H11C10.4477 10 10 10.4477 10 11V15C10 15.5523 10.4477 16 11 16H15C15.5523 16 16 15.5523 16 15V11C16 10.4477 15.5523 10 15 10Z" fill="#160706"/>
</svg>
