<svg width="18" height="18" viewBox="0 0 18 18" fill="none" xmlns="http://www.w3.org/2000/svg">
<path d="M17 8.39001C17.1858 8.25158 17.3237 8.05845 17.3942 7.83772C17.4647 7.61698 17.4644 7.37971 17.3933 7.15917C17.3222 6.93863 17.1838 6.74587 16.9976 6.60794C16.8114 6.47 16.5867 6.3938 16.355 6.39001L11.855 6.22001C11.8329 6.21848 11.8116 6.21059 11.7939 6.19729C11.7762 6.18398 11.7626 6.16583 11.755 6.14501L10.2 1.94501C10.1219 1.73133 9.97995 1.54682 9.79348 1.41646C9.60702 1.2861 9.385 1.21619 9.15748 1.21619C8.92997 1.21619 8.70795 1.2861 8.52148 1.41646C8.33501 1.54682 8.19311 1.73133 8.11498 1.94501L6.56498 6.16001C6.55732 6.18083 6.5438 6.19898 6.52606 6.21229C6.50832 6.22559 6.48711 6.23349 6.46498 6.23501L1.96498 6.40501C1.73328 6.4088 1.50858 6.485 1.32238 6.62294C1.13618 6.76087 0.997812 6.95363 0.926686 7.17417C0.855561 7.39471 0.855242 7.63198 0.925774 7.85272C0.996305 8.07345 1.13415 8.26658 1.31998 8.40501L4.84998 11.18C4.86765 11.1939 4.88085 11.2127 4.88796 11.234C4.89507 11.2553 4.89577 11.2783 4.88998 11.3L3.67498 15.605C3.61202 15.8242 3.61812 16.0575 3.69245 16.2732C3.76678 16.4888 3.90573 16.6763 4.09041 16.8102C4.27508 16.944 4.4965 17.0177 4.72456 17.0213C4.95261 17.0248 5.17623 16.9581 5.36498 16.83L9.09498 14.33C9.11336 14.3173 9.13516 14.3105 9.15748 14.3105C9.17981 14.3105 9.20161 14.3173 9.21998 14.33L12.95 16.83C13.1362 16.9624 13.359 17.0336 13.5875 17.0336C13.816 17.0336 14.0388 16.9624 14.225 16.83C14.4097 16.6974 14.5488 16.5108 14.6231 16.2959C14.6974 16.081 14.7033 15.8484 14.64 15.63L13.415 11.31C13.4085 11.2883 13.4089 11.2652 13.416 11.2437C13.4232 11.2222 13.4368 11.2035 13.455 11.19L17 8.39001ZM12.45 11.555L13.675 15.875C13.685 15.8981 13.6867 15.9239 13.68 15.9481C13.6732 15.9724 13.6584 15.9935 13.6379 16.0082C13.6175 16.0228 13.5926 16.0299 13.5675 16.0285C13.5424 16.027 13.5186 16.0169 13.5 16L9.76998 13.5C9.58697 13.3761 9.371 13.3099 9.14998 13.31V2.22001C9.17352 2.2181 9.19698 2.22458 9.2162 2.23831C9.23542 2.25204 9.24916 2.27213 9.25498 2.29501L10.81 6.50001C10.8853 6.70726 11.0206 6.88737 11.1987 7.01739C11.3769 7.1474 11.5896 7.22142 11.81 7.23001L16.31 7.40001C16.3335 7.39963 16.3565 7.40681 16.3757 7.42049C16.3948 7.43416 16.4091 7.45362 16.4164 7.476C16.4236 7.49838 16.4235 7.5225 16.4161 7.54482C16.4087 7.56714 16.3942 7.58649 16.375 7.60001L12.845 10.375C12.6683 10.5093 12.536 10.6937 12.4656 10.9041C12.3951 11.1146 12.3897 11.3414 12.45 11.555Z" fill="#160706"/>
</svg>
