<svg width="18" height="18" viewBox="0 0 18 18" fill="none" xmlns="http://www.w3.org/2000/svg">
<path d="M9 4.91501C8.86739 4.91501 8.74021 4.96769 8.64645 5.06146C8.55268 5.15522 8.5 5.2824 8.5 5.41501V9.77501L11.45 11.775C11.5607 11.8453 11.6947 11.8693 11.8229 11.8418C11.9512 11.8143 12.0635 11.7375 12.1356 11.628C12.2078 11.5184 12.234 11.3849 12.2086 11.2562C12.1833 11.1275 12.1083 11.014 12 10.94L9.5 9.24501V5.41501C9.5 5.2824 9.44732 5.15522 9.35355 5.06146C9.25979 4.96769 9.13261 4.91501 9 4.91501Z" fill="#160706"/>
<path d="M9 1C7.57163 1.005 6.17034 1.39021 4.94011 2.11604C3.70989 2.84187 2.6951 3.88215 2 5.13V2.6C2 2.46739 1.94732 2.34021 1.85355 2.24645C1.75979 2.15268 1.63261 2.1 1.5 2.1C1.36739 2.1 1.24021 2.15268 1.14645 2.24645C1.05268 2.34021 1 2.46739 1 2.6V7H5.4C5.53261 7 5.65979 6.94732 5.75355 6.85355C5.84732 6.75979 5.9 6.63261 5.9 6.5C5.9 6.36739 5.84732 6.24021 5.75355 6.14645C5.65979 6.05268 5.53261 6 5.4 6H2.675C3.30562 4.6691 4.33994 3.571 5.63077 2.86196C6.92161 2.15293 8.40319 1.8691 9.86468 2.05085C11.3262 2.23259 12.6931 2.87067 13.771 3.87427C14.8488 4.87787 15.5827 6.19586 15.8681 7.64068C16.1535 9.0855 15.976 10.5835 15.3607 11.9216C14.7455 13.2597 13.7239 14.3696 12.4413 15.0935C11.1587 15.8173 9.6805 16.1182 8.21702 15.9533C6.75353 15.7884 5.37934 15.1661 4.29 14.175C4.24141 14.1307 4.18457 14.0964 4.12272 14.074C4.06086 14.0517 3.99522 14.0417 3.92952 14.0447C3.86382 14.0477 3.79936 14.0637 3.73982 14.0916C3.68028 14.1195 3.62682 14.1589 3.5825 14.2075C3.53818 14.2561 3.50386 14.3129 3.48151 14.3748C3.45916 14.4366 3.4492 14.5023 3.45222 14.568C3.45524 14.6337 3.47117 14.6981 3.4991 14.7577C3.52703 14.8172 3.56641 14.8707 3.615 14.915C4.57608 15.7902 5.73593 16.418 6.99421 16.7441C8.25248 17.0702 9.57127 17.0849 10.8365 16.7867C12.1016 16.4885 13.2751 15.8865 14.2554 15.0329C15.2356 14.1792 15.993 13.0995 16.4622 11.8873C16.9313 10.675 17.098 9.36674 16.9478 8.0756C16.7976 6.78445 16.335 5.54936 15.6001 4.47718C14.8653 3.405 13.8802 2.52803 12.7302 1.92216C11.5802 1.3163 10.2998 0.999781 9 1Z" fill="#160706"/>
</svg>
