<svg width="21" height="20" viewBox="0 0 21 20" fill="none" xmlns="http://www.w3.org/2000/svg">
<path d="M18.8333 10.5555C18.7602 10.556 18.6877 10.5419 18.62 10.5143C18.5523 10.4867 18.4908 10.4459 18.4389 10.3944L10.5 2.44998L2.56109 10.3944C2.45481 10.4854 2.3181 10.533 2.17828 10.5276C2.03846 10.5222 1.90583 10.4642 1.80688 10.3653C1.70794 10.2664 1.64998 10.1337 1.64458 9.9939C1.63918 9.85408 1.68674 9.71737 1.77775 9.6111L10.1111 1.27776C10.2152 1.17429 10.356 1.11621 10.5028 1.11621C10.6495 1.11621 10.7903 1.17429 10.8944 1.27776L19.2278 9.6111C19.3042 9.68909 19.356 9.78788 19.3766 9.89513C19.3972 10.0024 19.3857 10.1133 19.3437 10.2141C19.3016 10.3149 19.2307 10.401 19.1399 10.4617C19.0492 10.5225 18.9425 10.5551 18.8333 10.5555Z" fill="url(#paint0_linear_2110_1443)"/>
<path d="M10.5 4.32788L3.83331 11.0168V17.7779C3.83331 18.0726 3.95038 18.3552 4.15875 18.5636C4.36712 18.7719 4.64974 18.889 4.94442 18.889H8.83331V13.3334H12.1666V18.889H16.0555C16.3502 18.889 16.6328 18.7719 16.8412 18.5636C17.0496 18.3552 17.1666 18.0726 17.1666 17.7779V10.9779L10.5 4.32788Z" fill="url(#paint1_linear_2110_1443)"/>
<defs>
<linearGradient id="paint0_linear_2110_1443" x1="1.64417" y1="-1.15318" x2="12.3612" y2="15.7759" gradientUnits="userSpaceOnUse">
<stop offset="0.0520833" stop-color="#AC4162"/>
<stop offset="0.807292" stop-color="#730034"/>
</linearGradient>
<linearGradient id="paint1_linear_2110_1443" x1="3.83331" y1="0.827126" x2="21.5134" y2="14.4327" gradientUnits="userSpaceOnUse">
<stop offset="0.0520833" stop-color="#AC4162"/>
<stop offset="0.807292" stop-color="#730034"/>
</linearGradient>
</defs>
</svg>
