<svg width="18" height="18" viewBox="0 0 18 18" fill="none" xmlns="http://www.w3.org/2000/svg">
<path d="M9 7C9.55228 7 10 6.55228 10 6C10 5.44771 9.55228 5 9 5C8.44772 5 8 5.44771 8 6C8 6.55228 8.44772 7 9 7Z" fill="#160706"/>
<path d="M10.5 12H9.5V8H8C7.86739 8 7.74021 8.05268 7.64645 8.14645C7.55268 8.24021 7.5 8.36739 7.5 8.5C7.5 8.63261 7.55268 8.75979 7.64645 8.85355C7.74021 8.94732 7.86739 9 8 9H8.5V12H7.5C7.36739 12 7.24021 12.0527 7.14645 12.1464C7.05268 12.2402 7 12.3674 7 12.5C7 12.6326 7.05268 12.7598 7.14645 12.8536C7.24021 12.9473 7.36739 13 7.5 13H10.5C10.6326 13 10.7598 12.9473 10.8536 12.8536C10.9473 12.7598 11 12.6326 11 12.5C11 12.3674 10.9473 12.2402 10.8536 12.1464C10.7598 12.0527 10.6326 12 10.5 12Z" fill="#160706"/>
<path d="M9 1C7.41775 1 5.87103 1.46919 4.55544 2.34824C3.23985 3.22729 2.21447 4.47672 1.60897 5.93853C1.00347 7.40034 0.84504 9.00887 1.15372 10.5607C1.4624 12.1126 2.22433 13.538 3.34315 14.6569C4.46197 15.7757 5.88743 16.5376 7.43928 16.8463C8.99113 17.155 10.5997 16.9965 12.0615 16.391C13.5233 15.7855 14.7727 14.7602 15.6518 13.4446C16.5308 12.129 17 10.5822 17 9C17 6.87827 16.1571 4.84344 14.6569 3.34315C13.1566 1.84285 11.1217 1 9 1ZM9 15.6667C7.68146 15.6667 6.39253 15.2757 5.2962 14.5431C4.19987 13.8106 3.34539 12.7694 2.84081 11.5512C2.33622 10.333 2.2042 8.9926 2.46143 7.6994C2.71867 6.40619 3.35361 5.2183 4.28596 4.28595C5.21831 3.3536 6.40619 2.71867 7.6994 2.46143C8.99261 2.2042 10.333 2.33622 11.5512 2.8408C12.7694 3.34539 13.8106 4.19987 14.5431 5.2962C15.2757 6.39253 15.6667 7.68146 15.6667 9C15.6667 9.87548 15.4942 10.7424 15.1592 11.5512C14.8242 12.3601 14.3331 13.095 13.714 13.714C13.095 14.3331 12.3601 14.8242 11.5512 15.1592C10.7424 15.4942 9.87548 15.6667 9 15.6667Z" fill="#160706"/>
</svg>
