<svg width="18" height="18" viewBox="0 0 18 18" fill="none" xmlns="http://www.w3.org/2000/svg">
<path d="M8.79998 12.16L7.56998 13.38C7.19568 13.7495 6.69092 13.9566 6.16498 13.9566C5.63905 13.9566 5.13428 13.7495 4.75998 13.38C4.57751 13.1979 4.43274 12.9817 4.33396 12.7436C4.23518 12.5055 4.18434 12.2503 4.18434 11.9925C4.18434 11.7347 4.23518 11.4795 4.33396 11.2414C4.43274 11.0033 4.57751 10.7871 4.75998 10.605L7.10498 8.28001C7.47928 7.91054 7.98405 7.70337 8.50998 7.70337C9.03592 7.70337 9.54068 7.91054 9.91498 8.28001C10.1532 8.51666 10.3255 8.81136 10.415 9.13501C10.4642 9.09441 10.5094 9.04921 10.55 9.00001L11.195 8.36001C11.0506 8.0594 10.8561 7.7855 10.62 7.55001C10.0583 6.99429 9.3001 6.68259 8.50998 6.68259C7.71986 6.68259 6.96165 6.99429 6.39998 7.55001L4.04998 9.89501C3.77318 10.1697 3.55349 10.4965 3.40356 10.8564C3.25364 11.2164 3.17645 11.6025 3.17645 11.9925C3.17645 12.3825 3.25364 12.7686 3.40356 13.1286C3.55349 13.4886 3.77318 13.8153 4.04998 14.09C4.61165 14.6457 5.36986 14.9574 6.15998 14.9574C6.9501 14.9574 7.70832 14.6457 8.26998 14.09L10.095 12.28H9.84498C9.49289 12.2862 9.14151 12.2458 8.79998 12.16Z" fill="#160706"/>
<path d="M14.305 3.90999C13.7434 3.35428 12.9851 3.04257 12.195 3.04257C11.4049 3.04257 10.6467 3.35428 10.085 3.90999L8.26003 5.71999H8.50503C8.85969 5.7199 9.21278 5.76698 9.55503 5.85999L10.785 4.63999C11.1593 4.27052 11.6641 4.06336 12.19 4.06336C12.716 4.06336 13.2207 4.27052 13.595 4.63999C13.7775 4.82205 13.9223 5.03832 14.0211 5.27641C14.1198 5.51449 14.1707 5.76973 14.1707 6.02749C14.1707 6.28526 14.1198 6.54049 14.0211 6.77858C13.9223 7.01666 13.7775 7.23293 13.595 7.41499L11.25 9.73999C10.8757 10.1095 10.371 10.3166 9.84503 10.3166C9.3191 10.3166 8.81433 10.1095 8.44003 9.73999C8.20182 9.50334 8.02948 9.20863 7.94003 8.88499C7.88998 8.91901 7.84312 8.9575 7.80003 8.99999L7.15503 9.63999C7.29945 9.9406 7.49388 10.2145 7.73003 10.45C8.29169 11.0057 9.04991 11.3174 9.84003 11.3174C10.6301 11.3174 11.3884 11.0057 11.95 10.45L14.295 8.12499C14.5712 7.84997 14.7904 7.5231 14.9399 7.16315C15.0895 6.80321 15.1665 6.41727 15.1665 6.02749C15.1665 5.63772 15.0895 5.25178 14.9399 4.89183C14.7904 4.53188 14.5712 4.20502 14.295 3.92999L14.305 3.90999Z" fill="#160706"/>
</svg>
