<svg width="18" height="18" viewBox="0 0 18 18" fill="none" xmlns="http://www.w3.org/2000/svg">
<path d="M13 7.49999V5.35999C13.0215 4.27594 12.6127 3.22751 11.863 2.44414C11.1134 1.66076 10.084 1.20623 9 1.17999C7.91605 1.20623 6.88662 1.66076 6.13698 2.44414C5.38734 3.22751 4.97853 4.27594 5 5.35999V7.49999H3.5V16C3.5 16.2652 3.60536 16.5196 3.79289 16.7071C3.98043 16.8946 4.23478 17 4.5 17H13.5C13.7652 17 14.0196 16.8946 14.2071 16.7071C14.3946 16.5196 14.5 16.2652 14.5 16V7.49999H13ZM9.5 12.615V14H8.5V12.57C8.25657 12.4447 8.06329 12.24 7.95222 11.9898C7.84116 11.7396 7.81899 11.4589 7.88939 11.1944C7.95979 10.9298 8.11853 10.6973 8.33928 10.5354C8.56002 10.3734 8.82949 10.2919 9.10297 10.3042C9.37646 10.3165 9.63751 10.4219 9.84282 10.603C10.0481 10.7841 10.1853 11.03 10.2317 11.2998C10.2781 11.5696 10.2308 11.8471 10.0977 12.0863C9.96458 12.3256 9.75369 12.5121 9.5 12.615ZM12 7.49999H6V5.35999C5.97844 4.54111 6.28188 3.74699 6.84401 3.15113C7.40613 2.55528 8.18125 2.20613 9 2.17999C9.81875 2.20613 10.5939 2.55528 11.156 3.15113C11.7181 3.74699 12.0216 4.54111 12 5.35999V7.49999Z" fill="black"/>
</svg>
