<svg width="18" height="18" viewBox="0 0 18 18" fill="none" xmlns="http://www.w3.org/2000/svg">
<path d="M11.5 2H3.5C3.23478 2 2.98043 2.10536 2.79289 2.29289C2.60536 2.48043 2.5 2.73478 2.5 3V15C2.5 15.2652 2.60536 15.5196 2.79289 15.7071C2.98043 15.8946 3.23478 16 3.5 16H11.5C11.7652 16 12.0196 15.8946 12.2071 15.7071C12.3946 15.5196 12.5 15.2652 12.5 15V12H7.815C7.68239 12 7.55521 11.9473 7.46145 11.8536C7.36768 11.7598 7.315 11.6326 7.315 11.5C7.315 11.3674 7.36768 11.2402 7.46145 11.1464C7.55521 11.0527 7.68239 11 7.815 11H12.5V3C12.5 2.73478 12.3946 2.48043 12.2071 2.29289C12.0196 2.10536 11.7652 2 11.5 2Z" fill="#160706"/>
<path d="M14.08 8.64C13.9843 8.55809 13.8613 8.51529 13.7355 8.52015C13.6096 8.52501 13.4903 8.57718 13.4012 8.66622C13.3122 8.75527 13.26 8.87464 13.2551 9.00048C13.2503 9.12631 13.2931 9.24935 13.375 9.345L15.065 11H12.5V12H15.065L13.375 13.73C13.3227 13.7748 13.2801 13.83 13.2501 13.892C13.2201 13.9541 13.2033 14.0216 13.2006 14.0905C13.1979 14.1593 13.2095 14.228 13.2347 14.2922C13.2598 14.3563 13.2979 14.4146 13.3467 14.4633C13.3954 14.5121 13.4537 14.5502 13.5178 14.5753C13.582 14.6005 13.6507 14.6121 13.7195 14.6094C13.7884 14.6067 13.856 14.5899 13.918 14.5599C13.98 14.5299 14.0352 14.4873 14.08 14.435L17 11.535L14.08 8.64Z" fill="#160706"/>
</svg>
