<svg width="18" height="18" viewBox="0 0 18 18" fill="none" xmlns="http://www.w3.org/2000/svg">
<path d="M8.99999 1C7.44259 1.0013 5.94898 1.61884 4.84539 2.71775C3.7418 3.81665 3.11791 5.30762 3.10999 6.865C3.10999 9.2 4.41999 11.155 5.37999 12.58L5.55499 12.84C6.51013 14.2243 7.53477 15.5594 8.62499 16.84L9.00499 17.285L9.38499 16.84C10.4751 15.5592 11.4997 14.2242 12.455 12.84L12.63 12.575C13.585 11.15 14.895 9.2 14.895 6.865C14.8871 5.30675 14.2625 3.81503 13.1578 2.71599C12.0531 1.61694 10.5583 0.99998 8.99999 1ZM8.99999 9.5C8.35126 9.5 7.71711 9.30763 7.17772 8.94722C6.63832 8.58681 6.21792 8.07454 5.96966 7.4752C5.72141 6.87586 5.65645 6.21636 5.78301 5.5801C5.90957 4.94385 6.22196 4.35941 6.68068 3.90069C7.13939 3.44197 7.72383 3.12958 8.36009 3.00302C8.99635 2.87646 9.65585 2.94142 10.2552 3.18968C10.8545 3.43793 11.3668 3.85834 11.7272 4.39773C12.0876 4.93712 12.28 5.57128 12.28 6.22C12.28 7.08991 11.9344 7.92419 11.3193 8.53931C10.7042 9.15443 9.8699 9.5 8.99999 9.5Z" fill="#160706"/>
<path d="M9.00001 8.08501C10.03 8.08501 10.865 7.25002 10.865 6.22001C10.865 5.19 10.03 4.35501 9.00001 4.35501C7.97 4.35501 7.13501 5.19 7.13501 6.22001C7.13501 7.25002 7.97 8.08501 9.00001 8.08501Z" fill="#160706"/>
</svg>
