<svg width="18" height="18" viewBox="0 0 18 18" fill="none" xmlns="http://www.w3.org/2000/svg">
  <path
    d="M16.425 14.065L16.255 13.915C15.7727 13.4853 15.3506 12.9925 15 12.45C14.6171 11.7013 14.3876 10.8836 14.325 10.045V7.57501C14.3283 6.25782 13.8505 4.98475 12.9814 3.995C12.1123 3.00525 10.9116 2.36694 9.60502 2.20001V1.55501C9.60502 1.37798 9.5347 1.2082 9.40952 1.08302C9.28434 0.957838 9.11456 0.887512 8.93752 0.887512C8.76049 0.887512 8.59071 0.957838 8.46553 1.08302C8.34035 1.2082 8.27002 1.37798 8.27002 1.55501V2.21001C6.97515 2.38898 5.78901 3.03114 4.93129 4.01757C4.07357 5.00399 3.60239 6.26783 3.60502 7.57501V10.045C3.5424 10.8836 3.31291 11.7013 2.93002 12.45C2.58547 12.9912 2.17012 13.4839 1.69502 13.915L1.52502 14.065V15.475H16.425V14.065Z"
    fill="#160706" />
  <path
    d="M7.65997 16C7.70382 16.3169 7.86087 16.6073 8.10212 16.8175C8.34336 17.0276 8.65252 17.1434 8.97247 17.1434C9.29243 17.1434 9.60158 17.0276 9.84283 16.8175C10.0841 16.6073 10.2411 16.3169 10.285 16H7.65997Z"
    fill="#160706" />
</svg>