<svg width="18" height="18" viewBox="0 0 18 18" fill="none" xmlns="http://www.w3.org/2000/svg">
<path d="M2.97033 15.5692L2.94678 15.5668L2.92311 15.5667C2.86122 15.5663 2.80019 15.5521 2.74448 15.5251C2.68877 15.4982 2.6398 15.4591 2.60113 15.4107C2.56247 15.3624 2.53508 15.3061 2.52099 15.2458C2.50708 15.1863 2.50646 15.1245 2.51913 15.0648L3.33047 11.5633L9.8896 4.99584L13.1097 8.20864L6.5263 14.7671L3.03534 15.5711C3.01366 15.572 2.99194 15.5714 2.97033 15.5692Z" stroke="#160706"/>
<path d="M15.6775 5.05137L15.6791 5.05288C15.7183 5.09176 15.7494 5.13798 15.7708 5.18892C15.7921 5.23985 15.8032 5.29449 15.8034 5.3497C15.8035 5.40492 15.7928 5.45964 15.7719 5.51071C15.751 5.56164 15.7202 5.60796 15.6814 5.64702C15.6813 5.64714 15.6812 5.64726 15.6811 5.64737L14.5778 6.7507L11.3604 3.53336L12.4638 2.43003C12.4639 2.42991 12.464 2.42979 12.4641 2.42967C12.5428 2.35159 12.6491 2.30777 12.76 2.30777C12.8709 2.30777 12.9772 2.3516 13.0559 2.4297C13.056 2.42981 13.0561 2.42992 13.0562 2.43003L15.6775 5.05136L15.6775 5.05137Z" stroke="#160706"/>
</svg>
