<svg width="18" height="18" viewBox="0 0 18 18" fill="none" xmlns="http://www.w3.org/2000/svg">
<path d="M2.87565 11.3111L2.0312 14.9556C2.00207 15.0888 2.00307 15.2269 2.03413 15.3596C2.06518 15.4924 2.12551 15.6166 2.2107 15.7231C2.29589 15.8296 2.40379 15.9157 2.52653 15.9751C2.64926 16.0346 2.78372 16.0659 2.92009 16.0667C2.98363 16.0731 3.04766 16.0731 3.1112 16.0667L6.77787 15.2222L13.8179 8.20891L9.88898 4.28891L2.87565 11.3111Z" fill="#160706"/>
<path d="M16.0311 4.69781L13.4089 2.07559C13.2365 1.90406 13.0032 1.80777 12.76 1.80777C12.5168 1.80777 12.2835 1.90406 12.1111 2.07559L10.6533 3.53336L14.5778 7.45781L16.0355 6.00003C16.1209 5.91429 16.1884 5.81256 16.2344 5.70068C16.2803 5.5888 16.3038 5.46895 16.3034 5.348C16.3029 5.22705 16.2787 5.10736 16.232 4.99579C16.1853 4.88423 16.117 4.78297 16.0311 4.69781Z" fill="#160706"/>
</svg>
