<svg width="18" height="18" viewBox="0 0 18 18" fill="none" xmlns="http://www.w3.org/2000/svg">
<path d="M7.61 10.32C8.65374 11.3788 9.91664 12.1963 11.31 12.715L13.195 11.215C13.2509 11.1765 13.3171 11.1559 13.385 11.1559C13.4529 11.1559 13.5191 11.1765 13.575 11.215L17.075 13.47C17.2079 13.5499 17.3204 13.6596 17.4036 13.7904C17.4867 13.9212 17.5384 14.0696 17.5544 14.2238C17.5704 14.378 17.5503 14.5338 17.4958 14.679C17.4412 14.8241 17.3536 14.9545 17.24 15.06L15.6 16.68C15.3651 16.9121 15.0765 17.0824 14.7598 17.1757C14.4431 17.2691 14.1082 17.2826 13.785 17.215C10.5611 16.5492 7.58957 14.9897 5.21 12.715C2.88324 10.4176 1.27313 7.49442 0.574997 4.29999C0.50603 3.98181 0.520425 3.65121 0.616785 3.34023C0.713146 3.02925 0.888205 2.74843 1.125 2.52499L2.825 0.884992C2.9302 0.776885 3.05849 0.693979 3.20027 0.642481C3.34205 0.590982 3.49365 0.572226 3.6437 0.587616C3.79376 0.603007 3.93839 0.652145 4.06677 0.731352C4.19514 0.810559 4.30393 0.917781 4.385 1.04499L6.715 4.49999C6.75519 4.55424 6.77688 4.61998 6.77688 4.68749C6.77688 4.75501 6.75519 4.82074 6.715 4.87499L5.18 6.71999C5.71279 8.08546 6.54286 9.3152 7.61 10.32Z" fill="#160706"/>
</svg>
