<svg width="18" height="18" viewBox="0 0 18 18" fill="none" xmlns="http://www.w3.org/2000/svg">
<path d="M15 8.5H9.49996V3C9.49996 2.86739 9.44728 2.74021 9.35352 2.64645C9.25975 2.55268 9.13257 2.5 8.99996 2.5C8.86735 2.5 8.74018 2.55268 8.64641 2.64645C8.55264 2.74021 8.49996 2.86739 8.49996 3V8.5H2.99996C2.86735 8.5 2.74018 8.55268 2.64641 8.64645C2.55264 8.74021 2.49996 8.86739 2.49996 9C2.49749 9.06498 2.50898 9.12974 2.53366 9.18991C2.55833 9.25007 2.59562 9.30425 2.643 9.34879C2.69038 9.39333 2.74676 9.42719 2.80834 9.4481C2.86991 9.46901 2.93526 9.47648 2.99996 9.47H8.49996V15C8.49996 15.1326 8.55264 15.2598 8.64641 15.3536C8.74018 15.4473 8.86735 15.5 8.99996 15.5C9.13257 15.5 9.25975 15.4473 9.35352 15.3536C9.44728 15.2598 9.49996 15.1326 9.49996 15V9.5H15C15.1326 9.5 15.2597 9.44732 15.3535 9.35355C15.4473 9.25979 15.5 9.13261 15.5 9C15.5 8.86739 15.4473 8.74021 15.3535 8.64645C15.2597 8.55268 15.1326 8.5 15 8.5Z" fill="#160706"/>
</svg>
