<svg width="18" height="18" viewBox="0 0 18 18" fill="none" xmlns="http://www.w3.org/2000/svg">
  <path
    d="M9 1C7.41775 1 5.87103 1.46919 4.55544 2.34824C3.23985 3.22729 2.21447 4.47672 1.60897 5.93853C1.00347 7.40034 0.84504 9.00887 1.15372 10.5607C1.4624 12.1126 2.22433 13.538 3.34315 14.6569C4.46197 15.7757 5.88743 16.5376 7.43928 16.8463C8.99113 17.155 10.5997 16.9965 12.0615 16.391C13.5233 15.7855 14.7727 14.7602 15.6518 13.4446C16.5308 12.129 17 10.5822 17 9C17 6.87827 16.1571 4.84344 14.6569 3.34315C13.1566 1.84285 11.1217 1 9 1ZM9 15.6667C7.68146 15.6667 6.39253 15.2757 5.2962 14.5431C4.19987 13.8106 3.34539 12.7694 2.84081 11.5512C2.33622 10.333 2.2042 8.9926 2.46143 7.6994C2.71867 6.40619 3.35361 5.2183 4.28596 4.28595C5.21831 3.3536 6.40619 2.71867 7.6994 2.46143C8.99261 2.2042 10.333 2.33622 11.5512 2.8408C12.7694 3.34539 13.8106 4.19987 14.5431 5.2962C15.2757 6.39253 15.6667 7.68146 15.6667 9C15.6667 9.87548 15.4942 10.7424 15.1592 11.5512C14.8242 12.3601 14.3331 13.095 13.714 13.714C13.095 14.3331 12.3601 14.8242 11.5512 15.1592C10.7424 15.4942 9.87548 15.6667 9 15.6667Z"
    fill="#160706" />
  <path
    d="M8.02402 11.0834C7.60548 11.0834 7.25242 10.7388 7.35252 10.3324C7.41966 10.0904 7.53957 9.86926 7.71223 9.66898C7.88489 9.46871 8.1295 9.28929 8.44604 9.13074C8.58034 9.05563 8.753 8.96801 8.96403 8.86787C9.18465 8.76773 9.39568 8.65508 9.59712 8.5299C9.79856 8.39638 9.96643 8.242 10.1007 8.06676C10.2446 7.88317 10.3165 7.67455 10.3165 7.44089C10.3165 7.20723 10.2494 7.01113 10.1151 6.85257C9.99041 6.69402 9.82254 6.57302 9.61151 6.48957C9.41007 6.40612 9.18945 6.3644 8.94964 6.3644C8.67146 6.3644 8.42206 6.41864 8.20144 6.52712C7.98082 6.62726 7.79376 6.75243 7.64029 6.90264C7.39805 7.13972 7.02314 7.2286 6.73249 7.05422L6.61767 6.98533C6.26948 6.77642 6.13308 6.32312 6.40562 6.02212C6.49719 5.92098 6.597 5.82645 6.70504 5.73853C7.01199 5.49652 7.36211 5.31293 7.7554 5.18776C8.15827 5.06259 8.57554 5 9.00719 5C9.3717 5 9.73141 5.05007 10.0863 5.15021C10.4412 5.242 10.7626 5.38804 11.0504 5.58832C11.3381 5.7886 11.5683 6.04312 11.741 6.35188C11.9137 6.66064 12 7.03199 12 7.46593C12 7.73296 11.9616 7.97079 11.8849 8.17942C11.8177 8.38804 11.717 8.5758 11.5827 8.7427C11.458 8.90125 11.2998 9.04729 11.1079 9.18081C10.9161 9.31433 10.7098 9.44367 10.4892 9.56885C10.2398 9.70236 9.98561 9.83171 9.72662 9.95688C9.47722 10.0821 9.26619 10.2323 9.09353 10.4075C8.8087 10.699 8.51853 11.0834 8.11097 11.0834H8.02402ZM8.09353 14C7.65249 14 7.29496 13.6425 7.29496 13.2014V13.0712C7.29496 12.6301 7.65249 12.2726 8.09353 12.2726C8.53456 12.2726 8.89209 12.6301 8.89209 13.0712V13.2014C8.89209 13.6425 8.53456 14 8.09353 14Z"
    fill="#160706" />
</svg>