<svg width="18" height="18" viewBox="0 0 18 18" fill="none" xmlns="http://www.w3.org/2000/svg">
<path fill-rule="evenodd" clip-rule="evenodd" d="M4.55544 2.34824C5.87103 1.46919 7.41775 1 9 1C11.1217 1 13.1566 1.84285 14.6569 3.34315C16.1571 4.84344 17 6.87827 17 9C17 10.5822 16.5308 12.129 15.6518 13.4446C14.7727 14.7602 13.5233 15.7855 12.0615 16.391C10.5997 16.9965 8.99113 17.155 7.43928 16.8463C5.88743 16.5376 4.46197 15.7757 3.34315 14.6569C2.22433 13.538 1.4624 12.1126 1.15372 10.5607C0.84504 9.00887 1.00347 7.40034 1.60897 5.93853C2.21447 4.47672 3.23985 3.22729 4.55544 2.34824ZM7.35252 10.3324C7.25242 10.7388 7.60548 11.0834 8.02402 11.0834H8.11097C8.459 11.0834 8.72143 10.8031 8.96803 10.5397C9.01021 10.4947 9.05192 10.4501 9.09352 10.4075C9.26619 10.2323 9.47722 10.0821 9.72662 9.95688C9.98561 9.83171 10.2398 9.70236 10.4892 9.56885C10.7098 9.44367 10.9161 9.31433 11.1079 9.18081C11.2998 9.04729 11.458 8.90125 11.5827 8.7427C11.717 8.5758 11.8177 8.38804 11.8849 8.17942C11.9616 7.97079 12 7.73296 12 7.46593C12 7.03199 11.9137 6.66064 11.741 6.35188C11.5683 6.04312 11.3381 5.7886 11.0504 5.58832C10.7626 5.38804 10.4412 5.242 10.0863 5.15021C9.73141 5.05007 9.3717 5 9.00719 5C8.57554 5 8.15827 5.06259 7.7554 5.18776C7.36211 5.31293 7.01199 5.49652 6.70504 5.73853C6.597 5.82645 6.49719 5.92098 6.40562 6.02212C6.13308 6.32312 6.26948 6.77642 6.61767 6.98533L6.73249 7.05422C7.02314 7.2286 7.39805 7.13972 7.64029 6.90264C7.79377 6.75243 7.98081 6.62726 8.20144 6.52712C8.42206 6.41864 8.67146 6.3644 8.94964 6.3644C9.18945 6.3644 9.41007 6.40612 9.61151 6.48957C9.82254 6.57302 9.99041 6.69402 10.1151 6.85257C10.2494 7.01113 10.3165 7.20723 10.3165 7.44089C10.3165 7.67455 10.2446 7.88317 10.1007 8.06676C9.96643 8.242 9.79856 8.39638 9.59712 8.5299C9.39568 8.65508 9.18465 8.76773 8.96403 8.86787C8.753 8.96801 8.58034 9.05563 8.44604 9.13074C8.1295 9.28929 7.88489 9.46871 7.71223 9.66898C7.53957 9.86926 7.41966 10.0904 7.35252 10.3324ZM7.29496 13.2014C7.29496 13.6425 7.65249 14 8.09352 14C8.53456 14 8.89209 13.6425 8.89209 13.2014V13.0712C8.89209 12.6301 8.53456 12.2726 8.09352 12.2726C7.65249 12.2726 7.29496 12.6301 7.29496 13.0712V13.2014Z" fill="#160706"/>
</svg>
