<svg width="21" height="20" viewBox="0 0 21 20" fill="none" xmlns="http://www.w3.org/2000/svg">
<path d="M10.5 1.11108C8.74192 1.11108 7.02334 1.63241 5.56157 2.60913C4.0998 3.58586 2.96049 4.97411 2.28771 6.59834C1.61494 8.22257 1.43891 10.0098 1.78189 11.7341C2.12487 13.4584 2.97145 15.0422 4.21458 16.2854C5.45772 17.5285 7.04156 18.3751 8.76584 18.7181C10.4901 19.061 12.2774 18.885 13.9016 18.2122C15.5258 17.5395 16.9141 16.4001 17.8908 14.9384C18.8675 13.4766 19.3889 11.758 19.3889 9.99997C19.3889 7.64249 18.4524 5.38157 16.7854 3.71458C15.1184 2.04759 12.8575 1.11108 10.5 1.11108ZM10.5 17.4074C9.03493 17.4074 7.60278 16.9729 6.38464 16.159C5.1665 15.3451 4.21707 14.1882 3.65642 12.8347C3.09578 11.4811 2.94908 9.99175 3.2349 8.55486C3.52072 7.11796 4.2262 5.79809 5.26215 4.76214C6.29809 3.7262 7.61797 3.02071 9.05486 2.7349C10.4918 2.44908 11.9811 2.59577 13.3347 3.15642C14.6882 3.71707 15.8451 4.6665 16.659 5.88464C17.4729 7.10278 17.9074 8.53493 17.9074 9.99997C17.9074 10.9727 17.7158 11.936 17.3435 12.8347C16.9713 13.7334 16.4256 14.55 15.7378 15.2378C15.05 15.9256 14.2334 16.4713 13.3347 16.8435C12.436 17.2158 11.4727 17.4074 10.5 17.4074Z" fill="url(#paint0_linear_756_1452)"/>
<path d="M9.41553 12.3151C8.95049 12.3151 8.5582 11.9321 8.66942 11.4806V11.4806C8.74403 11.2117 8.87726 10.966 9.0691 10.7434C9.26095 10.5209 9.53273 10.3215 9.88445 10.1454C10.0337 10.0619 10.2255 9.96457 10.46 9.8533C10.7051 9.74203 10.9396 9.61686 11.1634 9.47778C11.3872 9.32942 11.5738 9.15789 11.723 8.96317C11.8829 8.75919 11.9628 8.52738 11.9628 8.26776C11.9628 8.00814 11.8882 7.79025 11.739 7.61408C11.6004 7.43791 11.4139 7.30346 11.1794 7.21074C10.9556 7.11802 10.7105 7.07166 10.444 7.07166C10.1349 7.07166 9.85781 7.13193 9.61267 7.25247C9.36753 7.36373 9.1597 7.50281 8.98917 7.66971V7.66971C8.72001 7.93314 8.30345 8.03189 7.98051 7.83813L7.85293 7.76158C7.46605 7.52947 7.3145 7.0258 7.61731 6.69136C7.71906 6.57898 7.82996 6.47394 7.95 6.37625C8.29106 6.10736 8.68008 5.90337 9.11707 5.76429C9.56471 5.62521 10.0283 5.55566 10.508 5.55566C10.913 5.55566 11.3126 5.6113 11.707 5.72256C12.1013 5.82456 12.4584 5.98682 12.7781 6.20935C13.0979 6.43188 13.3537 6.71468 13.5455 7.05775C13.7374 7.40082 13.8333 7.81343 13.8333 8.29558C13.8333 8.59229 13.7907 8.85655 13.7054 9.08835C13.6308 9.32015 13.5189 9.52878 13.3697 9.71422C13.2311 9.89039 13.0552 10.0527 12.8421 10.201C12.6289 10.3494 12.3998 10.4931 12.1546 10.6322C11.8775 10.7805 11.5951 10.9242 11.3073 11.0633C11.0302 11.2024 10.7957 11.3693 10.6039 11.564V11.564C10.2874 11.8879 9.96499 12.3151 9.51215 12.3151H9.41553ZM9.49276 15.5557C9.00273 15.5557 8.60547 15.1584 8.60547 14.6684V14.5236C8.60547 14.0336 9.00273 13.6363 9.49276 13.6363V13.6363C9.9828 13.6363 10.3801 14.0336 10.3801 14.5236V14.6684C10.3801 15.1584 9.9828 15.5557 9.49276 15.5557V15.5557Z" fill="url(#paint1_linear_756_1452)"/>
<defs>
<linearGradient id="paint0_linear_756_1452" x1="1.61108" y1="-3.16302" x2="23.6084" y2="15.3237" gradientUnits="userSpaceOnUse">
<stop offset="0.0520833" stop-color="#F68982"/>
<stop offset="0.807292" stop-color="#E44C42"/>
</linearGradient>
<linearGradient id="paint1_linear_756_1452" x1="7.16663" y1="3.15148" x2="17.8791" y2="9.15335" gradientUnits="userSpaceOnUse">
<stop offset="0.0520833" stop-color="#F68982"/>
<stop offset="0.807292" stop-color="#E44C42"/>
</linearGradient>
</defs>
</svg>
