<svg width="21" height="20" viewBox="0 0 21 20" fill="none" xmlns="http://www.w3.org/2000/svg">
<path d="M10.5 1.11133C8.74192 1.11133 7.02334 1.63265 5.56157 2.60938C4.0998 3.5861 2.96049 4.97435 2.28771 6.59859C1.61494 8.22282 1.43891 10.0101 1.78189 11.7344C2.12487 13.4586 2.97145 15.0425 4.21458 16.2856C5.45772 17.5287 7.04156 18.3753 8.76584 18.7183C10.4901 19.0613 12.2774 18.8853 13.9016 18.2125C15.5258 17.5397 16.9141 16.4004 17.8908 14.9386C18.8675 13.4768 19.3889 11.7583 19.3889 10.0002C19.3889 7.64274 18.4524 5.38181 16.7854 3.71482C15.1184 2.04783 12.8575 1.11133 10.5 1.11133ZM10.5 17.4076C9.03493 17.4076 7.60278 16.9732 6.38464 16.1592C5.1665 15.3453 4.21707 14.1884 3.65642 12.8349C3.09578 11.4814 2.94908 9.992 3.2349 8.5551C3.52072 7.11821 4.2262 5.79833 5.26215 4.76239C6.29809 3.72644 7.61797 3.02096 9.05486 2.73514C10.4918 2.44932 11.9811 2.59602 13.3347 3.15666C14.6882 3.71731 15.8451 4.66674 16.659 5.88488C17.4729 7.10302 17.9074 8.53517 17.9074 10.0002C17.9074 10.973 17.7158 11.9362 17.3435 12.8349C16.9713 13.7336 16.4256 14.5502 15.7378 15.238C15.05 15.9259 14.2334 16.4715 13.3347 16.8438C12.436 17.216 11.4727 17.4076 10.5 17.4076Z" fill="url(#paint0_linear_2110_4529)"/>
<path d="M9.41559 12.3151C8.95055 12.3151 8.55826 11.9321 8.66948 11.4806V11.4806C8.74409 11.2117 8.87732 10.966 9.06917 10.7434C9.26101 10.5209 9.53279 10.3215 9.88451 10.1454C10.0337 10.0619 10.2256 9.96457 10.4601 9.8533C10.7052 9.74203 10.9397 9.61686 11.1635 9.47778C11.3873 9.32942 11.5738 9.15789 11.723 8.96317C11.8829 8.75919 11.9628 8.52738 11.9628 8.26776C11.9628 8.00814 11.8882 7.79025 11.739 7.61408C11.6005 7.43791 11.414 7.30346 11.1795 7.21074C10.9557 7.11802 10.7105 7.07166 10.4441 7.07166C10.135 7.07166 9.85787 7.13193 9.61273 7.25247C9.36759 7.36373 9.15976 7.50281 8.98923 7.66971V7.66971C8.72007 7.93314 8.30351 8.03189 7.98057 7.83813L7.85299 7.76158C7.46611 7.52947 7.31456 7.0258 7.61737 6.69136C7.71912 6.57898 7.83002 6.47394 7.95006 6.37625C8.29112 6.10736 8.68014 5.90337 9.11713 5.76429C9.56477 5.62521 10.0284 5.55566 10.508 5.55566C10.913 5.55566 11.3127 5.6113 11.7071 5.72256C12.1014 5.82456 12.4585 5.98682 12.7782 6.20935C13.0979 6.43188 13.3537 6.71468 13.5456 7.05775C13.7374 7.40082 13.8334 7.81343 13.8334 8.29558C13.8334 8.59229 13.7907 8.85655 13.7055 9.08835C13.6308 9.32015 13.5189 9.52878 13.3697 9.71422C13.2312 9.89039 13.0553 10.0527 12.8421 10.201C12.629 10.3494 12.3998 10.4931 12.1547 10.6322C11.8776 10.7805 11.5951 10.9242 11.3074 11.0633C11.0303 11.2024 10.7958 11.3693 10.6039 11.564V11.564C10.2875 11.8879 9.96505 12.3151 9.51221 12.3151H9.41559ZM9.49283 15.5557C9.00279 15.5557 8.60554 15.1584 8.60554 14.6684V14.5236C8.60554 14.0336 9.00279 13.6363 9.49283 13.6363V13.6363C9.98286 13.6363 10.3801 14.0336 10.3801 14.5236V14.6684C10.3801 15.1584 9.98286 15.5557 9.49283 15.5557V15.5557Z" fill="url(#paint1_linear_2110_4529)"/>
<defs>
<linearGradient id="paint0_linear_2110_4529" x1="1.61108" y1="-3.16277" x2="23.6084" y2="15.3239" gradientUnits="userSpaceOnUse">
<stop offset="0.0520833" stop-color="#AC4162"/>
<stop offset="0.807292" stop-color="#730034"/>
</linearGradient>
<linearGradient id="paint1_linear_2110_4529" x1="7.16669" y1="3.15148" x2="17.8791" y2="9.15335" gradientUnits="userSpaceOnUse">
<stop offset="0.0520833" stop-color="#AC4162"/>
<stop offset="0.807292" stop-color="#730034"/>
</linearGradient>
</defs>
</svg>
