<svg width="18" height="18" viewBox="0 0 18 18" fill="none" xmlns="http://www.w3.org/2000/svg">
<path d="M16.3125 2.83008H12.2906C11.4275 2.83008 10.5838 3.07793 9.85781 3.54551L9 4.0957L8.14219 3.54551C7.41693 3.07802 6.57224 2.82962 5.70937 2.83008H1.6875C1.37637 2.83008 1.125 3.08145 1.125 3.39258V13.377C1.125 13.6881 1.37637 13.9395 1.6875 13.9395H5.70937C6.57246 13.9395 7.41621 14.1873 8.14219 14.6549L8.92266 15.1576C8.94551 15.1717 8.97187 15.1805 8.99824 15.1805C9.02461 15.1805 9.05098 15.1734 9.07383 15.1576L9.8543 14.6549C10.582 14.1873 11.4275 13.9395 12.2906 13.9395H16.3125C16.6236 13.9395 16.875 13.6881 16.875 13.377V3.39258C16.875 3.08145 16.6236 2.83008 16.3125 2.83008ZM5.70937 12.6738H2.39062V4.0957H5.70937C6.33164 4.0957 6.93633 4.27324 7.4584 4.60899L8.31621 5.15918L8.4375 5.23828V13.3594C7.60078 12.9094 6.66562 12.6738 5.70937 12.6738ZM15.6094 12.6738H12.2906C11.3344 12.6738 10.3992 12.9094 9.5625 13.3594V5.23828L9.68379 5.15918L10.5416 4.60899C11.0637 4.27324 11.6684 4.0957 12.2906 4.0957H15.6094V12.6738ZM6.97676 6.3457H3.71074C3.64219 6.3457 3.58594 6.40547 3.58594 6.47754V7.26856C3.58594 7.34063 3.64219 7.40039 3.71074 7.40039H6.975C7.04355 7.40039 7.0998 7.34063 7.0998 7.26856V6.47754C7.10156 6.40547 7.04531 6.3457 6.97676 6.3457ZM10.8984 6.47754V7.26856C10.8984 7.34063 10.9547 7.40039 11.0232 7.40039H14.2875C14.3561 7.40039 14.4123 7.34063 14.4123 7.26856V6.47754C14.4123 6.40547 14.3561 6.3457 14.2875 6.3457H11.0232C10.9547 6.3457 10.8984 6.40547 10.8984 6.47754ZM6.97676 8.80664H3.71074C3.64219 8.80664 3.58594 8.86641 3.58594 8.93848V9.72949C3.58594 9.80156 3.64219 9.86133 3.71074 9.86133H6.975C7.04355 9.86133 7.0998 9.80156 7.0998 9.72949V8.93848C7.10156 8.86641 7.04531 8.80664 6.97676 8.80664ZM14.2893 8.80664H11.0232C10.9547 8.80664 10.8984 8.86641 10.8984 8.93848V9.72949C10.8984 9.80156 10.9547 9.86133 11.0232 9.86133H14.2875C14.3561 9.86133 14.4123 9.80156 14.4123 9.72949V8.93848C14.4141 8.86641 14.3578 8.80664 14.2893 8.80664Z" fill="#160706"/>
</svg>
