<svg width="18" height="18" viewBox="0 0 18 18" fill="none" xmlns="http://www.w3.org/2000/svg">
<path d="M7.5 2.025C8.58307 2.02401 9.64209 2.34427 10.5431 2.94527C11.4441 3.54627 12.1467 4.401 12.5618 5.40134C12.977 6.40168 13.0861 7.50268 12.8754 8.56505C12.6647 9.62743 12.1437 10.6034 11.3782 11.3696C10.6127 12.1358 9.63715 12.6578 8.57496 12.8694C7.51278 13.0811 6.41168 12.973 5.41097 12.5587C4.41025 12.1445 3.55488 11.4427 2.95306 10.5423C2.35123 9.6418 2.03 8.58307 2.03 7.5C2.03657 6.05083 2.61482 4.66281 3.63908 3.63761C4.66335 2.61241 6.05084 2.03289 7.5 2.025ZM7.5 1C6.21442 1 4.95772 1.38122 3.8888 2.09545C2.81988 2.80968 1.98676 3.82484 1.49479 5.01256C1.00282 6.20028 0.874095 7.50721 1.1249 8.76809C1.3757 10.029 1.99477 11.1872 2.90381 12.0962C3.81285 13.0052 4.97104 13.6243 6.23192 13.8751C7.49279 14.1259 8.79973 13.9972 9.98745 13.5052C11.1752 13.0132 12.1903 12.1801 12.9046 11.1112C13.6188 10.0423 14 8.78558 14 7.5C14 5.77609 13.3152 4.12279 12.0962 2.90381C10.8772 1.68482 9.22391 1 7.5 1Z" fill="#160706"/>
<path d="M16.835 16.145L13.15 12.435L12.44 13.14L16.125 16.85C16.1713 16.8966 16.2263 16.9337 16.2869 16.959C16.3475 16.9844 16.4125 16.9975 16.4782 16.9978C16.5439 16.998 16.609 16.9853 16.6698 16.9604C16.7306 16.9354 16.7859 16.8988 16.8325 16.8525C16.8791 16.8062 16.9162 16.7512 16.9415 16.6906C16.9669 16.63 16.98 16.565 16.9803 16.4993C16.9805 16.4336 16.9678 16.3685 16.9429 16.3077C16.918 16.2469 16.8813 16.1916 16.835 16.145Z" fill="#160706"/>
<circle cx="7.5" cy="7.5" r="4.5" fill="#160706"/>
</svg>
