<svg width="18" height="18" viewBox="0 0 18 18" fill="none" xmlns="http://www.w3.org/2000/svg">
<path d="M3.73002 6.5H14.27C14.4026 6.5 14.5298 6.44732 14.6236 6.35355C14.7173 6.25979 14.77 6.13261 14.77 6C14.77 5.86739 14.7173 5.74021 14.6236 5.64645C14.5298 5.55268 14.4026 5.5 14.27 5.5H3.73002C3.59741 5.5 3.47023 5.55268 3.37647 5.64645C3.2827 5.74021 3.23002 5.86739 3.23002 6C3.23002 6.13261 3.2827 6.25979 3.37647 6.35355C3.47023 6.44732 3.59741 6.5 3.73002 6.5Z" fill="#160706"/>
<path d="M7.41502 9.5H14.27C14.4026 9.5 14.5298 9.44732 14.6236 9.35355C14.7173 9.25979 14.77 9.13261 14.77 9C14.77 8.86739 14.7173 8.74021 14.6236 8.64645C14.5298 8.55268 14.4026 8.5 14.27 8.5H7.41502C7.28241 8.5 7.15523 8.55268 7.06147 8.64645C6.9677 8.74021 6.91502 8.86739 6.91502 9C6.91502 9.13261 6.9677 9.25979 7.06147 9.35355C7.15523 9.44732 7.28241 9.5 7.41502 9.5Z" fill="#160706"/>
<path d="M11.13 12.5H14.27C14.4026 12.5 14.5298 12.4473 14.6236 12.3536C14.7173 12.2598 14.77 12.1326 14.77 12C14.77 11.8674 14.7173 11.7402 14.6236 11.6464C14.5298 11.5527 14.4026 11.5 14.27 11.5H11.13C10.9974 11.5 10.8702 11.5527 10.7765 11.6464C10.6827 11.7402 10.63 11.8674 10.63 12C10.63 12.1326 10.6827 12.2598 10.7765 12.3536C10.8702 12.4473 10.9974 12.5 11.13 12.5Z" fill="#160706"/>
</svg>
