<svg width="18" height="18" viewBox="0 0 18 18" fill="none" xmlns="http://www.w3.org/2000/svg">
<path d="M13.595 17C13.374 16.9998 13.1582 16.9336 12.975 16.81L9.24502 14.31C9.22664 14.2973 9.20484 14.2905 9.18252 14.2905C9.16019 14.2905 9.13839 14.2973 9.12002 14.31L5.39002 16.81C5.20271 16.9351 4.9818 17.0002 4.7566 16.9967C4.53141 16.9933 4.31259 16.9214 4.12922 16.7907C3.94584 16.6599 3.80657 16.4765 3.72991 16.2647C3.65325 16.0529 3.64282 15.8228 3.70002 15.605L4.92502 11.285C4.93081 11.2633 4.93011 11.2403 4.923 11.219C4.91589 11.1977 4.90268 11.1789 4.88502 11.165L1.35502 8.39C1.16918 8.25156 1.03134 8.05844 0.960808 7.8377C0.890276 7.61697 0.890596 7.3797 0.961721 7.15915C1.03285 6.93861 1.17121 6.74586 1.35741 6.60792C1.54362 6.46998 1.76832 6.39378 2.00002 6.39L6.50002 6.22C6.52214 6.21847 6.54335 6.21058 6.5611 6.19727C6.57884 6.18396 6.59235 6.16581 6.60002 6.145L8.15002 1.93C8.22814 1.71632 8.37005 1.53181 8.55651 1.40145C8.74298 1.27109 8.965 1.20117 9.19252 1.20117C9.42003 1.20117 9.64205 1.27109 9.82852 1.40145C10.015 1.53181 10.1569 1.71632 10.235 1.93L11.785 6.145C11.7927 6.16581 11.8062 6.18396 11.8239 6.19727C11.8417 6.21058 11.8629 6.21847 11.885 6.22L16.385 6.39C16.6167 6.39378 16.8414 6.46998 17.0276 6.60792C17.2138 6.74586 17.3522 6.93861 17.4233 7.15915C17.4944 7.3797 17.4948 7.61697 17.4242 7.8377C17.3537 8.05844 17.2158 8.25156 17.03 8.39L13.5 11.165C13.4818 11.1785 13.4682 11.1972 13.461 11.2187C13.4539 11.2401 13.4535 11.2633 13.46 11.285L14.685 15.605C14.728 15.7707 14.7323 15.9441 14.6975 16.1117C14.6627 16.2793 14.5898 16.4367 14.4844 16.5716C14.379 16.7064 14.2439 16.8153 14.0897 16.8896C13.9355 16.9639 13.7662 17.0016 13.595 17ZM9.18502 13.29C9.40643 13.2968 9.6207 13.3699 9.80002 13.5L13.53 16C13.5489 16.0144 13.572 16.0222 13.5957 16.0224C13.6194 16.0226 13.6426 16.0151 13.6617 16.001C13.6809 15.987 13.6949 15.9671 13.7018 15.9444C13.7087 15.9217 13.7081 15.8973 13.7 15.875L12.475 11.555C12.4147 11.3431 12.4192 11.118 12.4878 10.9086C12.5564 10.6992 12.686 10.5152 12.86 10.38L16.39 7.605C16.4093 7.59147 16.4237 7.57213 16.4311 7.54981C16.4386 7.52749 16.4387 7.50336 16.4314 7.48098C16.4241 7.4586 16.4099 7.43915 16.3907 7.42547C16.3716 7.41179 16.3485 7.40462 16.325 7.405L11.825 7.235C11.6047 7.22641 11.3919 7.15239 11.2138 7.02237C11.0357 6.89236 10.9003 6.71224 10.825 6.505L9.27502 2.29C9.26803 2.26762 9.25407 2.24806 9.23518 2.23417C9.21629 2.22028 9.19346 2.21278 9.17002 2.21278C9.14657 2.21278 9.12374 2.22028 9.10485 2.23417C9.08596 2.24806 9.072 2.26762 9.06502 2.29L7.53002 6.5C7.45469 6.70724 7.31935 6.88736 7.14125 7.01737C6.96315 7.14739 6.75036 7.22141 6.53002 7.23L2.03002 7.4C2.00649 7.39962 1.98346 7.40679 1.96431 7.42047C1.94516 7.43415 1.9309 7.4536 1.92363 7.47598C1.91635 7.49836 1.91645 7.52249 1.9239 7.54481C1.93135 7.56713 1.94576 7.58647 1.96502 7.6L5.50002 10.38C5.67349 10.5156 5.80272 10.6997 5.87127 10.9089C5.93983 11.1182 5.94461 11.343 5.88502 11.555L4.66502 15.875C4.65773 15.8966 4.6577 15.92 4.66492 15.9417C4.67214 15.9634 4.68621 15.9821 4.70502 15.995C4.72313 16.0105 4.74618 16.019 4.77002 16.019C4.79385 16.019 4.8169 16.0105 4.83502 15.995L8.56502 13.495C8.74731 13.3741 8.96127 13.3097 9.18002 13.31L9.18502 13.29Z" fill="#160706"/>
</svg>
