<svg width="18" height="18" viewBox="0 0 18 18" fill="none" xmlns="http://www.w3.org/2000/svg">
<path d="M3.66664 5V14.7778C3.66251 14.9488 3.69211 15.119 3.75376 15.2785C3.81541 15.4381 3.9079 15.584 4.02594 15.7078C4.14398 15.8316 4.28527 15.931 4.44172 16.0002C4.59817 16.0694 4.76673 16.1071 4.93775 16.1111H13.04C13.2129 16.11 13.3838 16.0744 13.5429 16.0065C13.7019 15.9386 13.8458 15.8397 13.9662 15.7156C14.0866 15.5915 14.181 15.4446 14.2441 15.2836C14.3071 15.1226 14.3374 14.9506 14.3333 14.7778V5H3.66664ZM7.66664 13.8889H6.77775V7.22222H7.66664V13.8889ZM11.2222 13.8889H10.3333V7.22222H11.2222V13.8889Z" fill="#160706"/>
<path d="M14.6578 3.22222H11.2222V2.77777C11.2222 2.54203 11.1286 2.31593 10.9619 2.14924C10.7952 1.98254 10.5691 1.88889 10.3333 1.88889H7.57777C7.35775 1.911 7.15387 2.01432 7.00594 2.17868C6.85802 2.34305 6.77666 2.55665 6.77777 2.77777V3.22222H3.22222C3.10434 3.22222 2.9913 3.26904 2.90795 3.35239C2.8246 3.43574 2.77777 3.54879 2.77777 3.66666C2.77777 3.78454 2.8246 3.89758 2.90795 3.98093C2.9913 4.06428 3.10434 4.11111 3.22222 4.11111H14.6578C14.7756 4.11111 14.8887 4.06428 14.972 3.98093C15.0554 3.89758 15.1022 3.78454 15.1022 3.66666C15.1022 3.54879 15.0554 3.43574 14.972 3.35239C14.8887 3.26904 14.7756 3.22222 14.6578 3.22222Z" fill="#160706"/>
</svg>
