<svg width="18" height="18" viewBox="0 0 18 18" fill="none" xmlns="http://www.w3.org/2000/svg">
<path d="M13.0622 16.1111H4.93775C4.76673 16.1071 4.59817 16.0694 4.44172 16.0002C4.28527 15.931 4.14398 15.8316 4.02594 15.7078C3.9079 15.584 3.81541 15.4381 3.75376 15.2785C3.69211 15.1189 3.66251 14.9488 3.66664 14.7778V5.99109H4.55553V14.7778C4.55129 14.8321 4.55782 14.8867 4.57476 14.9385C4.5917 14.9902 4.6187 15.0382 4.65422 15.0795C4.68974 15.1208 4.73308 15.1546 4.78174 15.1791C4.8304 15.2036 4.88342 15.2183 4.93775 15.2222H13.0622C13.1165 15.2183 13.1696 15.2036 13.2182 15.1791C13.2669 15.1546 13.3102 15.1208 13.3457 15.0795C13.3812 15.0382 13.4083 14.9902 13.4252 14.9385C13.4421 14.8867 13.4487 14.8321 13.4444 14.7778V5.99109H14.3333V14.7778C14.3374 14.9488 14.3078 15.1189 14.2462 15.2785C14.1845 15.4381 14.092 15.584 13.974 15.7078C13.856 15.8316 13.7147 15.931 13.5582 16.0002C13.4018 16.0694 13.2332 16.1071 13.0622 16.1111Z" fill="#160706"/>
<path d="M14.68 5H3.22222C3.10434 5 2.9913 4.95318 2.90795 4.86983C2.8246 4.78648 2.77777 4.67343 2.77777 4.55556C2.77777 4.43768 2.8246 4.32464 2.90795 4.24129C2.9913 4.15794 3.10434 4.11111 3.22222 4.11111H14.68C14.7979 4.11111 14.9109 4.15794 14.9943 4.24129C15.0776 4.32464 15.1244 4.43768 15.1244 4.55556C15.1244 4.67343 15.0776 4.78648 14.9943 4.86983C14.9109 4.95318 14.7979 5 14.68 5Z" fill="#160706"/>
<path d="M10.3333 6.77777H11.2222V13.4444H10.3333V6.77777Z" fill="#160706"/>
<path d="M6.77777 6.77777H7.66666V13.4444H6.77777V6.77777Z" fill="#160706"/>
<path d="M11.2222 3.60444H10.3778V2.77777H7.62222V3.60444H6.77777V2.77777C6.77749 2.54953 6.86501 2.32992 7.02222 2.16444C7.17942 1.99896 7.39426 1.9003 7.62222 1.88889H10.3778C10.6057 1.9003 10.8206 1.99896 10.9778 2.16444C11.135 2.32992 11.2225 2.54953 11.2222 2.77777V3.60444Z" fill="#160706"/>
</svg>
