<svg width="18" height="18" viewBox="0 0 18 18" fill="none" xmlns="http://www.w3.org/2000/svg">
<path d="M11.715 8.415C11.6216 8.32019 11.4942 8.26639 11.3611 8.26545C11.2279 8.26452 11.0999 8.31651 11.005 8.41C10.9102 8.50349 10.8564 8.63081 10.8555 8.76396C10.8546 8.89712 10.9066 9.02519 11 9.12L12.86 11H3.91504C3.78243 11 3.65525 11.0527 3.56149 11.1464C3.46772 11.2402 3.41504 11.3674 3.41504 11.5C3.41504 11.6326 3.46772 11.7598 3.56149 11.8536C3.65525 11.9473 3.78243 12 3.91504 12H12.86L11 13.85C10.9537 13.8966 10.9171 13.9519 10.8922 14.0127C10.8672 14.0735 10.8545 14.1386 10.8548 14.2043C10.855 14.27 10.8682 14.335 10.8935 14.3956C10.9189 14.4562 10.9559 14.5112 11.0025 14.5575C11.0492 14.6038 11.1044 14.6404 11.1652 14.6654C11.226 14.6903 11.2911 14.703 11.3568 14.7028C11.4225 14.7025 11.4875 14.6894 11.5481 14.664C11.6087 14.6387 11.6637 14.6016 11.71 14.555L14.765 11.5L11.715 8.415Z" fill="black"/>
<path d="M6.61996 9.22501C6.71927 9.22559 6.81651 9.19658 6.89927 9.14167C6.98203 9.08677 7.04656 9.00847 7.08465 8.91675C7.12273 8.82503 7.13264 8.72404 7.1131 8.62667C7.09357 8.52929 7.04548 8.43994 6.97496 8.37001L5.11996 6.50001H14.06C14.1926 6.50001 14.3197 6.44733 14.4135 6.35356C14.5073 6.25979 14.56 6.13262 14.56 6.00001C14.56 5.8674 14.5073 5.74022 14.4135 5.64645C14.3197 5.55269 14.1926 5.50001 14.06 5.50001H5.11996L6.97496 3.63501C7.02125 3.58839 7.05791 3.53311 7.08283 3.47232C7.10776 3.41154 7.12047 3.34644 7.12024 3.28074C7.12001 3.21504 7.10684 3.15003 7.08148 3.08943C7.05613 3.02882 7.01908 2.9738 6.97246 2.92751C6.92584 2.88122 6.87056 2.84456 6.80978 2.81963C6.74899 2.79471 6.68389 2.782 6.61819 2.78223C6.48551 2.7827 6.35845 2.83586 6.26496 2.93001L3.20996 6.00001L6.26496 9.07001C6.31085 9.11816 6.36588 9.15667 6.42684 9.18328C6.4878 9.2099 6.55345 9.22408 6.61996 9.22501Z" fill="black"/>
</svg>
