<svg width="18" height="18" viewBox="0 0 18 18" fill="none" xmlns="http://www.w3.org/2000/svg">
<path d="M15.305 12.26C14.5016 11.3895 13.5266 10.6948 12.4415 10.2197C11.3563 9.74453 10.1846 9.49924 9 9.49924C7.81541 9.49924 6.64365 9.74453 5.55853 10.2197C4.4734 10.6948 3.49843 11.3895 2.695 12.26C2.57096 12.3972 2.50157 12.5751 2.5 12.76V15.76C2.50263 15.9572 2.58281 16.1454 2.72317 16.2839C2.86354 16.4224 3.05281 16.5 3.25 16.5H14.75C14.9489 16.5 15.1397 16.421 15.2803 16.2803C15.421 16.1397 15.5 15.9489 15.5 15.75V12.75C15.496 12.5685 15.4268 12.3946 15.305 12.26Z" fill="#160706"/>
<path d="M9 8.5C10.933 8.5 12.5 6.933 12.5 5C12.5 3.067 10.933 1.5 9 1.5C7.067 1.5 5.5 3.067 5.5 5C5.5 6.933 7.067 8.5 9 8.5Z" fill="#160706"/>
</svg>
