<svg width="18" height="18" viewBox="0 0 18 18" fill="none" xmlns="http://www.w3.org/2000/svg">
<path d="M5.99998 8.07H5.56498C4.97136 8.04854 4.37966 8.14932 3.82661 8.36607C3.27356 8.58281 2.77095 8.91091 2.34998 9.33L2.22998 9.47V13.61H4.26998V11.26L4.54498 10.95L4.66998 10.805C5.32094 10.1362 6.13137 9.64414 7.02498 9.375C6.57758 9.03456 6.22472 8.58532 5.99998 8.07Z" fill="#160706"/>
<path d="M15.67 9.31501C15.249 8.89593 14.7464 8.56783 14.1933 8.35108C13.6403 8.13433 13.0486 8.03356 12.455 8.05501C12.2729 8.05553 12.091 8.06554 11.91 8.08501C11.681 8.56847 11.3378 8.98891 10.91 9.31001C11.864 9.57394 12.7282 10.0925 13.41 10.81L13.535 10.95L13.805 11.26V13.615H15.775V9.45501L15.67 9.31501Z" fill="#160706"/>
<path d="M5.55 7.09499H5.705C5.63298 6.47661 5.74148 5.85061 6.01741 5.29254C6.29334 4.73447 6.7249 4.26819 7.26 3.94999C7.06603 3.65367 6.79843 3.4128 6.4834 3.25097C6.16837 3.08914 5.81672 3.0119 5.46287 3.02681C5.10902 3.04172 4.7651 3.14827 4.46481 3.33603C4.16451 3.52379 3.91812 3.78632 3.74977 4.09792C3.58143 4.40951 3.49689 4.75949 3.50443 5.11357C3.51198 5.46765 3.61135 5.81371 3.79283 6.11785C3.9743 6.42198 4.23165 6.67378 4.53967 6.84857C4.84769 7.02337 5.19583 7.11517 5.55 7.11499V7.09499Z" fill="#160706"/>
<path d="M12.215 6.72C12.2211 6.83492 12.2211 6.95008 12.215 7.065C12.3109 7.08021 12.4078 7.08856 12.505 7.09H12.6C12.9526 7.0712 13.2943 6.96141 13.5919 6.77134C13.8895 6.58126 14.1328 6.31737 14.2981 6.00536C14.4634 5.69334 14.5452 5.34383 14.5353 4.99086C14.5255 4.63789 14.4244 4.29349 14.2419 3.99118C14.0595 3.68886 13.8018 3.43895 13.4941 3.26576C13.1864 3.09257 12.8391 3.00202 12.486 3.00291C12.1328 3.00379 11.786 3.0961 11.4791 3.27083C11.1723 3.44556 10.9159 3.69677 10.735 4C11.1875 4.29547 11.5596 4.69865 11.818 5.17338C12.0763 5.64811 12.2127 6.17954 12.215 6.72Z" fill="#160706"/>
<path d="M8.93501 8.95999C10.1694 8.95999 11.17 7.95935 11.17 6.72499C11.17 5.49063 10.1694 4.48999 8.93501 4.48999C7.70066 4.48999 6.70001 5.49063 6.70001 6.72499C6.70001 7.95935 7.70066 8.95999 8.93501 8.95999Z" fill="#160706"/>
<path d="M9.055 10.15C8.40202 10.1236 7.75046 10.2296 7.13952 10.4616C6.52858 10.6936 5.97089 11.0468 5.5 11.5L5.375 11.64V14.805C5.37695 14.9081 5.39919 15.0098 5.44046 15.1043C5.48172 15.1988 5.5412 15.2842 5.61549 15.3557C5.68978 15.4272 5.77743 15.4834 5.87343 15.521C5.96943 15.5586 6.07191 15.577 6.175 15.575H11.92C12.0231 15.577 12.1256 15.5586 12.2216 15.521C12.3176 15.4834 12.4052 15.4272 12.4795 15.3557C12.5538 15.2842 12.6133 15.1988 12.6545 15.1043C12.6958 15.0098 12.718 14.9081 12.72 14.805V11.65L12.6 11.5C12.1322 11.0454 11.5764 10.6913 10.9668 10.4591C10.3572 10.227 9.70668 10.1218 9.055 10.15Z" fill="#160706"/>
</svg>
